<svg width="133" height="197" viewBox="0 0 133 197" fill="none" xmlns="http://www.w3.org/2000/svg">
<rect x="7.125" y="6.44922" width="120.8" height="118.984" fill="#2A2A2A"/>
<path d="M7.57768 0.772932C3.69006 0.772932 0.538557 3.92446 0.538557 7.81205V189.467C0.538557 193.354 3.69006 196.506 7.57768 196.506H125.653C129.541 196.506 132.692 193.354 132.692 189.467V7.81205C132.692 3.92445 129.541 0.772932 125.653 0.772932H7.57768ZM9.16716 15.9865C9.16716 12.3497 12.1153 9.40153 15.7521 9.40153H117.479C121.115 9.40153 124.064 12.3497 124.064 15.9865V117.713C124.064 121.35 121.115 124.298 117.479 124.298H15.7521C12.1153 124.298 9.16716 121.35 9.16716 117.713V15.9865Z" fill="white" stroke="#2A2A2A" stroke-width="0.454137"/>
<g opacity="0.8">
<path d="M108.4 176.751H42.2228C41.2195 176.751 40.4062 177.564 40.4062 178.568C40.4062 179.571 41.2195 180.384 42.2228 180.384H108.4C109.403 180.384 110.216 179.571 110.216 178.568C110.216 177.564 109.403 176.751 108.4 176.751Z" fill="#BBBBBB"/>
<path d="M21.5039 178.567C21.5039 177.564 22.317 176.751 23.32 176.751H52.6217V180.383H23.32C22.317 180.383 21.5039 179.57 21.5039 178.567Z" fill="#7B7B7B"/>
</g>
<path d="M14.0282 174.481C14.0061 174.481 13.9843 174.483 13.9625 174.487C12.8733 174.677 11.8734 175.282 11.2189 176.145H10.7574C9.75604 176.145 8.94141 176.921 8.94141 177.875V179.261C8.94141 180.215 9.75604 180.991 10.7574 180.991H11.2189C11.8723 181.853 12.8722 182.458 13.9621 182.649C14.0689 182.668 14.1779 182.641 14.2603 182.575C14.3435 182.509 14.391 182.412 14.391 182.309V174.827C14.391 174.724 14.3431 174.626 14.2603 174.56C14.1945 174.508 14.1125 174.48 14.0279 174.48L14.0282 174.481Z" fill="#626262"/>
<path d="M123.353 181.275C123.287 181.334 123.2 181.365 123.111 181.363C123.022 181.36 122.938 181.324 122.875 181.26C122.813 181.197 122.776 181.113 122.773 181.024C122.771 180.935 122.803 180.849 122.863 180.782C123.442 180.201 123.768 179.413 123.768 178.592C123.768 177.77 123.442 176.982 122.863 176.401C122.827 176.369 122.798 176.331 122.778 176.288C122.759 176.245 122.748 176.199 122.746 176.151C122.745 176.104 122.753 176.057 122.77 176.013C122.788 175.969 122.814 175.929 122.848 175.895C122.881 175.862 122.921 175.835 122.965 175.818C123.009 175.8 123.056 175.792 123.103 175.793C123.151 175.794 123.197 175.805 123.24 175.825C123.283 175.845 123.322 175.873 123.353 175.908C124.064 176.621 124.463 177.586 124.463 178.592C124.463 179.597 124.064 180.562 123.353 181.275Z" fill="#626262"/>
<path d="M122.415 180.23C122.383 180.264 122.344 180.29 122.302 180.308C122.259 180.326 122.214 180.336 122.167 180.337C122.121 180.337 122.075 180.328 122.033 180.31C121.99 180.293 121.951 180.267 121.918 180.235C121.885 180.202 121.86 180.163 121.842 180.12C121.825 180.077 121.816 180.032 121.816 179.985C121.817 179.939 121.826 179.894 121.845 179.851C121.863 179.809 121.89 179.77 121.923 179.738C122.226 179.433 122.396 179.022 122.396 178.591C122.396 178.162 122.226 177.75 121.923 177.445C121.89 177.413 121.863 177.375 121.845 177.332C121.826 177.29 121.817 177.244 121.816 177.198C121.816 177.152 121.825 177.106 121.842 177.063C121.86 177.02 121.885 176.982 121.918 176.949C121.951 176.916 121.99 176.89 122.033 176.873C122.075 176.855 122.121 176.846 122.167 176.847C122.214 176.847 122.259 176.857 122.302 176.875C122.344 176.893 122.383 176.92 122.415 176.953C122.849 177.388 123.093 177.978 123.093 178.591C123.093 179.206 122.849 179.795 122.415 180.23Z" fill="#626262"/>
<path d="M120.924 182.697C119.866 182.498 118.925 181.901 118.295 181.028H117.854C117.393 181.028 116.95 180.844 116.624 180.518C116.297 180.191 116.114 179.749 116.113 179.288V177.895C116.114 177.434 116.297 176.992 116.624 176.665C116.95 176.339 117.393 176.155 117.854 176.155H118.295C118.925 175.282 119.866 174.685 120.924 174.486C120.974 174.477 121.026 174.479 121.075 174.492C121.125 174.505 121.171 174.528 121.21 174.561C121.249 174.594 121.28 174.635 121.302 174.681C121.324 174.727 121.335 174.777 121.335 174.829V182.355C121.335 182.406 121.324 182.456 121.302 182.502C121.28 182.548 121.249 182.589 121.21 182.622C121.171 182.655 121.125 182.678 121.075 182.691C121.026 182.704 120.974 182.706 120.924 182.697Z" fill="#626262"/>
<path d="M73.8195 158.63C74.7278 158.105 74.7278 156.795 73.8195 156.27L63.9421 150.567C63.0338 150.043 61.8984 150.698 61.8984 151.747V163.153C61.8984 164.202 63.0338 164.857 63.9421 164.332L73.8195 158.63Z" fill="#898989"/>
<path d="M90.4845 158.042C91.053 157.714 91.053 156.894 90.4845 156.565L85.3413 153.596C84.7732 153.268 84.0625 153.678 84.0625 154.334V160.273C84.0625 160.929 84.7732 161.34 85.3413 161.011L90.4845 158.042Z" fill="#898989"/>
<path d="M97.4688 158.042C98.0374 157.714 98.0374 156.894 97.4688 156.565L92.3257 153.596C91.7576 153.268 91.0469 153.678 91.0469 154.334V160.273C91.0469 160.929 91.7576 161.34 92.3257 161.011L97.4688 158.042Z" fill="#898989"/>
<path d="M42.6294 158.042C42.061 157.714 42.061 156.894 42.6294 156.565L47.7725 153.596C48.3406 153.268 49.0513 153.678 49.0513 154.334V160.273C49.0513 160.929 48.3406 161.34 47.7725 161.011L42.6294 158.042Z" fill="#898989"/>
<path d="M35.6528 158.042C35.0845 157.714 35.0845 156.894 35.6528 156.565L40.7958 153.596C41.3642 153.268 42.0746 153.678 42.0746 154.334V160.273C42.0746 160.929 41.3642 161.34 40.7958 161.011L35.6528 158.042Z" fill="#898989"/>
</svg>
