<svg width="134" height="197" viewBox="0 0 134 197" fill="none" xmlns="http://www.w3.org/2000/svg">
<rect x="5.39453" y="5.61914" width="120.346" height="186.196" fill="#2A2A2A"/>
<mask id="path-2-outside-1_1596_3967" maskUnits="userSpaceOnUse" x="0.300781" y="-0.375977" width="134" height="197" fill="black">
<rect fill="white" x="0.300781" y="-0.375977" width="134" height="197"/>
<path fill-rule="evenodd" clip-rule="evenodd" d="M8.11283 0.624023C4.35064 0.624023 1.30078 3.67389 1.30078 7.43608V189.091C1.30078 192.853 4.35065 195.903 8.11284 195.903H126.188C129.951 195.903 133 192.853 133 189.091V7.43608C133 3.67388 129.951 0.624023 126.188 0.624023H8.11283ZM43.4112 16.3641C38.284 16.1482 35.2014 16.6518 30.4683 18.6348C22.2929 22.06 16.1666 31.8993 12.3808 43.1926C7.00805 59.2194 7.55909 76.8068 17.8339 86.1316C18.9534 87.1476 20.0639 88.084 21.1441 88.9948C25.3694 92.5576 29.1306 95.729 31.1495 101.742C33.92 109.993 31.2773 112.573 26.1123 117.615C25.019 118.682 23.8127 119.86 22.5209 121.225C17.7724 126.242 17.0563 132.564 17.9795 136.256C18.9357 140.081 21.3064 142.955 23.1172 145.15C23.8865 146.082 24.5547 146.892 24.9705 147.6C26.8303 150.769 26.7532 155.894 24.484 158.812C23.7038 159.815 22.8312 160.731 21.9596 161.647C20.4047 163.28 18.8528 164.91 17.8343 167.022C15.5625 171.734 16.4628 176.1 19.1152 180.308C20.5958 182.656 23.6209 185.164 27.3628 186.89C31.0764 188.604 33.9887 188.748 37.6414 188.897C43.8464 189.151 49.511 188.653 54.894 185.35C55.7358 184.833 56.4556 184.29 57.1727 183.748C58.3138 182.887 59.4482 182.03 61.0571 181.295C62.9499 180.429 65.5009 179.33 68.512 179.327C71.5064 179.324 73.0978 180.294 75.2299 181.594C76.3431 182.273 77.6037 183.042 79.2883 183.809C79.7018 183.997 80.0992 184.179 80.4835 184.355C84.8562 186.359 87.5144 187.577 92.4583 188.028C96.555 188.401 99.7197 187.914 102.962 187.235C106.58 186.478 110.18 185.374 113.525 183.809C117.772 181.82 119.962 179.154 121.593 174.686C123.519 169.411 122.686 164.326 120.215 160.373C118.953 158.354 115.39 155.345 115.39 155.345C115.39 155.345 112.961 152.977 112.288 151.006C110.952 147.096 115.187 140.829 115.187 140.829C115.187 140.829 118.1 138.3 119.384 134.524C120.432 131.441 120.642 129.318 119.728 126.192C119.107 124.066 118.344 122.632 116.991 121.225C115.987 120.18 115.032 119.311 114.133 118.492C111.933 116.49 110.066 114.791 108.618 111.554C107.848 109.831 107.474 108.81 107.139 106.952C106.398 102.849 106.648 99.8437 108.395 96.3494C110.247 92.6468 112.375 89.2592 115.146 86.1316C115.431 85.8105 115.715 85.4916 115.998 85.174C119.643 81.0848 123.091 77.2164 124.432 71.6564C126.831 61.703 122.826 55.9089 119.426 50.989C118.973 50.3337 118.531 49.6939 118.116 49.0619C117.582 48.2488 117.079 47.5304 116.611 46.8614C114.398 43.7017 112.956 41.6413 112.666 35.8919C112.529 33.1772 112.888 30.8978 113.231 28.7261C113.775 25.2688 114.277 22.0845 112.666 17.8509C111.365 14.4325 108.621 12.91 106.759 11.8767C106.617 11.7976 106.479 11.7213 106.348 11.6472C100.756 8.49292 95.5725 7.72846 88.4262 7.91693C81.0157 8.11236 75.5342 11.1942 70.1654 14.2127C67.8464 15.5165 65.5484 16.8084 63.125 17.8509C61.4829 18.5573 58.3977 19.316 54.3104 18.8619C52.4582 18.6561 50.9789 18.1631 49.4922 17.6677C47.6984 17.07 45.894 16.4687 43.4112 16.3641Z"/>
</mask>
<path fill-rule="evenodd" clip-rule="evenodd" d="M8.11283 0.624023C4.35064 0.624023 1.30078 3.67389 1.30078 7.43608V189.091C1.30078 192.853 4.35065 195.903 8.11284 195.903H126.188C129.951 195.903 133 192.853 133 189.091V7.43608C133 3.67388 129.951 0.624023 126.188 0.624023H8.11283ZM43.4112 16.3641C38.284 16.1482 35.2014 16.6518 30.4683 18.6348C22.2929 22.06 16.1666 31.8993 12.3808 43.1926C7.00805 59.2194 7.55909 76.8068 17.8339 86.1316C18.9534 87.1476 20.0639 88.084 21.1441 88.9948C25.3694 92.5576 29.1306 95.729 31.1495 101.742C33.92 109.993 31.2773 112.573 26.1123 117.615C25.019 118.682 23.8127 119.86 22.5209 121.225C17.7724 126.242 17.0563 132.564 17.9795 136.256C18.9357 140.081 21.3064 142.955 23.1172 145.15C23.8865 146.082 24.5547 146.892 24.9705 147.6C26.8303 150.769 26.7532 155.894 24.484 158.812C23.7038 159.815 22.8312 160.731 21.9596 161.647C20.4047 163.28 18.8528 164.91 17.8343 167.022C15.5625 171.734 16.4628 176.1 19.1152 180.308C20.5958 182.656 23.6209 185.164 27.3628 186.89C31.0764 188.604 33.9887 188.748 37.6414 188.897C43.8464 189.151 49.511 188.653 54.894 185.35C55.7358 184.833 56.4556 184.29 57.1727 183.748C58.3138 182.887 59.4482 182.03 61.0571 181.295C62.9499 180.429 65.5009 179.33 68.512 179.327C71.5064 179.324 73.0978 180.294 75.2299 181.594C76.3431 182.273 77.6037 183.042 79.2883 183.809C79.7018 183.997 80.0992 184.179 80.4835 184.355C84.8562 186.359 87.5144 187.577 92.4583 188.028C96.555 188.401 99.7197 187.914 102.962 187.235C106.58 186.478 110.18 185.374 113.525 183.809C117.772 181.82 119.962 179.154 121.593 174.686C123.519 169.411 122.686 164.326 120.215 160.373C118.953 158.354 115.39 155.345 115.39 155.345C115.39 155.345 112.961 152.977 112.288 151.006C110.952 147.096 115.187 140.829 115.187 140.829C115.187 140.829 118.1 138.3 119.384 134.524C120.432 131.441 120.642 129.318 119.728 126.192C119.107 124.066 118.344 122.632 116.991 121.225C115.987 120.18 115.032 119.311 114.133 118.492C111.933 116.49 110.066 114.791 108.618 111.554C107.848 109.831 107.474 108.81 107.139 106.952C106.398 102.849 106.648 99.8437 108.395 96.3494C110.247 92.6468 112.375 89.2592 115.146 86.1316C115.431 85.8105 115.715 85.4916 115.998 85.174C119.643 81.0848 123.091 77.2164 124.432 71.6564C126.831 61.703 122.826 55.9089 119.426 50.989C118.973 50.3337 118.531 49.6939 118.116 49.0619C117.582 48.2488 117.079 47.5304 116.611 46.8614C114.398 43.7017 112.956 41.6413 112.666 35.8919C112.529 33.1772 112.888 30.8978 113.231 28.7261C113.775 25.2688 114.277 22.0845 112.666 17.8509C111.365 14.4325 108.621 12.91 106.759 11.8767C106.617 11.7976 106.479 11.7213 106.348 11.6472C100.756 8.49292 95.5725 7.72846 88.4262 7.91693C81.0157 8.11236 75.5342 11.1942 70.1654 14.2127C67.8464 15.5165 65.5484 16.8084 63.125 17.8509C61.4829 18.5573 58.3977 19.316 54.3104 18.8619C52.4582 18.6561 50.9789 18.1631 49.4922 17.6677C47.6984 17.07 45.894 16.4687 43.4112 16.3641Z" fill="white"/>
<path d="M30.4683 18.6348L30.6438 19.0537L30.4683 18.6348ZM43.4112 16.3641L43.3921 16.8179L43.4112 16.3641ZM12.3808 43.1926L11.9502 43.0483L12.3808 43.1926ZM17.8339 86.1316L17.5287 86.4679L17.8339 86.1316ZM21.1441 88.9948L21.4369 88.6476L21.4369 88.6476L21.1441 88.9948ZM31.1495 101.742L30.719 101.886L31.1495 101.742ZM26.1123 117.615L25.7951 117.29L26.1123 117.615ZM22.5209 121.225L22.191 120.913L22.5209 121.225ZM17.9795 136.256L17.5389 136.366L17.9795 136.256ZM23.1172 145.15L23.4675 144.861H23.4675L23.1172 145.15ZM24.9705 147.6L25.3622 147.371H25.3622L24.9705 147.6ZM24.484 158.812L24.1255 158.533H24.1255L24.484 158.812ZM21.9596 161.647L22.2885 161.96L21.9596 161.647ZM17.8343 167.022L18.2434 167.22L17.8343 167.022ZM19.1152 180.308L19.4994 180.065L19.1152 180.308ZM27.3628 186.89L27.5531 186.478H27.553L27.3628 186.89ZM37.6414 188.897L37.6229 189.351L37.6414 188.897ZM54.894 185.35L54.6565 184.962L54.894 185.35ZM57.1727 183.748L57.4463 184.111L57.1727 183.748ZM61.0571 181.295L61.246 181.708V181.708L61.0571 181.295ZM68.512 179.327L68.5124 179.781L68.512 179.327ZM75.2299 181.594L74.9934 181.982L75.2299 181.594ZM79.2883 183.809L79.1002 184.222L79.2883 183.809ZM80.4835 184.355L80.2943 184.768H80.2943L80.4835 184.355ZM92.4583 188.028L92.4995 187.576L92.4583 188.028ZM102.962 187.235L102.869 186.79H102.869L102.962 187.235ZM113.525 183.809L113.717 184.22L113.525 183.809ZM121.593 174.686L121.167 174.53L121.593 174.686ZM120.215 160.373L120.6 160.132L120.215 160.373ZM115.39 155.345L115.073 155.67L115.084 155.681L115.097 155.692L115.39 155.345ZM112.288 151.006L112.718 150.86L112.288 151.006ZM115.187 140.829L114.889 140.486L114.844 140.525L114.811 140.575L115.187 140.829ZM119.384 134.524L118.954 134.378L119.384 134.524ZM119.728 126.192L119.292 126.319V126.319L119.728 126.192ZM116.991 121.225L117.319 120.91L116.991 121.225ZM114.133 118.492L114.438 118.156L114.133 118.492ZM108.618 111.554L108.204 111.74L108.618 111.554ZM107.139 106.952L106.692 107.033L107.139 106.952ZM108.395 96.3494L107.989 96.1463L108.395 96.3494ZM115.146 86.1316L114.807 85.8304L115.146 86.1316ZM115.998 85.174L115.659 84.8719L115.998 85.174ZM124.432 71.6564L124.873 71.7628L124.432 71.6564ZM119.426 50.989L119.052 51.2472L119.052 51.2472L119.426 50.989ZM118.116 49.0619L117.736 49.3111L118.116 49.0619ZM116.611 46.8614L116.239 47.1218L116.611 46.8614ZM112.666 35.8919L113.12 35.8691V35.8691L112.666 35.8919ZM113.231 28.7261L112.782 28.6554L113.231 28.7261ZM112.666 17.8509L113.091 17.6894V17.6894L112.666 17.8509ZM106.759 11.8767L106.98 11.4796V11.4796L106.759 11.8767ZM106.348 11.6472L106.571 11.2517V11.2517L106.348 11.6472ZM88.4262 7.91693L88.4382 8.37091L88.4262 7.91693ZM70.1654 14.2127L69.9428 13.8168L70.1654 14.2127ZM63.125 17.8509L63.3045 18.2681L63.125 17.8509ZM54.3104 18.8619L54.2603 19.3132L54.3104 18.8619ZM49.4922 17.6677L49.3487 18.0986L49.4922 17.6677ZM1.75492 7.43608C1.75492 3.9247 4.60145 1.07816 8.11283 1.07816V0.169887C4.09983 0.169887 0.846645 3.42307 0.846645 7.43608H1.75492ZM1.75492 189.091V7.43608H0.846645V189.091H1.75492ZM8.11284 195.449C4.60146 195.449 1.75492 192.602 1.75492 189.091H0.846645C0.846645 193.104 4.09984 196.357 8.11284 196.357V195.449ZM126.188 195.449H8.11284V196.357H126.188V195.449ZM132.546 189.091C132.546 192.602 129.7 195.449 126.188 195.449V196.357C130.201 196.357 133.455 193.104 133.455 189.091H132.546ZM132.546 7.43608V189.091H133.455V7.43608H132.546ZM126.188 1.07816C129.7 1.07816 132.546 3.9247 132.546 7.43608H133.455C133.455 3.42307 130.201 0.169887 126.188 0.169887V1.07816ZM8.11283 1.07816H126.188V0.169887H8.11283V1.07816ZM30.6438 19.0537C35.312 17.0979 38.3278 16.6046 43.3921 16.8179L43.4303 15.9104C38.2402 15.6919 35.0907 16.2058 30.2928 18.216L30.6438 19.0537ZM12.8113 43.3369C16.5884 32.0698 22.6593 22.3988 30.6438 19.0537L30.2928 18.216C21.9265 21.7211 15.7448 31.7288 11.9502 43.0483L12.8113 43.3369ZM18.1391 85.7953C13.1083 81.2296 10.4344 74.6201 9.69143 67.1305C8.94847 59.641 10.141 51.3025 12.8113 43.3369L11.9502 43.0483C9.24779 51.1095 8.02951 59.5782 8.7876 67.2202C9.54569 74.8623 12.2848 81.7088 17.5287 86.4679L18.1391 85.7953ZM21.4369 88.6476C20.3559 87.7361 19.2516 86.8049 18.1391 85.7953L17.5287 86.4679C18.6553 87.4903 19.772 88.4319 20.8514 89.342L21.4369 88.6476ZM31.58 101.597C29.5162 95.4509 25.6587 92.2074 21.4369 88.6476L20.8514 89.342C25.0802 92.9077 28.7449 96.0071 30.719 101.886L31.58 101.597ZM26.4295 117.94C28.9905 115.44 31.0229 113.467 32.026 111.057C33.0453 108.607 32.9829 105.776 31.58 101.597L30.719 101.886C32.0866 105.96 32.0882 108.543 31.1875 110.708C30.2706 112.91 28.3992 114.748 25.7951 117.29L26.4295 117.94ZM22.8507 121.537C24.1356 120.179 25.3359 119.008 26.4295 117.94L25.7951 117.29C24.7022 118.357 23.4899 119.54 22.191 120.913L22.8507 121.537ZM18.4201 136.146C17.532 132.594 18.2158 126.434 22.8507 121.537L22.191 120.913C17.3289 126.05 16.5807 132.533 17.5389 136.366L18.4201 136.146ZM23.4675 144.861C21.6512 142.659 19.3481 139.858 18.4201 136.146L17.5389 136.366C18.5233 140.304 20.9615 143.25 22.7669 145.439L23.4675 144.861ZM25.3622 147.371C24.9239 146.624 24.228 145.782 23.4675 144.861L22.7669 145.439C23.5449 146.382 24.1856 147.16 24.5789 147.83L25.3622 147.371ZM24.8424 159.09C26.051 157.537 26.6567 155.425 26.7295 153.316C26.8023 151.205 26.3438 149.043 25.3622 147.371L24.5789 147.83C25.457 149.326 25.8898 151.311 25.8218 153.284C25.7536 155.259 25.1862 157.169 24.1255 158.533L24.8424 159.09ZM22.2885 161.96C23.1576 161.047 24.046 160.114 24.8424 159.09L24.1255 158.533C23.3616 159.515 22.5049 160.415 21.6307 161.334L22.2885 161.96ZM18.2434 167.22C19.2261 165.181 20.7263 163.601 22.2885 161.96L21.6307 161.334C20.083 162.959 18.4796 164.638 17.4252 166.825L18.2434 167.22ZM19.4994 180.065C16.9045 175.949 16.0583 171.752 18.2434 167.22L17.4252 166.825C15.0667 171.717 16.0211 176.251 18.731 180.55L19.4994 180.065ZM27.553 186.478C23.8653 184.776 20.9201 182.319 19.4994 180.065L18.731 180.55C20.2715 182.993 23.3764 185.551 27.1725 187.303L27.553 186.478ZM37.6599 188.444C34.0118 188.295 31.1787 188.151 27.5531 186.478L27.1725 187.303C30.9741 189.057 33.9657 189.202 37.6229 189.351L37.6599 188.444ZM54.6565 184.962C49.3878 188.196 43.8321 188.696 37.6599 188.444L37.6229 189.351C43.8607 189.606 49.6342 189.11 55.1315 185.737L54.6565 184.962ZM56.8991 183.386C56.1802 183.928 55.477 184.459 54.6565 184.962L55.1315 185.737C55.9946 185.207 56.7309 184.651 57.4463 184.111L56.8991 183.386ZM60.8683 180.882C59.2095 181.64 58.0399 182.525 56.8991 183.386L57.4463 184.111C58.5876 183.249 59.6869 182.421 61.246 181.708L60.8683 180.882ZM68.5115 178.873C65.3941 178.876 62.7648 180.015 60.8683 180.882L61.246 181.708C63.1349 180.844 65.6078 179.784 68.5124 179.781L68.5115 178.873ZM75.4663 181.207C73.3248 179.901 71.6405 178.87 68.5115 178.873L68.5124 179.781C71.3724 179.778 72.8708 180.688 74.9934 181.982L75.4663 181.207ZM79.4765 183.395C77.8189 182.641 76.5786 181.885 75.4663 181.207L74.9934 181.982C76.1075 182.661 77.3884 183.443 79.1002 184.222L79.4765 183.395ZM80.6727 183.942C80.2885 183.766 79.8905 183.584 79.4765 183.395L79.1002 184.222C79.513 184.41 79.91 184.592 80.2943 184.768L80.6727 183.942ZM92.4995 187.576C87.6379 187.132 85.0398 185.943 80.6727 183.942L80.2943 184.768C84.6727 186.774 87.3908 188.022 92.417 188.48L92.4995 187.576ZM102.869 186.79C99.6468 187.465 96.5322 187.943 92.4995 187.576L92.417 188.48C96.5778 188.86 99.7925 188.362 103.055 187.679L102.869 186.79ZM113.332 183.397C110.026 184.945 106.46 186.039 102.869 186.79L103.055 187.679C106.699 186.917 110.334 185.804 113.717 184.22L113.332 183.397ZM121.167 174.53C120.364 176.73 119.433 178.46 118.198 179.879C116.964 181.296 115.41 182.425 113.332 183.397L113.717 184.22C115.887 183.204 117.551 182.005 118.883 180.475C120.213 178.947 121.192 177.109 122.02 174.841L121.167 174.53ZM119.83 160.613C122.23 164.453 123.043 169.392 121.167 174.53L122.02 174.841C123.996 169.429 123.142 164.199 120.6 160.132L119.83 160.613ZM115.39 155.345C115.097 155.692 115.097 155.692 115.097 155.692C115.097 155.692 115.097 155.692 115.097 155.692C115.097 155.692 115.097 155.692 115.097 155.692C115.098 155.693 115.098 155.693 115.099 155.694C115.101 155.695 115.103 155.697 115.106 155.7C115.113 155.705 115.122 155.714 115.135 155.725C115.161 155.747 115.199 155.779 115.249 155.822C115.347 155.907 115.49 156.031 115.665 156.187C116.016 156.497 116.496 156.933 117.015 157.43C118.064 158.435 119.232 159.658 119.83 160.613L120.6 160.132C119.936 159.07 118.691 157.778 117.643 156.774C117.114 156.267 116.625 155.823 116.268 155.507C116.089 155.349 115.943 155.222 115.842 155.134C115.791 155.091 115.752 155.057 115.725 155.034C115.711 155.022 115.701 155.013 115.694 155.007C115.69 155.004 115.688 155.002 115.686 155.001C115.685 155 115.684 154.999 115.684 154.999C115.683 154.998 115.683 154.998 115.683 154.998C115.683 154.998 115.683 154.998 115.683 154.998C115.683 154.998 115.683 154.998 115.39 155.345ZM111.858 151.153C112.223 152.221 113.044 153.359 113.741 154.204C114.094 154.632 114.426 154.997 114.669 155.256C114.791 155.385 114.891 155.488 114.961 155.558C114.996 155.594 115.023 155.621 115.042 155.64C115.052 155.65 115.059 155.657 115.064 155.662C115.067 155.664 115.069 155.666 115.07 155.668C115.071 155.668 115.072 155.669 115.072 155.669C115.072 155.67 115.072 155.67 115.072 155.67C115.073 155.67 115.073 155.67 115.073 155.67C115.073 155.67 115.073 155.67 115.39 155.345C115.707 155.02 115.707 155.02 115.707 155.02C115.707 155.02 115.707 155.02 115.707 155.02C115.707 155.02 115.707 155.02 115.707 155.02C115.707 155.02 115.706 155.019 115.706 155.019C115.705 155.018 115.703 155.016 115.701 155.014C115.697 155.01 115.691 155.004 115.682 154.996C115.665 154.979 115.64 154.953 115.607 154.92C115.542 154.854 115.447 154.756 115.33 154.633C115.097 154.385 114.78 154.035 114.442 153.626C113.756 152.794 113.026 151.763 112.718 150.86L111.858 151.153ZM115.187 140.829C114.811 140.575 114.811 140.575 114.811 140.575C114.811 140.575 114.81 140.575 114.81 140.576C114.81 140.576 114.81 140.576 114.81 140.577C114.809 140.578 114.808 140.579 114.807 140.581C114.805 140.584 114.801 140.589 114.797 140.596C114.788 140.609 114.776 140.627 114.76 140.652C114.728 140.7 114.682 140.772 114.624 140.863C114.508 141.047 114.345 141.312 114.153 141.642C113.771 142.301 113.275 143.222 112.82 144.271C112.366 145.317 111.948 146.501 111.731 147.684C111.514 148.863 111.49 150.074 111.858 151.153L112.718 150.86C112.418 149.983 112.422 148.944 112.624 147.849C112.825 146.757 113.215 145.641 113.653 144.632C114.09 143.625 114.569 142.735 114.939 142.097C115.124 141.779 115.281 141.524 115.391 141.349C115.447 141.262 115.49 141.194 115.52 141.149C115.534 141.127 115.546 141.11 115.553 141.099C115.557 141.093 115.559 141.089 115.561 141.087C115.562 141.085 115.563 141.085 115.563 141.084C115.563 141.084 115.563 141.084 115.563 141.083C115.563 141.083 115.563 141.083 115.563 141.083C115.563 141.083 115.563 141.083 115.187 140.829ZM118.954 134.378C118.334 136.199 117.318 137.729 116.45 138.808C116.017 139.346 115.623 139.769 115.339 140.055C115.198 140.199 115.083 140.308 115.005 140.381C114.966 140.417 114.936 140.444 114.917 140.462C114.907 140.471 114.899 140.477 114.895 140.481C114.893 140.483 114.891 140.485 114.89 140.486C114.89 140.486 114.889 140.486 114.889 140.486C114.889 140.486 114.889 140.487 114.889 140.486C114.889 140.486 114.889 140.486 114.889 140.486C114.889 140.486 114.889 140.486 115.187 140.829C115.485 141.172 115.485 141.172 115.485 141.172C115.485 141.172 115.485 141.172 115.485 141.172C115.485 141.171 115.486 141.171 115.486 141.171C115.487 141.171 115.487 141.17 115.488 141.169C115.49 141.167 115.493 141.165 115.496 141.162C115.503 141.156 115.512 141.148 115.524 141.138C115.547 141.116 115.581 141.086 115.624 141.045C115.711 140.965 115.834 140.847 115.985 140.694C116.287 140.389 116.702 139.943 117.158 139.377C118.067 138.248 119.149 136.625 119.814 134.67L118.954 134.378ZM119.292 126.319C119.738 127.844 119.904 129.105 119.838 130.35C119.772 131.599 119.471 132.856 118.954 134.378L119.814 134.67C120.345 133.109 120.673 131.763 120.745 130.398C120.818 129.029 120.632 127.665 120.164 126.064L119.292 126.319ZM116.664 121.539C117.956 122.884 118.687 124.248 119.292 126.319L120.164 126.064C119.527 123.884 118.732 122.381 117.319 120.91L116.664 121.539ZM113.827 118.828C114.727 119.647 115.671 120.507 116.664 121.539L117.319 120.91C116.302 119.852 115.337 118.974 114.438 118.156L113.827 118.828ZM108.204 111.74C109.693 115.07 111.625 116.824 113.827 118.828L114.438 118.156C112.241 116.157 110.439 114.512 109.033 111.369L108.204 111.74ZM106.692 107.033C107.035 108.937 107.423 109.994 108.204 111.74L109.033 111.369C108.272 109.668 107.912 108.683 107.585 106.872L106.692 107.033ZM107.989 96.1463C106.19 99.7458 105.938 102.854 106.692 107.033L107.585 106.872C106.859 102.843 107.107 99.9415 108.802 96.5525L107.989 96.1463ZM114.807 85.8304C112.003 88.9946 109.854 92.4176 107.989 96.1463L108.802 96.5525C110.64 92.876 112.748 89.5238 115.486 86.4328L114.807 85.8304ZM115.659 84.8719C115.376 85.1893 115.092 85.5087 114.807 85.8304L115.486 86.4328C115.77 86.1123 116.054 85.7939 116.337 85.4762L115.659 84.8719ZM123.99 71.55C122.681 76.9829 119.314 80.7712 115.659 84.8719L116.337 85.4762C119.972 81.3984 123.502 77.4499 124.873 71.7628L123.99 71.55ZM119.052 51.2472C120.756 53.7124 122.571 56.3421 123.674 59.5816C124.772 62.8073 125.17 66.6565 123.99 71.55L124.873 71.7628C126.093 66.7029 125.688 62.6784 124.534 59.2888C123.384 55.9128 121.496 53.1855 119.799 50.7308L119.052 51.2472ZM117.736 49.3111C118.155 49.9485 118.6 50.5928 119.052 51.2472L119.799 50.7308C119.346 50.0746 118.907 49.4394 118.495 48.8127L117.736 49.3111ZM116.239 47.1218C116.707 47.7913 117.207 48.5044 117.736 49.3111L118.495 48.8127C117.957 47.9931 117.451 47.2696 116.983 46.6009L116.239 47.1218ZM112.213 35.9148C112.359 38.8259 112.8 40.8322 113.498 42.5213C114.193 44.2034 115.137 45.548 116.239 47.1218L116.983 46.6009C115.872 45.0151 114.988 43.7496 114.337 42.1743C113.689 40.6059 113.263 38.7074 113.12 35.8691L112.213 35.9148ZM112.782 28.6554C112.44 30.8255 112.073 33.1475 112.213 35.9148L113.12 35.8691C112.985 33.2068 113.337 30.97 113.679 28.7968L112.782 28.6554ZM112.242 18.0124C113.806 22.1248 113.326 25.2036 112.782 28.6554L113.679 28.7968C114.225 25.3341 114.747 22.0441 113.091 17.6894L112.242 18.0124ZM106.539 12.2739C108.403 13.3083 111.005 14.7632 112.242 18.0124L113.091 17.6894C111.726 14.1019 108.84 12.5116 106.98 11.4796L106.539 12.2739ZM106.125 12.0428C106.258 12.1178 106.397 12.1948 106.539 12.2739L106.98 11.4796C106.837 11.4003 106.701 11.3248 106.571 11.2517L106.125 12.0428ZM88.4382 8.37091C95.5376 8.18367 100.63 8.94328 106.125 12.0428L106.571 11.2517C100.882 8.04256 95.6075 7.27324 88.4142 7.46295L88.4382 8.37091ZM70.3879 14.6085C75.7629 11.5866 81.1538 8.56302 88.4382 8.37091L88.4142 7.46295C80.8777 7.66171 75.3055 10.8018 69.9428 13.8168L70.3879 14.6085ZM63.3045 18.2681C65.7536 17.2145 68.0725 15.9103 70.3879 14.6085L69.9428 13.8168C67.6202 15.1226 65.3431 16.4024 62.9456 17.4337L63.3045 18.2681ZM54.2603 19.3132C58.4256 19.7761 61.59 19.0056 63.3045 18.2681L62.9456 17.4337C61.3758 18.109 58.3697 18.856 54.3606 18.4105L54.2603 19.3132ZM49.3487 18.0986C50.8336 18.5934 52.3546 19.1015 54.2603 19.3132L54.3606 18.4105C52.5618 18.2107 51.1241 17.7328 49.6358 17.2369L49.3487 18.0986ZM43.3921 16.8179C45.8055 16.9195 47.5568 17.5015 49.3487 18.0986L49.6358 17.2369C47.84 16.6385 45.9825 16.0179 43.4303 15.9104L43.3921 16.8179Z" fill="#2A2A2A" mask="url(#path-2-outside-1_1596_3967)"/>
<path d="M7.99218 4.06774C6.52271 4.10856 6.28458 5.08538 5.68303 6.27223C4.72904 8.15442 3.77042 10.1629 3.88412 12.3231C3.94938 13.5631 4.58183 15.1136 5.71144 15.766M5.71144 15.766C6.05898 15.9667 6.45358 16.0824 6.89321 16.0779C7.50618 16.0717 8.44057 16.0411 8.81641 15.4565C9.27934 14.7364 9.2397 13.5493 9.16965 12.7287C9.12326 12.1852 8.04418 12.2751 7.69127 12.4147C6.92349 12.7184 6.47904 13.7675 6.18126 14.4704L6.17364 14.4884C6.00252 14.8922 5.84668 15.322 5.71144 15.766ZM5.71144 15.766C5.3752 16.8698 5.16625 18.0612 5.16625 19.159C5.16625 20.9476 5.20271 22.5092 5.99048 24.0847M20.8899 193.318C19.8676 192.295 19.2484 190.552 19.2307 189.101C19.2156 187.865 19.6657 187.698 20.7977 187.718C21.518 187.731 22.0376 187.933 22.4914 188.496C22.8572 188.949 22.9557 189.53 23.298 189.999C23.7432 190.609 24.2887 190.863 24.9341 191.186C26.0078 191.723 27.2376 191.891 28.3792 192.258C29.4946 192.616 30.5034 192.799 31.6745 192.799M9.50755 8.25292C9.58021 7.1629 10.3147 6.30161 11.1773 5.71076C11.8065 5.27983 12.4653 4.90443 13.1332 4.53818C13.6325 4.26434 14.1139 3.88452 14.6575 3.70331C15.7812 3.32875 16.8966 4.10152 17.0214 5.23235C17.2253 7.07946 15.816 8.06156 14.5825 9.16753C13.7643 9.90104 13.3137 10.557 13.0628 11.6581C12.9174 12.2961 12.8705 12.946 12.8846 13.5999C12.9032 14.4679 13.2871 15.1826 13.4756 16.0107C13.6429 16.746 13.697 17.5041 13.771 18.2527C13.8404 18.9538 13.8263 19.8215 14.2729 20.4102C14.9852 21.3491 16.3372 21.761 17.4717 21.761C18.2995 21.761 18.9868 21.6628 19.5823 21.02C20.0268 20.5403 20.2247 19.5669 20.3516 18.9328C20.5508 17.9368 19.7618 17.5665 19.3009 16.7799C18.7728 15.8785 18.3722 14.9189 18.3722 13.8625C18.3722 13.4737 18.4853 13.2297 18.7756 12.9526C19.2297 12.5194 19.7655 12.1894 20.3093 11.8832C20.4708 11.7923 21.0451 11.4001 21.299 11.4142C21.8582 11.4453 22.5921 12.4879 22.889 12.8776C23.2659 13.3722 23.5216 13.95 23.7286 14.5333C23.7861 14.6953 23.8266 14.9527 23.9631 15.0726C24.3884 15.4464 25.3834 15.3447 25.8861 15.3447C26.7396 15.3447 27.4327 15.2115 28.1938 14.871C28.7771 14.61 29.911 14.4579 30.0699 13.75C30.258 12.9119 30.3067 11.962 30.1731 11.114C29.9466 9.67676 28.4238 8.19857 27.0869 7.69946C25.837 7.23284 23.4391 8.14454 22.6967 6.68635C22.5472 6.39263 22.4451 5.99487 22.5279 5.66386C22.693 5.00342 23.4817 4.96341 24.0194 4.82898C25.7287 4.40166 27.5138 4.32013 29.2632 4.13482C30.3023 4.02474 31.4243 3.92354 32.4573 4.13013C34.7402 4.5867 34.3886 7.75675 34.4131 9.54744C34.4347 11.1236 35.18 13.1474 37.1335 12.7838C37.7888 12.6618 38.4582 12.42 38.5781 11.7003C38.6896 11.0316 38.5425 10.3953 38.428 9.73975C38.2321 8.61734 38.0566 7.51114 38.0434 6.36741C38.038 5.8943 37.936 5.17397 38.428 4.9181C38.6846 4.7847 38.9323 4.45376 39.2254 4.45376M35.7162 192.853C38.4746 192.853 41.253 192.942 44.0102 192.827C45.4739 192.765 46.931 192.642 48.3858 192.5C49.119 192.429 50.0357 192.346 50.8966 192.123M50.8966 192.123C51.8124 191.886 52.665 191.489 53.1663 190.776C53.6276 190.12 53.7018 189.708 53.7018 188.928C53.7018 188.584 52.7405 188.727 52.5263 188.738C50.743 188.835 50.2598 190.692 50.8805 192.089C50.8858 192.101 50.8911 192.112 50.8966 192.123ZM50.8966 192.123C51.1574 192.66 51.7104 192.683 52.2651 192.742C53.6354 192.886 54.8574 192.981 56.1443 192.454C56.6886 192.232 57.3749 191.674 57.6986 191.181C58.214 190.396 57.9762 189.599 57.9403 188.719C57.913 188.051 57.9018 187.329 58.1689 186.701C58.4457 186.05 59.5283 185.573 60.1411 185.356C60.8262 185.112 61.7265 184.977 62.453 184.977C62.9716 184.977 62.9885 185.949 62.9885 186.296C62.9885 187.516 62.805 188.497 62.1918 189.587C61.9594 190.001 61.5128 190.706 61.5844 191.207C61.63 191.526 62.642 191.779 62.9363 191.795C65.7271 191.95 68.5861 192.425 71.4067 192.089C72.0992 192.006 72.5429 192.052 72.9806 191.442C73.6779 190.471 74.0255 189.002 74.0255 187.818C74.0255 185.91 71.6133 184.58 69.9634 184.33C69.2114 184.216 67.7133 184 67.0115 184.415C66.2666 184.855 66.6335 186.174 67.1682 186.616C67.9321 187.248 68.8141 188.138 69.8067 188.386M76.5072 191.795C76.5072 192.289 78.0452 192.093 78.3293 192.082C79.2919 192.047 79.3008 191.893 79.5506 190.966C79.6783 190.491 79.7875 189.914 79.7987 189.418C79.8051 189.14 79.7053 188.692 79.8771 188.451C80.3456 187.795 81.5945 187.868 82.2804 188.105C83.1732 188.414 84.291 188.576 84.4748 189.679C84.5186 189.942 84.2985 191.289 84.5662 191.442C85.2071 191.809 85.4639 192.323 86.2642 192.5C87.373 192.745 88.2281 192.88 89.3793 192.846C92.1573 192.765 94.7373 191.882 97.4318 191.325M101.429 192.383H106.033C107.382 192.383 108.412 192.419 109.452 191.842M109.452 191.842C109.697 191.707 109.942 191.537 110.193 191.325C110.809 190.802 111.559 189.7 111.636 188.856C111.695 188.213 110.795 188.275 110.363 188.151C109.071 187.779 107.189 188.85 107.189 190.267C107.189 190.859 107.206 191.119 107.776 191.383C108.291 191.622 108.864 191.759 109.452 191.842ZM109.452 191.842C110.182 191.946 110.936 191.969 111.63 192.004C113.371 192.092 115.18 192.085 115.835 190.136C116.072 189.433 115.973 188.924 115.718 188.268C115.499 187.707 115.726 187.255 116.175 186.923C117.522 185.927 118.626 186.251 119.506 187.707C120.054 188.614 119.58 189.841 120.289 190.645C121.139 191.609 122.556 191.677 123.764 191.677C125.457 191.677 127.245 191.697 128.766 190.881C130.212 190.104 130.065 188.451 129.876 187.067C129.575 184.852 129.241 182.625 128.91 180.418C128.758 179.408 127.435 179.278 126.624 179.06C126.051 178.905 125.12 178.691 124.521 178.942C123.729 179.275 122.74 180.679 122.418 181.45C122.179 182.024 122.095 182.531 122.118 183.148C122.151 184.015 123.369 185.006 123.738 185.839C123.921 186.253 124.01 187.1 124.351 187.328M125.88 174.515C125.703 174.537 125.768 174.699 125.821 174.815C125.995 175.199 126.253 175.215 126.663 175.22C127.915 175.236 128.86 175.115 129.707 174.162C130.337 173.453 129.852 171.098 129.054 170.662C128.471 170.343 127.785 170.568 127.277 170.152C126.094 169.184 125.097 167.531 125.925 166.057C126.443 165.137 128.135 165.492 128.936 165.581C129.092 165.598 129.244 165.766 129.406 165.731C129.741 165.659 129.641 164.855 129.641 164.614C129.641 163.938 129.436 163.446 129.027 162.877C127.752 161.1 125.799 160.012 124.064 158.763C122.841 157.882 121.946 156.84 120.949 155.726C120.112 154.79 118.912 154.36 118.056 153.473C117.543 152.941 116.862 151.64 117.063 150.86C117.19 150.368 118.195 150.105 118.631 150.07C119.351 150.013 120.068 150.557 120.707 150.821C121.916 151.32 123.283 151.509 124.273 152.376C125.269 153.247 126.648 153.639 127.525 154.642C127.79 154.944 129.005 155.36 129.152 154.798C129.311 154.189 129.09 153.448 128.962 152.859C128.773 151.989 128.694 151.101 128.492 150.233C128.315 149.473 128.225 148.467 127.734 147.83C126.978 146.846 125.392 146.89 124.286 146.89C122.932 146.89 121.408 146.96 120.12 146.531C119.214 146.229 118.113 144.661 117.84 143.781C117.382 142.305 119.537 140.783 120.59 140.13C121.941 139.293 123.255 138.205 124.828 137.838C125.58 137.663 126.659 137.372 127.408 137.747C128.195 138.14 128.771 138.971 129.08 139.771C129.494 140.845 129.754 141.636 128.76 142.468C127.697 143.359 126.732 143.246 125.331 143.246C125.007 143.246 123.971 143.426 123.672 143.219C123.571 143.149 123.482 142.881 123.411 142.775M123.293 133.959C123.912 133.677 123.774 132.739 124.391 132.431C125.104 132.074 126.505 131.578 127.284 131.967C127.89 132.27 128.485 132.875 129.197 132.901C130.177 132.936 130.236 131.98 130.34 131.15C130.587 129.173 130.044 125.142 127.421 125.142C126.314 125.142 125.081 125.563 124.476 126.546C124.084 127.183 124.211 127.968 124.351 128.669M121.178 46.8517C121.178 48.1905 122.457 49.6898 123.117 50.7897C123.826 51.9713 124.474 52.9581 125.501 53.8788C126.162 54.4718 127.895 54.1802 128.76 54.1335C131.74 53.9724 130.105 50.1011 129.648 48.4648C129.401 47.5829 129.283 46.6694 129.027 45.7937C128.752 44.8515 128.467 44.7962 127.787 45.5586C126.999 46.4407 127.326 47.7564 126.513 48.5693C124.47 50.6122 122.687 44.7488 123.228 43.2728C124.075 40.9642 126.382 40.787 128.466 40.3862C129.365 40.2134 129.796 37.9348 129.942 37.2254C130.098 36.4624 129.963 35.6032 129.752 34.8678C129.629 34.4348 129.562 33.6587 129.165 33.3853C128.635 33.021 127.733 32.5383 127.094 32.9216C126.474 33.2936 126.585 34.3947 126.585 35.0049C126.585 35.382 126.764 36.2092 126.402 36.4678C125.396 37.1861 124.198 37.8562 123.071 38.3682C122.306 38.7163 121.468 38.8113 120.714 39.2107C119.296 39.9612 119.587 41.3084 119.323 42.6589C119.254 43.0129 118.565 42.912 118.278 42.9463C117.469 43.0428 116.575 42.3277 115.992 41.8491C115.492 41.439 115.184 40.9178 115.006 40.3013C114.713 39.2867 114.32 38.1579 114.255 37.1013C114.183 35.9329 114.157 34.4125 114.96 33.4636C115.587 32.7228 117.263 34.453 117.729 34.822C118.361 35.322 118.435 35.5319 119.336 35.56C120.405 35.5934 121.526 35.7393 121.707 34.4955C121.751 34.187 122.054 33.3427 121.818 33.0391C121.334 32.4179 120.723 32.5885 120.707 31.6612C120.682 30.1342 121.547 29.034 122.784 28.1476C123.654 27.524 124.077 27.8239 125.083 28.1868C125.916 28.4876 126.68 28.8894 127.552 29.0097L127.553 29.0099C128.162 29.0939 129.372 29.2608 129.667 28.5525C129.95 27.8744 129.876 27.1417 129.876 26.4235V22.3614C129.876 21.9277 130.081 20.9074 129.641 20.6634C128.883 20.2421 127.985 20.4021 127.12 20.4021C126.306 20.4021 125.784 20.4225 125.416 21.2316C125.178 21.7544 125.057 22.2413 125.057 22.812C125.057 23.2999 123.173 23.3721 122.68 23.6022C121.501 24.1521 120.482 24.7969 119.519 25.6333C118.855 26.2095 117.669 27.0139 117.272 27.808C116.946 28.4611 116.946 29.2096 116.946 29.9197V29.924M116.946 21.9304C116.433 20.957 116.49 19.6134 116.24 18.5344C116.019 17.5821 116.06 16.5596 116.449 15.6609C116.646 15.2072 117.335 15.1123 117.795 15.1123C118.858 15.1123 119.41 15.9492 119.584 16.9932C119.682 17.5822 119.587 18.1758 119.662 18.763C119.708 19.1156 120.312 19.009 120.577 19.0504C121.017 19.1192 121.488 19.2515 121.935 19.2267C123.048 19.1649 123.639 17.0813 124.038 16.2748C124.255 15.8355 124.19 15.7414 124.691 15.6479C125.466 15.5032 126.231 15.465 127.016 15.465C128.062 15.465 128.632 15.6569 129.282 14.7531C130.001 13.7544 129.889 12.6157 129.876 11.4421C129.85 8.89906 128.398 6.27327 126.474 4.66967C125.751 4.06695 124.865 4.23416 124.005 4.12108C122.784 3.96033 121.556 4.39226 120.616 5.1856C120.142 5.58531 119.389 6.8288 120.146 7.32768C120.825 7.77571 121.87 7.6238 122.634 7.76524C123.606 7.94535 124.574 8.43271 124.574 9.5416C124.574 10.6612 124.357 11.3528 123.307 11.6445C122.466 11.878 121.637 11.3807 120.838 11.1808C119.865 10.9376 118.768 10.3115 117.768 10.2926C117.088 10.2798 116.4 10.2314 115.77 10.5016C115.601 10.5739 115.361 10.5234 115.182 10.5277C114.15 10.5529 113.111 10.7422 112.08 10.8151C111.403 10.863 109.749 11.3963 110.082 10.2861C110.375 9.31001 111.514 8.20714 112.27 7.53666C113.097 6.80245 113.958 6.00804 114.451 5.00273C114.909 4.06876 114.292 3.86097 113.393 3.83373C112.429 3.80451 110.942 3.57177 109.997 3.89904C108.822 4.30562 107.942 5.00451 107.28 6.03459C106.588 7.11144 103.462 5.41053 102.402 5.17253C100.707 4.79206 99.0134 4.39013 97.275 4.29741C96.3841 4.2499 95.478 4.11825 94.6105 3.94475M87.9099 3.8272C86.7683 3.8272 81.6562 3.46062 79.0107 4.36874M79.0107 4.36874C77.7823 4.79039 77.0857 5.48683 77.5652 6.62236C77.9798 7.60437 79.6276 7.15483 80.3865 7.1187C81.1926 7.08031 80.8736 5.96197 80.491 5.56438C80.105 5.16341 79.5948 4.74839 79.0107 4.36874ZM79.0107 4.36874C77.1994 3.19162 74.677 2.3546 72.9414 3.33086C72.3449 3.66641 71.7269 4.46591 71.7398 5.18559C71.7497 5.7428 72.7514 6.18907 73.0982 6.53093C73.8036 7.22646 74.801 8.95701 73.7251 9.82242C72.7487 10.6078 71.3528 11.0897 70.2377 11.6249C69.4089 12.0227 68.2874 12.8301 67.338 12.8788C66.7945 12.9067 65.9506 13.0486 65.4572 12.7874C65.0241 12.5581 65.4782 11.3731 65.6662 11.1155C66.0812 10.5467 66.6048 10.1158 67.1944 9.73099C67.5661 9.48836 68.2535 9.23915 68.5136 8.85587C68.968 8.18621 69.0722 7.14398 68.396 6.62236C67.4614 5.90139 65.8093 6.34961 64.8694 6.76604C63.8982 7.19633 62.8197 7.92755 62.0612 8.68607C61.7248 9.02242 61.9265 10.0537 61.9567 10.4624C62.0467 11.6826 62.7779 14.3405 60.9967 14.714C59.1866 15.0935 57.3355 15.3242 55.5108 15.6283C55.0015 15.7131 54.4543 15.8176 53.9369 15.8176C52.841 15.8176 52.1502 15.8119 51.5271 14.8054C50.8837 13.7661 50.8452 13.1451 52.0561 12.487C53.1904 11.8705 54.3173 11.8797 55.5239 11.5269C56.9128 11.121 57.408 10.7992 57.8685 9.35221C58.2211 8.24374 57.5887 6.66261 57.2872 5.5905C56.8868 4.16689 55.3926 3.9827 54.0806 3.93822C52.0438 3.86918 50.0297 3.70965 47.9874 3.70965C46.8116 3.70965 45.5198 3.57784 44.4151 4.06884C43.8221 4.33239 42.9773 4.73296 42.6126 5.29662C42.3762 5.662 42.5343 6.46653 42.5343 6.87706C42.5343 7.39766 42.5968 8.04062 42.8347 8.51628C42.9666 8.78019 43.6126 8.65201 43.8339 8.64036C46.2659 8.51236 48.4999 7.13128 50.972 7.00767C51.5885 6.97685 52.6749 7.05502 52.3369 7.99382C51.9619 9.03547 49.8203 9.38796 48.9475 9.80936C48.2563 10.143 48.0295 10.1486 47.6413 10.9C47.3536 11.4568 47.1202 12.0636 46.5964 12.4478C46.3971 12.5939 46.0643 12.6437 45.8258 12.6437C44.9634 12.6437 44.0975 12.8008 43.2396 12.8788M61.8131 3.35693C62.157 4.25121 63.6824 4.04807 64.4776 3.87939C65.5757 3.64647 66.6152 3.19402 67.6907 2.88672M4.63158 186.549C4.63158 187.43 4.77638 188.293 4.80087 189.175C4.82402 190.009 4.81685 190.812 5.17607 191.573C5.69666 192.675 7.27499 192.972 8.31947 193.22C9.7935 193.57 11.3106 193.632 12.8218 193.632C13.3948 193.632 14.1601 193.67 14.6566 193.321C15.4068 192.793 15.3498 191.872 14.8762 191.17C14.1903 190.154 13.0455 190.008 11.9204 190.008C11.0344 190.008 10.1537 189.843 9.28034 189.843C8.7212 189.843 7.92103 189.732 7.55078 189.249C6.96144 188.479 7.68683 187.815 8.30117 187.455C8.77411 187.178 9.24338 186.895 9.71044 186.608C10.1301 186.351 10.622 186.304 11.0923 186.178C12.0429 185.924 12.9598 185.92 13.9337 185.844C14.7399 185.782 15.3124 185.806 15.8966 185.213C16.3681 184.734 16.571 184.056 16.6378 183.401C16.6723 183.063 16.2274 182.697 16.0247 182.477C15.5522 181.964 14.9755 181.562 14.5056 181.049C14.0006 180.498 13.8083 179.752 13.7552 179.027C13.6627 177.762 13.6088 176.502 13.6088 175.234C13.6088 174.677 13.6597 174.095 13.6042 173.541C13.5448 172.946 13.0146 172.054 12.4009 172.054C11.5338 172.054 10.5944 172.302 10.1543 173.138C9.66522 174.067 9.46631 175.342 9.25288 176.364C8.89847 178.06 9.61474 179.916 9.07901 181.562C8.90439 182.098 8.42068 182.884 7.84361 183.072C7.31572 183.243 5.94732 183.366 5.47348 183.081C4.86777 182.716 4.65372 181.67 4.56752 181.04C4.44868 180.171 4.4521 179.279 4.4028 178.404C4.33257 177.158 4.37062 175.892 4.3845 174.643C4.39969 173.276 4.73684 171.875 4.91984 170.521C4.96883 170.158 4.74556 167.676 5.06168 167.606C5.73762 167.456 6.45197 167.436 7.13898 167.377C7.72076 167.327 8.30267 167.209 8.85024 167.423C10.3429 168.006 11.9076 167.969 13.2931 167.053C14.1136 166.51 15.6508 163.899 13.8559 163.671C12.9237 163.553 12.1505 163.599 11.2295 163.259C10.5535 163.01 9.81545 163.029 9.09732 163.095C8.08073 163.188 6.20509 163.586 5.69768 162.349C4.96366 160.56 5.04338 158.303 5.04338 156.396C5.04338 155.693 5.24566 155.033 5.29503 154.342C5.3173 154.03 5.36978 153.713 5.414 153.404C5.43643 153.247 5.39088 152.87 5.48263 152.74C5.73308 152.385 6.52531 152.14 6.9102 152.008C7.59376 151.774 8.27816 151.743 8.9875 151.665C10.0727 151.546 11.3098 151.56 12.3048 151.079C13.8226 150.346 15.0666 149.253 16.4731 148.352C17.9439 147.41 19.9744 147.245 21.6709 147.135C22.7828 147.063 23.8116 147.268 23.8947 148.576C23.9805 149.928 23.7302 151.051 23.2037 152.287C22.8223 153.183 22.6998 154.205 22.6043 155.17C22.4677 156.552 22.09 157.463 20.9938 158.418C20.331 158.996 19.4894 159.418 18.706 159.809C18.5093 159.908 18.4117 159.86 18.2576 159.7C17.1403 158.539 17.135 157.238 17.1503 155.719C17.156 155.147 17.1713 154.606 17.4477 154.095C17.5895 153.832 17.8886 153.512 17.9693 153.23C18.1153 152.719 16.6339 152.934 16.3587 152.96C14.8562 153.103 13.5732 154.523 12.3322 155.28C11.7889 155.611 11.1412 155.731 10.5844 156.044C9.70506 156.537 9.31263 156.877 9.11562 157.897C8.99535 158.519 9.69728 158.564 10.168 158.647C10.7807 158.755 11.3086 158.722 11.8976 158.894C12.2637 159.001 12.5982 159.171 12.9499 159.288M12.044 147.675C12.044 147.201 10.5147 147.512 10.232 147.611C8.95917 148.058 7.58703 148.431 6.25132 148.622C5.28863 148.76 4.47341 148.157 3.78052 147.556C3.15014 147.01 3.20342 146.074 3.56089 145.369C4.43945 143.636 6.63689 143.804 8.26914 143.804C10.4068 143.804 12.5104 144.327 14.652 144.298C15.5795 144.286 17.2751 144.303 17.8137 143.388C18.196 142.738 17.5664 142.196 17.1228 141.818C16.5426 141.324 15.8224 141.026 15.2743 140.491C14.8781 140.105 14.5928 139.706 14.0252 139.572C13.0729 139.346 12.2557 139.933 11.321 139.933C10.3446 139.933 10.5625 138.879 10.6255 138.13C10.7097 137.131 11.0055 136.263 11.8976 135.692C12.593 135.246 13.3057 134.81 14.0115 134.378C14.8194 133.885 14.7544 132.182 14.7618 131.423C14.7775 129.829 15.2906 128.142 14.9998 126.563C14.8082 125.524 14.6332 124.469 15.0455 123.452C15.4418 122.475 16.3673 121.793 17.1777 121.173C17.5609 120.88 17.978 120.639 18.404 120.414C18.6138 120.303 19.2884 120.202 19.3557 119.92C19.5372 119.157 15.4757 119.555 15.1828 119.636C14.0501 119.949 13.0081 120.503 11.8792 120.826C10.6429 121.179 9.35272 121.271 8.11814 121.603C7.92709 121.655 7.74335 121.628 7.55078 121.668C6.86275 121.808 6.08923 122.532 5.57414 122.967C5.04735 123.411 4.3769 123.907 3.991 124.486C3.72148 124.89 3.71777 125.52 3.72561 125.987C3.74441 127.105 4.27046 128.234 5.50093 128.137C6.71987 128.042 7.46775 126.677 8.40183 126.033C8.80394 125.755 9.5977 125.293 10.1039 125.392C10.9799 125.563 11.0343 126.979 11.0511 127.634C11.0748 128.561 10.9265 129.652 9.88888 129.926C8.96633 130.171 7.94021 130.475 7.24879 131.176C6.61411 131.818 6.03503 132.897 5.72056 133.756C5.347 134.776 5.85834 136.024 6.31995 136.927C6.70865 137.688 6.92509 138.874 6.55788 139.686C6.1848 140.511 5.73243 140.677 4.96101 140.986C4.17921 141.298 3.48699 140.711 3.27721 140.025C3.11334 139.488 2.98438 138.848 2.98438 138.286M23.2449 95.1295C23.4888 95.1566 23.7704 95.4866 23.9495 95.6282C24.3248 95.9249 24.6729 96.2057 24.9561 96.5936C25.616 97.4973 26.4497 98.2563 27.0792 99.1834C27.8549 100.326 27.8491 101.859 27.857 103.182C27.8682 105.04 27.9144 106.749 26.5073 108.156C26.0707 108.593 25.0913 109.077 24.4666 108.728C23.6189 108.254 23.4755 106.834 23.5286 105.992C23.5898 105.021 24.3067 103.615 23.7894 102.702C23.2653 101.777 22.0227 100.637 20.9297 101.467C19.2929 102.709 19.2668 105.193 19.2916 107.053C19.3138 108.714 20.2219 109.808 21.3689 110.906C22.1629 111.666 23.8417 112.971 23.4371 114.319C23.093 115.466 21.4871 116.339 20.4264 116.671C19.3983 116.993 17.5796 117.027 17.0404 115.948C16.6181 115.104 16.6411 113.985 16.6744 113.066C16.7196 111.819 16.8249 110.548 16.6744 109.305C16.5393 108.188 16.0028 107.222 15.7318 106.147C15.1323 103.769 14.8805 101.202 16.0887 98.9821C16.8168 97.6443 17.896 96.6862 18.4223 95.221C18.6788 94.5066 18.7998 93.738 18.8752 92.9835C18.9242 92.4942 19.0486 91.905 18.9118 91.4187C18.6035 90.3223 17.663 89.2132 16.7979 88.5178C15.966 87.849 15.0142 87.4633 13.9702 87.2687C13.2589 87.136 11.9758 86.8803 11.3622 87.3876C10.2795 88.2829 9.16539 90.0333 9.50908 91.5331C9.68388 92.2958 11.2262 92.0821 11.7328 92.0821C12.5289 92.0821 13.3489 91.9632 13.7186 92.8783C14.0446 93.6853 13.9854 94.8324 13.0826 95.1935C12.5629 95.4014 11.9899 95.4688 11.44 95.5413C10.2644 95.6962 8.53439 96.3015 7.50957 95.4772C6.79024 94.8986 6.15811 93.9797 5.82119 93.1254C5.51319 92.3444 5.59987 91.3998 5.62444 90.5768C5.67151 89.0001 6.13106 87.2231 7.23046 86.0516C8.20767 85.0103 9.56958 84.5701 9.98494 83.0866C10.1497 82.4984 10.1213 81.9213 10.168 81.3205C10.2123 80.749 10.3504 80.1937 10.2961 79.6183C10.1745 78.33 9.56271 77.515 8.57567 76.7357C7.86197 76.1723 6.36926 76.0984 5.60156 76.5161C4.5849 77.0693 4.15697 78.3386 4.13739 79.4353C4.12462 80.1505 4.34276 80.8208 4.37989 81.5263C4.41038 82.1056 4.24948 82.8086 4.46683 83.352M12.5381 97.9295C11.4636 98.6601 10.1266 98.8354 8.85479 98.8354C7.77412 98.8354 6.7825 98.8301 5.76629 98.4236C5.13932 98.1728 4.6541 97.9995 4.25636 98.6204C3.57056 99.6909 3.20819 101.25 3.77135 102.427C4.46777 103.883 7.17684 102.138 8.22794 102.066C8.9653 102.015 9.47295 102.165 10.0765 102.551C10.4213 102.772 10.963 102.982 11.0922 103.406C11.9883 106.351 7.12433 106.09 6.01337 107.868C5.37704 108.886 5.12915 110.152 4.88321 111.308C4.62933 112.502 4.43818 113.667 4.3433 114.882C4.29684 115.476 4.21468 116.164 4.33872 116.753C4.46347 117.346 4.87219 118.061 5.20807 118.565C5.44431 118.92 6.07626 118.84 6.44347 118.84C7.6625 118.84 8.86206 118.303 9.99868 117.92C10.9231 117.609 12.2852 117.418 12.9682 116.653C13.6177 115.924 13.3109 114.405 13.2244 113.578C13.126 112.635 12.9431 111.704 12.8675 110.759C12.8252 110.23 12.8544 109.674 12.7669 109.149C12.7068 108.788 12.2855 108.75 11.9919 108.724L11.9799 108.723C11.4594 108.677 10.82 108.514 10.3373 108.783C9.1827 109.424 8.90003 110.895 8.64889 112.105C8.48306 112.903 8.33775 113.67 8.33775 114.484M9.24373 20.5936C9.24373 21.2983 9.61179 21.952 9.92091 22.5703C10.3535 23.4354 10.5701 23.7512 11.5315 23.9521C12.4456 24.1431 13.3515 24.2998 14.286 24.2998C15.118 24.2998 15.4598 24.2175 15.6998 25.1463C16.089 26.6521 16.0722 28.1398 14.4873 28.7793C13.2391 29.283 12.0974 28.9343 10.9138 28.3766C9.57265 27.7447 8.16142 26.6444 6.73633 27.7132C6.11437 28.1796 5.64238 28.8354 5.09828 29.3878C4.83936 29.6507 4.48523 29.9834 4.33874 30.3304C3.83996 31.5117 4.23358 32.948 4.50803 34.1373C4.98069 36.1854 4.54921 38.2836 4.54921 40.3554C4.54921 41.8802 4.30213 43.3633 4.30213 44.8807C4.30213 46.0604 4.32292 47.2027 4.13741 48.3672C4.03588 49.0046 3.98291 49.5906 3.97269 50.234C3.97005 50.4005 3.87935 50.5996 3.90406 50.7602C3.92638 50.9053 4.67017 50.6925 4.75054 50.6733C5.49162 50.4965 5.85473 49.8672 6.3108 49.3098C7.26091 48.1485 8.16864 47.0365 8.29659 45.4755C8.44265 43.6936 8.0259 41.9817 8.10899 40.1953C8.15474 39.2118 8.183 38.2334 8.17305 37.2486C8.16404 36.3567 7.84903 35.4171 8.06324 34.5308C8.28916 33.5959 8.99896 32.8835 9.71959 32.307C9.97247 32.1047 10.4289 32.0939 10.7308 32.0462C11.2254 31.9681 11.997 31.818 12.4786 32.0279C13.0045 32.2571 13.2794 33.0527 13.2794 33.5745C13.2794 34.4069 12.8594 35.1222 12.4283 35.8119C12.0379 36.4365 11.6374 37.161 11.3531 37.8389L11.351 37.8439C11.2248 38.1448 11.0556 38.5481 11.0556 38.8775M7.67886 50.9844C6.7631 52.1794 5.6805 53.2388 4.87405 54.5122C3.68953 56.3825 3.05175 58.2028 3.22227 60.4375C3.25366 60.8488 3.27983 61.589 3.71643 61.8193C3.89014 61.9109 4.10958 61.9715 4.33863 62.0117M4.33863 62.0117C4.63909 62.0645 4.95609 62.0823 5.20806 62.0893C6.40018 62.1224 7.25542 61.46 7.49584 60.2911C7.60658 59.7527 7.79369 58.9439 7.21673 58.6164C6.64176 58.2901 5.57817 58.4581 5.13486 58.9367C4.42269 59.7055 4.29045 60.8586 4.33863 62.0117ZM4.33863 62.0117C4.37525 62.8884 4.51614 63.7651 4.58579 64.4731C4.65571 65.184 4.72457 66.2213 5.33618 66.7106C5.84513 67.1178 6.241 67.2991 6.50752 67.9506C6.88477 68.8727 6.93762 69.8651 6.93762 70.8469C6.93762 71.5861 6.68863 72.1695 5.931 72.398C3.45531 73.1446 4.19115 69.3854 3.47851 68.1976M130.246 57.6419C129.645 57.6419 128.906 57.7509 128.314 57.6193C127.465 57.4306 127.365 57.9514 127.139 58.7152C126.775 59.9445 129.242 60.073 129.974 60.0822C130.847 60.0931 131.009 60.9885 130.935 61.7768C130.854 62.6434 130.417 63.3941 129.545 63.5618C128.371 63.7877 128.031 64.6693 127.67 65.7536C127.325 66.7875 127.512 67.6914 127.5 68.7588C127.487 70.0073 127.439 71.4011 127.094 72.6113C126.127 75.9957 124.515 79.0689 122.462 81.9205C121.134 83.7638 118.959 85.6166 118.959 88.0213C118.959 88.9016 121.242 87.4186 121.626 87.1287C122.261 86.6486 122.877 86.0871 123.354 85.4341C123.738 84.9078 124.006 84.2491 124.393 83.7508C124.532 83.5728 124.891 83.0729 125.145 83.0729C126.378 83.0729 126.461 84.3947 126.461 85.3663C126.461 86.9235 125.483 88.4736 124.608 89.7103C123.92 90.6835 122.572 90.7537 121.467 90.84C120.032 90.9521 118.604 90.6809 117.18 90.7948C116.516 90.848 116.097 91.3949 115.638 91.806C115 92.3765 114.301 92.8976 113.785 93.591C112.655 95.1098 111.147 96.8631 110.571 98.6806C110.159 99.9792 110.034 100.9 110.271 102.279C110.382 102.922 110.654 103.498 110.746 104.143C110.766 104.287 110.828 104.781 111.017 104.821C112.212 105.072 113.484 104.888 114.694 105.092C116.878 105.46 119.063 105.939 121.287 105.939C122.208 105.939 122.948 105.707 123.117 106.849C123.249 107.74 123.819 108.898 123.348 109.752C122.797 110.752 121.598 111.391 120.53 110.809C119.688 110.349 119.195 109.733 118.49 109.137C117.636 108.413 116.203 108.762 115.175 108.634C114.587 108.56 113.95 108.591 113.367 108.707C112.906 108.799 112.884 109.271 112.865 109.666L112.864 109.69C112.833 110.342 113.236 110.664 113.649 111.125C114.091 111.618 114.393 112.219 114.836 112.695C115.662 113.584 116.436 113.693 117.666 113.859C118.839 114.017 119.986 114.045 121.162 114.074C121.86 114.09 122.526 114.324 123.23 114.266C123.983 114.203 125.014 113.83 125.647 113.418C126.125 113.108 126.367 112.144 126.574 111.656C126.926 110.823 127.007 109.928 127.173 109.046C127.496 107.327 126.821 105.751 126.201 104.188C125.745 103.038 125.431 102.246 124.066 102.098C122.402 101.918 120.653 102.076 118.982 102.076C117.727 102.076 116.077 102.229 115.141 101.194C114.367 100.339 114.048 98.6695 114.61 97.6243C115.49 95.9861 117.467 94.576 119.242 94.1107C120.094 93.8874 120.992 94.2917 120.891 95.2631C120.776 96.3727 118.956 96.9474 119.061 98.1327C119.146 99.0889 122.269 98.9659 123.015 98.7766C124.103 98.5008 125.468 97.9124 125.806 96.7769C126.06 95.9231 125.325 95.4712 125.365 94.6304C125.415 93.5897 126.611 92.7158 127.534 92.4612C128.427 92.2149 129.696 92.3523 130.539 92.7211C132.035 93.3756 131.585 95.2433 130.698 96.2008C129.87 97.0938 128.869 97.8408 128.743 99.1268C128.699 99.5796 128.592 100.321 128.788 100.748C129.101 101.43 130.038 101.713 130.443 102.347C130.999 103.214 130.9 104.68 130.952 105.679C131.013 106.871 130.979 108.089 130.76 109.261C130.513 110.575 130.551 112.03 130.551 113.368C130.551 115.929 128.011 118.17 125.597 118.435C124.719 118.531 123.797 118.649 122.913 118.649C122.155 118.649 121.382 118.479 120.626 118.564C119.699 118.669 119.302 118.978 119.309 119.937C119.315 120.654 119.764 121.13 120.275 121.581C121.328 122.51 123.439 122.291 124.608 121.813C125.359 121.505 126.176 120.886 127.003 120.886C127.778 120.886 128.542 120.988 129.319 120.988C129.505 120.988 130.208 120.875 130.353 121.044C130.607 121.341 130.813 121.5 131.008 121.852C131.171 122.145 131.045 122.955 131.262 122.411M130.246 67.7081C130.503 69.9581 130.44 72.3552 130.342 74.6166C130.294 75.7065 129.972 76.786 129.423 77.7306M129.423 77.7306C129.138 78.2203 128.793 78.6737 128.393 79.0735C128.261 79.2058 126.867 80.3492 126.8 80.1299C126.517 79.2116 127.574 78.3663 128.252 78.0341C128.706 77.8112 129.041 77.6574 129.423 77.7306ZM129.423 77.7306C129.617 77.7679 129.824 77.864 130.065 78.0398C130.683 78.4909 130.906 79.2582 131.008 79.9717C131.098 80.5998 131.146 81.184 130.777 81.7172C130.384 82.2827 129.925 82.6991 129.455 83.1859C129.086 83.5673 128.761 84.3727 129.088 84.8523C129.486 85.4374 130.141 85.3903 130.664 85.7504C130.948 85.9462 131.015 86.4964 131.048 86.8068C131.1 87.3047 131.059 87.8256 131.059 88.3263C131.059 89.08 130.435 89.4391 129.771 89.7046C129.469 89.8255 129.148 89.7395 128.833 89.795C127.96 89.9491 128.226 89.8164 128.922 89.4682L128.924 89.4674" stroke="black" stroke-width="1.36241" stroke-linecap="round"/>
</svg>
