<svg width="133" height="197" viewBox="0 0 133 197" fill="none" xmlns="http://www.w3.org/2000/svg">
<rect x="0.538557" y="0.395979" width="132.154" height="195.733" rx="7.03912" fill="#2A2A2A" stroke="#2A2A2A" stroke-width="0.454137"/>
<path d="M127.019 38.3169V9.25213C127.019 7.99807 126.003 6.98145 124.748 6.98145H96.819M6.21875 38.3169V9.25213C6.21875 7.99806 7.23537 6.98145 8.48943 6.98145H36.4188" stroke="white" stroke-width="0.908273" stroke-linecap="round" stroke-linejoin="round"/>
<path d="M127.019 158.209V187.273C127.019 188.527 126.003 189.544 124.748 189.544H96.819M6.21875 158.209V187.273C6.21875 188.527 7.23537 189.544 8.48943 189.544H36.4188" stroke="white" stroke-width="0.908273" stroke-linecap="round" stroke-linejoin="round"/>
<path d="M121.095 15.2689H120.574C120.354 14.1693 119.399 13.3389 118.257 13.3389H112.58C111.276 13.3389 110.215 14.4212 110.215 15.7515V18.6466C110.215 19.9769 111.276 21.0592 112.58 21.0592H118.257C119.399 21.0592 120.355 20.2288 120.574 19.1291H121.095C121.356 19.1291 121.568 18.9129 121.568 18.6466V15.7515C121.568 15.4851 121.356 15.2689 121.095 15.2689ZM118.257 20.0942H112.58C111.798 20.0942 111.161 19.4447 111.161 18.6466V15.7515C111.161 14.9534 111.798 14.3039 112.58 14.3039H118.257C119.039 14.3039 119.676 14.9534 119.676 15.7515V18.6466C119.676 19.4447 119.039 20.0942 118.257 20.0942ZM115.418 15.2689H112.58C112.319 15.2689 112.107 15.4851 112.107 15.7515V18.6466C112.107 18.9129 112.319 19.1291 112.58 19.1291H115.418C115.68 19.1291 115.892 18.9129 115.892 18.6466V15.7515C115.892 15.4851 115.68 15.2689 115.418 15.2689Z" fill="white"/>
<circle cx="15.3001" cy="16.9719" r="3.17896" fill="#BC1300"/>
<path d="M22.8395 19.1553C22.7862 19.1553 22.7523 19.1311 22.7377 19.0826L22.0039 17.0771C21.9942 17.0578 21.9821 17.0481 21.9675 17.0481H21.5098C21.4855 17.0481 21.4734 17.0602 21.4734 17.0844V19.0681C21.4734 19.0923 21.4637 19.1141 21.4444 19.1335C21.4298 19.148 21.4105 19.1553 21.3862 19.1553H20.5361C20.5119 19.1553 20.4901 19.148 20.4707 19.1335C20.4562 19.1141 20.4489 19.0923 20.4489 19.0681V14.1561C20.4489 14.1319 20.4562 14.1125 20.4707 14.098C20.4901 14.0786 20.5119 14.0689 20.5361 14.0689H22.309C22.5948 14.0689 22.8492 14.1343 23.072 14.2651C23.2948 14.3911 23.4668 14.5703 23.5879 14.8028C23.709 15.0353 23.7695 15.3018 23.7695 15.6021C23.7695 15.9121 23.7017 16.181 23.5661 16.4087C23.4305 16.6363 23.2391 16.8059 22.9921 16.9173C22.9678 16.927 22.9606 16.9439 22.9703 16.9682L23.7986 19.0535C23.8035 19.0632 23.8059 19.0753 23.8059 19.0899C23.8059 19.1335 23.7792 19.1553 23.726 19.1553H22.8395ZM21.5098 14.9482C21.4855 14.9482 21.4734 14.9603 21.4734 14.9845V16.227C21.4734 16.2512 21.4855 16.2633 21.5098 16.2633H22.1419C22.3212 16.2633 22.4665 16.2052 22.5779 16.0889C22.6893 15.9678 22.745 15.808 22.745 15.6094C22.745 15.4059 22.6893 15.2461 22.5779 15.1298C22.4665 15.0087 22.3212 14.9482 22.1419 14.9482H21.5098ZM27.4896 14.861C27.4896 14.8852 27.4799 14.907 27.4605 14.9264C27.446 14.9409 27.4266 14.9482 27.4024 14.9482H25.4551C25.4309 14.9482 25.4187 14.9603 25.4187 14.9845V16.118C25.4187 16.1422 25.4309 16.1543 25.4551 16.1543H26.6685C26.6928 16.1543 26.7121 16.164 26.7267 16.1834C26.746 16.1979 26.7557 16.2173 26.7557 16.2415V16.9464C26.7557 16.9706 26.746 16.9924 26.7267 17.0117C26.7121 17.0263 26.6928 17.0335 26.6685 17.0335H25.4551C25.4309 17.0335 25.4187 17.0457 25.4187 17.0699V18.2397C25.4187 18.264 25.4309 18.2761 25.4551 18.2761H27.4024C27.4266 18.2761 27.446 18.2858 27.4605 18.3051C27.4799 18.3197 27.4896 18.339 27.4896 18.3633V19.0681C27.4896 19.0923 27.4799 19.1141 27.4605 19.1335C27.446 19.148 27.4266 19.1553 27.4024 19.1553H24.4814C24.4572 19.1553 24.4354 19.148 24.416 19.1335C24.4015 19.1141 24.3942 19.0923 24.3942 19.0681V14.1561C24.3942 14.1319 24.4015 14.1125 24.416 14.098C24.4354 14.0786 24.4572 14.0689 24.4814 14.0689H27.4024C27.4266 14.0689 27.446 14.0786 27.4605 14.098C27.4799 14.1125 27.4896 14.1319 27.4896 14.1561V14.861ZM29.6821 19.2134C29.3527 19.2134 29.0621 19.148 28.8102 19.0172C28.5583 18.8864 28.3621 18.6999 28.2216 18.4577C28.086 18.2155 28.0182 17.9346 28.0182 17.6148V15.5948C28.0182 15.28 28.086 15.0039 28.2216 14.7665C28.3621 14.5243 28.5583 14.3378 28.8102 14.207C29.0621 14.0762 29.3527 14.0108 29.6821 14.0108C30.0115 14.0108 30.3022 14.0762 30.5541 14.207C30.806 14.3329 30.9997 14.5122 31.1354 14.7447C31.2758 14.9772 31.3461 15.2485 31.3461 15.5585V15.5948C31.3461 15.6191 31.3364 15.6409 31.317 15.6602C31.3025 15.6796 31.2831 15.6893 31.2589 15.6893L30.4087 15.7256C30.3506 15.7256 30.3215 15.699 30.3215 15.6457V15.5512C30.3215 15.3526 30.2634 15.1928 30.1472 15.0717C30.0309 14.9506 29.8759 14.89 29.6821 14.89C29.4884 14.89 29.3333 14.9506 29.2171 15.0717C29.1008 15.1928 29.0427 15.3526 29.0427 15.5512V17.6802C29.0427 17.8788 29.1008 18.0387 29.2171 18.1598C29.3333 18.2761 29.4884 18.3342 29.6821 18.3342C29.8759 18.3342 30.0309 18.2761 30.1472 18.1598C30.2634 18.0387 30.3215 17.8788 30.3215 17.6802V17.5858C30.3215 17.5325 30.3506 17.5058 30.4087 17.5058L31.2589 17.5422C31.2831 17.5422 31.3025 17.5519 31.317 17.5712C31.3364 17.5858 31.3461 17.6052 31.3461 17.6294V17.6512C31.3461 17.9612 31.2758 18.2349 31.1354 18.4723C30.9997 18.7096 30.806 18.8937 30.5541 19.0245C30.3022 19.1504 30.0115 19.2134 29.6821 19.2134Z" fill="white"/>
<path d="M13.7424 183.623C13.3227 183.623 12.9879 183.5 12.7378 183.254C12.4877 183.004 12.3627 182.669 12.3627 182.249V180.406C12.3627 179.99 12.4877 179.66 12.7378 179.414C12.9879 179.164 13.3227 179.039 13.7424 179.039C14.162 179.039 14.4968 179.164 14.7469 179.414C15.0012 179.66 15.1284 179.99 15.1284 180.406V182.249C15.1284 182.669 15.0012 183.004 14.7469 183.254C14.4968 183.5 14.162 183.623 13.7424 183.623ZM13.7424 182.853C13.8907 182.853 14.0094 182.805 14.0984 182.707C14.1874 182.605 14.2319 182.47 14.2319 182.3V180.361C14.2319 180.192 14.1874 180.058 14.0984 179.961C14.0094 179.863 13.8907 179.814 13.7424 179.814C13.594 179.814 13.4753 179.863 13.3863 179.961C13.3015 180.058 13.2592 180.192 13.2592 180.361V182.3C13.2592 182.47 13.3015 182.605 13.3863 182.707C13.4753 182.805 13.594 182.853 13.7424 182.853ZM16.9896 183.623C16.57 183.623 16.2351 183.5 15.9851 183.254C15.735 183.004 15.6099 182.669 15.6099 182.249V180.406C15.6099 179.99 15.735 179.66 15.9851 179.414C16.2351 179.164 16.57 179.039 16.9896 179.039C17.4092 179.039 17.7441 179.164 17.9942 179.414C18.2485 179.66 18.3756 179.99 18.3756 180.406V182.249C18.3756 182.669 18.2485 183.004 17.9942 183.254C17.7441 183.5 17.4092 183.623 16.9896 183.623ZM16.9896 182.853C17.138 182.853 17.2566 182.805 17.3457 182.707C17.4347 182.605 17.4792 182.47 17.4792 182.3V180.361C17.4792 180.192 17.4347 180.058 17.3457 179.961C17.2566 179.863 17.138 179.814 16.9896 179.814C16.8413 179.814 16.7226 179.863 16.6336 179.961C16.5488 180.058 16.5064 180.192 16.5064 180.361V182.3C16.5064 182.47 16.5488 182.605 16.6336 182.707C16.7226 182.805 16.8413 182.853 16.9896 182.853ZM19.6265 181.448C19.4824 181.448 19.3616 181.402 19.2641 181.308C19.1709 181.211 19.1242 181.09 19.1242 180.946C19.1242 180.798 19.1709 180.677 19.2641 180.584C19.3574 180.49 19.4782 180.444 19.6265 180.444C19.7749 180.444 19.8957 180.49 19.9889 180.584C20.0822 180.677 20.1288 180.798 20.1288 180.946C20.1288 181.09 20.08 181.211 19.9826 181.308C19.8893 181.402 19.7706 181.448 19.6265 181.448ZM19.6265 183.534C19.4824 183.534 19.3616 183.487 19.2641 183.394C19.1709 183.296 19.1242 183.175 19.1242 183.031C19.1242 182.883 19.1709 182.762 19.2641 182.669C19.3574 182.576 19.4782 182.529 19.6265 182.529C19.7749 182.529 19.8957 182.576 19.9889 182.669C20.0822 182.762 20.1288 182.883 20.1288 183.031C20.1288 183.175 20.08 183.296 19.9826 183.394C19.8893 183.487 19.7706 183.534 19.6265 183.534ZM22.2672 183.623C21.8476 183.623 21.5127 183.5 21.2626 183.254C21.0126 183.004 20.8875 182.669 20.8875 182.249V180.406C20.8875 179.99 21.0126 179.66 21.2626 179.414C21.5127 179.164 21.8476 179.039 22.2672 179.039C22.6868 179.039 23.0217 179.164 23.2717 179.414C23.5261 179.66 23.6532 179.99 23.6532 180.406V182.249C23.6532 182.669 23.5261 183.004 23.2717 183.254C23.0217 183.5 22.6868 183.623 22.2672 183.623ZM22.2672 182.853C22.4155 182.853 22.5342 182.805 22.6232 182.707C22.7122 182.605 22.7567 182.47 22.7567 182.3V180.361C22.7567 180.192 22.7122 180.058 22.6232 179.961C22.5342 179.863 22.4155 179.814 22.2672 179.814C22.1188 179.814 22.0002 179.863 21.9111 179.961C21.8264 180.058 21.784 180.192 21.784 180.361V182.3C21.784 182.47 21.8264 182.605 21.9111 182.707C22.0002 182.805 22.1188 182.853 22.2672 182.853ZM26.7224 182.459C26.7224 182.807 26.6016 183.084 26.36 183.292C26.1184 183.5 25.7984 183.604 25.4 183.604C25.0185 183.604 24.7091 183.5 24.4717 183.292C24.2344 183.084 24.1157 182.809 24.1157 182.466V182.281C24.1157 182.26 24.1221 182.243 24.1348 182.23C24.1517 182.213 24.1708 182.205 24.192 182.205H24.9359C24.9571 182.205 24.974 182.213 24.9867 182.23C25.0037 182.243 25.0122 182.26 25.0122 182.281V182.377C25.0122 182.508 25.0482 182.616 25.1202 182.701C25.1965 182.781 25.2898 182.822 25.4 182.822C25.5229 182.822 25.6225 182.779 25.6988 182.694C25.7794 182.61 25.8196 182.502 25.8196 182.37V181.76C25.8196 181.747 25.8154 181.741 25.8069 181.741C25.7984 181.736 25.7899 181.739 25.7815 181.747C25.6331 181.878 25.4445 181.944 25.2156 181.944C24.9571 181.944 24.7367 181.878 24.5544 181.747C24.3721 181.611 24.2407 181.427 24.1602 181.194C24.0712 180.995 24.0267 180.766 24.0267 180.507C24.0267 180.291 24.0564 180.094 24.1157 179.916C24.1962 179.64 24.3446 179.429 24.5608 179.28C24.7769 179.132 25.0482 179.058 25.3746 179.058C25.6501 179.058 25.8874 179.117 26.0867 179.236C26.2859 179.35 26.4342 179.518 26.5317 179.738L26.5444 179.77C26.6589 179.961 26.7161 180.194 26.7161 180.469L26.7224 182.459ZM25.3809 181.219C25.5632 181.219 25.6882 181.13 25.756 180.952C25.7984 180.846 25.8196 180.702 25.8196 180.52C25.8196 180.376 25.8048 180.251 25.7751 180.145C25.7158 179.933 25.5844 179.827 25.3809 179.827C25.1817 179.827 25.0482 179.935 24.9804 180.151C24.9507 180.266 24.9359 180.391 24.9359 180.526C24.9359 180.696 24.9571 180.838 24.9994 180.952C25.0715 181.13 25.1987 181.219 25.3809 181.219ZM27.9713 181.448C27.8272 181.448 27.7064 181.402 27.6089 181.308C27.5156 181.211 27.469 181.09 27.469 180.946C27.469 180.798 27.5156 180.677 27.6089 180.584C27.7021 180.49 27.8229 180.444 27.9713 180.444C28.1196 180.444 28.2404 180.49 28.3337 180.584C28.4269 180.677 28.4736 180.798 28.4736 180.946C28.4736 181.09 28.4248 181.211 28.3273 181.308C28.2341 181.402 28.1154 181.448 27.9713 181.448ZM27.9713 183.534C27.8272 183.534 27.7064 183.487 27.6089 183.394C27.5156 183.296 27.469 183.175 27.469 183.031C27.469 182.883 27.5156 182.762 27.6089 182.669C27.7021 182.576 27.8229 182.529 27.9713 182.529C28.1196 182.529 28.2404 182.576 28.3337 182.669C28.4269 182.762 28.4736 182.883 28.4736 183.031C28.4736 183.175 28.4248 183.296 28.3273 183.394C28.2341 183.487 28.1154 183.534 27.9713 183.534ZM29.7854 179.121C29.8193 179.109 29.8511 179.102 29.8808 179.102H30.6501C30.6713 179.102 30.6882 179.111 30.701 179.128C30.7179 179.14 30.7264 179.157 30.7264 179.178V183.476C30.7264 183.498 30.7179 183.517 30.701 183.534C30.6882 183.546 30.6713 183.553 30.6501 183.553H29.9062C29.885 183.553 29.866 183.546 29.849 183.534C29.8363 183.517 29.8299 183.498 29.8299 183.476V180.005C29.8299 179.997 29.8257 179.988 29.8172 179.98C29.813 179.971 29.8066 179.969 29.7981 179.973L29.2323 180.081L29.2068 180.088C29.1687 180.088 29.1496 180.064 29.1496 180.018L29.1306 179.471C29.1306 179.429 29.1496 179.399 29.1878 179.382L29.7854 179.121ZM32.4004 182.745C32.3919 182.754 32.3898 182.762 32.394 182.771C32.3982 182.779 32.4067 182.783 32.4194 182.783H33.9453C33.9665 182.783 33.9835 182.792 33.9962 182.809C34.0132 182.822 34.0216 182.839 34.0216 182.86V183.476C34.0216 183.498 34.0132 183.517 33.9962 183.534C33.9835 183.546 33.9665 183.553 33.9453 183.553H31.3386C31.3174 183.553 31.2983 183.546 31.2814 183.534C31.2687 183.517 31.2623 183.498 31.2623 183.476V182.86C31.2623 182.826 31.275 182.796 31.3004 182.771C31.8133 182.182 32.2393 181.671 32.5784 181.238C32.8836 180.844 33.0362 180.533 33.0362 180.304C33.0362 180.155 32.9959 180.039 32.9154 179.954C32.8348 179.865 32.7267 179.821 32.5911 179.821C32.4597 179.821 32.3516 179.865 32.2668 179.954C32.1863 180.039 32.146 180.151 32.146 180.291V180.501C32.146 180.522 32.1376 180.541 32.1206 180.558C32.1079 180.571 32.0909 180.577 32.0697 180.577H31.3132C31.292 180.577 31.2729 180.571 31.2559 180.558C31.2432 180.541 31.2369 180.522 31.2369 180.501V180.202C31.2581 179.855 31.3958 179.577 31.6501 179.369C31.9044 179.157 32.2245 179.051 32.6102 179.051C32.8772 179.051 33.1103 179.104 33.3095 179.21C33.513 179.316 33.6698 179.465 33.78 179.655C33.8902 179.846 33.9453 180.06 33.9453 180.297C33.9453 180.497 33.9051 180.694 33.8245 180.889C33.744 181.08 33.6211 181.285 33.4558 181.505C33.3498 181.645 33.2226 181.802 33.0743 181.976C32.9259 182.15 32.7776 182.319 32.6292 182.485L32.4004 182.745ZM35.2171 181.448C35.073 181.448 34.9522 181.402 34.8547 181.308C34.7614 181.211 34.7148 181.09 34.7148 180.946C34.7148 180.798 34.7614 180.677 34.8547 180.584C34.9479 180.49 35.0687 180.444 35.2171 180.444C35.3654 180.444 35.4862 180.49 35.5795 180.584C35.6727 180.677 35.7193 180.798 35.7193 180.946C35.7193 181.09 35.6706 181.211 35.5731 181.308C35.4799 181.402 35.3612 181.448 35.2171 181.448ZM35.2171 183.534C35.073 183.534 34.9522 183.487 34.8547 183.394C34.7614 183.296 34.7148 183.175 34.7148 183.031C34.7148 182.883 34.7614 182.762 34.8547 182.669C34.9479 182.576 35.0687 182.529 35.2171 182.529C35.3654 182.529 35.4862 182.576 35.5795 182.669C35.6727 182.762 35.7193 182.883 35.7193 183.031C35.7193 183.175 35.6706 183.296 35.5731 183.394C35.4799 183.487 35.3612 183.534 35.2171 183.534ZM37.0312 179.121C37.0651 179.109 37.0969 179.102 37.1266 179.102H37.8959C37.9171 179.102 37.934 179.111 37.9467 179.128C37.9637 179.14 37.9722 179.157 37.9722 179.178V183.476C37.9722 183.498 37.9637 183.517 37.9467 183.534C37.934 183.546 37.9171 183.553 37.8959 183.553H37.152C37.1308 183.553 37.1117 183.546 37.0948 183.534C37.0821 183.517 37.0757 183.498 37.0757 183.476V180.005C37.0757 179.997 37.0715 179.988 37.063 179.98C37.0588 179.971 37.0524 179.969 37.0439 179.973L36.4781 180.081L36.4526 180.088C36.4145 180.088 36.3954 180.064 36.3954 180.018L36.3763 179.471C36.3763 179.429 36.3954 179.399 36.4336 179.382L37.0312 179.121ZM41.077 181.404C41.1575 181.62 41.1978 181.868 41.1978 182.148C41.1978 182.347 41.1723 182.535 41.1215 182.713C41.0409 182.997 40.8905 183.216 40.6701 183.368C40.4497 183.521 40.1742 183.597 39.8435 183.597C39.5129 183.597 39.2353 183.517 39.0107 183.356C38.786 183.195 38.6355 182.964 38.5592 182.663C38.5296 182.574 38.5126 182.482 38.5084 182.389V182.377C38.5084 182.334 38.5317 182.313 38.5783 182.313H39.3349C39.3858 182.313 39.4133 182.338 39.4176 182.389C39.426 182.44 39.4345 182.474 39.443 182.491C39.4727 182.601 39.5214 182.686 39.5892 182.745C39.657 182.8 39.7418 182.828 39.8435 182.828C39.9453 182.828 40.0322 182.798 40.1042 182.739C40.1763 182.675 40.2229 182.591 40.2441 182.485C40.2738 182.396 40.2886 182.285 40.2886 182.154C40.2886 182.018 40.2738 181.9 40.2441 181.798C40.2144 181.696 40.1657 181.62 40.0979 181.569C40.03 181.518 39.9453 181.493 39.8435 181.493C39.6443 181.493 39.5087 181.575 39.4366 181.741C39.4239 181.783 39.3964 181.804 39.354 181.804H38.5847C38.5635 181.804 38.5444 181.798 38.5275 181.785C38.5147 181.768 38.5084 181.749 38.5084 181.728V179.178C38.5084 179.157 38.5147 179.14 38.5275 179.128C38.5444 179.111 38.5635 179.102 38.5847 179.102H41.0134C41.0346 179.102 41.0515 179.111 41.0643 179.128C41.0812 179.14 41.0897 179.157 41.0897 179.178V179.795C41.0897 179.816 41.0812 179.835 41.0643 179.852C41.0515 179.865 41.0346 179.872 41.0134 179.872H39.4366C39.4154 179.872 39.4048 179.882 39.4048 179.903L39.3985 180.895C39.3985 180.912 39.4027 180.923 39.4112 180.927C39.4197 180.927 39.4282 180.923 39.4366 180.914C39.6062 180.783 39.8096 180.717 40.047 180.717C40.3013 180.717 40.5154 180.776 40.6891 180.895C40.8672 181.014 40.9964 181.183 41.077 181.404Z" fill="white"/>
<path d="M109.834 179.153C109.851 179.119 109.881 179.102 109.923 179.102H110.661C110.682 179.102 110.699 179.111 110.711 179.128C110.728 179.14 110.737 179.157 110.737 179.178V183.476C110.737 183.498 110.728 183.517 110.711 183.534C110.699 183.546 110.682 183.553 110.661 183.553H109.917C109.896 183.553 109.876 183.546 109.859 183.534C109.847 183.517 109.84 183.498 109.84 183.476V180.654C109.84 180.637 109.836 180.628 109.828 180.628C109.819 180.624 109.811 180.628 109.802 180.641L109.217 181.607C109.2 181.641 109.171 181.658 109.128 181.658H108.982C108.94 181.658 108.91 181.641 108.893 181.607L108.308 180.641C108.3 180.628 108.291 180.624 108.283 180.628C108.274 180.628 108.27 180.637 108.27 180.654V183.476C108.27 183.498 108.262 183.517 108.245 183.534C108.232 183.546 108.215 183.553 108.194 183.553H107.45C107.429 183.553 107.41 183.546 107.393 183.534C107.38 183.517 107.374 183.498 107.374 183.476V179.178C107.374 179.157 107.38 179.14 107.393 179.128C107.41 179.111 107.429 179.102 107.45 179.102H108.187C108.23 179.102 108.259 179.119 108.276 179.153L109.039 180.406C109.052 180.431 109.065 180.431 109.077 180.406L109.834 179.153ZM114.106 179.795C114.106 179.816 114.097 179.835 114.08 179.852C114.068 179.865 114.051 179.872 114.029 179.872H112.325C112.304 179.872 112.294 179.882 112.294 179.903V180.895C112.294 180.916 112.304 180.927 112.325 180.927H113.387C113.408 180.927 113.425 180.935 113.438 180.952C113.455 180.965 113.464 180.982 113.464 181.003V181.62C113.464 181.641 113.455 181.66 113.438 181.677C113.425 181.69 113.408 181.696 113.387 181.696H112.325C112.304 181.696 112.294 181.707 112.294 181.728V182.752C112.294 182.773 112.304 182.783 112.325 182.783H114.029C114.051 182.783 114.068 182.792 114.08 182.809C114.097 182.822 114.106 182.839 114.106 182.86V183.476C114.106 183.498 114.097 183.517 114.08 183.534C114.068 183.546 114.051 183.553 114.029 183.553H111.474C111.452 183.553 111.433 183.546 111.416 183.534C111.404 183.517 111.397 183.498 111.397 183.476V179.178C111.397 179.157 111.404 179.14 111.416 179.128C111.433 179.111 111.452 179.102 111.474 179.102H114.029C114.051 179.102 114.068 179.111 114.08 179.128C114.097 179.14 114.106 179.157 114.106 179.178V179.795ZM116.832 179.178C116.832 179.157 116.838 179.14 116.851 179.128C116.868 179.111 116.887 179.102 116.908 179.102H117.645C117.667 179.102 117.684 179.111 117.696 179.128C117.713 179.14 117.722 179.157 117.722 179.178V183.476C117.722 183.498 117.713 183.517 117.696 183.534C117.684 183.546 117.667 183.553 117.645 183.553H116.87C116.827 183.553 116.798 183.534 116.781 183.496L115.566 180.908C115.558 180.895 115.549 180.889 115.541 180.889C115.532 180.889 115.528 180.897 115.528 180.914L115.535 183.476C115.535 183.498 115.526 183.517 115.509 183.534C115.496 183.546 115.479 183.553 115.458 183.553H114.721C114.7 183.553 114.68 183.546 114.664 183.534C114.651 183.517 114.644 183.498 114.644 183.476V179.178C114.644 179.157 114.651 179.14 114.664 179.128C114.68 179.111 114.7 179.102 114.721 179.102H115.49C115.532 179.102 115.562 179.121 115.579 179.159L116.793 181.747C116.802 181.76 116.81 181.766 116.819 181.766C116.827 181.766 116.832 181.758 116.832 181.741V179.178ZM119.819 183.604C119.531 183.604 119.276 183.544 119.056 183.426C118.835 183.307 118.664 183.142 118.541 182.93C118.422 182.713 118.363 182.466 118.363 182.186V179.178C118.363 179.157 118.369 179.14 118.382 179.128C118.399 179.111 118.418 179.102 118.439 179.102H119.183C119.204 179.102 119.221 179.111 119.234 179.128C119.251 179.14 119.259 179.157 119.259 179.178V182.23C119.259 182.413 119.31 182.559 119.412 182.669C119.514 182.779 119.649 182.834 119.819 182.834C119.988 182.834 120.124 182.779 120.226 182.669C120.327 182.559 120.378 182.413 120.378 182.23V179.178C120.378 179.157 120.385 179.14 120.397 179.128C120.414 179.111 120.433 179.102 120.455 179.102H121.198C121.22 179.102 121.237 179.111 121.249 179.128C121.266 179.14 121.275 179.157 121.275 179.178V182.186C121.275 182.466 121.213 182.713 121.09 182.93C120.972 183.142 120.802 183.307 120.582 183.426C120.361 183.544 120.107 183.604 119.819 183.604Z" fill="white"/>
<rect x="84.7852" y="13.3389" width="11.113" height="7.72032" rx="0.908273" fill="white"/>
<rect x="97.7393" y="13.793" width="10.2047" height="6.81205" rx="0.454137" stroke="white" stroke-width="0.908273"/>
<path d="M102.535 17.3304C102.556 17.3304 102.573 17.3388 102.586 17.3558C102.603 17.3685 102.611 17.3855 102.611 17.4067V18.0615C102.611 18.0827 102.603 18.1018 102.586 18.1187C102.573 18.1315 102.556 18.1378 102.535 18.1378H102.3C102.278 18.1378 102.268 18.1484 102.268 18.1696V19.1932C102.268 19.2144 102.259 19.2335 102.242 19.2505C102.23 19.2632 102.213 19.2695 102.191 19.2695H101.448C101.426 19.2695 101.407 19.2632 101.39 19.2505C101.378 19.2335 101.371 19.2144 101.371 19.1932V18.1696C101.371 18.1484 101.361 18.1378 101.34 18.1378H99.5657C99.5445 18.1378 99.5254 18.1315 99.5084 18.1187C99.4957 18.1018 99.4894 18.0827 99.4894 18.0615V17.5465C99.4894 17.5211 99.4957 17.4893 99.5084 17.4512L100.5 14.8762C100.513 14.8381 100.543 14.819 100.589 14.819H101.384C101.448 14.819 101.469 14.8487 101.448 14.908L100.532 17.2922C100.528 17.3177 100.536 17.3304 100.557 17.3304H101.34C101.361 17.3304 101.371 17.3198 101.371 17.2986V16.5738C101.371 16.5526 101.378 16.5356 101.39 16.5229C101.407 16.506 101.426 16.4975 101.448 16.4975H102.191C102.213 16.4975 102.23 16.506 102.242 16.5229C102.259 16.5356 102.268 16.5526 102.268 16.5738V17.2986C102.268 17.3198 102.278 17.3304 102.3 17.3304H102.535ZM103.215 19.2695C103.194 19.2695 103.174 19.2632 103.158 19.2505C103.145 19.2335 103.138 19.2144 103.138 19.1932V14.8953C103.138 14.8741 103.145 14.8571 103.158 14.8444C103.174 14.8275 103.194 14.819 103.215 14.819H103.959C103.98 14.819 103.997 14.8275 104.009 14.8444C104.026 14.8571 104.035 14.8741 104.035 14.8953V16.5865C104.035 16.5992 104.039 16.6077 104.048 16.6119C104.06 16.6162 104.069 16.6119 104.073 16.5992L105.211 14.8699C105.232 14.8359 105.262 14.819 105.3 14.819H106.12C106.15 14.819 106.169 14.8275 106.178 14.8444C106.19 14.8614 106.188 14.8826 106.171 14.908L104.995 16.7327C104.991 16.7454 104.991 16.7603 104.995 16.7772L106.241 19.1805C106.25 19.1975 106.254 19.2102 106.254 19.2187C106.254 19.2526 106.231 19.2695 106.184 19.2695H105.37C105.332 19.2695 105.302 19.2505 105.281 19.2123L104.378 17.4702C104.374 17.4575 104.368 17.4512 104.359 17.4512C104.351 17.4512 104.342 17.4575 104.334 17.4702L104.048 17.8835C104.039 17.9005 104.035 17.9132 104.035 17.9217V19.1932C104.035 19.2144 104.026 19.2335 104.009 19.2505C103.997 19.2632 103.98 19.2695 103.959 19.2695H103.215Z" fill="white"/>
<path d="M45.2702 79.6426H36.1875V88.7253" stroke="white" stroke-width="0.908273" stroke-linecap="round" stroke-linejoin="round"/>
<path d="M88.4173 79.6426H97.5V88.7253" stroke="white" stroke-width="0.908273" stroke-linecap="round" stroke-linejoin="round"/>
<path d="M88.4173 116.882H97.5V107.799" stroke="white" stroke-width="0.908273" stroke-linecap="round" stroke-linejoin="round"/>
<path d="M45.2702 116.882H36.1875V107.799" stroke="white" stroke-width="0.908273" stroke-linecap="round" stroke-linejoin="round"/>
<path d="M66.8398 95.5381L66.8398 100.534" stroke="white" stroke-width="0.681205" stroke-linecap="round"/>
<path d="M64.3438 98.0361H69.3393" stroke="white" stroke-width="0.681205" stroke-linecap="round"/>
</svg>
