<svg width="133" height="197" viewBox="0 0 133 197" fill="none" xmlns="http://www.w3.org/2000/svg">
<rect x="7.80859" y="19.165" width="122.617" height="123.979" fill="#2A2A2A"/>
<path d="M7.35502 0.772932C3.46742 0.772932 0.3159 3.92446 0.3159 7.81205V189.467C0.3159 193.354 3.46742 196.506 7.35502 196.506H125.431C129.318 196.506 132.47 193.354 132.47 189.467V7.81205C132.47 3.92445 129.318 0.772932 125.431 0.772932H7.35502ZM8.49036 30.973C8.49036 27.3362 11.4385 24.388 15.0753 24.388H117.71C121.347 24.388 124.295 27.3362 124.295 30.973V133.608C124.295 137.245 121.347 140.193 117.71 140.193H15.0753C11.4386 140.193 8.49036 137.245 8.49036 133.608V30.973Z" fill="white" stroke="#2A2A2A" stroke-width="0.454137"/>
<path d="M54.1932 149.276L47.19 152.995M54.1932 149.276L43.6484 149.241L47.19 152.995M54.1932 149.276L48.3162 158.031L47.19 152.995" stroke="black" stroke-width="0.908273" stroke-linejoin="round"/>
<path d="M36.8983 154.617L36.4876 154.423C36.4467 154.509 36.4343 154.607 36.4521 154.701L36.8983 154.617ZM35.4277 156.378L35.529 155.935C35.4023 155.906 35.2692 155.933 35.1635 156.009L35.4277 156.378ZM37.3125 156.81L37.2112 157.252C37.3605 157.287 37.517 157.243 37.6274 157.137C37.7378 157.03 37.7872 156.876 37.7587 156.725L37.3125 156.81ZM37.3298 156.898L37.1911 157.331C37.3514 157.382 37.5269 157.341 37.6473 157.222C37.7677 157.105 37.8131 156.93 37.7653 156.769L37.3298 156.898ZM36.8757 152.682C36.8757 153.306 36.7364 153.895 36.4876 154.423L37.3091 154.811C37.6138 154.164 37.784 153.442 37.784 152.682H36.8757ZM32.7885 148.595C35.0458 148.595 36.8757 150.425 36.8757 152.682H37.784C37.784 149.923 35.5474 147.687 32.7885 147.687V148.595ZM28.7012 152.682C28.7012 150.425 30.5311 148.595 32.7885 148.595V147.687C30.0295 147.687 27.793 149.923 27.793 152.682H28.7012ZM32.7885 156.769C30.5311 156.769 28.7012 154.94 28.7012 152.682H27.793C27.793 155.441 30.0295 157.678 32.7885 157.678V156.769ZM35.1635 156.009C34.4942 156.488 33.6749 156.769 32.7885 156.769V157.678C33.8706 157.678 34.8736 157.333 35.6919 156.747L35.1635 156.009ZM37.4138 156.367L35.529 155.935L35.3264 156.821L37.2112 157.252L37.4138 156.367ZM36.4521 154.701L36.8663 156.894L37.7587 156.725L37.3446 154.533L36.4521 154.701ZM36.2741 157.036L37.1911 157.331L37.4686 156.465L36.5517 156.171L36.2741 157.036ZM37.7653 156.769L37.7385 156.678L36.8676 156.936L36.8944 157.027L37.7653 156.769Z" fill="black"/>
<path d="M18.9357 147.687C18.0276 147.687 17.1994 148.156 16.6529 148.876C16.5481 149.014 16.3277 149.014 16.223 148.876C15.6765 148.156 14.8482 147.687 13.9402 147.687C12.3125 147.687 10.9883 149.011 10.9883 150.638C10.9883 153.691 15.308 156.931 16.1741 157.55L16.306 157.644C16.3849 157.7 16.491 157.7 16.5699 157.644L16.7018 157.55C17.5678 156.931 21.8876 153.691 21.8876 150.638C21.8876 149.011 20.5633 147.687 18.9357 147.687ZM16.665 150.865C16.7904 150.865 16.8909 150.763 16.9032 150.639C17.013 149.526 17.9157 148.595 18.9357 148.595C20.0624 148.595 20.9793 149.512 20.9793 150.638C20.9793 152.541 18.689 154.925 16.5722 156.518C16.4925 156.578 16.3834 156.578 16.3036 156.518C14.1868 154.925 11.8966 152.541 11.8966 150.638C11.8966 149.512 12.8135 148.595 13.9402 148.595C14.9601 148.595 15.8629 149.526 15.9726 150.639C15.9849 150.763 16.0855 150.865 16.2109 150.865H16.665Z" fill="black"/>
<path d="M121.069 157.222C120.916 157.222 120.765 157.192 120.624 157.135C120.483 157.078 120.356 156.995 120.248 156.89L117.709 154.461L115.17 156.892C115.007 157.051 114.798 157.159 114.57 157.203C114.342 157.246 114.106 157.222 113.893 157.134C113.677 157.05 113.492 156.906 113.363 156.72C113.234 156.534 113.166 156.315 113.168 156.091V149.673C113.168 149.146 113.386 148.641 113.772 148.268C114.16 147.896 114.685 147.687 115.233 147.687H120.186C120.457 147.687 120.726 147.738 120.976 147.838C121.227 147.938 121.454 148.084 121.646 148.268C121.838 148.453 121.99 148.672 122.094 148.913C122.197 149.154 122.251 149.412 122.251 149.673V156.091C122.253 156.315 122.185 156.534 122.056 156.72C121.927 156.906 121.743 157.05 121.528 157.134C121.382 157.193 121.226 157.222 121.069 157.222ZM115.233 148.481C114.904 148.481 114.589 148.607 114.357 148.83C114.124 149.054 113.994 149.357 113.994 149.673V156.091C113.994 156.158 114.014 156.222 114.052 156.277C114.09 156.332 114.144 156.376 114.208 156.401C114.271 156.426 114.341 156.433 114.409 156.42C114.476 156.408 114.538 156.376 114.587 156.33L117.421 153.619C117.498 153.546 117.602 153.504 117.712 153.504C117.821 153.504 117.925 153.546 118.002 153.619L120.832 156.329C120.882 156.376 120.943 156.407 121.011 156.42C121.079 156.433 121.149 156.426 121.212 156.4C121.275 156.375 121.33 156.332 121.367 156.277C121.406 156.222 121.426 156.157 121.426 156.09V149.673C121.426 149.357 121.295 149.054 121.063 148.83C120.831 148.607 120.516 148.481 120.187 148.481H115.233Z" fill="black"/>
</svg>
