<svg width="134" height="197" viewBox="0 0 134 197" fill="none" xmlns="http://www.w3.org/2000/svg">
<rect x="0.772932" y="0.395979" width="132.154" height="195.733" rx="7.03912" fill="#D9D9D9" stroke="#2A2A2A" stroke-width="0.454137"/>
<rect x="3.72266" y="16.0635" width="124.888" height="163.489" fill="#2A2A2A"/>
<path fill-rule="evenodd" clip-rule="evenodd" d="M7.81205 0.623047C4.04986 0.623047 1 3.67291 1 7.4351V189.09C1 192.852 4.04987 195.902 7.81206 195.902H125.888C129.65 195.902 132.7 192.852 132.7 189.09V7.4351C132.7 3.67291 129.65 0.623047 125.888 0.623047H7.81205ZM12.0575 30.0149C11.8071 30.4771 11.1928 30.5298 10.8674 30.1169L8.26841 26.8193L21.2755 178.542L23.2721 174.856C23.5225 174.394 24.1368 174.341 24.4622 174.754L27.0626 178.054L29.0635 174.36C29.3139 173.898 29.9282 173.845 30.2536 174.258L32.854 177.557L34.8549 173.863C35.1052 173.401 35.7196 173.348 36.045 173.761L38.6454 177.061L40.6462 173.367C40.8966 172.905 41.5109 172.852 41.8363 173.265L44.4367 176.564L46.4376 172.87C46.688 172.408 47.3023 172.356 47.6277 172.768L50.2281 176.068L52.229 172.374C52.4793 171.912 53.0937 171.859 53.4191 172.272L56.0195 175.571L58.0203 171.877C58.2707 171.415 58.885 171.363 59.2104 171.775L61.8108 175.075L63.8117 171.381C64.0621 170.919 64.6764 170.866 65.0018 171.279L67.6022 174.578L69.6031 170.884C69.8534 170.422 70.4678 170.37 70.7932 170.782L73.3936 174.082L75.3944 170.388C75.6448 169.926 76.2591 169.873 76.5845 170.286L79.1849 173.585L81.1858 169.891C81.4362 169.429 82.0505 169.377 82.3759 169.789L84.9763 173.089L86.9772 169.395C87.2275 168.933 87.8419 168.88 88.1673 169.293L90.7677 172.592L92.7685 168.898C93.0189 168.436 93.6332 168.384 93.9586 168.796L96.559 172.096L98.5599 168.402C98.8103 167.94 99.4246 167.887 99.75 168.3L102.35 171.599L104.351 167.906C104.602 167.443 105.216 167.391 105.541 167.803L108.142 171.103L110.143 167.409C110.393 166.947 111.007 166.894 111.333 167.307L113.933 170.606L115.934 166.913C116.184 166.45 116.799 166.398 117.124 166.811L119.725 170.11L121.725 166.416C121.976 165.954 122.59 165.901 122.915 166.314L125.521 169.62L112.513 17.8787L110.511 21.5746C110.26 22.0368 109.646 22.0895 109.321 21.6766L106.72 18.3772L104.719 22.0711C104.469 22.5333 103.855 22.586 103.529 22.1731L100.929 18.8737L98.928 22.5676C98.6776 23.0298 98.0633 23.0825 97.7379 22.6696L95.1375 19.3702L93.1366 23.064C92.8863 23.5263 92.2719 23.579 91.9465 23.1661L89.3461 19.8666L87.3453 23.5605C87.0949 24.0228 86.4806 24.0754 86.1552 23.6626L83.5548 20.3631L81.5539 24.057C81.3035 24.5193 80.6892 24.5719 80.3638 24.1591L77.7634 20.8596L75.7625 24.5535C75.5122 25.0158 74.8978 25.0684 74.5724 24.6555L71.972 21.3561L69.9712 25.05C69.7208 25.5122 69.1065 25.5649 68.7811 25.152L66.1807 21.8526L64.1798 25.5465C63.9294 26.0087 63.3151 26.0614 62.9897 25.6485L60.3893 22.3491L58.3884 26.043C58.1381 26.5052 57.5237 26.5579 57.1983 26.145L54.5979 22.8456L52.5971 26.5395C52.3467 27.0017 51.7324 27.0544 51.4069 26.6415L48.8066 23.3421L46.8057 27.036C46.5553 27.4982 45.941 27.5509 45.6156 27.138L43.0152 23.8386L41.0143 27.5325C40.764 27.9947 40.1496 28.0474 39.8242 27.6345L37.2238 24.335L35.223 28.0289C34.9726 28.4912 34.3582 28.5439 34.0328 28.131L31.4325 24.8315L29.4316 28.5254C29.1812 28.9877 28.5669 29.0403 28.2415 28.6275L25.6411 25.328L23.6402 29.0219C23.3899 29.4842 22.7755 29.5368 22.4501 29.124L19.8497 25.8245L17.8489 29.5184C17.5985 29.9807 16.9842 30.0333 16.6587 29.6204L14.0584 26.321L12.0575 30.0149Z" fill="white"/>
<path fill-rule="evenodd" clip-rule="evenodd" d="M11.8993 0.623047V6.52683L6.44964 6.52683L6.44964 0.759313C6.29633 0.790433 6.14489 0.826703 5.9955 0.867932L5.99551 6.52683L1.06002 6.52682C1.04005 6.67672 1.02496 6.82815 1.0149 6.98096L5.99551 6.98096V12.4306H1V12.8847H5.99551L5.99551 18.3344H1V18.7885H5.99551V24.2382H1V24.6923H5.99551L5.99551 30.1419H1V30.5961H5.99551V36.0457H1V36.4999H5.99551L5.99551 41.9495H1V42.4036H5.99551L5.99551 47.8533H1V48.3074H5.99551V53.757H1V54.2112H5.99551L5.99551 59.6608H1V60.115H5.99551V65.5646H1V66.0187H5.99551L5.99551 71.4684H1V71.9225H5.99551V77.3722H1V77.8263H5.99551V83.2759H1V83.7301H5.99551L5.99551 89.1797H1V89.6339H5.99551V95.0835H1V95.5376H5.99551L5.99551 100.987H1V101.441H5.99551V106.891H1V107.345H5.99551L5.99551 112.795H1V113.249H5.99551V118.699H1V119.153H5.99551V124.602H1V125.057H5.99551L5.99551 130.506H1V130.96H5.99551V136.41H1V136.864H5.99551L5.99551 142.314H1V142.768H5.99551V148.217H1V148.672H5.99551L5.99551 154.121H1V154.575H5.99551L5.99551 160.025H1V160.479H5.99551V165.929H1V166.383H5.99551L5.99551 171.833H1V172.287H5.99551V177.736H1V178.191H5.99551L5.99551 183.64H1V184.094H5.99551V189.544H1.0149C1.02496 189.697 1.04005 189.848 1.06002 189.998H5.99551L5.99551 195.657C6.1449 195.698 6.29634 195.734 6.44965 195.766L6.44965 189.998H11.8993V195.902H12.3534V189.998H17.8031V195.902H18.2572V189.998H23.2527V195.902H23.7069V189.998H29.1565V195.902H29.6106V189.998H35.0603V195.902H35.5144V189.998H40.5099V195.902H40.9641V189.998H45.9596V195.902H46.4137V189.998H51.8633V195.902H52.3175V189.998H57.7671V195.902H58.2212V189.998H63.6709V195.902H64.125V189.998L69.5747 189.998V195.902H70.0288V189.998H75.4784V195.902H75.9326V189.998H81.3822V195.902H81.8364V189.998H87.286V195.902H87.7401V189.998H92.7356V195.902H93.1898V189.998H98.1853V195.902H98.6394V189.998H104.089V195.902H104.543V189.998H109.993V195.902H110.447V189.998H115.442V195.902H115.897V189.998H121.346V195.902H121.8V189.998H127.25V195.766C127.403 195.734 127.555 195.698 127.704 195.657V189.998H132.64C132.66 189.848 132.675 189.697 132.685 189.544H127.704V184.094H132.7V183.64H127.704V178.191H132.7V177.736H127.704V172.287H132.7V171.833H127.704V166.383H132.7V165.929H127.704V160.479H132.7V160.025H127.704V154.575H132.7V154.121H127.704V148.672H132.7V148.218H127.704L127.704 142.768H132.7V142.314H127.704V136.864H132.7V136.41H127.704V130.96H132.7V130.506H127.704V125.057H132.7V124.602H127.704V119.153H132.7V118.699H127.704V113.249H132.7V112.795H127.704V107.345H132.7V106.891H127.704V101.441H132.7V100.987H127.704V95.5377H132.7V95.0835H127.704V89.6339H132.7V89.1797H127.704V83.7301H132.7V83.276H127.704V77.8263H132.7V77.3722H127.704V71.9225H132.7V71.4684H127.704V66.0188H132.7V65.5646H127.704V60.115H132.7V59.6608H127.704V54.2112H132.7V53.7571H127.704L127.704 48.3074H132.7V47.8533H127.704V42.4036H132.7V41.9495H127.704V36.4999H132.7V36.0457H127.704V30.5961H132.7V30.1419H127.704V24.6923H132.7V24.2382H127.704V18.7885H132.7V18.3344H127.704V12.8848H132.7V12.4306H127.704V6.98097L132.685 6.98097C132.675 6.82816 132.66 6.67673 132.64 6.52684L127.704 6.52684V0.867933C127.555 0.826704 127.403 0.790435 127.25 0.759314V6.52684L121.8 6.52684V0.623047H121.346V6.52684L115.897 6.52684V0.623047H115.442V6.52684L110.447 6.52683V0.623047H109.993V6.52683L104.543 6.52683V0.623047H104.089V6.52683L98.6394 6.52683V0.623047H98.1853V6.52683H93.1898V0.623047H92.7356V6.52683L87.7401 6.52683V0.623047H87.286V6.52683L81.8364 6.52683V0.623047H81.3822V6.52683L75.9326 6.52683V0.623047H75.4784V6.52683L70.0288 6.52683V0.623047H69.5747V6.52683L64.125 6.52683V0.623047H63.6709V6.52683L58.2212 6.52683V0.623047H57.7671V6.52683L52.3175 6.52683V0.623047H51.8633V6.52683L46.4137 6.52683V0.623047H45.9595V6.52683L40.964 6.52683V0.623047H40.5099V6.52683L35.5144 6.52683V0.623047H35.0603V6.52683L29.6106 6.52683V0.623047H29.1565V6.52683L23.7068 6.52683V0.623047H23.2527V6.52683L18.2572 6.52683V0.623047H17.8031V6.52683L12.3534 6.52683V0.623047H11.8993ZM10.8879 30.1419C11.218 30.5275 11.8123 30.4676 12.0575 30.0149L12.3534 29.4686V24.6923H17.8031L17.8031 29.5928C17.8194 29.5693 17.8347 29.5445 17.8489 29.5184L18.2572 28.7646V24.6923H23.2527L23.2527 29.3615C23.4092 29.3046 23.5489 29.1905 23.6402 29.0219L23.7068 28.899V24.6923H29.1565V28.8124C29.2666 28.7484 29.3628 28.6524 29.4316 28.5254L29.6106 28.1949V24.6923L35.0603 24.6923V28.2349C35.1234 28.1791 35.1788 28.1104 35.223 28.0289L35.5144 27.4909V24.6923H37.0303L37.2238 24.335L37.5054 24.6923H40.5099V27.9034C40.6848 27.8724 40.8493 27.7746 40.964 27.6132V24.6923H42.5527L42.7987 24.2382H40.964V18.7885H45.9595V24.2382H43.3301L43.6881 24.6923H45.9595V27.3824C46.1082 27.4315 46.268 27.429 46.4137 27.3772V24.6923H48.0752L48.3212 24.2382H46.4137V18.7885H51.8633V24.2382H49.5128L49.8707 24.6923H51.8633V26.913C52.0185 26.937 52.1788 26.9083 52.3175 26.8291V24.6923H53.5976L53.8436 24.2382H52.3175V18.7885L57.7671 18.7885V24.2382H55.6955L56.0534 24.6923H57.7671V26.4247C57.9301 26.4235 58.0916 26.3653 58.2212 26.2528V24.6923H59.1201L59.366 24.2382H58.2212V18.7885H63.6709V24.2382H61.8781L62.2361 24.6923H63.6709V25.9183C63.8452 25.8885 64.0095 25.7925 64.125 25.6335V24.6923H64.6425L64.8885 24.2382H64.125V18.7885H69.5747V24.2382H68.0608L68.4187 24.6923H69.5747V25.3928C69.7348 25.337 69.8781 25.2218 69.9712 25.05L70.0288 24.9436V24.6923H70.1649L70.4109 24.2382H70.0288V18.7885H75.4784V24.2382H74.2435L74.5724 24.6555C74.5824 24.6682 74.5927 24.6805 74.6032 24.6923H75.4784V24.8457C75.5923 24.7817 75.6919 24.6839 75.7625 24.5535L75.9334 24.2382H75.9326V18.7885L81.3822 18.7885V24.2382H80.4353C80.7725 24.5627 81.3209 24.4872 81.5539 24.057L81.8364 23.5356V18.7885H87.286V23.6537C87.3075 23.6248 87.3273 23.5937 87.3453 23.5605L87.7401 22.8316V18.7885H92.7356V23.4084C92.8975 23.3532 93.0427 23.2375 93.1366 23.064L93.1898 22.966V18.7885H98.1853V22.9396C98.3399 22.9656 98.5002 22.9391 98.6394 22.8622V18.7885L104.089 18.7885V22.4528C104.251 22.4536 104.413 22.398 104.543 22.2886V18.7885H106.497L106.72 18.3772L107.044 18.7885H109.993V21.9478C110.166 21.9206 110.33 21.8281 110.447 21.6737V18.7885H112.02L112.266 18.3344H110.447V12.8847H115.442V18.3344H112.552L112.591 18.7885H115.442V24.2382H113.058L113.097 24.6923H115.442V30.1419H113.564L113.603 30.5961H115.442V36.0457H114.07L114.109 36.4999H115.442V41.9495H114.576L114.615 42.4036H115.442V47.8533H115.082L115.121 48.3074H115.442V52.0536L115.897 57.3509V54.2112H121.346V59.6608L116.095 59.6608L116.134 60.115H121.346V65.5646H116.601L116.64 66.0188H121.346V71.4684H117.107L117.146 71.9225H121.346V77.3722H117.613L117.652 77.8263H121.346V83.276H118.119L118.158 83.7301H121.346V89.1797H118.625L118.664 89.6339H121.346V95.0835H119.131L119.17 95.5377H121.346L121.346 100.987H119.638L119.676 101.441H121.346V106.891H120.144L120.183 107.345H121.346V112.795H120.65L120.689 113.249H121.346V118.699H121.156L121.195 119.153H121.346V120.919L121.8 126.216V125.057H127.25V130.506H122.168L122.207 130.96H127.25V136.41H122.674L122.713 136.864H127.25V142.314H123.18L123.219 142.768H127.25V148.218H123.687L123.725 148.672H127.25V154.121H124.193L124.232 154.575H127.25V160.025H124.699L124.738 160.479H127.25V165.929H125.205L125.244 166.383H127.25V171.833H121.8V166.383H122.97L122.915 166.314C122.59 165.901 121.976 165.954 121.725 166.416L121.346 167.116V171.833H115.897V166.982L115.442 167.82V171.833H110.447V167.106C110.325 167.169 110.217 167.271 110.143 167.409L109.993 167.686V171.833H104.543V167.675C104.468 167.735 104.402 167.812 104.351 167.906L104.089 168.39V171.833H98.6394V168.283C98.6101 168.319 98.5834 168.359 98.5599 168.402L98.1853 169.094V171.833H96.7016L96.559 172.096L96.3515 171.833H93.1898V168.548C93.0198 168.6 92.8664 168.718 92.7685 168.898L92.7356 168.959V171.833H91.1792L90.9332 172.287H92.7356V177.736H87.7401V172.287H90.5268L90.1689 171.833H87.7401V169.027C87.5867 168.996 87.4266 169.018 87.286 169.09V171.833H85.6568L85.4108 172.287H87.286V177.736H81.8364V172.287H84.3441L83.9862 171.833H81.8364V169.51C81.6756 169.505 81.5145 169.555 81.3822 169.658V171.833H80.1343L79.8883 172.287H81.3822V177.736H75.9326V172.287H78.1615L77.8035 171.833H75.9326V170.012C75.7618 170.034 75.5985 170.118 75.4784 170.263V171.833H74.6119L74.3659 172.287H75.4784V177.736H70.0288V172.287H71.9788L71.6209 171.833H70.0288V170.532C69.857 170.584 69.7018 170.702 69.6031 170.884L69.5747 170.937V171.833H69.0895L68.8435 172.287H69.5747V177.736L64.125 177.736V172.287H65.7961L65.4382 171.833H64.125V171.073C63.999 171.136 63.8883 171.24 63.8117 171.381L63.6709 171.641V171.833H63.567L63.321 172.287H63.6709V177.736H58.2212V172.287H59.6135L59.2555 171.833H58.2212V171.64C58.1422 171.701 58.0731 171.78 58.0203 171.877L57.7671 172.345V177.736H52.3175V172.287H53.4308L53.4191 172.272C53.0937 171.859 52.4793 171.912 52.229 172.374L51.8633 173.049V177.736H46.4137V172.915L45.9596 173.753V177.736H40.9641V173.057C40.8361 173.12 40.7237 173.224 40.6462 173.367L40.5099 173.619V177.736H35.5144V173.482C35.3543 173.475 35.1933 173.522 35.0603 173.623V177.736H29.6106L29.6106 173.983C29.4408 174.002 29.2778 174.084 29.1565 174.225L29.1565 177.736H27.2346L27.0626 178.054L26.8125 177.736H23.7069L23.7068 174.501C23.5315 174.551 23.3725 174.671 23.2721 174.856L23.2527 174.892V177.736H21.7121L21.4661 178.191H23.2527V183.64H18.2572V178.191H21.2454L21.2064 177.736H18.2572L18.2572 172.287H20.7392L20.7003 171.833H18.2572V166.383H20.2331L20.1942 165.929H18.2572V160.479H19.727L19.6881 160.025H18.2572V154.575H19.2209L19.1819 154.121H18.2572V148.672H18.7147L18.6758 148.217H18.2572V143.335L17.8031 138.037V142.314H12.3534L12.3534 136.864H17.7025L17.6635 136.41H12.3534V130.96H17.1964L17.1574 130.506H12.3534V125.057H16.6902L16.6513 124.602H12.3534L12.3534 119.153H16.1841L16.1452 118.699H12.3534V113.249H15.678L15.639 112.795H12.3534V107.345H15.1718L15.1329 106.891H12.3534V101.441H14.6657L14.6268 100.987H12.3534L12.3534 95.5376H14.1596L14.1207 95.0835H12.3534V89.6339H13.6535L13.6145 89.1797H12.3534V83.7301H13.1473L13.1084 83.2759H12.3534V77.8263H12.6412L12.6023 77.3722H12.3534L12.3534 74.4694L11.8993 69.1721V71.4684H6.44965L6.44964 66.0187H11.629L11.59 65.5646H6.44964L6.44964 60.115H11.1228L11.0839 59.6608H6.44964V54.2112H10.6167L10.5778 53.757H6.44964L6.44964 48.3074H10.1106L10.0716 47.8533H6.44964V42.4036H9.60445L9.56551 41.9495H6.44964L6.44964 36.4999H9.09832L9.05939 36.0457H6.44964V30.5961H8.59219L8.55326 30.1419H6.44964L6.44964 24.6923H11.8993V30.1419H10.8879ZM6.44964 12.4306V6.98096L11.8993 6.98096L11.8993 12.4306L6.44964 12.4306ZM12.3534 12.4306L12.3534 6.98096L17.8031 6.98096V12.4306L12.3534 12.4306ZM18.2572 12.4306V6.98096L23.2527 6.98096V12.4306H18.2572ZM23.7068 12.4306V6.98096L29.1565 6.98096V12.4306L23.7068 12.4306ZM29.6106 12.4306V6.98096L35.0603 6.98096V12.4306H29.6106ZM35.5144 12.4306V6.98097L40.5099 6.98097V12.4306L35.5144 12.4306ZM40.964 12.4306V6.98097L45.9595 6.98097V12.4306H40.964ZM46.4137 12.4306V6.98097L51.8633 6.98097V12.4306L46.4137 12.4306ZM52.3175 12.4306V6.98097L57.7671 6.98097V12.4306H52.3175ZM58.2212 12.4306V6.98097L63.6709 6.98097V12.4306L58.2212 12.4306ZM64.125 12.4306V6.98097L69.5747 6.98097V12.4306H64.125ZM70.0288 12.4306V6.98097L75.4784 6.98097V12.4306L70.0288 12.4306ZM75.9326 12.4306V6.98097L81.3822 6.98097V12.4306H75.9326ZM81.8364 12.4306V6.98097L87.286 6.98097V12.4306L81.8364 12.4306ZM87.7401 12.4306V6.98097L92.7356 6.98097V12.4306H87.7401ZM93.1898 12.4306V6.98097H98.1853V12.4306L93.1898 12.4306ZM98.6394 12.4306V6.98097L104.089 6.98097V12.4306H98.6394ZM104.543 12.4306V6.98097L109.993 6.98097V12.4306L104.543 12.4306ZM110.447 12.4306V6.98097L115.442 6.98097V12.4306H110.447ZM115.897 12.4306V6.98097L121.346 6.98097V12.4306L115.897 12.4306ZM121.8 12.4306V6.98097L127.25 6.98097V12.4306L121.8 12.4306ZM121.8 12.8848L127.25 12.8848V18.3344L121.8 18.3344V12.8848ZM121.8 18.7885H127.25V24.2382L121.8 24.2382V18.7885ZM121.8 24.6923H127.25V30.1419H121.8V24.6923ZM121.8 30.5961H127.25V36.0457H121.8V30.5961ZM121.8 36.4999H127.25V41.9495H121.8V36.4999ZM121.8 42.4036H127.25V47.8533H121.8V42.4036ZM121.8 48.3074H127.25V53.7571H121.8L121.8 48.3074ZM121.8 54.2112H127.25V59.6608H121.8V54.2112ZM121.8 60.115H127.25V65.5646H121.8V60.115ZM121.8 66.0188H127.25V71.4684H121.8V66.0188ZM121.8 71.9225H127.25V77.3722H121.8V71.9225ZM121.8 77.8263H127.25V83.276H121.8V77.8263ZM121.8 83.7301H127.25V89.1797H121.8V83.7301ZM121.8 89.6339H127.25V95.0835H121.8V89.6339ZM121.8 95.5377H127.25L127.25 100.987H121.8V95.5377ZM121.8 101.441H127.25V106.891H121.8V101.441ZM121.8 107.345H127.25V112.795H121.8V107.345ZM121.8 113.249H127.25V118.699H121.8V113.249ZM121.8 119.153H127.25V124.602H121.8V119.153ZM121.8 172.287H127.25V177.736H121.8V172.287ZM121.8 178.191H127.25V183.64H121.8V178.191ZM121.8 184.094H127.25V189.544H121.8V184.094ZM121.346 184.094V189.544H115.897V184.094H121.346ZM115.442 184.094V189.544H110.447V184.094H115.442ZM109.993 184.094V189.544H104.543V184.094H109.993ZM104.089 184.094V189.544H98.6394V184.094H104.089ZM98.1853 184.094V189.544H93.1898V184.094H98.1853ZM92.7356 184.094V189.544H87.7401V184.094H92.7356ZM87.286 184.094V189.544H81.8364V184.094H87.286ZM81.3822 184.094V189.544H75.9326V184.094H81.3822ZM75.4784 184.094V189.544H70.0288V184.094H75.4784ZM69.5747 184.094V189.544L64.125 189.544V184.094L69.5747 184.094ZM63.6709 184.094V189.544H58.2212V184.094H63.6709ZM57.7671 184.094V189.544H52.3175V184.094H57.7671ZM51.8633 184.094V189.544H46.4137V184.094H51.8633ZM45.9596 184.094V189.544H40.9641V184.094H45.9596ZM40.5099 184.094V189.544H35.5144V184.094H40.5099ZM35.0603 184.094V189.544H29.6106V184.094H35.0603ZM29.1565 184.094V189.544H23.7069V184.094H29.1565ZM23.2527 184.094V189.544H18.2572V184.094H23.2527ZM17.8031 184.094V189.544H12.3534L12.3534 184.094H17.8031ZM11.8993 184.094L11.8993 189.544H6.44965V184.094H11.8993ZM11.8993 183.64H6.44965L6.44965 178.191H11.8993V183.64ZM11.8993 177.736H6.44965V172.287H11.8993V177.736ZM11.8993 171.833H6.44965L6.44965 166.383H11.8993V171.833ZM11.8993 165.929H6.44965V160.479H11.8993L11.8993 165.929ZM11.8993 160.025H6.44965L6.44965 154.575H11.8993V160.025ZM11.8993 154.121H6.44965V148.672H11.8993V154.121ZM11.8993 148.217H6.44965L6.44965 142.768H11.8993V148.217ZM11.8993 142.314H6.44965V136.864H11.8993L11.8993 142.314ZM11.8993 136.41H6.44965L6.44965 130.96H11.8993V136.41ZM11.8993 130.506H6.44965L6.44965 125.057H11.8993V130.506ZM11.8993 124.602H6.44965V119.153H11.8993L11.8993 124.602ZM11.8993 118.699H6.44965L6.44965 113.249H11.8993V118.699ZM11.8993 112.795H6.44965V107.345H11.8993V112.795ZM11.8993 106.891H6.44965L6.44965 101.441H11.8993V106.891ZM11.8993 100.987H6.44965V95.5376H11.8993L11.8993 100.987ZM11.8993 95.0835H6.44965L6.44965 89.6339H11.8993V95.0835ZM11.8993 89.1797H6.44965V83.7301H11.8993V89.1797ZM11.8993 83.2759H6.44965L6.44965 77.8263H11.8993V83.2759ZM11.8993 77.3722H6.44965V71.9225H11.8993L11.8993 77.3722ZM11.8993 24.2382L6.44964 24.2382V18.7885H11.8993V24.2382ZM11.8993 18.3344L6.44964 18.3344L6.44964 12.8847L11.8993 12.8847V18.3344ZM12.3534 18.3344V12.8847L17.8031 12.8847V18.3344H12.3534ZM18.2572 18.3344V12.8847H23.2527V18.3344H18.2572ZM23.7068 18.3344V12.8847L29.1565 12.8847V18.3344H23.7068ZM29.6106 18.3344V12.8847H35.0603V18.3344H29.6106ZM35.5144 18.3344V12.8847L40.5099 12.8847V18.3344H35.5144ZM40.964 18.3344V12.8847H45.9595V18.3344H40.964ZM46.4137 18.3344V12.8847L51.8633 12.8847V18.3344L46.4137 18.3344ZM52.3175 18.3344V12.8847H57.7671V18.3344H52.3175ZM58.2212 18.3344V12.8847L63.6709 12.8847V18.3344H58.2212ZM64.125 18.3344V12.8847H69.5747V18.3344L64.125 18.3344ZM70.0288 18.3344V12.8847L75.4784 12.8847V18.3344H70.0288ZM75.9326 18.3344V12.8847H81.3822V18.3344H75.9326ZM81.8364 18.3344V12.8847L87.286 12.8847V18.3344L81.8364 18.3344ZM87.7401 18.3344V12.8847H92.7356V18.3344H87.7401ZM93.1898 18.3344V12.8847L98.1853 12.8847V18.3344H93.1898ZM98.6394 18.3344V12.8847H104.089V18.3344H98.6394ZM104.543 18.3344V12.8847L109.993 12.8847V18.3344H104.543ZM115.897 18.3344V12.8847L121.346 12.8848V18.3344H115.897ZM115.897 18.7885H121.346V24.2382H115.897V18.7885ZM115.897 24.6923H121.346V30.1419H115.897V24.6923ZM115.897 30.5961L121.346 30.5961V36.0457H115.897V30.5961ZM115.897 36.4999H121.346V41.9495H115.897V36.4999ZM115.897 42.4036H121.346V47.8533H115.897V42.4036ZM115.897 48.3074H121.346V53.7571H115.897V48.3074ZM115.897 172.287H121.346V177.736H115.897V172.287ZM115.897 178.191H121.346V183.64H115.897V178.191ZM115.442 178.191V183.64H110.447V178.191H115.442ZM109.993 178.191V183.64H104.543V178.191H109.993ZM104.089 178.191V183.64H98.6394V178.191H104.089ZM98.1853 178.191V183.64H93.1898V178.191H98.1853ZM92.7356 178.191V183.64H87.7401V178.191H92.7356ZM87.286 178.191V183.64H81.8364V178.191H87.286ZM81.3822 178.191V183.64H75.9326V178.191H81.3822ZM75.4784 178.191V183.64H70.0288V178.191H75.4784ZM69.5747 178.191V183.64L64.125 183.64V178.191L69.5747 178.191ZM63.6709 178.191V183.64H58.2212V178.191H63.6709ZM57.7671 178.191V183.64H52.3175V178.191H57.7671ZM51.8633 178.191V183.64H46.4137V178.191H51.8633ZM45.9596 178.191V183.64H40.9641V178.191H45.9596ZM40.5099 178.191V183.64H35.5144V178.191H40.5099ZM35.0603 178.191V183.64H29.6106V178.191H35.0603ZM29.1565 178.191V183.64H23.7069V178.191H29.1565ZM17.8031 178.191V183.64H12.3534V178.191H17.8031ZM17.8031 177.736H12.3534V172.287H17.8031V177.736ZM17.8031 171.833H12.3534V166.383H17.8031L17.8031 171.833ZM17.8031 165.929H12.3534L12.3534 160.479H17.8031V165.929ZM17.8031 160.025H12.3534V154.575H17.8031V160.025ZM17.8031 154.121H12.3534V148.672H17.8031V154.121ZM17.8031 148.217H12.3534V142.768H17.8031V148.217ZM17.8031 24.2382H12.3534V18.7885H17.8031V24.2382ZM18.2572 24.2382L18.2572 18.7885H23.2527V24.2382H18.2572ZM23.7068 24.2382L23.7068 18.7885H29.1565L29.1565 24.2382H23.7068ZM29.6106 24.2382L29.6106 18.7885L35.0603 18.7885V24.2382H29.6106ZM35.5144 24.2382V18.7885H40.5099V24.2382H35.5144ZM110.447 172.287H115.442V177.736H110.447V172.287ZM109.993 172.287V177.736H104.543V172.287H109.993ZM104.089 172.287V177.736H98.6394V172.287H104.089ZM98.1853 172.287V177.736H93.1898V172.287H98.1853Z" fill="black"/>
</svg>
