<svg width="134" height="197" viewBox="0 0 134 197" fill="none" xmlns="http://www.w3.org/2000/svg">
<path d="M4.17896 4.17896H128.158V185.834H4.17896V4.17896Z" fill="#2A2A2A"/>
<path fill-rule="evenodd" clip-rule="evenodd" d="M7.81205 1C4.04986 1 1 4.04986 1 7.81205V189.467C1 193.229 4.04986 196.279 7.81205 196.279H125.888C129.65 196.279 132.7 193.229 132.7 189.467V7.81205C132.7 4.04986 129.65 1 125.888 1H7.81205ZM14.6241 10.5369C12.116 10.5369 10.0827 12.5701 10.0827 15.0782V155.407C10.0827 157.915 12.116 159.948 14.6241 159.948H119.076C121.584 159.948 123.617 157.915 123.617 155.407V15.0782C123.617 12.5701 121.584 10.5369 119.076 10.5369H14.6241Z" fill="white"/>
<path d="M7.81205 0.772932C3.92445 0.772932 0.772932 3.92446 0.772932 7.81205V189.467C0.772932 193.354 3.92445 196.506 7.81205 196.506H125.888C129.775 196.506 132.927 193.354 132.927 189.467V7.81205C132.927 3.92445 129.775 0.772932 125.888 0.772932H7.81205Z" stroke="#2A2A2A" stroke-width="0.454137"/>
</svg>
