<svg width="63" height="33" viewBox="0 0 63 33" fill="none" xmlns="http://www.w3.org/2000/svg">
<path d="M0.17688 22.8019C0.05896 21.6778 0 20.5222 0 19.3351C0 18.148 0.05896 16.9924 0.17688 15.8682C0.200464 15.6481 0.247632 15.4437 0.318384 15.2551C0.389136 15.0664 0.487403 14.9013 0.613184 14.7598C0.746827 14.6183 0.904053 14.5082 1.08486 14.4296C1.27354 14.3431 1.49365 14.2999 1.74522 14.2999C1.98892 14.2999 2.20117 14.3431 2.38198 14.4296C2.57066 14.5082 2.72788 14.6183 2.85366 14.7598C2.98731 14.9013 3.0895 15.0664 3.16026 15.2551C3.23101 15.4437 3.27818 15.6481 3.30176 15.8682C3.41968 16.9924 3.47864 18.148 3.47864 19.3351C3.47864 20.5222 3.41968 21.6778 3.30176 22.8019C3.27818 23.0221 3.23101 23.2265 3.16026 23.4151C3.0895 23.6117 2.98731 23.7807 2.85366 23.9222C2.72788 24.0637 2.57066 24.1737 2.38198 24.2524C2.20117 24.3388 1.98892 24.3821 1.74522 24.3821C1.49365 24.3821 1.27354 24.3388 1.08486 24.2524C0.904053 24.1737 0.746827 24.0637 0.613184 23.9222C0.487403 23.7807 0.389136 23.6117 0.318384 23.4151C0.247632 23.2265 0.200464 23.0221 0.17688 22.8019Z" fill="#898989"/>
<path d="M4.91837 16.5404C5.02843 16.6033 5.15028 16.6504 5.28392 16.6819C5.42543 16.7055 5.563 16.7173 5.69664 16.7173C5.78312 16.7173 5.86566 16.7094 5.94427 16.6937C6.03075 16.678 6.10936 16.6583 6.18011 16.6347C6.21156 16.619 6.22728 16.5954 6.22728 16.564C6.23514 16.5325 6.23121 16.505 6.21549 16.4814C6.20763 16.45 6.19191 16.4303 6.16832 16.4225C6.14474 16.4067 6.11722 16.4067 6.08578 16.4225C5.89711 16.4775 5.74381 16.505 5.62589 16.505C5.45294 16.505 5.29571 16.4696 5.15421 16.3989C5.02057 16.3281 4.90265 16.2338 4.80045 16.1159C4.70611 15.998 4.63143 15.8643 4.5764 15.7149C4.52137 15.5656 4.49386 15.4123 4.49386 15.2551C4.49386 15.09 4.51744 14.9288 4.56461 14.7716C4.61964 14.6065 4.70611 14.4611 4.82403 14.3353C4.94195 14.2095 5.09132 14.1073 5.27213 14.0287C5.4608 13.9501 5.68092 13.9108 5.93248 13.9108C6.20763 13.9108 6.44347 13.9619 6.64 14.0641C6.8444 14.1663 7.00948 14.3038 7.13527 14.4768C7.26891 14.6497 7.36718 14.8463 7.43007 15.0664C7.49296 15.2786 7.5244 15.4988 7.5244 15.7267C7.5244 15.9704 7.4851 16.2141 7.40648 16.4578C7.32787 16.6937 7.21388 16.9059 7.06451 17.0946C6.92301 17.2833 6.74613 17.4366 6.53387 17.5545C6.32162 17.6646 6.07399 17.7196 5.79098 17.7196C5.51583 17.7196 5.29964 17.6763 5.14242 17.5899C4.98519 17.4955 4.87513 17.3894 4.81224 17.2715C4.75721 17.1457 4.73756 17.016 4.75328 16.8824C4.77687 16.7487 4.83189 16.6347 4.91837 16.5404Z" fill="#898989"/>
<path d="M32.3209 24.4646C31.3854 24.4646 30.6032 24.331 29.9743 24.0637C29.3532 23.7964 28.854 23.4308 28.4767 22.967C28.1072 22.4953 27.8438 21.949 27.6866 21.3279C27.5294 20.699 27.4508 20.0308 27.4508 19.3233C27.4508 18.6158 27.5294 17.9515 27.6866 17.3305C27.8438 16.7015 28.1072 16.1552 28.4767 15.6914C28.854 15.2275 29.3532 14.862 29.9743 14.5947C30.6032 14.3196 31.3854 14.182 32.3209 14.182C32.8633 14.182 33.3507 14.2252 33.7831 14.3117C34.2233 14.3982 34.6085 14.5318 34.9387 14.7126C35.1745 14.8305 35.3514 14.9799 35.4693 15.1607C35.5951 15.3415 35.6737 15.5381 35.7052 15.7503C35.7445 15.9547 35.7405 16.167 35.6934 16.3871C35.6462 16.5993 35.5676 16.8037 35.4575 17.0003C35.3475 17.2047 35.2099 17.3894 35.0448 17.5545C34.8797 17.7196 34.695 17.8493 34.4906 17.9436C34.2941 18.0301 34.0818 18.0773 33.8538 18.0851C33.6337 18.0851 33.4057 18.0262 33.1699 17.9083C33.0677 17.8532 32.9458 17.81 32.8043 17.7785C32.6628 17.7392 32.5017 17.7196 32.3209 17.7196C32.0379 17.7196 31.7981 17.7628 31.6015 17.8493C31.405 17.9358 31.2439 18.0537 31.1181 18.2031C31.0002 18.3524 30.9097 18.5214 30.8469 18.7101C30.7918 18.8988 30.7643 19.0993 30.7643 19.3115C30.7643 19.5238 30.7918 19.7282 30.8469 19.9247C30.9097 20.1212 31.0002 20.2942 31.1181 20.4435C31.2439 20.5929 31.405 20.7108 31.6015 20.7973C31.7981 20.8838 32.0379 20.927 32.3209 20.927C32.5017 20.927 32.6628 20.9113 32.8043 20.8798C32.9458 20.8405 33.0677 20.7934 33.1699 20.7383C33.4057 20.6204 33.6376 20.5654 33.8656 20.5732C34.1015 20.5732 34.3216 20.6243 34.526 20.7265C34.7304 20.8287 34.9112 20.9663 35.0684 21.1393C35.2335 21.3044 35.3711 21.493 35.4811 21.7053C35.5833 21.9018 35.6541 22.1062 35.6934 22.3185C35.7327 22.5307 35.7327 22.739 35.6934 22.9434C35.6619 23.14 35.5833 23.3247 35.4575 23.4977C35.3318 23.6785 35.1588 23.8278 34.9387 23.9458C34.6085 24.1266 34.2233 24.2563 33.7831 24.3349C33.3507 24.4214 32.8633 24.4646 32.3209 24.4646Z" fill="#898989"/>
<path d="M39.8324 21.0685C39.8166 21.3594 39.797 21.6503 39.7734 21.9411C39.7577 22.2241 39.7341 22.5071 39.7027 22.7901C39.6791 23.0103 39.6319 23.2147 39.5611 23.4033C39.4904 23.5999 39.3882 23.7689 39.2546 23.9104C39.1288 24.0519 38.9715 24.162 38.7829 24.2406C38.6021 24.327 38.3898 24.3703 38.1461 24.3703C37.8945 24.3703 37.6744 24.327 37.4858 24.2406C37.305 24.162 37.1477 24.0519 37.0141 23.9104C36.8883 23.7689 36.79 23.5999 36.7193 23.4033C36.6485 23.2147 36.6014 23.0103 36.5778 22.7901C36.4992 22.0826 36.4481 21.3633 36.4245 20.6322C36.4088 19.9011 36.4048 19.1661 36.4127 18.4271C36.4205 17.5781 36.4952 16.8824 36.6367 16.3399C36.7861 15.7975 37.0219 15.369 37.3442 15.0546C37.6744 14.7323 38.1029 14.5082 38.6296 14.3825C39.1563 14.2567 39.8088 14.1898 40.5871 14.182C41.8134 14.1663 42.7489 14.4689 43.3936 15.09C44.046 15.7032 44.3644 16.6229 44.3487 17.8493C44.3487 18.6747 44.2072 19.3312 43.9242 19.8186C43.6412 20.306 43.1695 20.6715 42.5091 20.9152C42.407 20.9467 42.3676 21.0017 42.3912 21.0803C42.4227 21.1589 42.4856 21.1864 42.5799 21.1629C42.7529 21.1235 42.9258 21.0607 43.0987 20.9742C43.2796 20.8798 43.4486 20.7816 43.6058 20.6794C43.8102 20.8602 44.0107 21.0803 44.2072 21.3397C44.4037 21.5992 44.5688 21.9136 44.7025 22.2831C44.8361 22.6762 44.8361 23.0417 44.7025 23.3797C44.5767 23.7178 44.2897 23.989 43.8416 24.1934C43.5979 24.3035 43.3464 24.3624 43.087 24.3703C42.8354 24.3781 42.5878 24.3388 42.3441 24.2524C42.1004 24.1737 41.8763 24.0519 41.6719 23.8868C41.4675 23.7296 41.2985 23.537 41.1649 23.309C40.9841 23.0103 40.8386 22.6722 40.7286 22.2949C40.6185 21.9097 40.5438 21.5087 40.5045 21.0921C40.3945 21.0921 40.2805 21.0921 40.1625 21.0921C40.0525 21.0842 39.9424 21.0764 39.8324 21.0685ZM41.2828 18.1913C41.0076 18.0891 40.7561 17.9751 40.5281 17.8493C40.308 17.7157 40.0879 17.5348 39.8677 17.3069C39.8284 17.2754 39.7852 17.2676 39.738 17.2833C39.6987 17.2911 39.6594 17.3147 39.6201 17.354C39.5887 17.3855 39.569 17.4287 39.5611 17.4837C39.5533 17.5388 39.569 17.5938 39.6083 17.6488C39.7813 17.8768 40.0014 18.0655 40.2687 18.2148C40.5438 18.3564 40.819 18.4782 41.0941 18.5804C41.157 18.604 41.2081 18.6001 41.2474 18.5686C41.2946 18.5372 41.326 18.4979 41.3417 18.4507C41.3575 18.4035 41.3614 18.3564 41.3535 18.3092C41.3457 18.2542 41.3221 18.2149 41.2828 18.1913Z" fill="#898989"/>
<path d="M48.9393 22.3656C48.9472 22.6015 48.9314 22.8373 48.8921 23.0732C48.8528 23.309 48.7703 23.5252 48.6445 23.7217C48.5187 23.9182 48.3458 24.0755 48.1256 24.1934C47.9055 24.3192 47.6264 24.3821 47.2884 24.3821C46.8325 24.3821 46.4551 24.2484 46.1564 23.9811C45.8577 23.7139 45.6926 23.3522 45.6611 22.8963C45.6139 21.7407 45.5904 20.5536 45.5904 19.3351C45.5904 18.6276 45.6493 17.9711 45.7672 17.3658C45.8852 16.7526 46.0935 16.2181 46.3922 15.7621C46.6909 15.3062 47.0919 14.9485 47.595 14.689C48.106 14.4296 48.7467 14.2999 49.5171 14.2999C50.2954 14.2999 50.9361 14.4296 51.4392 14.689C51.9502 14.9485 52.355 15.3062 52.6538 15.7621C52.9525 16.2181 53.1608 16.7526 53.2787 17.3658C53.4045 17.9711 53.4674 18.6276 53.4674 19.3351C53.4674 19.9404 53.4596 20.5418 53.4438 21.1393C53.436 21.7289 53.4163 22.3145 53.3849 22.8963C53.3613 23.3522 53.1962 23.7139 52.8896 23.9811C52.5909 24.2484 52.2096 24.3821 51.7458 24.3821C51.4077 24.3821 51.1287 24.3192 50.9086 24.1934C50.6963 24.0755 50.5273 23.9182 50.4015 23.7217C50.2757 23.5252 50.1892 23.309 50.1421 23.0732C50.0949 22.8295 50.0792 22.5936 50.0949 22.3656C49.9691 22.3971 49.863 22.4207 49.7765 22.4364C49.69 22.4521 49.6036 22.46 49.5171 22.46C49.4385 22.46 49.352 22.4521 49.2577 22.4364C49.1712 22.4207 49.0651 22.3971 48.9393 22.3656ZM50.5312 19.1464C50.2954 18.9656 50.0281 18.8477 49.7294 18.7927C49.4385 18.7376 49.1437 18.7023 48.845 18.6865C48.7742 18.6865 48.7231 18.7062 48.6917 18.7455C48.6602 18.7848 48.6406 18.832 48.6327 18.887C48.6248 18.942 48.6327 18.9931 48.6563 19.0403C48.6877 19.0796 48.727 19.1032 48.7742 19.111C49.0651 19.1268 49.3363 19.1661 49.5878 19.229C49.8473 19.2919 50.1146 19.398 50.3897 19.5473C50.429 19.5709 50.4683 19.5709 50.5076 19.5473C50.5469 19.5159 50.5784 19.4766 50.602 19.4294C50.6255 19.3823 50.6334 19.3312 50.6255 19.2761C50.6177 19.2211 50.5862 19.1779 50.5312 19.1464Z" fill="#898989"/>
<path d="M57.7967 21.0449C57.781 21.3358 57.7614 21.6267 57.7378 21.9175C57.7142 22.2084 57.6906 22.4993 57.667 22.7901C57.6434 23.0103 57.5963 23.2147 57.5255 23.4033C57.4548 23.5999 57.3526 23.7689 57.2189 23.9104C57.0932 24.0519 56.9359 24.162 56.7473 24.2406C56.5664 24.327 56.3542 24.3703 56.1105 24.3703C55.8589 24.3703 55.6388 24.327 55.4501 24.2406C55.2693 24.162 55.1121 24.0519 54.9785 23.9104C54.8527 23.7689 54.7544 23.5999 54.6837 23.4033C54.6129 23.2147 54.5657 23.0103 54.5421 22.7901C54.4242 21.666 54.3653 20.5222 54.3653 19.3587C54.3731 18.1952 54.4321 17.0514 54.5421 15.9272C54.5736 15.6442 54.6404 15.4044 54.7426 15.2079C54.8448 15.0114 54.9745 14.8502 55.1318 14.7244C55.289 14.5986 55.4659 14.5043 55.6624 14.4414C55.8668 14.3707 56.083 14.3196 56.3109 14.2881C56.5861 14.2567 56.8652 14.2331 57.1482 14.2174C57.4391 14.1938 57.7221 14.182 57.9972 14.182C58.5475 14.1741 59.0899 14.2056 59.6245 14.2763C60.1669 14.3471 60.6504 14.5004 61.0749 14.7362C61.5073 14.972 61.8532 15.3179 62.1126 15.7739C62.3799 16.2299 62.5135 16.8391 62.5135 17.6017C62.5135 18.1362 62.4507 18.5922 62.3249 18.9695C62.207 19.3469 62.0379 19.6653 61.8178 19.9247C61.6056 20.1763 61.3501 20.3806 61.0513 20.5379C60.7605 20.6872 60.4381 20.8012 60.0844 20.8798C59.7385 20.9585 59.369 21.0096 58.9759 21.0331C58.5907 21.0489 58.1977 21.0528 57.7967 21.0449ZM57.7967 17.8493C58.2841 18.1009 58.8069 18.1991 59.3651 18.1441C59.4358 18.1362 59.483 18.1087 59.5066 18.0616C59.538 18.0144 59.5538 17.9672 59.5538 17.92C59.5538 17.865 59.538 17.8179 59.5066 17.7785C59.483 17.7392 59.4476 17.7196 59.4004 17.7196C59.1096 17.7353 58.8502 17.7196 58.6222 17.6724C58.3942 17.6252 58.1544 17.5466 57.9029 17.4366C57.8557 17.413 57.8125 17.4169 57.7732 17.4484C57.7338 17.472 57.7024 17.5073 57.6788 17.5545C57.6631 17.6017 57.6631 17.6567 57.6788 17.7196C57.6945 17.7746 57.7338 17.8179 57.7967 17.8493Z" fill="#898989"/>
<path d="M20.1738 1.08217C20.1738 1.67984 19.6895 2.16435 19.0921 2.16435C18.4947 2.16435 18.0105 1.67984 18.0105 1.08217C18.0105 0.484505 18.4947 0 19.0921 0C19.6895 0 20.1738 0.484505 20.1738 1.08217Z" fill="#898989"/>
<path d="M14.2137 21.098C16.7714 22.3617 20.346 22.6136 23.302 21.5574C23.6854 21.4204 24.0443 21.2664 24.3776 21.0977L24.5581 21.0964C24.5796 21.0962 24.5968 21.1144 24.5954 21.1359C24.5527 21.8051 24.4311 22.8112 24.2044 23.6548C24.0911 24.0764 23.9509 24.4598 23.7799 24.7404C23.7146 24.8476 23.6376 24.9561 23.5593 25.0665C23.497 25.1543 23.4338 25.2434 23.3749 25.3339C23.0763 25.5029 22.7025 25.6409 22.2906 25.7493C21.4611 25.9677 20.5157 26.0561 19.8123 26.0561C19.663 26.0561 19.5419 26.1772 19.5419 26.3266C19.5419 26.476 19.663 26.5971 19.8123 26.5971C20.5516 26.5971 21.5446 26.5052 22.4282 26.2726C22.6567 26.2125 22.8805 26.1422 23.0923 26.0606L22.5015 31.395C22.4003 32.3087 21.6285 33 20.7097 33H17.8471C16.9283 33 16.1564 32.3087 16.0553 31.395L15.4569 25.9919C15.4204 25.6625 15.2042 25.3579 14.9975 25.0665C14.9192 24.9561 14.8422 24.8476 14.7769 24.7404C14.6058 24.4598 14.4657 24.0764 14.3524 23.6548C14.1257 22.8112 14.004 21.8051 13.9614 21.1359C13.96 21.1144 13.9771 21.0962 13.9987 21.0964L14.2137 21.098Z" fill="#898989"/>
<path d="M19.661 3.24652C20.5698 3.35646 21.2409 3.61123 21.763 3.93487C23.7034 4.96814 24.7277 6.17737 25.1801 6.88012C25.5046 7.38429 25.8339 8.21131 26.0548 8.97882C26.2553 9.80535 26.2211 10.3245 26.1754 10.6108C26.0986 11.0908 25.9249 11.4228 25.7108 11.6544C25.4955 11.8873 25.2217 12.0376 24.9169 12.1245C24.3273 12.2926 23.6557 12.2128 23.2101 12.0667C21.9831 11.5144 20.3406 11.0341 18.4828 11.1699C18.2842 11.1844 18.135 11.3573 18.1495 11.5559C18.164 11.7546 18.3368 11.9039 18.5354 11.8894C20.1979 11.7679 21.6826 12.1846 22.814 12.6801C22.838 12.6963 22.8643 12.7099 22.8928 12.7202C22.9102 12.7266 22.928 12.7329 22.9462 12.7391C23.7084 13.0852 24.2987 13.4603 24.6592 13.7128C24.9217 13.9207 25.1605 14.1453 25.3714 14.3859C27.3496 16.642 26.1266 19.4439 22.6397 20.6442C19.1529 21.8445 14.7226 20.9885 12.7445 18.7324C11.9069 17.7772 11.6432 16.7241 11.8823 15.7362C11.9087 15.666 11.9482 15.5752 12.0037 15.4723C12.1082 15.2782 12.2577 15.063 12.4539 14.8818C12.6487 14.702 12.885 14.5595 13.1689 14.4971C13.4508 14.4352 13.8038 14.447 14.243 14.6126C14.258 14.6182 14.2732 14.6228 14.2884 14.6264C15.5673 15.3035 17.2131 15.8719 19.6877 15.8718C19.8868 15.8718 20.0482 15.7103 20.0482 15.5111C20.0482 15.4554 20.0356 15.4027 20.0131 15.3556C19.9584 15.2262 19.8302 15.1353 19.6809 15.1353C16.5923 15.1354 14.9039 14.2115 13.5192 13.322C13.232 13.1006 12.972 12.8596 12.7445 12.6001C10.7663 10.344 11.9894 7.54201 15.4762 6.34174C15.7495 6.24766 16.0286 6.16621 16.3119 6.09708C19.6953 5.18924 19.7545 3.92266 19.661 3.24652Z" fill="#898989"/>
<path d="M25.0729 13.1218L25.0683 13.1187L25.0777 13.1174L25.0729 13.1218Z" fill="#898989"/>
</svg>
