<svg width="152" height="152" viewBox="0 0 152 152" fill="none" xmlns="http://www.w3.org/2000/svg">
<circle cx="76" cy="76" r="76" fill="white" fill-opacity="0.5"/>
<circle cx="76" cy="76" r="52" fill="white"/>
<path d="M53.526 84.252C52.614 84.252 51.75 84.078 50.934 83.73C50.13 83.382 49.422 82.902 48.81 82.29L50.034 80.85C50.514 81.318 51.06 81.696 51.672 81.984C52.296 82.272 52.932 82.416 53.58 82.416C54.372 82.416 54.978 82.242 55.398 81.894C55.83 81.546 56.046 81.096 56.046 80.544C56.046 80.136 55.956 79.812 55.776 79.572C55.596 79.32 55.344 79.11 55.02 78.942C54.708 78.774 54.348 78.6 53.94 78.42L52.104 77.628C51.672 77.448 51.246 77.214 50.826 76.926C50.418 76.626 50.076 76.254 49.8 75.81C49.536 75.354 49.404 74.802 49.404 74.154C49.404 73.458 49.59 72.834 49.962 72.282C50.334 71.73 50.85 71.298 51.51 70.986C52.17 70.662 52.92 70.5 53.76 70.5C54.54 70.5 55.278 70.65 55.974 70.95C56.67 71.25 57.264 71.658 57.756 72.174L56.694 73.506C56.274 73.134 55.824 72.846 55.344 72.642C54.876 72.426 54.348 72.318 53.76 72.318C53.076 72.318 52.536 72.474 52.14 72.786C51.744 73.086 51.546 73.494 51.546 74.01C51.546 74.394 51.648 74.712 51.852 74.964C52.056 75.204 52.32 75.408 52.644 75.576C52.98 75.732 53.322 75.882 53.67 76.026L55.488 76.8C56.016 77.016 56.484 77.28 56.892 77.592C57.3 77.904 57.618 78.282 57.846 78.726C58.074 79.17 58.188 79.722 58.188 80.382C58.188 81.09 58.002 81.738 57.63 82.326C57.258 82.902 56.724 83.37 56.028 83.73C55.332 84.078 54.498 84.252 53.526 84.252ZM62.9046 84V72.498H59.0346V70.734H68.9166V72.498H65.0286V84H62.9046ZM68.6016 84L72.9936 70.734H75.4056L79.7976 84H77.5836L75.4416 76.8C75.2256 76.08 75.0156 75.354 74.8116 74.622C74.6076 73.878 74.4036 73.134 74.1996 72.39H74.1276C73.9356 73.146 73.7316 73.89 73.5156 74.622C73.3116 75.354 73.1016 76.08 72.8856 76.8L70.7436 84H68.6016ZM71.0856 80.238V78.582H77.2776V80.238H71.0856ZM81.5448 84V70.734H85.8828C86.7948 70.734 87.6108 70.86 88.3308 71.112C89.0508 71.352 89.6208 71.754 90.0408 72.318C90.4608 72.87 90.6708 73.626 90.6708 74.586C90.6708 75.51 90.4608 76.272 90.0408 76.872C89.6208 77.472 89.0508 77.922 88.3308 78.222C87.6108 78.51 86.7948 78.654 85.8828 78.654H83.6328V84H81.5448ZM83.6328 76.98H85.6308C86.5908 76.98 87.3228 76.782 87.8268 76.386C88.3428 75.978 88.6008 75.378 88.6008 74.586C88.6008 73.782 88.3428 73.224 87.8268 72.912C87.3228 72.588 86.5908 72.426 85.6308 72.426H83.6328V76.98ZM88.7808 84L85.4868 78.096L87.0348 76.89L91.1388 84H88.7808ZM95.6526 84V72.498H91.7826V70.734H101.665V72.498H97.7766V84H95.6526Z" fill="black"/>
</svg>
