<svg width="290" height="430" viewBox="0 0 290 430" fill="none" xmlns="http://www.w3.org/2000/svg">
<path d="M278 83V19C278 16.2386 275.761 14 273 14H211.5M12 83V19C12 16.2386 14.2386 14 17 14H78.5" stroke="current" stroke-width="2" stroke-linecap="round" stroke-linejoin="round"/>
<path d="M278 347V411C278 413.761 275.761 416 273 416H211.5M12 347V411C12 413.761 14.2386 416 17 416H78.5" stroke="current" stroke-width="2" stroke-linecap="round" stroke-linejoin="round"/>
<path d="M264.958 32.25H263.811C263.327 29.8286 261.223 28 258.708 28H246.208C243.336 28 241 30.3832 241 33.3125V39.6875C241 42.6168 243.336 45 246.208 45H258.708C261.223 45 263.328 43.1714 263.811 40.75H264.958C265.533 40.75 266 40.274 266 39.6875V33.3125C266 32.726 265.533 32.25 264.958 32.25ZM258.708 42.875H246.208C244.485 42.875 243.083 41.4449 243.083 39.6875V33.3125C243.083 31.5551 244.485 30.125 246.208 30.125H258.708C260.431 30.125 261.833 31.5551 261.833 33.3125V39.6875C261.833 41.4449 260.431 42.875 258.708 42.875ZM252.458 32.25H246.208C245.633 32.25 245.167 32.726 245.167 33.3125V39.6875C245.167 40.274 245.633 40.75 246.208 40.75H252.458C253.033 40.75 253.5 40.274 253.5 39.6875V33.3125C253.5 32.726 253.033 32.25 252.458 32.25Z" fill="current"/>
<circle cx="32" cy="36" r="7" fill="#BC1300"/>
<path d="M48.3933 42C48.2759 42 48.2013 41.9467 48.1693 41.84L46.5533 37.424C46.5319 37.3813 46.5053 37.36 46.4733 37.36H45.4653C45.4119 37.36 45.3853 37.3867 45.3853 37.44V41.808C45.3853 41.8613 45.3639 41.9093 45.3213 41.952C45.2893 41.984 45.2466 42 45.1933 42H43.3213C43.2679 42 43.2199 41.984 43.1773 41.952C43.1453 41.9093 43.1293 41.8613 43.1293 41.808V30.992C43.1293 30.9387 43.1453 30.896 43.1773 30.864C43.2199 30.8213 43.2679 30.8 43.3213 30.8H47.2253C47.8546 30.8 48.4146 30.944 48.9053 31.232C49.3959 31.5093 49.7746 31.904 50.0413 32.416C50.3079 32.928 50.4413 33.5147 50.4413 34.176C50.4413 34.8587 50.2919 35.4507 49.9933 35.952C49.6946 36.4533 49.2733 36.8267 48.7293 37.072C48.6759 37.0933 48.6599 37.1307 48.6813 37.184L50.5052 41.776C50.5159 41.7973 50.5213 41.824 50.5213 41.856C50.5213 41.952 50.4626 42 50.3453 42H48.3933ZM45.4653 32.736C45.4119 32.736 45.3853 32.7627 45.3853 32.816V35.552C45.3853 35.6053 45.4119 35.632 45.4653 35.632H46.8573C47.2519 35.632 47.5719 35.504 47.8173 35.248C48.0626 34.9813 48.1853 34.6293 48.1853 34.192C48.1853 33.744 48.0626 33.392 47.8173 33.136C47.5719 32.8693 47.2519 32.736 46.8573 32.736H45.4653ZM58.6328 32.544C58.6328 32.5973 58.6114 32.6453 58.5688 32.688C58.5368 32.72 58.4941 32.736 58.4408 32.736H54.1528C54.0994 32.736 54.0728 32.7627 54.0728 32.816V35.312C54.0728 35.3653 54.0994 35.392 54.1528 35.392H56.8248C56.8781 35.392 56.9208 35.4133 56.9528 35.456C56.9954 35.488 57.0168 35.5307 57.0168 35.584V37.136C57.0168 37.1893 56.9954 37.2373 56.9528 37.28C56.9208 37.312 56.8781 37.328 56.8248 37.328H54.1528C54.0994 37.328 54.0728 37.3547 54.0728 37.408V39.984C54.0728 40.0373 54.0994 40.064 54.1528 40.064H58.4408C58.4941 40.064 58.5368 40.0853 58.5688 40.128C58.6114 40.16 58.6328 40.2027 58.6328 40.256V41.808C58.6328 41.8613 58.6114 41.9093 58.5688 41.952C58.5368 41.984 58.4941 42 58.4408 42H52.0088C51.9554 42 51.9074 41.984 51.8648 41.952C51.8328 41.9093 51.8168 41.8613 51.8168 41.808V30.992C51.8168 30.9387 51.8328 30.896 51.8648 30.864C51.9074 30.8213 51.9554 30.8 52.0088 30.8H58.4408C58.4941 30.8 58.5368 30.8213 58.5688 30.864C58.6114 30.896 58.6328 30.9387 58.6328 30.992V32.544ZM63.4606 42.128C62.7353 42.128 62.0953 41.984 61.5406 41.696C60.986 41.408 60.554 40.9973 60.2446 40.464C59.946 39.9307 59.7966 39.312 59.7966 38.608V34.16C59.7966 33.4667 59.946 32.8587 60.2446 32.336C60.554 31.8027 60.986 31.392 61.5406 31.104C62.0953 30.816 62.7353 30.672 63.4606 30.672C64.186 30.672 64.826 30.816 65.3806 31.104C65.9353 31.3813 66.362 31.776 66.6606 32.288C66.97 32.8 67.1246 33.3973 67.1246 34.08V34.16C67.1246 34.2133 67.1033 34.2613 67.0606 34.304C67.0286 34.3467 66.986 34.368 66.9326 34.368L65.0606 34.448C64.9326 34.448 64.8686 34.3893 64.8686 34.272V34.064C64.8686 33.6267 64.7406 33.2747 64.4846 33.008C64.2286 32.7413 63.8873 32.608 63.4606 32.608C63.034 32.608 62.6926 32.7413 62.4366 33.008C62.1806 33.2747 62.0526 33.6267 62.0526 34.064V38.752C62.0526 39.1893 62.1806 39.5413 62.4366 39.808C62.6926 40.064 63.034 40.192 63.4606 40.192C63.8873 40.192 64.2286 40.064 64.4846 39.808C64.7406 39.5413 64.8686 39.1893 64.8686 38.752V38.544C64.8686 38.4267 64.9326 38.368 65.0606 38.368L66.9326 38.448C66.986 38.448 67.0286 38.4693 67.0606 38.512C67.1033 38.544 67.1246 38.5867 67.1246 38.64V38.688C67.1246 39.3707 66.97 39.9733 66.6606 40.496C66.362 41.0187 65.9353 41.424 65.3806 41.712C64.826 41.9893 64.186 42.128 63.4606 42.128Z" fill="current"/>
<path d="M28.57 403.154C27.646 403.154 26.9087 402.883 26.358 402.342C25.8073 401.791 25.532 401.054 25.532 400.13V396.07C25.532 395.155 25.8073 394.427 26.358 393.886C26.9087 393.335 27.646 393.06 28.57 393.06C29.494 393.06 30.2313 393.335 30.782 393.886C31.342 394.427 31.622 395.155 31.622 396.07V400.13C31.622 401.054 31.342 401.791 30.782 402.342C30.2313 402.883 29.494 403.154 28.57 403.154ZM28.57 401.46C28.8967 401.46 29.158 401.353 29.354 401.138C29.55 400.914 29.648 400.615 29.648 400.242V395.972C29.648 395.599 29.55 395.305 29.354 395.09C29.158 394.875 28.8967 394.768 28.57 394.768C28.2433 394.768 27.982 394.875 27.786 395.09C27.5993 395.305 27.506 395.599 27.506 395.972V400.242C27.506 400.615 27.5993 400.914 27.786 401.138C27.982 401.353 28.2433 401.46 28.57 401.46ZM35.7204 403.154C34.7964 403.154 34.0591 402.883 33.5084 402.342C32.9577 401.791 32.6824 401.054 32.6824 400.13V396.07C32.6824 395.155 32.9577 394.427 33.5084 393.886C34.0591 393.335 34.7964 393.06 35.7204 393.06C36.6444 393.06 37.3817 393.335 37.9324 393.886C38.4924 394.427 38.7724 395.155 38.7724 396.07V400.13C38.7724 401.054 38.4924 401.791 37.9324 402.342C37.3817 402.883 36.6444 403.154 35.7204 403.154ZM35.7204 401.46C36.0471 401.46 36.3084 401.353 36.5044 401.138C36.7004 400.914 36.7984 400.615 36.7984 400.242V395.972C36.7984 395.599 36.7004 395.305 36.5044 395.09C36.3084 394.875 36.0471 394.768 35.7204 394.768C35.3937 394.768 35.1324 394.875 34.9364 395.09C34.7497 395.305 34.6564 395.599 34.6564 395.972V400.242C34.6564 400.615 34.7497 400.914 34.9364 401.138C35.1324 401.353 35.3937 401.46 35.7204 401.46ZM41.5268 398.366C41.2094 398.366 40.9434 398.263 40.7288 398.058C40.5234 397.843 40.4208 397.577 40.4208 397.26C40.4208 396.933 40.5234 396.667 40.7288 396.462C40.9341 396.257 41.2001 396.154 41.5268 396.154C41.8534 396.154 42.1194 396.257 42.3248 396.462C42.5301 396.667 42.6328 396.933 42.6328 397.26C42.6328 397.577 42.5254 397.843 42.3108 398.058C42.1054 398.263 41.8441 398.366 41.5268 398.366ZM41.5268 402.958C41.2094 402.958 40.9434 402.855 40.7288 402.65C40.5234 402.435 40.4208 402.169 40.4208 401.852C40.4208 401.525 40.5234 401.259 40.7288 401.054C40.9341 400.849 41.2001 400.746 41.5268 400.746C41.8534 400.746 42.1194 400.849 42.3248 401.054C42.5301 401.259 42.6328 401.525 42.6328 401.852C42.6328 402.169 42.5254 402.435 42.3108 402.65C42.1054 402.855 41.8441 402.958 41.5268 402.958ZM47.3415 403.154C46.4175 403.154 45.6802 402.883 45.1295 402.342C44.5788 401.791 44.3035 401.054 44.3035 400.13V396.07C44.3035 395.155 44.5788 394.427 45.1295 393.886C45.6802 393.335 46.4175 393.06 47.3415 393.06C48.2655 393.06 49.0028 393.335 49.5535 393.886C50.1135 394.427 50.3935 395.155 50.3935 396.07V400.13C50.3935 401.054 50.1135 401.791 49.5535 402.342C49.0028 402.883 48.2655 403.154 47.3415 403.154ZM47.3415 401.46C47.6682 401.46 47.9295 401.353 48.1255 401.138C48.3215 400.914 48.4195 400.615 48.4195 400.242V395.972C48.4195 395.599 48.3215 395.305 48.1255 395.09C47.9295 394.875 47.6682 394.768 47.3415 394.768C47.0148 394.768 46.7535 394.875 46.5575 395.09C46.3708 395.305 46.2775 395.599 46.2775 395.972V400.242C46.2775 400.615 46.3708 400.914 46.5575 401.138C46.7535 401.353 47.0148 401.46 47.3415 401.46ZM57.1519 400.592C57.1519 401.357 56.8859 401.969 56.3539 402.426C55.8219 402.883 55.1172 403.112 54.2399 403.112C53.3999 403.112 52.7185 402.883 52.1959 402.426C51.6732 401.969 51.4119 401.362 51.4119 400.606V400.2C51.4119 400.153 51.4259 400.116 51.4539 400.088C51.4912 400.051 51.5332 400.032 51.5799 400.032H53.2179C53.2645 400.032 53.3019 400.051 53.3299 400.088C53.3672 400.116 53.3859 400.153 53.3859 400.2V400.41C53.3859 400.699 53.4652 400.937 53.6239 401.124C53.7919 401.301 53.9972 401.39 54.2399 401.39C54.5105 401.39 54.7299 401.297 54.8979 401.11C55.0752 400.923 55.1639 400.685 55.1639 400.396V399.052C55.1639 399.024 55.1545 399.01 55.1359 399.01C55.1172 399.001 55.0985 399.005 55.0799 399.024C54.7532 399.313 54.3379 399.458 53.8339 399.458C53.2645 399.458 52.7792 399.313 52.3779 399.024C51.9765 398.725 51.6872 398.319 51.5099 397.806C51.3139 397.367 51.2159 396.863 51.2159 396.294C51.2159 395.818 51.2812 395.384 51.4119 394.992C51.5892 394.385 51.9159 393.919 52.3919 393.592C52.8679 393.265 53.4652 393.102 54.1839 393.102C54.7905 393.102 55.3132 393.233 55.7519 393.494C56.1905 393.746 56.5172 394.115 56.7319 394.6L56.7599 394.67C57.0119 395.09 57.1379 395.603 57.1379 396.21L57.1519 400.592ZM54.1979 397.862C54.5992 397.862 54.8745 397.666 55.0239 397.274C55.1172 397.041 55.1639 396.723 55.1639 396.322C55.1639 396.005 55.1312 395.729 55.0659 395.496C54.9352 395.029 54.6459 394.796 54.1979 394.796C53.7592 394.796 53.4652 395.034 53.3159 395.51C53.2505 395.762 53.2179 396.037 53.2179 396.336C53.2179 396.709 53.2645 397.022 53.3579 397.274C53.5165 397.666 53.7965 397.862 54.1979 397.862ZM59.9018 398.366C59.5844 398.366 59.3184 398.263 59.1038 398.058C58.8984 397.843 58.7958 397.577 58.7958 397.26C58.7958 396.933 58.8984 396.667 59.1038 396.462C59.3091 396.257 59.5751 396.154 59.9018 396.154C60.2284 396.154 60.4944 396.257 60.6998 396.462C60.9051 396.667 61.0078 396.933 61.0078 397.26C61.0078 397.577 60.9004 397.843 60.6858 398.058C60.4804 398.263 60.2191 398.366 59.9018 398.366ZM59.9018 402.958C59.5844 402.958 59.3184 402.855 59.1038 402.65C58.8984 402.435 58.7958 402.169 58.7958 401.852C58.7958 401.525 58.8984 401.259 59.1038 401.054C59.3091 400.849 59.5751 400.746 59.9018 400.746C60.2284 400.746 60.4944 400.849 60.6998 401.054C60.9051 401.259 61.0078 401.525 61.0078 401.852C61.0078 402.169 60.9004 402.435 60.6858 402.65C60.4804 402.855 60.2191 402.958 59.9018 402.958ZM63.8965 393.242C63.9712 393.214 64.0412 393.2 64.1065 393.2H65.8005C65.8472 393.2 65.8845 393.219 65.9125 393.256C65.9498 393.284 65.9685 393.321 65.9685 393.368V402.832C65.9685 402.879 65.9498 402.921 65.9125 402.958C65.8845 402.986 65.8472 403 65.8005 403H64.1625C64.1158 403 64.0738 402.986 64.0365 402.958C64.0085 402.921 63.9945 402.879 63.9945 402.832V395.188C63.9945 395.169 63.9852 395.151 63.9665 395.132C63.9572 395.113 63.9432 395.109 63.9245 395.118L62.6785 395.356L62.6225 395.37C62.5385 395.37 62.4965 395.319 62.4965 395.216L62.4545 394.012C62.4545 393.919 62.4965 393.853 62.5805 393.816L63.8965 393.242ZM69.6545 401.222C69.6359 401.241 69.6312 401.259 69.6405 401.278C69.6499 401.297 69.6685 401.306 69.6965 401.306H73.0565C73.1032 401.306 73.1405 401.325 73.1685 401.362C73.2059 401.39 73.2245 401.427 73.2245 401.474V402.832C73.2245 402.879 73.2059 402.921 73.1685 402.958C73.1405 402.986 73.1032 403 73.0565 403H67.3165C67.2699 403 67.2279 402.986 67.1905 402.958C67.1625 402.921 67.1485 402.879 67.1485 402.832V401.474C67.1485 401.399 67.1765 401.334 67.2325 401.278C68.3619 399.981 69.2999 398.856 70.0465 397.904C70.7185 397.036 71.0545 396.35 71.0545 395.846C71.0545 395.519 70.9659 395.263 70.7885 395.076C70.6112 394.88 70.3732 394.782 70.0745 394.782C69.7852 394.782 69.5472 394.88 69.3605 395.076C69.1832 395.263 69.0945 395.51 69.0945 395.818V396.28C69.0945 396.327 69.0759 396.369 69.0385 396.406C69.0105 396.434 68.9732 396.448 68.9265 396.448H67.2605C67.2139 396.448 67.1719 396.434 67.1345 396.406C67.1065 396.369 67.0925 396.327 67.0925 396.28V395.622C67.1392 394.857 67.4425 394.245 68.0025 393.788C68.5625 393.321 69.2672 393.088 70.1165 393.088C70.7045 393.088 71.2179 393.205 71.6565 393.438C72.1045 393.671 72.4499 393.998 72.6925 394.418C72.9352 394.838 73.0565 395.309 73.0565 395.832C73.0565 396.271 72.9679 396.705 72.7905 397.134C72.6132 397.554 72.3425 398.007 71.9785 398.492C71.7452 398.8 71.4652 399.145 71.1385 399.528C70.8119 399.911 70.4852 400.284 70.1585 400.648L69.6545 401.222ZM75.8569 398.366C75.5395 398.366 75.2735 398.263 75.0589 398.058C74.8535 397.843 74.7509 397.577 74.7509 397.26C74.7509 396.933 74.8535 396.667 75.0589 396.462C75.2642 396.257 75.5302 396.154 75.8569 396.154C76.1835 396.154 76.4495 396.257 76.6549 396.462C76.8602 396.667 76.9629 396.933 76.9629 397.26C76.9629 397.577 76.8555 397.843 76.6409 398.058C76.4355 398.263 76.1742 398.366 75.8569 398.366ZM75.8569 402.958C75.5395 402.958 75.2735 402.855 75.0589 402.65C74.8535 402.435 74.7509 402.169 74.7509 401.852C74.7509 401.525 74.8535 401.259 75.0589 401.054C75.2642 400.849 75.5302 400.746 75.8569 400.746C76.1835 400.746 76.4495 400.849 76.6549 401.054C76.8602 401.259 76.9629 401.525 76.9629 401.852C76.9629 402.169 76.8555 402.435 76.6409 402.65C76.4355 402.855 76.1742 402.958 75.8569 402.958ZM79.8516 393.242C79.9262 393.214 79.9962 393.2 80.0616 393.2H81.7556C81.8022 393.2 81.8396 393.219 81.8676 393.256C81.9049 393.284 81.9236 393.321 81.9236 393.368V402.832C81.9236 402.879 81.9049 402.921 81.8676 402.958C81.8396 402.986 81.8022 403 81.7556 403H80.1176C80.0709 403 80.0289 402.986 79.9916 402.958C79.9636 402.921 79.9496 402.879 79.9496 402.832V395.188C79.9496 395.169 79.9402 395.151 79.9216 395.132C79.9122 395.113 79.8982 395.109 79.8796 395.118L78.6336 395.356L78.5776 395.37C78.4936 395.37 78.4516 395.319 78.4516 395.216L78.4096 394.012C78.4096 393.919 78.4516 393.853 78.5356 393.816L79.8516 393.242ZM88.7603 398.268C88.9376 398.744 89.0263 399.29 89.0263 399.906C89.0263 400.345 88.9703 400.76 88.8583 401.152C88.6809 401.777 88.3496 402.258 87.8643 402.594C87.3789 402.93 86.7723 403.098 86.0443 403.098C85.3163 403.098 84.7049 402.921 84.2103 402.566C83.7156 402.211 83.3843 401.703 83.2163 401.04C83.1509 400.844 83.1136 400.643 83.1043 400.438V400.41C83.1043 400.317 83.1556 400.27 83.2583 400.27H84.9243C85.0363 400.27 85.0969 400.326 85.1063 400.438C85.1249 400.55 85.1436 400.625 85.1623 400.662C85.2276 400.905 85.3349 401.091 85.4843 401.222C85.6336 401.343 85.8203 401.404 86.0443 401.404C86.2683 401.404 86.4596 401.339 86.6183 401.208C86.7769 401.068 86.8796 400.881 86.9263 400.648C86.9916 400.452 87.0243 400.209 87.0243 399.92C87.0243 399.621 86.9916 399.36 86.9263 399.136C86.8609 398.912 86.7536 398.744 86.6043 398.632C86.4549 398.52 86.2683 398.464 86.0443 398.464C85.6056 398.464 85.3069 398.646 85.1483 399.01C85.1203 399.103 85.0596 399.15 84.9663 399.15H83.2723C83.2256 399.15 83.1836 399.136 83.1463 399.108C83.1183 399.071 83.1043 399.029 83.1043 398.982V393.368C83.1043 393.321 83.1183 393.284 83.1463 393.256C83.1836 393.219 83.2256 393.2 83.2723 393.2H88.6203C88.6669 393.2 88.7043 393.219 88.7323 393.256C88.7696 393.284 88.7883 393.321 88.7883 393.368V394.726C88.7883 394.773 88.7696 394.815 88.7323 394.852C88.7043 394.88 88.6669 394.894 88.6203 394.894H85.1483C85.1016 394.894 85.0783 394.917 85.0783 394.964L85.0643 397.148C85.0643 397.185 85.0736 397.209 85.0923 397.218C85.1109 397.218 85.1296 397.209 85.1483 397.19C85.5216 396.901 85.9696 396.756 86.4923 396.756C87.0523 396.756 87.5236 396.887 87.9063 397.148C88.2983 397.409 88.5829 397.783 88.7603 398.268Z" fill="current"/>
<path d="M239.14 393.312C239.177 393.237 239.242 393.2 239.336 393.2H240.96C241.006 393.2 241.044 393.219 241.072 393.256C241.109 393.284 241.128 393.321 241.128 393.368V402.832C241.128 402.879 241.109 402.921 241.072 402.958C241.044 402.986 241.006 403 240.96 403H239.322C239.275 403 239.233 402.986 239.196 402.958C239.168 402.921 239.154 402.879 239.154 402.832V396.616C239.154 396.579 239.144 396.56 239.126 396.56C239.107 396.551 239.088 396.56 239.07 396.588L237.782 398.716C237.744 398.791 237.679 398.828 237.586 398.828H237.264C237.17 398.828 237.105 398.791 237.068 398.716L235.78 396.588C235.761 396.56 235.742 396.551 235.724 396.56C235.705 396.56 235.696 396.579 235.696 396.616V402.832C235.696 402.879 235.677 402.921 235.64 402.958C235.612 402.986 235.574 403 235.528 403H233.89C233.843 403 233.801 402.986 233.764 402.958C233.736 402.921 233.722 402.879 233.722 402.832V393.368C233.722 393.321 233.736 393.284 233.764 393.256C233.801 393.219 233.843 393.2 233.89 393.2H235.514C235.607 393.2 235.672 393.237 235.71 393.312L237.39 396.07C237.418 396.126 237.446 396.126 237.474 396.07L239.14 393.312ZM248.546 394.726C248.546 394.773 248.527 394.815 248.49 394.852C248.462 394.88 248.425 394.894 248.378 394.894H244.626C244.579 394.894 244.556 394.917 244.556 394.964V397.148C244.556 397.195 244.579 397.218 244.626 397.218H246.964C247.011 397.218 247.048 397.237 247.076 397.274C247.113 397.302 247.132 397.339 247.132 397.386V398.744C247.132 398.791 247.113 398.833 247.076 398.87C247.048 398.898 247.011 398.912 246.964 398.912H244.626C244.579 398.912 244.556 398.935 244.556 398.982V401.236C244.556 401.283 244.579 401.306 244.626 401.306H248.378C248.425 401.306 248.462 401.325 248.49 401.362C248.527 401.39 248.546 401.427 248.546 401.474V402.832C248.546 402.879 248.527 402.921 248.49 402.958C248.462 402.986 248.425 403 248.378 403H242.75C242.703 403 242.661 402.986 242.624 402.958C242.596 402.921 242.582 402.879 242.582 402.832V393.368C242.582 393.321 242.596 393.284 242.624 393.256C242.661 393.219 242.703 393.2 242.75 393.2H248.378C248.425 393.2 248.462 393.219 248.49 393.256C248.527 393.284 248.546 393.321 248.546 393.368V394.726ZM254.548 393.368C254.548 393.321 254.562 393.284 254.59 393.256C254.628 393.219 254.67 393.2 254.716 393.2H256.34C256.387 393.2 256.424 393.219 256.452 393.256C256.49 393.284 256.508 393.321 256.508 393.368V402.832C256.508 402.879 256.49 402.921 256.452 402.958C256.424 402.986 256.387 403 256.34 403H254.632C254.539 403 254.474 402.958 254.436 402.874L251.762 397.176C251.744 397.148 251.725 397.134 251.706 397.134C251.688 397.134 251.678 397.153 251.678 397.19L251.692 402.832C251.692 402.879 251.674 402.921 251.636 402.958C251.608 402.986 251.571 403 251.524 403H249.9C249.854 403 249.812 402.986 249.774 402.958C249.746 402.921 249.732 402.879 249.732 402.832V393.368C249.732 393.321 249.746 393.284 249.774 393.256C249.812 393.219 249.854 393.2 249.9 393.2H251.594C251.688 393.2 251.753 393.242 251.79 393.326L254.464 399.024C254.483 399.052 254.502 399.066 254.52 399.066C254.539 399.066 254.548 399.047 254.548 399.01V393.368ZM261.126 403.112C260.491 403.112 259.931 402.981 259.446 402.72C258.961 402.459 258.583 402.095 258.312 401.628C258.051 401.152 257.92 400.606 257.92 399.99V393.368C257.92 393.321 257.934 393.284 257.962 393.256C257.999 393.219 258.041 393.2 258.088 393.2H259.726C259.773 393.2 259.81 393.219 259.838 393.256C259.875 393.284 259.894 393.321 259.894 393.368V400.088C259.894 400.489 260.006 400.811 260.23 401.054C260.454 401.297 260.753 401.418 261.126 401.418C261.499 401.418 261.798 401.297 262.022 401.054C262.246 400.811 262.358 400.489 262.358 400.088V393.368C262.358 393.321 262.372 393.284 262.4 393.256C262.437 393.219 262.479 393.2 262.526 393.2H264.164C264.211 393.2 264.248 393.219 264.276 393.256C264.313 393.284 264.332 393.321 264.332 393.368V399.99C264.332 400.606 264.197 401.152 263.926 401.628C263.665 402.095 263.291 402.459 262.806 402.72C262.321 402.981 261.761 403.112 261.126 403.112Z" fill="current"/>
<rect x="185" y="28" width="24.4706" height="17" rx="2" fill="current"/>
<rect x="213.531" y="29" width="22.4706" height="15" rx="1" stroke="current" stroke-width="2"/>
<path d="M224.083 36.98C224.13 36.98 224.167 36.9987 224.195 37.036C224.233 37.064 224.251 37.1013 224.251 37.148V38.59C224.251 38.6367 224.233 38.6787 224.195 38.716C224.167 38.744 224.13 38.758 224.083 38.758H223.565C223.519 38.758 223.495 38.7813 223.495 38.828V41.082C223.495 41.1287 223.477 41.1707 223.439 41.208C223.411 41.236 223.374 41.25 223.327 41.25H221.689C221.643 41.25 221.601 41.236 221.563 41.208C221.535 41.1707 221.521 41.1287 221.521 41.082V38.828C221.521 38.7813 221.498 38.758 221.451 38.758H217.545C217.499 38.758 217.457 38.744 217.419 38.716C217.391 38.6787 217.377 38.6367 217.377 38.59V37.456C217.377 37.4 217.391 37.33 217.419 37.246L219.603 31.576C219.631 31.492 219.697 31.45 219.799 31.45H221.549C221.689 31.45 221.736 31.5153 221.689 31.646L219.673 36.896C219.664 36.952 219.683 36.98 219.729 36.98H221.451C221.498 36.98 221.521 36.9567 221.521 36.91V35.314C221.521 35.2673 221.535 35.23 221.563 35.202C221.601 35.1647 221.643 35.146 221.689 35.146H223.327C223.374 35.146 223.411 35.1647 223.439 35.202C223.477 35.23 223.495 35.2673 223.495 35.314V36.91C223.495 36.9567 223.519 36.98 223.565 36.98H224.083ZM225.581 41.25C225.534 41.25 225.492 41.236 225.455 41.208C225.427 41.1707 225.413 41.1287 225.413 41.082V31.618C225.413 31.5713 225.427 31.534 225.455 31.506C225.492 31.4687 225.534 31.45 225.581 31.45H227.219C227.265 31.45 227.303 31.4687 227.331 31.506C227.368 31.534 227.387 31.5713 227.387 31.618V35.342C227.387 35.37 227.396 35.3887 227.415 35.398C227.443 35.4073 227.461 35.398 227.471 35.37L229.977 31.562C230.023 31.4873 230.089 31.45 230.173 31.45H231.979C232.044 31.45 232.086 31.4687 232.105 31.506C232.133 31.5433 232.128 31.59 232.091 31.646L229.501 35.664C229.491 35.692 229.491 35.7247 229.501 35.762L232.245 41.054C232.263 41.0913 232.273 41.1193 232.273 41.138C232.273 41.2127 232.221 41.25 232.119 41.25H230.327C230.243 41.25 230.177 41.208 230.131 41.124L228.143 37.288C228.133 37.26 228.119 37.246 228.101 37.246C228.082 37.246 228.063 37.26 228.045 37.288L227.415 38.198C227.396 38.2353 227.387 38.2633 227.387 38.282V41.082C227.387 41.1287 227.368 41.1707 227.331 41.208C227.303 41.236 227.265 41.25 227.219 41.25H225.581Z" fill="current"/>
<path d="M98 174H78V194" stroke="current" stroke-width="2" stroke-linecap="round" stroke-linejoin="round"/>
<path d="M193 174H213V194" stroke="current" stroke-width="2" stroke-linecap="round" stroke-linejoin="round"/>
<path d="M193 256H213V236" stroke="current" stroke-width="2" stroke-linecap="round" stroke-linejoin="round"/>
<path d="M98 256H78V236" stroke="current" stroke-width="2" stroke-linecap="round" stroke-linejoin="round"/>
<path d="M145.5 209L145.5 220" stroke="current" stroke-width="1.5" stroke-linecap="round"/>
<path d="M140 214.5H151" stroke="current" stroke-width="1.5" stroke-linecap="round"/>
</svg>
