<svg width="290" height="430" viewBox="0 0 290 430" fill="none" xmlns="http://www.w3.org/2000/svg">
<path fill-rule="evenodd" clip-rule="evenodd" d="M15 0C6.71573 0 0 6.71574 0 15V415C0 423.284 6.71573 430 15 430H275C283.284 430 290 423.284 290 415V15C290 6.71573 283.284 0 275 0H15ZM92.7286 34.6594C81.4386 34.184 74.6508 35.2929 64.2286 39.6594C46.2266 47.2015 32.7366 68.8676 24.4002 93.7351C12.5696 129.026 13.783 167.753 36.408 188.286C38.8731 190.523 41.3184 192.585 43.697 194.591C53.001 202.436 61.2829 209.419 65.7286 222.659C71.8293 240.829 66.01 246.51 54.6369 257.612C52.2295 259.962 49.5732 262.555 46.7286 265.56C36.2724 276.608 34.6957 290.528 36.7286 298.659C38.8341 307.081 44.0543 313.409 48.0416 318.242C49.7356 320.296 51.207 322.079 52.1226 323.639C56.2177 330.616 56.0481 341.901 51.0512 348.326C49.3333 350.535 47.4119 352.553 45.4927 354.569C42.0687 358.165 38.6516 361.754 36.4088 366.406C31.4063 376.781 33.3888 386.395 39.2294 395.659C42.4896 400.831 49.1507 406.353 57.3903 410.155C65.5676 413.928 71.9806 414.246 80.0236 414.574C93.687 415.132 106.16 414.035 118.014 406.762C119.867 405.624 121.452 404.428 123.031 403.236C125.544 401.339 128.042 399.453 131.585 397.833C135.752 395.928 141.37 393.507 148 393.5C154.594 393.493 158.098 395.63 162.793 398.493C165.244 399.988 168.02 401.68 171.729 403.369C172.64 403.783 173.515 404.184 174.361 404.572C183.99 408.984 189.843 411.666 200.729 412.659C209.75 413.482 216.719 412.408 223.859 410.913C231.825 409.246 239.752 406.817 247.117 403.369C256.47 398.991 261.292 393.118 264.884 383.28C269.125 371.665 267.289 360.469 261.849 351.763C259.071 347.319 251.224 340.692 251.224 340.692C251.224 340.692 245.877 335.479 244.394 331.139C241.452 322.528 250.778 308.729 250.778 308.729C250.778 308.729 257.191 303.159 260.018 294.845C262.327 288.056 262.789 283.381 260.777 276.498C259.409 271.817 257.729 268.659 254.751 265.56C252.539 263.259 250.436 261.345 248.456 259.543C243.613 255.135 239.501 251.394 236.314 244.266C234.617 240.472 233.793 238.224 233.055 234.133C231.425 225.097 231.976 218.48 235.823 210.785C239.899 202.632 244.586 195.173 250.688 188.286C251.315 187.579 251.941 186.877 252.564 186.177C260.59 177.173 268.183 168.655 271.134 156.412C276.418 134.495 267.599 121.736 260.111 110.903C259.114 109.46 258.14 108.051 257.227 106.659C256.051 104.869 254.944 103.287 253.912 101.814C249.041 94.8561 245.865 90.3192 245.227 77.6592C244.925 71.6813 245.716 66.6622 246.469 61.8801C247.669 54.2673 248.774 47.2554 245.227 37.9332C242.363 30.406 236.32 27.0534 232.22 24.7783C231.906 24.6039 231.603 24.4359 231.314 24.2728C219.001 17.3271 207.587 15.6438 191.851 16.0588C175.533 16.4891 163.463 23.2753 151.641 29.9219C146.534 32.7928 141.474 35.6377 136.138 37.9332C132.522 39.4886 125.729 41.1594 116.729 40.1594C112.65 39.7062 109.392 38.6207 106.119 37.5299C102.169 36.2136 98.1957 34.8896 92.7286 34.6594Z" fill="current"/>
<path d="M14.7302 7.58301C11.4945 7.67289 10.9701 9.82383 9.64551 12.4372C7.54485 16.5818 5.43399 21.0045 5.68434 25.7612C5.82805 28.4916 7.22068 31.9057 9.70806 33.3423M9.70806 33.3423C10.4733 33.7843 11.3423 34.0391 12.3103 34.0292C13.66 34.0155 15.7176 33.9482 16.5451 32.6608C17.5645 31.0751 17.4772 28.4611 17.323 26.6542C17.2208 25.4575 14.8447 25.6554 14.0676 25.9628C12.377 26.6317 11.3983 28.9417 10.7426 30.4894L10.7258 30.529C10.349 31.4183 10.0059 32.3647 9.70806 33.3423ZM9.70806 33.3423C8.96767 35.7729 8.50757 38.3963 8.50757 40.8136C8.50757 44.7521 8.58786 48.1907 10.3225 51.66M43.1307 424.307C40.8797 422.056 39.5162 418.218 39.4772 415.021C39.4441 412.3 40.4351 411.933 42.9277 411.977C44.5137 412.005 45.658 412.45 46.6573 413.689C47.4626 414.688 47.6795 415.967 48.4333 417C49.4137 418.344 50.6147 418.903 52.036 419.614C54.4003 420.796 57.1082 421.165 59.622 421.973C62.078 422.763 64.2996 423.166 66.8782 423.166M18.067 16.7987C18.227 14.3985 19.8443 12.5019 21.7438 11.2009C23.1292 10.252 24.5799 9.42537 26.0505 8.61891C27.1501 8.01591 28.2101 7.17955 29.4071 6.78053C31.8815 5.95576 34.3376 7.65739 34.6124 10.1475C35.0614 14.2147 31.9582 16.3773 29.2419 18.8126C27.4403 20.4278 26.4481 21.8722 25.8956 24.2968C25.5755 25.7016 25.4722 27.1328 25.5032 28.5726C25.5443 30.4839 26.3896 32.0577 26.8045 33.8812C27.1729 35.5003 27.2921 37.1695 27.4552 38.8179C27.6078 40.3618 27.5768 42.2725 28.5602 43.5688C30.1287 45.6363 33.1058 46.5433 35.6039 46.5433C37.4267 46.5433 38.9402 46.3269 40.2515 44.9114C41.2301 43.8552 41.666 41.7118 41.9453 40.3155C42.3839 38.1224 40.6467 37.307 39.6318 35.575C38.4689 33.5901 37.5869 31.477 37.5869 29.1509C37.5869 28.2948 37.8357 27.7574 38.4751 27.1473C39.4749 26.1933 40.6547 25.4668 41.8524 24.7925C42.2079 24.5923 43.4726 23.7287 44.0316 23.7597C45.2628 23.8281 46.8789 26.1239 47.5328 26.9821C48.3626 28.0713 48.9258 29.3436 49.3815 30.6278C49.5081 30.9847 49.5974 31.5515 49.8979 31.8156C50.8343 32.6385 53.0254 32.4146 54.1323 32.4146C56.0117 32.4146 57.5377 32.1212 59.2137 31.3715C60.4982 30.7968 62.9949 30.462 63.3449 28.9031C63.7592 27.0577 63.8663 24.9659 63.5721 23.0987C63.0735 19.934 59.7201 16.679 56.7763 15.58C54.0241 14.5525 48.744 16.56 47.1093 13.3491C46.78 12.7024 46.5553 11.8265 46.7375 11.0976C47.1011 9.64335 48.8378 9.55526 50.0218 9.25925C53.7856 8.31829 57.7165 8.13876 61.5685 7.73071C63.8567 7.48832 66.3273 7.26548 68.6018 7.72038C73.6287 8.72576 72.8546 15.7061 72.9086 19.6492C72.9562 23.12 74.5972 27.5763 78.8988 26.7755C80.3418 26.5069 81.8157 25.9746 82.0799 24.3897C82.3253 22.9173 82.0014 21.5161 81.7494 20.0726C81.3178 17.6011 80.9314 15.1653 80.9025 12.6468C80.8905 11.6051 80.6658 10.0189 81.7494 9.45548C82.3142 9.16174 82.8597 8.43301 83.5051 8.43301M75.7778 423.284C81.8518 423.284 87.9698 423.481 94.0412 423.227C97.2641 423.092 100.473 422.82 103.676 422.507C105.291 422.35 107.309 422.169 109.205 421.678M109.205 421.678C111.221 421.155 113.099 420.281 114.203 418.711C115.219 417.266 115.382 416.359 115.382 414.641C115.382 413.884 113.265 414.199 112.793 414.224C108.867 414.437 107.803 418.526 109.17 421.602C109.181 421.627 109.193 421.653 109.205 421.678ZM109.205 421.678C109.779 422.86 110.997 422.911 112.218 423.04C115.236 423.357 117.927 423.566 120.76 422.407C121.959 421.916 123.47 420.689 124.183 419.603C125.318 417.873 124.794 416.119 124.715 414.181C124.655 412.71 124.63 411.12 125.218 409.738C125.828 408.305 128.212 407.254 129.561 406.775C131.07 406.24 133.052 405.941 134.652 405.941C135.794 405.941 135.831 408.082 135.831 408.846C135.831 411.533 135.427 413.693 134.077 416.094C133.565 417.003 132.582 418.556 132.739 419.66C132.84 420.363 135.068 420.918 135.716 420.954C141.861 421.296 148.157 422.341 154.368 421.602C155.893 421.42 156.87 421.52 157.833 420.178C159.369 418.04 160.134 414.805 160.134 412.197C160.134 407.996 154.823 405.068 151.19 404.517C149.534 404.267 146.235 403.791 144.69 404.704C143.049 405.674 143.857 408.576 145.035 409.551C146.717 410.943 148.659 412.901 150.844 413.448M165.599 420.955C165.599 422.043 168.985 421.61 169.611 421.587C171.731 421.51 171.75 421.171 172.3 419.128C172.582 418.084 172.822 416.813 172.847 415.72C172.861 415.108 172.641 414.121 173.019 413.592C174.051 412.148 176.801 412.307 178.311 412.83C180.277 413.51 182.739 413.867 183.143 416.295C183.24 416.874 182.755 419.841 183.345 420.178C184.756 420.984 185.321 422.118 187.084 422.508C189.525 423.047 191.408 423.344 193.943 423.27C200.06 423.09 205.741 421.147 211.674 419.919M220.475 422.249H230.614C233.585 422.249 235.852 422.329 238.142 421.059M238.142 421.059C238.682 420.76 239.222 420.386 239.774 419.919C241.131 418.768 242.783 416.341 242.952 414.483C243.081 413.067 241.101 413.205 240.148 412.93C237.304 412.111 233.159 414.47 233.159 417.589C233.159 418.893 233.198 419.466 234.453 420.048C235.585 420.574 236.847 420.875 238.142 421.059ZM238.142 421.059C239.751 421.288 241.411 421.337 242.938 421.414C246.773 421.608 250.755 421.593 252.199 417.302C252.719 415.754 252.501 414.633 251.94 413.189C251.459 411.952 251.958 410.957 252.947 410.226C255.913 408.034 258.344 408.746 260.281 411.952C261.488 413.951 260.445 416.652 262.006 418.423C263.877 420.546 266.998 420.695 269.657 420.695C273.384 420.695 277.323 420.74 280.672 418.941C283.855 417.232 283.533 413.59 283.117 410.543C282.452 405.666 281.718 400.763 280.989 395.903C280.655 393.678 277.742 393.393 275.955 392.912C274.693 392.572 272.644 392.099 271.325 392.653C269.58 393.387 267.402 396.478 266.694 398.175C266.168 399.44 265.982 400.555 266.033 401.914C266.105 403.823 268.788 406.006 269.599 407.839C270.003 408.751 270.198 410.616 270.951 411.118M274.316 382.904C273.927 382.953 274.071 383.31 274.187 383.565C274.571 384.411 275.138 384.445 276.042 384.457C278.797 384.492 280.878 384.225 282.743 382.127C284.132 380.565 283.063 375.381 281.305 374.419C280.023 373.718 278.512 374.213 277.394 373.298C274.788 371.166 272.592 367.525 274.417 364.281C275.556 362.255 279.282 363.035 281.046 363.231C281.39 363.269 281.724 363.639 282.082 363.562C282.819 363.404 282.599 361.632 282.599 361.103C282.599 359.615 282.147 358.53 281.248 357.278C278.439 353.365 274.138 350.968 270.318 348.218C267.625 346.279 265.655 343.985 263.459 341.531C261.615 339.47 258.972 338.524 257.088 336.57C255.959 335.399 254.459 332.534 254.902 330.817C255.182 329.733 257.395 329.154 258.354 329.077C259.94 328.951 261.519 330.15 262.927 330.731C265.588 331.829 268.599 332.247 270.778 334.154C272.971 336.072 276.007 336.935 277.94 339.144C278.522 339.809 281.198 340.725 281.521 339.489C281.871 338.147 281.386 336.516 281.104 335.218C280.687 333.303 280.512 331.347 280.068 329.437C279.679 327.763 279.48 325.548 278.4 324.145C276.733 321.978 273.243 322.074 270.807 322.074C267.825 322.074 264.47 322.229 261.632 321.283C259.638 320.618 257.215 317.167 256.614 315.229C255.605 311.978 260.349 308.628 262.668 307.19C265.644 305.345 268.536 302.951 272.001 302.143C273.657 301.756 276.033 301.117 277.681 301.941C279.415 302.808 280.683 304.636 281.363 306.399C282.275 308.764 282.847 310.505 280.658 312.338C278.317 314.3 276.192 314.05 273.108 314.05C272.395 314.05 270.113 314.447 269.455 313.992C269.233 313.838 269.035 313.247 268.88 313.014M268.621 293.6C269.984 292.981 269.679 290.914 271.037 290.235C272.607 289.45 275.694 288.357 277.408 289.214C278.744 289.882 280.053 291.215 281.621 291.271C283.78 291.348 283.91 289.243 284.138 287.417C284.682 283.063 283.486 274.187 277.71 274.187C275.272 274.187 272.557 275.112 271.224 277.278C270.362 278.679 270.642 280.409 270.951 281.952M263.962 101.792C263.962 104.74 266.78 108.042 268.233 110.464C269.794 113.066 271.221 115.238 273.482 117.266C274.938 118.572 278.754 117.93 280.658 117.827C287.221 117.472 283.621 108.948 282.614 105.344C282.071 103.403 281.811 101.391 281.247 99.4627C280.641 97.3881 280.014 97.2662 278.515 98.945C276.781 100.887 277.501 103.785 275.711 105.574C271.212 110.073 267.286 97.1618 268.478 93.9118C270.342 88.8282 275.422 88.4381 280.011 87.5556C281.99 87.175 282.94 82.1575 283.261 80.5954C283.605 78.9154 283.306 77.0235 282.844 75.404C282.571 74.4507 282.425 72.7416 281.549 72.1396C280.383 71.3374 278.398 70.2745 276.991 71.1186C275.625 71.9378 275.869 74.3624 275.869 75.706C275.869 76.5363 276.264 78.3577 275.466 78.9272C273.252 80.509 270.613 81.9844 268.132 83.112C266.446 83.8784 264.602 84.0877 262.941 84.9671C259.82 86.6196 260.46 89.5862 259.878 92.56C259.725 93.3395 258.209 93.1173 257.577 93.1928C255.796 93.4054 253.828 91.8307 252.544 90.7768C251.444 89.8738 250.765 88.726 250.372 87.3686C249.727 85.1344 248.862 82.6488 248.719 80.3222C248.56 77.7495 248.504 74.4016 250.272 72.3122C251.652 70.681 255.342 74.4908 256.369 75.3033C257.76 76.4042 257.924 76.8664 259.907 76.9283C262.261 77.0019 264.729 77.3231 265.127 74.5843C265.225 73.905 265.891 72.046 265.371 71.3774C264.307 70.0095 262.961 70.3851 262.927 68.3431C262.871 64.9807 264.776 62.5582 267.5 60.6064C269.416 59.2331 270.348 59.8935 272.562 60.6927C274.397 61.3551 276.078 62.2399 277.997 62.5046L278 62.5051C279.342 62.6901 282.007 63.0577 282.657 61.498C283.279 60.0049 283.117 58.3915 283.117 56.8099V47.8652C283.117 46.9102 283.566 44.6636 282.599 44.1263C280.93 43.1986 278.951 43.551 277.048 43.551C275.255 43.551 274.105 43.5959 273.295 45.3774C272.772 46.5287 272.504 47.6008 272.504 48.8575C272.504 49.9319 268.355 50.0909 267.27 50.5975C264.675 51.8083 262.43 53.2281 260.309 55.0699C258.848 56.3387 256.237 58.11 255.362 59.8586C254.643 61.2967 254.643 62.9449 254.643 64.5086V64.5179M254.643 46.9163C253.515 44.7729 253.641 41.8141 253.09 39.4384C252.604 37.3414 252.693 35.0898 253.551 33.1109C253.983 32.1118 255.501 31.903 256.513 31.903C258.854 31.903 260.07 33.7458 260.453 36.0446C260.669 37.3417 260.459 38.6488 260.626 39.9417C260.726 40.718 262.057 40.4835 262.639 40.5745C263.609 40.726 264.646 41.0174 265.63 40.9627C268.081 40.8266 269.383 36.2386 270.261 34.4627C270.739 33.4953 270.596 33.2882 271.699 33.0822C273.404 32.7636 275.089 32.6795 276.818 32.6795C279.121 32.6795 280.376 33.102 281.808 31.112C283.392 28.9128 283.144 26.4055 283.117 23.8211C283.059 18.2215 279.862 12.4395 275.625 8.90844C274.032 7.58127 272.081 7.94947 270.189 7.70047C267.499 7.3465 264.796 8.29759 262.725 10.0445C261.682 10.9247 260.023 13.6628 261.69 14.7613C263.187 15.7479 265.487 15.4134 267.169 15.7248C269.311 16.1214 271.44 17.1946 271.44 19.6363C271.44 22.1016 270.962 23.6246 268.65 24.2669C266.799 24.7811 264.975 23.686 263.214 23.2459C261.072 22.7103 258.657 21.3316 256.455 21.2901C254.958 21.2619 253.443 21.1554 252.055 21.7503C251.683 21.9095 251.154 21.7982 250.761 21.8078C248.487 21.8633 246.201 22.28 243.93 22.4406C242.439 22.546 238.796 23.7204 239.529 21.2757C240.174 19.1264 242.683 16.6979 244.347 15.2215C246.169 13.6048 248.064 11.8555 249.15 9.64185C250.159 7.58525 248.799 7.12769 246.82 7.06772C244.697 7.00338 241.424 6.4909 239.343 7.21153C236.756 8.10681 234.818 9.64574 233.36 11.914C231.836 14.2852 224.952 10.5398 222.618 10.0157C218.886 9.17795 215.157 8.2929 211.329 8.08874C209.368 7.98412 207.372 7.69424 205.462 7.31219M190.707 7.05334C188.194 7.05334 176.937 6.24614 171.112 8.24581M171.112 8.24581C168.407 9.17426 166.873 10.7078 167.929 13.2082C168.842 15.3706 172.47 14.3807 174.141 14.3011C175.916 14.2166 175.214 11.7541 174.371 10.8786C173.521 9.99564 172.398 9.08178 171.112 8.24581ZM171.112 8.24581C167.123 5.65381 161.569 3.8107 157.747 5.96042C156.434 6.69928 155.073 8.45977 155.101 10.0445C155.123 11.2715 157.329 12.2541 158.092 13.0069C159.646 14.5384 161.842 18.3491 159.473 20.2547C157.323 21.9841 154.249 23.0451 151.794 24.2237C149.969 25.0997 147.499 26.8776 145.409 26.9848C144.212 27.0462 142.354 27.3587 141.267 26.7835C140.313 26.2786 141.313 23.6693 141.727 23.1021C142.641 21.8496 143.794 20.9006 145.092 20.0534C145.911 19.5191 147.424 18.9703 147.997 18.1264C148.998 16.6518 149.227 14.3568 147.738 13.2082C145.68 11.6207 142.042 12.6076 139.973 13.5246C137.834 14.4721 135.459 16.0822 133.789 17.7525C133.048 18.4931 133.493 20.7639 133.559 21.664C133.757 24.3507 135.367 30.2033 131.445 31.0258C127.459 31.8615 123.383 32.3694 119.365 33.039C118.244 33.226 117.039 33.4561 115.9 33.4561C113.486 33.4561 111.965 33.4433 110.593 31.2271C109.177 28.9387 109.092 27.5711 111.758 26.122C114.256 24.7645 116.737 24.7847 119.394 24.008C122.452 23.114 123.543 22.4055 124.557 19.2193C125.333 16.7785 123.941 13.2969 123.277 10.9361C122.395 7.80134 119.105 7.39574 116.216 7.29781C111.731 7.14577 107.296 6.79449 102.799 6.79449C100.21 6.79449 97.3654 6.50427 94.9328 7.58542C93.627 8.16575 91.7668 9.04781 90.9637 10.289C90.4431 11.0935 90.7912 12.8651 90.7912 13.7691C90.7912 14.9154 90.929 16.3312 91.4527 17.3786C91.7432 17.9597 93.1656 17.6775 93.6529 17.6518C99.0081 17.37 103.927 14.3288 109.371 14.0567C110.728 13.9888 113.121 14.1609 112.376 16.2281C111.551 18.5218 106.835 19.298 104.913 20.2259C103.391 20.9606 102.892 20.9729 102.037 22.6275C101.403 23.8536 100.889 25.1898 99.7359 26.0357C99.2972 26.3574 98.5641 26.4671 98.039 26.4671C96.14 26.4671 94.2333 26.8131 92.3443 26.9848M133.243 6.01782C134 7.987 137.359 7.5397 139.11 7.16827C141.528 6.65538 143.817 5.65908 146.185 4.98242M7.33023 409.403C7.33023 411.343 7.64908 413.244 7.70302 415.186C7.75398 417.021 7.73819 418.791 8.52919 420.466C9.67553 422.893 13.151 423.547 15.4509 424.093C18.6967 424.863 22.0372 424.999 25.365 424.999C26.6266 424.999 28.3118 425.084 29.4052 424.314C31.057 423.152 30.9315 421.124 29.8888 419.579C28.3783 417.341 25.8575 417.02 23.3801 417.02C21.4291 417.02 19.4898 416.657 17.5667 416.657C16.3355 416.657 14.5735 416.412 13.7583 415.347C12.4605 413.653 14.0578 412.19 15.4106 411.398C16.452 410.788 17.4853 410.165 18.5138 409.534C19.4379 408.967 20.5211 408.864 21.5565 408.587C23.6499 408.027 25.6689 408.018 27.8133 407.851C29.5885 407.713 30.8492 407.768 32.1356 406.461C33.1738 405.406 33.6206 403.913 33.7677 402.471C33.8436 401.727 32.8641 400.92 32.4177 400.436C31.3773 399.308 30.1073 398.421 29.0727 397.292C27.9605 396.079 27.5372 394.436 27.4203 392.839C27.2166 390.055 27.0979 387.279 27.0979 384.487C27.0979 383.262 27.2099 381.98 27.0878 380.759C26.9569 379.45 25.7895 377.484 24.438 377.484C22.5289 377.484 20.4603 378.031 19.4911 379.872C18.4142 381.918 17.9762 384.726 17.5063 386.975C16.7258 390.71 18.3031 394.798 17.1234 398.421C16.7389 399.602 15.6738 401.333 14.4031 401.746C13.2407 402.123 10.2275 402.394 9.18408 401.766C7.85033 400.962 7.37899 398.66 7.18918 397.272C6.92749 395.359 6.93502 393.396 6.82647 391.469C6.67183 388.724 6.75561 385.937 6.78617 383.187C6.81963 380.175 7.56203 377.091 7.96497 374.109C8.07285 373.311 7.58122 367.846 8.27731 367.691C9.76571 367.361 11.3387 367.318 12.8515 367.188C14.1325 367.077 15.4139 366.817 16.6196 367.288C19.9065 368.572 23.3519 368.49 26.4027 366.472C28.2095 365.277 31.5943 359.528 27.642 359.027C25.5892 358.766 23.8867 358.867 21.8588 358.12C20.3701 357.571 18.745 357.612 17.1637 357.757C14.9252 357.963 10.7951 358.838 9.67777 356.115C8.06147 352.175 8.23701 347.205 8.23701 343.007C8.23701 341.459 8.68242 340.005 8.79115 338.483C8.84019 337.796 8.95573 337.099 9.0531 336.418C9.1025 336.072 9.0022 335.243 9.20423 334.957C9.75572 334.175 11.5002 333.634 12.3477 333.345C13.8529 332.83 15.3599 332.76 16.9219 332.589C19.3114 332.328 22.0355 332.358 24.2265 331.299C27.5686 329.684 30.308 327.279 33.405 325.295C36.6437 323.219 41.1147 322.856 44.8505 322.615C47.2989 322.457 49.5643 322.908 49.7471 325.788C49.9361 328.765 49.3851 331.237 48.2258 333.959C47.3858 335.931 47.1161 338.181 46.9059 340.307C46.6049 343.35 45.7733 345.357 43.3594 347.46C41.9 348.732 40.0468 349.66 38.3218 350.523C37.8888 350.74 37.6737 350.634 37.3344 350.281C34.8742 347.725 34.8626 344.861 34.8962 341.516C34.9088 340.257 34.9424 339.066 35.5511 337.939C35.8632 337.361 36.5219 336.657 36.6997 336.035C37.0211 334.91 33.7591 335.383 33.1532 335.44C29.8447 335.755 27.0195 338.882 24.2869 340.548C23.0904 341.278 21.6642 341.543 20.4382 342.231C18.5019 343.317 17.6378 344.066 17.204 346.312C16.9392 347.682 18.4848 347.781 19.5213 347.964C20.8705 348.202 22.0329 348.129 23.3298 348.508C24.1359 348.743 24.8725 349.116 25.6471 349.374M23.6522 323.803C23.6522 322.76 20.2847 323.444 19.6624 323.662C16.8595 324.647 13.8381 325.469 10.8969 325.889C8.77705 326.192 6.98196 324.864 5.45622 323.541C4.06814 322.338 4.18547 320.278 4.97261 318.725C6.90716 314.908 11.7459 315.28 15.3401 315.28C20.0471 315.28 24.6791 316.431 29.3951 316.368C31.4373 316.34 35.1709 316.379 36.3571 314.363C37.1987 312.932 35.8124 311.739 34.8357 310.907C33.558 309.818 31.9722 309.162 30.7653 307.985C29.8929 307.134 29.2647 306.256 28.0148 305.96C25.9178 305.463 24.1185 306.756 22.0603 306.756C19.9103 306.756 20.39 304.434 20.5288 302.786C20.7141 300.586 21.3654 298.674 23.3298 297.416C24.8612 296.435 26.4305 295.474 27.9845 294.524C29.7637 293.437 29.6204 289.689 29.6369 288.016C29.6714 284.507 30.8012 280.792 30.1608 277.316C29.739 275.026 29.3535 272.704 30.2615 270.465C31.1342 268.313 33.1721 266.812 34.9566 265.447C35.8003 264.802 36.7187 264.271 37.6568 263.775C38.1189 263.53 39.6042 263.309 39.7525 262.687C40.1522 261.008 31.2087 261.884 30.5638 262.062C28.0696 262.751 25.7751 263.97 23.2895 264.682C20.5671 265.461 17.7261 265.662 15.0076 266.394C14.5869 266.508 14.1823 266.449 13.7582 266.535C12.2432 266.844 10.54 268.44 9.40573 269.397C8.24575 270.375 6.76944 271.467 5.91969 272.742C5.32622 273.632 5.31804 275.018 5.33532 276.046C5.3767 278.509 6.53507 280.994 9.24453 280.782C11.9286 280.571 13.5754 277.567 15.6322 276.147C16.5177 275.536 18.2655 274.519 19.3802 274.737C21.3091 275.113 21.4288 278.231 21.4658 279.674C21.5182 281.715 21.1915 284.116 18.9067 284.721C16.8753 285.259 14.6158 285.93 13.0933 287.472C11.6957 288.887 10.4206 291.263 9.72814 293.154C8.90557 295.4 10.0315 298.148 11.048 300.136C11.9039 301.811 12.3805 304.424 11.5719 306.212C10.7504 308.028 9.75429 308.394 8.05564 309.073C6.33412 309.762 4.80987 308.469 4.34794 306.957C3.98711 305.776 3.70312 304.366 3.70312 303.129M48.3164 208.099C48.8535 208.159 49.4735 208.885 49.868 209.197C50.6944 209.851 51.4609 210.469 52.0845 211.323C53.5374 213.313 55.3733 214.984 56.7595 217.026C58.4675 219.541 58.4548 222.918 58.4722 225.832C58.4967 229.922 58.5986 233.685 55.5 236.783C54.5388 237.745 52.3822 238.812 51.0065 238.043C49.14 237 48.8242 233.872 48.941 232.018C49.0758 229.879 50.6544 226.784 49.5153 224.774C48.3612 222.737 45.6252 220.226 43.2183 222.053C39.6141 224.79 39.5567 230.258 39.6113 234.355C39.6601 238.012 41.6599 240.421 44.1855 242.839C45.9338 244.512 49.6305 247.385 48.7395 250.355C47.9819 252.88 44.4457 254.802 42.11 255.533C39.8463 256.242 35.8415 256.316 34.6543 253.942C33.7243 252.082 33.7749 249.618 33.8483 247.594C33.9479 244.849 34.1796 242.051 33.8483 239.312C33.5508 236.853 32.3694 234.728 31.7728 232.36C30.4527 227.123 29.8983 221.471 32.5586 216.582C34.1619 213.637 36.5383 211.527 37.697 208.301C38.262 206.727 38.5284 205.035 38.6945 203.374C38.8022 202.296 39.0763 200.999 38.7751 199.928C38.0961 197.514 36.0251 195.072 34.1203 193.54C32.2885 192.068 30.1926 191.218 27.8938 190.79C26.3274 190.498 23.502 189.934 22.1509 191.052C19.7668 193.023 17.3136 196.878 18.0704 200.18C18.4553 201.86 21.8514 201.389 22.967 201.389C24.7199 201.389 26.5256 201.127 27.3397 203.142C28.0575 204.919 27.9272 207.445 25.9392 208.24C24.7948 208.698 23.5332 208.846 22.3222 209.006C19.7336 209.347 15.9242 210.68 13.6675 208.865C12.0836 207.591 10.6916 205.567 9.94973 203.686C9.27153 201.966 9.46239 199.887 9.51649 198.074C9.62013 194.602 10.6321 190.689 13.0529 188.11C15.2047 185.817 18.2036 184.847 19.1182 181.581C19.4809 180.286 19.4186 179.015 19.5212 177.692C19.6189 176.434 19.9229 175.211 19.8033 173.944C19.5357 171.107 18.1885 169.312 16.015 167.596C14.4435 166.356 11.1566 166.193 9.46612 167.113C7.22745 168.331 6.28516 171.126 6.24203 173.541C6.21391 175.116 6.69425 176.592 6.77602 178.145C6.84315 179.421 6.48885 180.969 6.96745 182.165M24.7403 214.265C22.3743 215.873 19.4301 216.26 16.6297 216.26C14.25 216.26 12.0665 216.248 9.82885 215.353C8.44827 214.801 7.37983 214.419 6.50401 215.786C4.99389 218.143 4.19597 221.576 5.43603 224.169C6.96953 227.375 12.9348 223.531 15.2493 223.373C16.873 223.262 17.9908 223.59 19.3198 224.441C20.0792 224.927 21.2719 225.39 21.5565 226.325C23.5297 232.808 12.8192 232.234 10.3729 236.148C8.97172 238.39 8.42588 241.179 7.88432 243.725C7.32528 246.352 6.90438 248.919 6.69544 251.594C6.59315 252.903 6.41224 254.417 6.68536 255.714C6.96006 257.019 7.86005 258.595 8.59967 259.704C9.11986 260.484 10.5114 260.309 11.32 260.309C14.0043 260.309 16.6457 259.127 19.1485 258.284C21.184 257.598 24.1834 257.179 25.6873 255.493C27.1174 253.889 26.4419 250.544 26.2515 248.722C26.0348 246.647 25.6321 244.596 25.4657 242.516C25.3723 241.349 25.4367 240.125 25.244 238.969C25.1117 238.175 24.184 238.092 23.5375 238.035L23.5111 238.032C22.3649 237.93 20.9571 237.573 19.894 238.163C17.3517 239.576 16.7293 242.815 16.1763 245.478C15.8111 247.236 15.4912 248.925 15.4912 250.717M17.4861 43.9727C17.4861 45.5243 18.2966 46.9638 18.9772 48.3252C19.9297 50.2301 20.4067 50.9255 22.5237 51.3679C24.5366 51.7885 26.5312 52.1336 28.5891 52.1336C30.421 52.1336 31.1738 51.9524 31.7023 53.9976C32.5592 57.3134 32.5223 60.5891 29.0324 61.9973C26.2837 63.1064 23.7698 62.3386 21.1636 61.1107C18.2104 59.7193 15.1029 57.2963 11.9648 59.6498C10.5953 60.6769 9.556 62.1208 8.3579 63.3373C7.78777 63.9162 7.00797 64.6489 6.68541 65.4128C5.58712 68.0141 6.45385 71.1767 7.05819 73.7955C8.09897 78.3055 7.14887 82.9257 7.14887 87.4878C7.14887 90.8452 6.6048 94.111 6.6048 97.4522C6.6048 100.05 6.65057 102.565 6.24209 105.13C6.01852 106.533 5.90187 107.823 5.87938 109.24C5.87356 109.607 5.67385 110.045 5.72825 110.399C5.7774 110.718 7.4152 110.25 7.59218 110.208C9.22402 109.818 10.0236 108.433 11.0278 107.205C13.12 104.648 15.1188 102.199 15.4005 98.762C15.7221 94.8383 14.8045 91.0688 14.9874 87.1351C15.0882 84.9696 15.1504 82.8151 15.1285 80.6467C15.1086 78.6825 14.415 76.6137 14.8867 74.6619C15.3841 72.6034 16.9471 71.0348 18.5339 69.7654C19.0908 69.3199 20.0957 69.296 20.7606 69.1911C21.8497 69.0191 23.5488 68.6885 24.6093 69.1508C25.7672 69.6555 26.3725 71.4073 26.3725 72.5562C26.3725 74.3893 25.4476 75.9644 24.4985 77.483C23.6388 78.8585 22.7568 80.4536 22.1308 81.9464L22.1262 81.9574C21.8483 82.62 21.4759 83.508 21.4759 84.2334M14.0403 110.893C12.0238 113.524 9.63995 115.857 7.86415 118.661C5.25586 122.779 3.85149 126.787 4.22698 131.708C4.29608 132.614 4.35372 134.244 5.3151 134.751C5.6976 134.953 6.1808 135.086 6.68516 135.175M6.68516 135.175C7.34678 135.291 8.04481 135.33 8.59964 135.345C11.2247 135.418 13.1079 133.96 13.6373 131.386C13.8811 130.2 14.2931 128.419 13.0227 127.698C11.7566 126.98 9.41461 127.35 8.43844 128.403C6.87026 130.096 6.57907 132.635 6.68516 135.175ZM6.68516 135.175C6.76581 137.105 7.07605 139.035 7.22941 140.594C7.38338 142.16 7.53501 144.444 8.88175 145.521C10.0024 146.418 10.8741 146.817 11.461 148.252C12.2917 150.282 12.4081 152.468 12.4081 154.629C12.4081 156.257 11.8598 157.542 10.1915 158.045C4.74011 159.689 6.36043 151.411 4.79119 148.796M283.93 125.552C282.607 125.552 280.98 125.792 279.676 125.502C277.806 125.087 277.587 126.234 277.089 127.916C276.287 130.622 281.719 130.905 283.333 130.926C285.255 130.95 285.61 132.921 285.447 134.657C285.268 136.565 284.308 138.219 282.387 138.588C279.801 139.085 279.054 141.026 278.258 143.414C277.499 145.691 277.91 147.681 277.885 150.031C277.855 152.781 277.75 155.85 276.989 158.514C274.86 165.967 271.31 172.734 266.789 179.013C263.867 183.072 259.077 187.152 259.077 192.447C259.077 194.386 264.103 191.12 264.948 190.482C266.349 189.424 267.705 188.188 268.755 186.75C269.601 185.591 270.19 184.141 271.043 183.043C271.348 182.652 272.14 181.551 272.698 181.551C275.412 181.551 275.596 184.461 275.596 186.601C275.596 190.03 273.442 193.443 271.516 196.166C270 198.309 267.033 198.464 264.6 198.654C261.44 198.901 258.294 198.304 255.159 198.554C253.696 198.671 252.776 199.876 251.764 200.781C250.359 202.037 248.82 203.184 247.684 204.711C245.195 208.056 241.875 211.916 240.606 215.919C239.699 218.778 239.425 220.806 239.947 223.842C240.19 225.259 240.789 226.526 240.992 227.947C241.037 228.263 241.172 229.352 241.589 229.439C244.22 229.993 247.02 229.587 249.686 230.036C254.495 230.847 259.307 231.902 264.202 231.902C266.23 231.902 267.86 231.39 268.232 233.905C268.523 235.868 269.779 238.417 268.742 240.298C267.529 242.5 264.888 243.907 262.535 242.624C260.681 241.613 259.597 240.256 258.045 238.942C256.163 237.35 253.008 238.118 250.744 237.835C249.449 237.674 248.046 237.74 246.763 237.997C245.749 238.2 245.7 239.238 245.659 240.109L245.656 240.161C245.588 241.596 246.475 242.306 247.385 243.321C248.358 244.406 249.023 245.731 249.997 246.779C251.817 248.736 253.521 248.976 256.229 249.341C258.813 249.689 261.338 249.751 263.929 249.814C265.464 249.851 266.932 250.366 268.481 250.237C270.14 250.098 272.41 249.277 273.805 248.371C274.856 247.688 275.39 245.564 275.845 244.49C276.62 242.657 276.798 240.686 277.163 238.743C277.875 234.957 276.388 231.488 275.024 228.046C274.019 225.513 273.328 223.77 270.322 223.444C266.659 223.047 262.807 223.394 259.127 223.394C256.364 223.394 252.73 223.733 250.669 221.454C248.965 219.57 248.263 215.894 249.5 213.593C251.439 209.985 255.791 206.88 259.699 205.856C261.575 205.364 263.553 206.254 263.331 208.393C263.079 210.837 259.069 212.102 259.301 214.712C259.489 216.818 266.365 216.547 268.008 216.13C270.404 215.523 273.409 214.227 274.153 211.727C274.713 209.847 273.094 208.852 273.183 207C273.293 204.709 275.927 202.784 277.959 202.224C279.925 201.681 282.72 201.984 284.577 202.796C287.871 204.237 286.879 208.35 284.925 210.458C283.102 212.425 280.898 214.069 280.621 216.901C280.524 217.898 280.289 219.53 280.721 220.471C281.409 221.973 283.472 222.596 284.365 223.991C285.588 225.902 285.372 229.13 285.485 231.33C285.619 233.954 285.546 236.635 285.062 239.216C284.519 242.109 284.601 245.314 284.601 248.259C284.601 253.898 279.01 258.834 273.693 259.416C271.761 259.628 269.731 259.889 267.784 259.889C266.115 259.889 264.411 259.514 262.747 259.702C260.706 259.933 259.833 260.612 259.849 262.725C259.861 264.304 260.851 265.352 261.976 266.345C264.294 268.391 268.941 267.908 271.516 266.855C273.169 266.178 274.97 264.815 276.79 264.815C278.496 264.815 280.179 265.039 281.89 265.039C282.299 265.039 283.846 264.79 284.166 265.163C284.726 265.817 285.179 266.167 285.609 266.942C285.967 267.587 285.69 269.37 286.169 268.173M283.93 147.718C284.496 152.672 284.358 157.951 284.141 162.93C284.037 165.33 283.327 167.707 282.118 169.787M282.118 169.787C281.491 170.865 280.73 171.864 279.85 172.744C279.559 173.035 276.491 175.553 276.342 175.07C275.72 173.048 278.047 171.187 279.539 170.456C280.54 169.965 281.277 169.626 282.118 169.787ZM282.118 169.787C282.546 169.869 283.001 170.081 283.532 170.468C284.893 171.461 285.385 173.151 285.609 174.722C285.807 176.105 285.913 177.391 285.099 178.565C284.235 179.811 283.225 180.728 282.188 181.8C281.377 182.639 280.661 184.413 281.38 185.469C282.257 186.757 283.698 186.654 284.85 187.447C285.476 187.878 285.624 189.089 285.696 189.773C285.812 190.869 285.721 192.016 285.721 193.119C285.721 194.778 284.346 195.569 282.885 196.154C282.219 196.42 281.512 196.231 280.82 196.353C278.898 196.692 279.482 196.4 281.016 195.633L281.019 195.631" stroke="black" stroke-width="3" stroke-linecap="round"/>
</svg>
