<svg width="44" height="50" viewBox="0 0 44 50" fill="none" xmlns="http://www.w3.org/2000/svg">
<path d="M31.6344 10.7715C23.0732 9.7014 16.1767 10.3257 13.7986 10.7715C4.16723 12.5555 15.7308 17.7571 22.7165 20.1349C29.2563 17.4597 40.1956 11.8417 31.6344 10.7715Z" fill="#FF958E"/>
<path fill-rule="evenodd" clip-rule="evenodd" d="M22.3836 48.0987C21.0903 49.0427 19.5734 49.5644 17.8151 49.5644C10.176 49.5644 0.871094 39.7182 0.871094 28.1694C0.871094 16.6206 7.05473 10.7715 14.6938 10.7715C17.5668 10.7715 20.2365 11.5988 22.4495 13.2455C24.7153 11.599 27.4272 10.7717 30.3001 10.7717C37.9392 10.7717 43.8232 16.6208 43.8232 28.1696C43.8232 39.7184 33.9261 49.1187 26.287 49.1187C24.7963 49.1187 23.5018 48.7607 22.3836 48.0987Z" fill="#FF6C63"/>
<path d="M22.7188 5.86621V12.5546" stroke="#776048" stroke-width="2" stroke-linecap="round"/>
<path d="M29.2117 5.97645C24.2691 6.33592 22.4243 10.2617 23.3068 12.5146C24.2971 11.5103 27.6977 12.0961 28.9633 11.6628C30.1564 11.2542 39.2165 6.059 37.8813 5.97659C36.0968 5.86645 35.39 5.52712 29.2117 5.97645Z" fill="#719FAF"/>
</svg>
