<svg width="41" height="52" viewBox="0 0 41 52" fill="none" xmlns="http://www.w3.org/2000/svg">
<path d="M39.0166 31.3163V31.2828L39.0144 31.2494C38.73 27.0087 36.8492 21.8308 35.1931 17.9878C33.6474 14.4011 31.9154 11.0756 29.6132 8.64379C27.276 6.17487 24.3479 4.62598 20.5005 4.62598C16.6907 4.62598 13.8041 6.22079 11.5009 8.70298C9.23191 11.1483 7.5136 14.4691 5.9622 17.9793C4.21977 21.9218 2.28067 27.1585 1.98695 31.2446L1.98438 31.2804V31.3163C1.98438 37.2997 3.60729 42.0513 6.80687 45.4094C10.0033 48.7642 14.6483 50.5969 20.4314 50.9978L20.5005 51.0026L20.5697 50.9978C26.3527 50.5969 30.9977 48.7642 34.1941 45.4094C37.3937 42.0513 39.0166 37.2997 39.0166 31.3163Z" fill="#FEDC74" stroke="#7F9040" stroke-width="2"/>
<path d="M32.438 19.1751C34.0694 22.9606 35.7534 27.7012 36.0166 31.3843C36.0044 36.7952 34.538 40.6995 32.0222 43.3399C29.5117 45.9748 25.7097 47.6101 20.5005 47.9951C15.2913 47.6101 11.4893 45.9748 8.97884 43.3399C6.46379 40.7003 4.99755 36.7976 4.98446 31.3894C5.25582 27.8692 6.98701 23.0818 8.70615 19.192C10.238 15.7261 11.7922 12.7995 13.7 10.7435C15.5392 8.76134 17.6664 7.62598 20.5005 7.62598C23.4118 7.62598 25.5821 8.74937 27.4346 10.7062C29.3573 12.7372 30.9208 15.6545 32.438 19.1751Z" fill="#FEDC74" stroke="#D4D95B" stroke-width="4"/>
<ellipse cx="20.5035" cy="34.8191" rx="8.95269" ry="9.73118" fill="#776048"/>
<path d="M25.5604 29.3701C26.1423 30.2404 26.7251 32.1694 25.9073 32.7162C25.0894 33.263 23.3034 31.8504 22.7215 30.9801C22.1397 30.1098 22.331 28.961 23.1489 28.4142C23.9667 27.8674 24.9786 28.4998 25.5604 29.3701Z" fill="#EEEEEE"/>
<path d="M20.8906 1.7334V5.62587" stroke="#776048" stroke-width="2" stroke-linecap="round"/>
</svg>
