<svg width="56" height="52" viewBox="0 0 56 52" fill="none" xmlns="http://www.w3.org/2000/svg">
<path d="M36.5103 14.3594C31.3206 26.7376 20.8724 34.1044 16.2971 36.2406C15.0201 36.8368 12.6138 38.4167 11.1015 39.3783C9.00357 40.7124 3.21096 51.1879 22.0779 47.3915C49.8771 39.4064 47.8491 18.5107 47.8679 16.4975C47.8859 14.5809 42.9975 -1.11333 36.5103 14.3594Z" fill="#EACA67"/>
<path fill-rule="evenodd" clip-rule="evenodd" d="M22.0575 43.5234C26.4898 41.1043 45.3074 26.5342 44.781 13.1224C44.7171 11.4947 44.7005 10.1348 44.7248 9.0135C42.6883 6.68191 39.8062 6.50186 36.5119 14.3592C31.3221 26.7374 20.874 34.1043 16.2987 36.2404C15.2122 36.7477 13.3085 37.9668 11.8333 38.9116C11.5744 39.0774 11.3288 39.2347 11.1031 39.3782C9.63332 40.3128 6.35024 45.734 11.003 47.5914C15.6315 46.0554 21.2783 43.9487 22.0575 43.5234Z" fill="#FEDC74"/>
<path d="M42.1061 1.97504C42.8195 3.75862 42.1061 6.58263 41.6602 7.77168C42.2547 8.069 43.3546 8.48525 42.9978 7.77168C42.6411 7.05811 44.0383 3.60994 44.7814 1.97504C43.5924 1.23188 41.3926 0.19146 42.1061 1.97504Z" fill="#776048" stroke="#776048"/>
</svg>
