<svg width="47" height="42" viewBox="0 0 47 42" fill="none" xmlns="http://www.w3.org/2000/svg">
<circle cx="6.01163" cy="6.01163" r="6.01163" transform="matrix(1 0 0 -1 2.1875 12.0234)" fill="#776048"/>
<circle cx="6.01163" cy="6.01163" r="6.01163" transform="matrix(1 0 0 -1 32.7891 12.0234)" fill="#776048"/>
<path d="M0 23.4139C0 12.3682 8.95431 3.2793 20 3.2793H27C38.0457 3.2793 47 12.3682 47 23.4139C47 33.3551 38.9411 41.5351 29 41.5351H18C8.05888 41.5351 0 33.3551 0 23.4139Z" fill="#776048"/>
<path d="M26.2315 30.7007C26.2315 29.4934 25.2527 29.6076 24.0454 29.6076C22.8381 29.6076 21.8594 29.4934 21.8594 30.7007C21.8594 31.908 23.4989 32.8867 24.0454 32.8867C24.5919 32.8867 26.2315 31.908 26.2315 30.7007Z" fill="black"/>
<path d="M21.3125 35.0698L24.0451 32.8838L26.7776 35.0698" stroke="black" stroke-linecap="round"/>
<ellipse cx="15.8505" cy="24.0464" rx="1.63953" ry="2.18605" fill="black"/>
<ellipse cx="31.1513" cy="24.0464" rx="1.63953" ry="2.18605" fill="black"/>
</svg>
