<svg width="36" height="56" viewBox="0 0 36 56" fill="none" xmlns="http://www.w3.org/2000/svg">
<rect x="1.31641" width="33.1745" height="55.2909" fill="#9D4D2E"/>
<rect x="1.31641" width="33.1745" height="1.21075" fill="#CE7150"/>
<rect x="1.31641" y="54.0801" width="33.1745" height="1.21075" fill="#814028"/>
<path d="M33.3867 1.21075L34.4925 0V55.2909L33.3867 54.0801V1.21075Z" fill="#652F26"/>
<path d="M2.42188 1.21075L1.31606 0V55.2909L2.42188 54.0801V1.21075Z" fill="#8C472F"/>
<rect x="3.89844" y="2.58008" width="13.2698" height="8.84654" fill="#9D4F33"/>
<path d="M3.89844 2.58008L4.57894 3.31729V10.6894L3.89844 11.4266V2.58008Z" fill="#8C472F"/>
<path d="M17.1719 2.58008L16.4914 3.31729V10.6894L17.1719 11.4266V2.58008Z" fill="#652F26"/>
<path d="M3.89844 2.58008H17.1682L16.4877 3.31729H4.57894L3.89844 2.58008Z" fill="#CE7150"/>
<path d="M17.1719 11.4268H3.90207L4.58257 10.6895H16.4914L17.1719 11.4268Z" fill="#814028"/>
<rect x="3.89844" y="12.9014" width="13.2698" height="8.84654" fill="#9D4F33"/>
<path d="M3.89844 12.9014L4.57894 13.6386V21.0107L3.89844 21.7479V12.9014Z" fill="#8C472F"/>
<path d="M17.1719 12.9014L16.4914 13.6386V21.0107L17.1719 21.7479V12.9014Z" fill="#652F26"/>
<path d="M3.89844 12.9014H17.1682L16.4877 13.6386H4.57894L3.89844 12.9014Z" fill="#CE7150"/>
<path d="M17.1719 21.748H3.90207L4.58257 21.0108H16.4914L17.1719 21.748Z" fill="#814028"/>
<rect x="3.89844" y="23.2227" width="13.2698" height="8.84654" fill="#9D4F33"/>
<path d="M3.89844 23.2227L4.57894 23.9599V31.332L3.89844 32.0692V23.2227Z" fill="#8C472F"/>
<path d="M17.1719 23.2227L16.4914 23.9599V31.332L17.1719 32.0692V23.2227Z" fill="#652F26"/>
<path d="M3.89844 23.2227H17.1682L16.4877 23.9599H4.57894L3.89844 23.2227Z" fill="#CE7150"/>
<path d="M17.1719 32.0693H3.90207L4.58257 31.3321H16.4914L17.1719 32.0693Z" fill="#814028"/>
<rect x="3.89844" y="33.543" width="13.2698" height="8.84654" fill="#9D4F33"/>
<path d="M3.89844 33.543L4.57894 34.2802V41.6523L3.89844 42.3895V33.543Z" fill="#8C472F"/>
<path d="M17.1719 33.543L16.4914 34.2802V41.6523L17.1719 42.3895V33.543Z" fill="#652F26"/>
<path d="M3.89844 33.543H17.1682L16.4877 34.2802H4.57894L3.89844 33.543Z" fill="#CE7150"/>
<path d="M17.1719 42.3896H3.90207L4.58257 41.6524H16.4914L17.1719 42.3896Z" fill="#814028"/>
<rect x="3.89844" y="43.8643" width="13.2698" height="8.84654" fill="#9D4F33"/>
<path d="M3.89844 43.8643L4.57894 44.6015V51.9736L3.89844 52.7108V43.8643Z" fill="#8C472F"/>
<path d="M17.1719 43.8643L16.4914 44.6015V51.9736L17.1719 52.7108V43.8643Z" fill="#652F26"/>
<path d="M3.89844 43.8643H17.1682L16.4877 44.6015H4.57894L3.89844 43.8643Z" fill="#CE7150"/>
<path d="M17.1719 52.7109H3.90207L4.58257 51.9737H16.4914L17.1719 52.7109Z" fill="#814028"/>
<rect x="18.6406" y="2.58008" width="13.2698" height="8.84654" fill="#9D4F33"/>
<path d="M18.6406 2.58008L19.3211 3.31729V10.6894L18.6406 11.4266V2.58008Z" fill="#8C472F"/>
<path d="M31.9141 2.58008L31.2336 3.31729V10.6894L31.9141 11.4266V2.58008Z" fill="#652F26"/>
<path d="M18.6406 2.58008H31.9104L31.2299 3.31729H19.3211L18.6406 2.58008Z" fill="#CE7150"/>
<path d="M31.9141 11.4268H18.6443L19.3248 10.6895H31.2336L31.9141 11.4268Z" fill="#814028"/>
<rect x="18.6406" y="12.9014" width="13.2698" height="8.84654" fill="#9D4F33"/>
<path d="M18.6406 12.9014L19.3211 13.6386V21.0107L18.6406 21.7479V12.9014Z" fill="#8C472F"/>
<path d="M31.9141 12.9014L31.2336 13.6386V21.0107L31.9141 21.7479V12.9014Z" fill="#652F26"/>
<path d="M18.6406 12.9014H31.9104L31.2299 13.6386H19.3211L18.6406 12.9014Z" fill="#CE7150"/>
<path d="M31.9141 21.748H18.6443L19.3248 21.0108H31.2336L31.9141 21.748Z" fill="#814028"/>
<rect x="18.6406" y="23.2227" width="13.2698" height="8.84654" fill="#9D4F33"/>
<path d="M18.6406 23.2227L19.3211 23.9599V31.332L18.6406 32.0692V23.2227Z" fill="#8C472F"/>
<path d="M31.9141 23.2227L31.2336 23.9599V31.332L31.9141 32.0692V23.2227Z" fill="#652F26"/>
<path d="M18.6406 23.2227H31.9104L31.2299 23.9599H19.3211L18.6406 23.2227Z" fill="#CE7150"/>
<path d="M31.9141 32.0693H18.6443L19.3248 31.3321H31.2336L31.9141 32.0693Z" fill="#814028"/>
<rect x="18.6406" y="33.543" width="13.2698" height="8.84654" fill="#9D4F33"/>
<path d="M18.6406 33.543L19.3211 34.2802V41.6523L18.6406 42.3895V33.543Z" fill="#8C472F"/>
<path d="M31.9141 33.543L31.2336 34.2802V41.6523L31.9141 42.3895V33.543Z" fill="#652F26"/>
<path d="M18.6406 33.543H31.9104L31.2299 34.2802H19.3211L18.6406 33.543Z" fill="#CE7150"/>
<path d="M31.9141 42.3896H18.6443L19.3248 41.6524H31.2336L31.9141 42.3896Z" fill="#814028"/>
<rect x="18.6406" y="43.8633" width="13.2698" height="8.84654" fill="#9D4F33"/>
<path d="M18.6406 43.8633L19.3211 44.6005V51.9726L18.6406 52.7098V43.8633Z" fill="#8C472F"/>
<path d="M31.9141 43.8633L31.2336 44.6005V51.9726L31.9141 52.7098V43.8633Z" fill="#652F26"/>
<path d="M18.6406 43.8633H31.9104L31.2299 44.6005H19.3211L18.6406 43.8633Z" fill="#CE7150"/>
<path d="M31.9141 52.71H18.6443L19.3248 51.9727H31.2336L31.9141 52.71Z" fill="#814028"/>
<rect x="0.582031" y="23.2217" width="34.6489" height="32.0687" fill="#E7E7E7"/>
<rect x="33.3867" y="23.2217" width="1.84303" height="32.0687" fill="#E1E5E8"/>
<rect x="0.582031" y="23.2217" width="1.84303" height="32.0687" fill="#DCDCDC"/>
<rect x="33.3867" y="23.2217" width="1.84303" height="32.0687" fill="#CDCDCC"/>
<path fill-rule="evenodd" clip-rule="evenodd" d="M35.231 23.2227H0.582031V55.2914H0.582874V28.8279L2.42874 29.2124L4.64037 28.936L9.06364 28.3831L17.9102 29.8575L22.3335 29.1203L26.7567 34.0965L31.18 35.3866L35.231 34.3738V23.2227Z" fill="#F4F4F4" style="mix-blend-mode:multiply"/>
<path d="M0.579543 52.7109H35.2285L35.5971 55.2912H0.210938L0.579543 52.7109Z" fill="#CDCDCC"/>
<path d="M2.42506 51.2363H33.3879L35.231 52.7108H0.582031L2.42506 51.2363Z" fill="#D4D4D4"/>
<path d="M0.210938 23.2217H35.5971V32.8054L31.1738 33.9112L26.7506 32.6211L22.3273 27.6449L17.904 28.3822L9.05748 26.9077L4.63421 27.4606L2.42257 27.7371L0.210938 27.2763V23.2217Z" fill="#F1F1F1"/>
</svg>
