<svg width="34" height="55" viewBox="0 0 34 55" fill="none" xmlns="http://www.w3.org/2000/svg">
<rect x="0.871094" width="32.9963" height="54.9938" fill="#9D4D2E"/>
<rect x="0.871094" width="32.9963" height="1.20424" fill="#CE7150"/>
<rect x="0.871094" y="53.7891" width="32.9963" height="1.20424" fill="#814028"/>
<path d="M32.7656 1.20424L33.8655 0V54.9938L32.7656 53.7895V1.20424Z" fill="#652F26"/>
<path d="M1.97266 1.20424L0.872781 0V54.9938L1.97266 53.7895V1.20424Z" fill="#8C472F"/>
<rect x="3.4375" y="2.56641" width="13.1985" height="8.799" fill="#9D4F33"/>
<path d="M3.4375 2.56641L4.11435 3.29966V10.6322L3.4375 11.3654V2.56641Z" fill="#8C472F"/>
<path d="M16.6367 2.56641L15.9599 3.29966V10.6322L16.6367 11.3654V2.56641Z" fill="#652F26"/>
<path d="M3.4375 2.56641H16.636L15.9592 3.29966H4.11435L3.4375 2.56641Z" fill="#CE7150"/>
<path d="M16.6367 11.3652H3.43822L4.11506 10.632H15.9599L16.6367 11.3652Z" fill="#814028"/>
<rect x="3.4375" y="12.832" width="13.1985" height="8.799" fill="#9D4F33"/>
<path d="M3.4375 12.832L4.11435 13.5653V20.8978L3.4375 21.631V12.832Z" fill="#8C472F"/>
<path d="M16.6367 12.832L15.9599 13.5653V20.8978L16.6367 21.631V12.832Z" fill="#652F26"/>
<path d="M3.4375 12.832H16.636L15.9592 13.5653H4.11435L3.4375 12.832Z" fill="#CE7150"/>
<path d="M16.6367 21.6309H3.43822L4.11506 20.8976H15.9599L16.6367 21.6309Z" fill="#814028"/>
<rect x="3.4375" y="23.0967" width="13.1985" height="8.799" fill="#9D4F33"/>
<path d="M3.4375 23.0967L4.11435 23.8299V31.1624L3.4375 31.8957V23.0967Z" fill="#8C472F"/>
<path d="M16.6367 23.0967L15.9599 23.8299V31.1624L16.6367 31.8957V23.0967Z" fill="#652F26"/>
<path d="M3.4375 23.0967H16.636L15.9592 23.8299H4.11435L3.4375 23.0967Z" fill="#CE7150"/>
<path d="M16.6367 31.8955H3.43822L4.11506 31.1623H15.9599L16.6367 31.8955Z" fill="#814028"/>
<rect x="3.4375" y="33.3633" width="13.1985" height="8.799" fill="#9D4F33"/>
<path d="M3.4375 33.3633L4.11435 34.0965V41.429L3.4375 42.1623V33.3633Z" fill="#8C472F"/>
<path d="M16.6367 33.3633L15.9599 34.0965V41.429L16.6367 42.1623V33.3633Z" fill="#652F26"/>
<path d="M3.4375 33.3633H16.636L15.9592 34.0965H4.11435L3.4375 33.3633Z" fill="#CE7150"/>
<path d="M16.6367 42.1621H3.43822L4.11506 41.4289H15.9599L16.6367 42.1621Z" fill="#814028"/>
<rect x="3.4375" y="43.6289" width="13.1985" height="8.799" fill="#9D4F33"/>
<path d="M3.4375 43.6289L4.11435 44.3622V51.6947L3.4375 52.4279V43.6289Z" fill="#8C472F"/>
<path d="M16.6367 43.6289L15.9599 44.3622V51.6947L16.6367 52.4279V43.6289Z" fill="#652F26"/>
<path d="M3.4375 43.6289H16.636L15.9592 44.3622H4.11435L3.4375 43.6289Z" fill="#CE7150"/>
<path d="M16.6367 52.4277H3.43822L4.11506 51.6945H15.9599L16.6367 52.4277Z" fill="#814028"/>
<rect x="18.1016" y="2.56641" width="13.1985" height="8.799" fill="#9D4F33"/>
<path d="M18.1016 2.56641L18.7784 3.29966V10.6322L18.1016 11.3654V2.56641Z" fill="#8C472F"/>
<path d="M31.3008 2.56641L30.6239 3.29966V10.6322L31.3008 11.3654V2.56641Z" fill="#652F26"/>
<path d="M18.1016 2.56641H31.3001L30.6232 3.29966H18.7784L18.1016 2.56641Z" fill="#CE7150"/>
<path d="M31.3008 11.3652H18.1023L18.7791 10.632H30.6239L31.3008 11.3652Z" fill="#814028"/>
<rect x="18.1016" y="12.832" width="13.1985" height="8.799" fill="#9D4F33"/>
<path d="M18.1016 12.832L18.7784 13.5653V20.8978L18.1016 21.631V12.832Z" fill="#8C472F"/>
<path d="M31.3008 12.832L30.6239 13.5653V20.8978L31.3008 21.631V12.832Z" fill="#652F26"/>
<path d="M18.1016 12.832H31.3001L30.6232 13.5653H18.7784L18.1016 12.832Z" fill="#CE7150"/>
<path d="M31.3008 21.6309H18.1023L18.7791 20.8976H30.6239L31.3008 21.6309Z" fill="#814028"/>
<rect x="18.1016" y="23.0967" width="13.1985" height="8.799" fill="#9D4F33"/>
<path d="M18.1016 23.0967L18.7784 23.8299V31.1624L18.1016 31.8957V23.0967Z" fill="#8C472F"/>
<path d="M31.3008 23.0967L30.6239 23.8299V31.1624L31.3008 31.8957V23.0967Z" fill="#652F26"/>
<path d="M18.1016 23.0967H31.3001L30.6232 23.8299H18.7784L18.1016 23.0967Z" fill="#CE7150"/>
<path d="M31.3008 31.8955H18.1023L18.7791 31.1623H30.6239L31.3008 31.8955Z" fill="#814028"/>
<rect x="18.1016" y="33.3633" width="13.1985" height="8.799" fill="#9D4F33"/>
<path d="M18.1016 33.3633L18.7784 34.0965V41.429L18.1016 42.1623V33.3633Z" fill="#8C472F"/>
<path d="M31.3008 33.3633L30.6239 34.0965V41.429L31.3008 42.1623V33.3633Z" fill="#652F26"/>
<path d="M18.1016 33.3633H31.3001L30.6232 34.0965H18.7784L18.1016 33.3633Z" fill="#CE7150"/>
<path d="M31.3008 42.1621H18.1023L18.7791 41.4289H30.6239L31.3008 42.1621Z" fill="#814028"/>
<rect x="18.1016" y="43.6289" width="13.1985" height="8.799" fill="#9D4F33"/>
<path d="M18.1016 43.6289L18.7784 44.3622V51.6947L18.1016 52.4279V43.6289Z" fill="#8C472F"/>
<path d="M31.3008 43.6289L30.6239 44.3622V51.6947L31.3008 52.4279V43.6289Z" fill="#652F26"/>
<path d="M18.1016 43.6289H31.3001L30.6232 44.3622H18.7784L18.1016 43.6289Z" fill="#CE7150"/>
<path d="M31.3008 52.4277H18.1023L18.7791 51.6945H30.6239L31.3008 52.4277Z" fill="#814028"/>
</svg>
