<svg width="67" height="67" viewBox="0 0 67 67" fill="none" xmlns="http://www.w3.org/2000/svg">
<path d="M34.9253 40.9959C34.8627 39.6835 34.7643 38.4884 34.6484 37.4717C34.8048 38.6839 34.8942 39.8591 34.9253 40.9959C35.2791 48.4079 34.4918 59.5572 29.2584 63.3951L27.4618 61.5984C30.2485 59.1213 35.2204 51.7975 34.9253 40.9959Z" fill="#95DAC1"/>
<path d="M34.6484 37.4717C35.4184 44.2306 35.4184 58.8777 29.2584 63.3951L27.4618 61.5984C30.5418 58.8606 36.2911 50.2024 34.6484 37.4717Z" stroke="#719FAF" stroke-width="2" stroke-linecap="round"/>
<path d="M37.6881 31.2169C36.9786 31.1911 36.3329 31.1734 35.803 31.1833C35.8128 30.6533 35.7952 30.0077 35.7693 29.2982C35.7592 29.0189 35.7477 28.7277 35.7357 28.4261C35.682 27.0678 35.62 25.5002 35.6351 23.867C35.6536 21.871 35.7877 19.8296 36.1791 18.032C36.5739 16.2191 37.2067 14.767 38.1367 13.8371C40.5272 11.4466 42.7257 11.2273 44.3686 12.025C46.1076 12.8694 47.5865 15.0172 48.0863 18.0744L48.2023 18.7839L48.9119 18.8999C51.9691 19.3997 54.1169 20.8787 54.9613 22.6177C55.759 24.2605 55.5396 26.4591 53.1492 28.8496C52.2192 29.7795 50.7672 30.4124 48.9543 30.8071C47.1567 31.1986 45.1153 31.3327 43.1192 31.3512C41.4861 31.3663 39.9184 31.3043 38.5601 31.2505C38.2586 31.2386 37.9674 31.2271 37.6881 31.2169Z" fill="#95DAC1" stroke="#719FAF" stroke-width="2"/>
<path d="M33.938 34.9351C33.9343 34.2175 33.9367 33.5639 33.9625 33.0238C33.4223 33.0495 32.7688 33.052 32.0511 33.0483C31.7633 33.0468 31.4631 33.0443 31.1523 33.0417C29.7519 33.0301 28.1348 33.0166 26.4476 33.0849C24.3861 33.1684 22.2703 33.3728 20.3956 33.8365C18.5082 34.3033 16.9647 35.0091 15.9503 36.0235C13.3649 38.6089 13.0791 40.9176 13.8441 42.5759C14.648 44.3185 16.7938 45.7723 19.9367 46.1901L20.6953 46.2909L20.7962 47.0496C21.2139 50.1925 22.6677 52.3383 24.4104 53.1422C26.0687 53.9072 28.3773 53.6214 30.9628 51.036C31.9771 50.0216 32.683 48.4781 33.1498 46.5906C33.6135 44.716 33.8179 42.6001 33.9013 40.5386C33.9696 38.8515 33.9562 37.2343 33.9446 35.834C33.942 35.5231 33.9395 35.223 33.938 34.9351Z" fill="#95DAC1" stroke="#719FAF" stroke-width="2"/>
<path d="M37.4074 32.7856C36.7272 32.7888 36.1057 32.7863 35.588 32.7626C35.6118 33.2802 35.6143 33.9017 35.6111 34.5819C35.6098 34.8611 35.6075 35.1521 35.6051 35.4534C35.5945 36.8107 35.5823 38.3771 35.6492 40.0116C35.7311 42.0088 35.9301 44.0572 36.3796 45.8716C36.8324 47.6987 37.5154 49.1891 38.4937 50.1674C40.9955 52.6692 43.2201 52.9394 44.8111 52.206C46.4862 51.434 47.8903 49.3672 48.2929 46.3275L48.3934 45.568L49.1529 45.4674C52.1926 45.0648 54.2594 43.6608 55.0315 41.9857C55.7649 40.3946 55.4946 38.17 52.9928 35.6682C52.0146 34.69 50.5242 34.0069 48.6971 33.5542C46.8827 33.1046 44.8342 32.9056 42.8371 32.8238C41.2026 32.7568 39.6361 32.769 38.2789 32.7797C37.9776 32.782 37.6865 32.7843 37.4074 32.7856Z" fill="#95DAC1" stroke="#719FAF" stroke-width="2"/>
<path d="M32.3717 31.3268C33.0558 31.3341 33.6811 31.3462 34.2035 31.3776C34.1721 30.8552 34.16 30.2299 34.1527 29.5458C34.1496 29.2624 34.1474 28.967 34.1451 28.6611C34.1347 27.2827 34.1226 25.6914 34.029 24.0299C33.9147 21.9999 33.6805 19.9141 33.1947 18.0611C32.7058 16.1964 31.9859 14.6608 30.9657 13.6407C28.3671 11.0421 26.0878 10.737 24.4878 11.4549C22.8116 12.207 21.4194 14.2719 21.0578 17.3552L20.9657 18.1398L20.1811 18.2319C17.0978 18.5935 15.0329 19.9857 14.2808 21.6619C13.5629 23.2619 13.868 25.5412 16.4666 28.1398C17.4867 29.16 19.0223 29.8799 20.887 30.3688C22.74 30.8546 24.8258 31.0888 26.8558 31.2031C28.5173 31.2967 30.1086 31.3088 31.487 31.3192C31.7929 31.3215 32.0883 31.3237 32.3717 31.3268Z" fill="#95DAC1" stroke="#719FAF" stroke-width="2"/>
</svg>
