<svg width="47" height="52" viewBox="0 0 47 52" fill="none" xmlns="http://www.w3.org/2000/svg">
<circle cx="23" cy="15" r="5" fill="#776048"/>
<path d="M23 10C23 7.66667 25 2.6 33 1" stroke="#776048" stroke-width="2" stroke-linecap="round"/>
<path d="M8.49396 23.9699C9.38836 21.0184 12.1091 19 15.1931 19H31.8069C34.8909 19 37.6116 21.0184 38.506 23.9699L44.2636 42.97C45.6258 47.4652 42.2616 52 37.5644 52H9.43555C4.73839 52 1.37417 47.4652 2.73638 42.9699L8.49396 23.9699Z" fill="#FBFCD2"/>
<path fill-rule="evenodd" clip-rule="evenodd" d="M40.9374 32H6.05859L8.49194 23.9699C9.38635 21.0184 12.107 19 15.1911 19H31.8049C34.8889 19 37.6096 21.0184 38.504 23.9699L40.9374 32Z" fill="#D6CEAA"/>
<path d="M9.45098 24.26C10.2176 21.7301 12.5496 20 15.1931 20H31.8069C34.4504 20 36.7824 21.7301 37.549 24.26L43.3066 43.26C44.4742 47.1131 41.5906 51 37.5644 51H9.43555C5.40941 51 2.52579 47.1131 3.6934 43.26L9.45098 24.26Z" stroke="#776048" stroke-width="2"/>
</svg>
