<svg width="35" height="52" viewBox="0 0 35 52" fill="none" xmlns="http://www.w3.org/2000/svg">
<path d="M17.0517 10.2968C18.8013 11.6082 19.5458 15.2415 19.0679 15.879C18.5901 16.5165 14.8939 16.8213 13.1443 15.5099C11.3947 14.1985 9.524 8.7255 9.524 8.7255C9.524 8.7255 15.3021 8.98546 17.0517 10.2968Z" fill="#578A4B"/>
<path d="M25.5201 8.44223C24.9412 10.5507 21.8336 12.575 21.0653 12.3641C20.297 12.1531 18.6588 8.82581 19.2377 6.71732C19.8166 4.60883 24.2232 0.862452 24.2232 0.862452C24.2232 0.862452 26.099 6.33374 25.5201 8.44223Z" fill="#578A4B"/>
<path d="M22.0655 13.9463C20.3159 15.2577 19.5714 18.8909 20.0493 19.5284C20.5271 20.166 24.2233 20.4707 25.9729 19.1593C27.7225 17.8479 29.5932 12.3749 29.5932 12.3749C29.5932 12.3749 23.8151 12.6349 22.0655 13.9463Z" fill="#578A4B"/>
<path d="M15.5058 18.2025C17.5172 19.7101 18.3731 23.8871 17.8238 24.62C17.2744 25.353 13.0251 25.7034 11.0136 24.1957C9.00218 22.6881 6.85154 16.396 6.85154 16.396C6.85154 16.396 13.4943 16.6948 15.5058 18.2025Z" fill="#578A4B"/>
<path d="M21.2716 22.3978C19.2601 23.9054 18.4042 28.0824 18.9536 28.8153C19.5029 29.5483 23.7523 29.8987 25.7637 28.391C27.7752 26.8834 29.9258 20.5913 29.9258 20.5913C29.9258 20.5913 23.283 20.8901 21.2716 22.3978Z" fill="#578A4B"/>
<path d="M14.3916 27.5785C16.8866 29.4486 17.9483 34.6296 17.2669 35.5387C16.5854 36.4479 11.3146 36.8825 8.81966 35.0124C6.3247 33.1423 3.65708 25.3377 3.65708 25.3377C3.65708 25.3377 11.8967 25.7084 14.3916 27.5785Z" fill="#578A4B"/>
<path d="M21.2334 31.8695C18.7384 33.7396 17.6767 38.9206 18.3581 39.8297C19.0396 40.7389 24.3104 41.1735 26.8053 39.3034C29.3003 37.4334 31.9679 29.6287 31.9679 29.6287C31.9679 29.6287 23.7283 29.9995 21.2334 31.8695Z" fill="#578A4B"/>
<path d="M20.744 49.9412C18.4258 47.9221 17.2421 40.7041 17.0898 37.1514C14.5014 41.7192 15.7195 49.9412 16.1762 51.1593C16.633 52.3774 22.4922 51.4638 20.744 49.9412Z" fill="#578A4B"/>
</svg>
