<svg width="47" height="42" viewBox="0 0 47 42" fill="none" xmlns="http://www.w3.org/2000/svg">
<circle cx="6.01163" cy="6.01163" r="6.01163" transform="matrix(1 0 0 -1 2.1875 12.0234)" fill="black"/>
<circle cx="6.01163" cy="6.01163" r="6.01163" transform="matrix(1 0 0 -1 32.7891 12.0234)" fill="black"/>
<path d="M1 23.4139C1 12.9118 9.5153 4.2793 20 4.2793H27C37.4847 4.2793 46 12.9118 46 23.4139C46 32.8115 38.3801 40.5351 29 40.5351H18C8.61987 40.5351 1 32.8115 1 23.4139Z" fill="white" stroke="black" stroke-width="2"/>
<path d="M19.881 24.6411C18.8205 28.1043 14.1081 30.825 10.6449 29.7644C7.18172 28.7039 5.23399 25.0366 6.29454 21.5734C7.35509 18.1102 13.1126 16.8026 16.5758 17.8631C20.039 18.9237 20.9416 21.1779 19.881 24.6411Z" fill="black"/>
<path d="M27.8455 24.6411C28.9061 28.1043 33.6184 30.825 37.0816 29.7644C40.5448 28.7039 42.4926 25.0366 41.432 21.5734C40.3715 18.1102 34.614 16.8026 31.1508 17.8631C27.6876 18.9237 26.785 21.1779 27.8455 24.6411Z" fill="black"/>
<path d="M26.2315 30.7007C26.2315 29.4934 25.2527 29.6076 24.0454 29.6076C22.8381 29.6076 21.8594 29.4934 21.8594 30.7007C21.8594 31.908 23.4989 32.8867 24.0454 32.8867C24.5919 32.8867 26.2315 31.908 26.2315 30.7007Z" fill="black"/>
<path d="M21.3125 35.0698L24.0451 32.8838L26.7776 35.0698" stroke="black" stroke-linecap="round"/>
<ellipse cx="15.8505" cy="24.0464" rx="1.63953" ry="2.18605" fill="white"/>
<ellipse cx="31.1513" cy="24.0464" rx="1.63953" ry="2.18605" fill="white"/>
</svg>
