<svg width="43" height="45" viewBox="0 0 43 45" fill="none" xmlns="http://www.w3.org/2000/svg">
<path d="M22.2971 2.06853C18.0165 4.56555 20.5136 8.4597 22.2971 10.0946C22.7447 8.75713 28.9298 6.13552 29.8757 5.18963C30.7675 4.29784 35.6723 0.284951 34.3346 0.284951C32.9969 0.284951 27.6479 -1.05274 22.2971 2.06853Z" fill="#719FAF"/>
<path fill-rule="evenodd" clip-rule="evenodd" d="M15.6518 44.4285C17.8804 44.4285 19.831 43.9457 21.4761 42.9752C23.1213 43.9458 25.0719 44.4285 27.3005 44.4285C34.9396 44.4285 42.9524 38.7565 42.9524 27.2077C42.9524 15.6589 34.9396 8.75689 27.3005 8.75689C25.3396 8.75689 23.594 9.21166 22.0822 10.0831C22.019 10.3455 21.8503 10.5817 21.5957 10.7231C20.1013 11.5533 17.823 13.4363 16.1733 16.1473C14.5377 18.8351 13.5391 22.2999 14.4877 26.3656C14.6132 26.9034 14.279 27.4412 13.7411 27.5666C13.2033 27.6921 12.6655 27.3579 12.54 26.82C11.4503 22.1498 12.6118 18.1527 14.4648 15.1076C16.0146 12.5608 18.0616 10.6539 19.7334 9.52478C18.5021 9.01836 17.1388 8.75684 15.6518 8.75684C8.01271 8.75684 0 15.6589 0 27.2077C0 38.7565 8.01271 44.4285 15.6518 44.4285Z" fill="#F8CDCC"/>
</svg>
