<svg width="48" height="48" viewBox="0 0 48 48" fill="none" xmlns="http://www.w3.org/2000/svg">
<path d="M22.1807 0.984865C23.069 -0.328288 24.931 -0.328288 25.8193 0.984865L33.1544 11.8283C33.4372 12.2463 33.8437 12.5554 34.3111 12.7077L46.4324 16.6572C47.9004 17.1355 48.4757 18.9886 47.5568 20.2785L39.9688 30.9296C39.6762 31.3402 39.521 31.8403 39.527 32.3525L39.6833 45.6368C39.7022 47.2456 38.1959 48.3909 36.7396 47.8749L24.7148 43.6142C24.2512 43.45 23.7488 43.45 23.2852 43.6142L11.2604 47.8749C9.80415 48.3909 8.29776 47.2456 8.31669 45.6368L8.47301 32.3525C8.47903 31.8403 8.32378 31.3402 8.03121 30.9296L0.443171 20.2785C-0.475753 18.9886 0.0996353 17.1355 1.56756 16.6572L13.6889 12.7077C14.1563 12.5554 14.5628 12.2463 14.8456 11.8283L22.1807 0.984865Z" fill="#FEDC74"/>
</svg>
