<svg width="36" height="45" viewBox="0 0 36 45" fill="none" xmlns="http://www.w3.org/2000/svg">
<path d="M17.0415 3.08039C17.3562 2.19235 18.6122 2.19248 18.9267 3.08059L20.9862 8.89577C21.2167 9.54658 20.734 10.2296 20.0436 10.2296H15.9232C15.2327 10.2296 14.7499 9.54641 14.9806 8.89557L17.0415 3.08039Z" fill="#719FAF"/>
<path d="M22.6017 3.59309C23.1128 2.8016 24.3348 3.09143 24.436 4.02815L25.0986 10.1616C25.1727 10.848 24.5455 11.4013 23.8737 11.242L19.8644 10.2915C19.1925 10.1323 18.8804 9.35614 19.255 8.77606L22.6017 3.59309Z" fill="#719FAF"/>
<path d="M13.1757 3.59309C12.6646 2.8016 11.4425 3.09143 11.3414 4.02815L10.6788 10.1616C10.6046 10.848 11.2319 11.4013 11.9037 11.242L15.913 10.2915C16.5849 10.1323 16.897 9.35614 16.5224 8.77606L13.1757 3.59309Z" fill="#719FAF"/>
<path d="M35.9099 21.2721C35.9099 30.8763 27.5457 44.1177 18.0741 44.1177C8.60251 44.1177 0.238281 30.8763 0.238281 21.2721C0.238281 11.668 8.60251 9.33789 18.0741 9.33789C27.5457 9.33789 35.9099 11.668 35.9099 21.2721Z" fill="#FE6F96"/>
</svg>
