<svg width="60" height="60" viewBox="0 0 60 60" fill="none" xmlns="http://www.w3.org/2000/svg">
<circle cx="29.7878" cy="30.2126" r="29.7878" fill="#FEDC74"/>
<path d="M32.3122 44.0163C32.3122 45.5606 31.9982 46.9339 31.5138 47.9026C31.0145 48.9013 30.4172 49.3286 29.9061 49.3286C29.395 49.3286 28.7977 48.9013 28.2984 47.9026C27.814 46.9339 27.5 45.5606 27.5 44.0163C27.5 42.4721 27.814 41.0988 28.2984 40.1301C28.7977 39.1314 29.395 38.7041 29.9061 38.7041C30.4172 38.7041 31.0145 39.1314 31.5138 40.1301C31.9982 41.0988 32.3122 42.4721 32.3122 44.0163Z" fill="white" stroke="#B4643A"/>
<ellipse cx="18.2653" cy="28.7595" rx="7.26531" ry="6.53878" fill="white"/>
<ellipse cx="19.7186" cy="28.7596" rx="2.90612" ry="3.63265" fill="#B4643A"/>
<ellipse cx="41.5153" cy="28.7595" rx="7.26531" ry="6.53878" fill="white"/>
<ellipse cx="40.0624" cy="28.7596" rx="2.90612" ry="3.63265" fill="#B4643A"/>
<ellipse cx="11" cy="38" rx="4" ry="2" fill="#FF9C8E"/>
<ellipse cx="48.5" cy="38" rx="4.5" ry="2" fill="#FF9C8E"/>
</svg>
