<svg width="60" height="60" viewBox="0 0 60 60" fill="none" xmlns="http://www.w3.org/2000/svg">
<circle cx="29.7878" cy="30.2126" r="29.7878" fill="#FEDC74"/>
<path d="M37.4837 43.0912C37.4837 44.0924 36.7674 45.0972 35.3952 45.8798C34.0373 46.6542 32.128 47.1491 29.9918 47.1491C27.8557 47.1491 25.9464 46.6542 24.5885 45.8798C23.2162 45.0972 22.5 44.0924 22.5 43.0912C22.5 42.5978 22.6679 42.2487 22.9664 41.9742C23.2835 41.6827 23.7771 41.4501 24.4622 41.2785C25.8382 40.9339 27.7728 40.8838 29.9918 40.8838C32.2109 40.8838 34.1455 40.9339 35.5215 41.2785C36.2065 41.4501 36.7002 41.6827 37.0172 41.9742C37.3158 42.2487 37.4837 42.5978 37.4837 43.0912Z" fill="white" stroke="#B4643A"/>
<circle cx="19.2653" cy="28.0329" r="7.26531" fill="#B4643A"/>
<circle cx="16.3592" cy="26.58" r="2.90612" fill="white"/>
<circle cx="22.8983" cy="28.7597" r="2.17959" fill="white"/>
<circle cx="17.8124" cy="32.3925" r="1.45306" fill="white"/>
<circle cx="41.0583" cy="28.0329" r="7.26531" fill="#B4643A"/>
<circle cx="38.1522" cy="26.58" r="2.90612" fill="white"/>
<circle cx="44.6913" cy="28.7597" r="2.17959" fill="white"/>
<circle cx="39.6054" cy="32.3925" r="1.45306" fill="white"/>
<ellipse cx="11" cy="38" rx="4" ry="2" fill="#FF9C8E"/>
<ellipse cx="48.5" cy="38" rx="4.5" ry="2" fill="#FF9C8E"/>
</svg>
