<svg width="128" height="189" viewBox="0 0 128 189" fill="none" xmlns="http://www.w3.org/2000/svg">
<path d="M7.53672 0.78224C3.80848 0.78224 0.786146 3.80457 0.786146 7.53281V181.741C0.786146 185.469 3.80848 188.491 7.53672 188.491H120.772C124.5 188.491 127.523 185.469 127.523 181.741V7.53281C127.523 3.80457 124.5 0.78224 120.772 0.78224H7.53672Z" fill="#343434" stroke="#2A2A2A" stroke-width="0.435521"/>
<path d="M1.00391 7.5328C1.00391 3.92483 3.92875 1 7.53672 1H120.772C124.38 1 127.305 3.92484 127.305 7.53281V40.6324H1.00391V7.5328Z" fill="white"/>
<path d="M1.00391 181.181H127.305V181.742C127.305 185.35 124.38 188.274 120.772 188.274H7.53672C3.92875 188.274 1.00391 185.35 1.00391 181.742V181.181Z" fill="white"/>
<line x1="10.1367" y1="74.3444" x2="118.177" y2="74.3444" stroke="white" stroke-width="0.149112"/>
<line x1="10.1367" y1="91.3708" x2="118.177" y2="91.3708" stroke="white" stroke-width="0.149112"/>
<line x1="10.1367" y1="108.394" x2="118.177" y2="108.394" stroke="white" stroke-width="0.149112"/>
<line x1="10.1367" y1="125.42" x2="118.177" y2="125.42" stroke="white" stroke-width="0.149112"/>
<line x1="10.1367" y1="142.444" x2="118.177" y2="142.444" stroke="white" stroke-width="0.149112"/>
<line x1="10.1367" y1="159.47" x2="118.177" y2="159.47" stroke="white" stroke-width="0.149112"/>
<path d="M12.3731 96.1875V93.6197H13.0386C13.3034 93.6197 13.5275 93.6684 13.711 93.766C13.8945 93.8612 14.0339 94.0029 14.1291 94.1911C14.2267 94.3792 14.2755 94.6138 14.2755 94.8949C14.2755 95.1736 14.2267 95.4094 14.1291 95.6022C14.0339 95.795 13.8957 95.9413 13.7145 96.0412C13.5333 96.1387 13.315 96.1875 13.0595 96.1875H12.3731ZM12.7773 95.8565H13.0107C13.1942 95.8565 13.3487 95.8205 13.4741 95.7485C13.6019 95.6765 13.6971 95.5696 13.7598 95.428C13.8249 95.2839 13.8574 95.1062 13.8574 94.8949C13.8574 94.6812 13.8249 94.5046 13.7598 94.3653C13.6971 94.2259 13.6019 94.1226 13.4741 94.0552C13.3487 93.9855 13.1942 93.9507 13.0107 93.9507H12.7773V95.8565ZM14.4203 96.1875L15.2705 93.6197H15.7373L16.5875 96.1875H16.1589L15.7443 94.7938C15.7025 94.6545 15.6618 94.5139 15.6224 94.3722C15.5829 94.2282 15.5434 94.0842 15.5039 93.9402H15.49C15.4528 94.0865 15.4133 94.2306 15.3715 94.3722C15.332 94.5139 15.2914 94.6545 15.2495 94.7938L14.8349 96.1875H14.4203ZM14.9011 95.4593V95.1388H16.0997V95.4593H14.9011ZM17.1964 96.1875V93.9611H16.4473V93.6197H18.3601V93.9611H17.6076V96.1875H17.1964ZM18.8073 96.1875V93.6197H20.3229V93.9611H19.2114V94.6754H20.1521V95.0168H19.2114V95.8426H20.3612V96.1875H18.8073Z" fill="white"/>
<path d="M12.3731 113.212V110.644H13.1501C13.3429 110.644 13.5124 110.67 13.6588 110.721C13.8051 110.77 13.9201 110.851 14.0037 110.965C14.0897 111.076 14.1326 111.229 14.1326 111.425C14.1326 111.61 14.0908 111.764 14.0072 111.884C13.9236 112.003 13.8086 112.092 13.6623 112.153C13.5182 112.211 13.3522 112.24 13.164 112.24H12.7773V113.212H12.3731ZM12.7773 111.912H13.1292C13.3313 111.912 13.4822 111.873 13.5821 111.794C13.682 111.715 13.7319 111.592 13.7319 111.425C13.7319 111.253 13.6797 111.134 13.5752 111.069C13.4706 111.004 13.3162 110.972 13.1118 110.972H12.7773V111.912ZM14.6324 113.212V110.644H15.0365V112.867H16.1236V113.212H14.6324ZM16.2236 113.212L17.0738 110.644H17.5407L18.3908 113.212H17.9622L17.5476 111.818C17.5058 111.679 17.4652 111.538 17.4257 111.397C17.3862 111.253 17.3467 111.109 17.3072 110.965H17.2933C17.2561 111.111 17.2166 111.255 17.1748 111.397C17.1353 111.538 17.0947 111.679 17.0529 111.818L16.6383 113.212H16.2236ZM16.7045 112.484V112.163H17.903V112.484H16.7045ZM19.6779 113.261C19.5176 113.261 19.3678 113.232 19.2285 113.174C19.0914 113.113 18.9706 113.026 18.8661 112.912C18.7616 112.798 18.6803 112.66 18.6222 112.498C18.5641 112.333 18.5351 112.145 18.5351 111.933C18.5351 111.724 18.5653 111.537 18.6257 111.372C18.6861 111.207 18.7686 111.068 18.8731 110.954C18.9776 110.838 19.1007 110.75 19.2424 110.689C19.3841 110.629 19.5362 110.599 19.6988 110.599C19.8568 110.599 19.9973 110.631 20.1204 110.696C20.2435 110.761 20.3446 110.837 20.4235 110.923L20.2075 111.181C20.1402 111.113 20.0647 111.059 19.981 111.017C19.8997 110.973 19.808 110.951 19.7058 110.951C19.5571 110.951 19.4259 110.99 19.3121 111.069C19.2006 111.148 19.1123 111.26 19.0473 111.404C18.9846 111.548 18.9532 111.721 18.9532 111.923C18.9532 112.125 18.9834 112.3 19.0438 112.449C19.1042 112.595 19.1901 112.708 19.3016 112.787C19.4131 112.866 19.5444 112.905 19.6953 112.905C19.8115 112.905 19.9148 112.881 20.0054 112.832C20.0983 112.781 20.1831 112.714 20.2598 112.63L20.4793 112.888C20.3748 113.009 20.2563 113.102 20.1239 113.167C19.9938 113.229 19.8452 113.261 19.6779 113.261ZM20.9304 113.212V110.644H22.446V110.986H21.3346V111.7H22.2753V112.041H21.3346V112.867H22.4844V113.212H20.9304Z" fill="white"/>
<path d="M12.0352 130.236L12.8853 127.668H13.3522L14.2023 130.236H13.7738L13.3591 128.843C13.3173 128.703 13.2767 128.563 13.2372 128.421C13.1977 128.277 13.1582 128.133 13.1187 127.989H13.1048C13.0676 128.135 13.0281 128.279 12.9863 128.421C12.9468 128.563 12.9062 128.703 12.8644 128.843L12.4498 130.236H12.0352ZM12.516 129.508V129.188H13.7145V129.508H12.516ZM14.5405 130.236V127.668H15.206C15.4708 127.668 15.6949 127.717 15.8784 127.815C16.0619 127.91 16.2013 128.052 16.2965 128.24C16.3941 128.428 16.4429 128.663 16.4429 128.944C16.4429 129.222 16.3941 129.458 16.2965 129.651C16.2013 129.844 16.0631 129.99 15.8819 130.09C15.7007 130.188 15.4824 130.236 15.2269 130.236H14.5405ZM14.9447 129.905H15.1781C15.3616 129.905 15.5161 129.869 15.6415 129.797C15.7693 129.725 15.8645 129.618 15.9272 129.477C15.9923 129.333 16.0248 129.155 16.0248 128.944C16.0248 128.73 15.9923 128.553 15.9272 128.414C15.8645 128.275 15.7693 128.171 15.6415 128.104C15.5161 128.034 15.3616 127.999 15.1781 127.999H14.9447V129.905ZM16.9767 130.236V127.668H17.4436L17.9105 128.968C17.9407 129.052 17.9697 129.138 17.9976 129.226C18.0254 129.312 18.0533 129.398 18.0812 129.484H18.0986C18.1288 129.398 18.1567 129.312 18.1822 129.226C18.2101 129.138 18.238 129.052 18.2659 128.968L18.7258 127.668H19.1961V130.236H18.8198V128.968C18.8198 128.891 18.8222 128.807 18.8268 128.714C18.8338 128.621 18.8407 128.527 18.8477 128.432C18.857 128.336 18.8663 128.25 18.8756 128.174H18.8582L18.6526 128.766L18.2066 129.989H17.9558L17.5063 128.766L17.3007 128.174H17.2868C17.2961 128.25 17.3042 128.336 17.3112 128.432C17.3205 128.527 17.3275 128.621 17.3321 128.714C17.3391 128.807 17.3425 128.891 17.3425 128.968V130.236H16.9767ZM19.8688 130.236V127.668H20.273V130.236H19.8688ZM21.6757 130.285C21.4992 130.285 21.3319 130.251 21.174 130.184C21.0184 130.117 20.8813 130.024 20.7629 129.905L20.9998 129.627C21.0927 129.717 21.1984 129.79 21.3168 129.846C21.4376 129.902 21.5607 129.93 21.6862 129.93C21.8395 129.93 21.9568 129.896 22.0381 129.829C22.1217 129.761 22.1635 129.674 22.1635 129.567C22.1635 129.488 22.1461 129.426 22.1112 129.379C22.0764 129.33 22.0276 129.29 21.9649 129.257C21.9045 129.225 21.8348 129.191 21.7558 129.156L21.4005 129.003C21.3168 128.968 21.2344 128.923 21.1531 128.867C21.0741 128.809 21.0079 128.737 20.9545 128.651C20.9034 128.563 20.8778 128.456 20.8778 128.33C20.8778 128.196 20.9138 128.075 20.9858 127.968C21.0579 127.861 21.1577 127.778 21.2855 127.717C21.4132 127.655 21.5584 127.623 21.721 127.623C21.872 127.623 22.0148 127.652 22.1496 127.71C22.2843 127.768 22.3993 127.847 22.4945 127.947L22.2889 128.205C22.2076 128.133 22.1205 128.077 22.0276 128.038C21.937 127.996 21.8348 127.975 21.721 127.975C21.5886 127.975 21.4841 128.005 21.4074 128.066C21.3308 128.124 21.2925 128.203 21.2925 128.303C21.2925 128.377 21.3122 128.438 21.3517 128.487C21.3912 128.534 21.4423 128.573 21.505 128.606C21.57 128.636 21.6362 128.665 21.7036 128.693L22.0555 128.843C22.1577 128.884 22.2483 128.936 22.3272 128.996C22.4062 129.056 22.4678 129.13 22.5119 129.215C22.556 129.301 22.5781 129.408 22.5781 129.536C22.5781 129.673 22.5421 129.798 22.4701 129.912C22.3981 130.024 22.2947 130.114 22.16 130.184C22.0253 130.251 21.8639 130.285 21.6757 130.285ZM23.7206 130.285C23.5441 130.285 23.3768 130.251 23.2189 130.184C23.0633 130.117 22.9262 130.024 22.8078 129.905L23.0447 129.627C23.1376 129.717 23.2433 129.79 23.3617 129.846C23.4825 129.902 23.6056 129.93 23.7311 129.93C23.8844 129.93 24.0017 129.896 24.083 129.829C24.1666 129.761 24.2084 129.674 24.2084 129.567C24.2084 129.488 24.191 129.426 24.1561 129.379C24.1213 129.33 24.0725 129.29 24.0098 129.257C23.9494 129.225 23.8797 129.191 23.8008 129.156L23.4454 129.003C23.3617 128.968 23.2793 128.923 23.198 128.867C23.119 128.809 23.0528 128.737 22.9994 128.651C22.9483 128.563 22.9227 128.456 22.9227 128.33C22.9227 128.196 22.9587 128.075 23.0308 127.968C23.1028 127.861 23.2026 127.778 23.3304 127.717C23.4581 127.655 23.6033 127.623 23.7659 127.623C23.9169 127.623 24.0597 127.652 24.1945 127.71C24.3292 127.768 24.4442 127.847 24.5394 127.947L24.3338 128.205C24.2525 128.133 24.1654 128.077 24.0725 128.038C23.9819 127.996 23.8797 127.975 23.7659 127.975C23.6335 127.975 23.529 128.005 23.4523 128.066C23.3757 128.124 23.3374 128.203 23.3374 128.303C23.3374 128.377 23.3571 128.438 23.3966 128.487C23.4361 128.534 23.4872 128.573 23.5499 128.606C23.6149 128.636 23.6811 128.665 23.7485 128.693L24.1004 128.843C24.2026 128.884 24.2932 128.936 24.3722 128.996C24.4511 129.056 24.5127 129.13 24.5568 129.215C24.6009 129.301 24.623 129.408 24.623 129.536C24.623 129.673 24.587 129.798 24.515 129.912C24.443 130.024 24.3396 130.114 24.2049 130.184C24.0702 130.251 23.9088 130.285 23.7206 130.285ZM25.1087 130.236V127.668H25.5129V130.236H25.1087ZM27.1595 130.285C26.9411 130.285 26.7472 130.231 26.5776 130.121C26.4104 130.012 26.2791 129.858 26.1839 129.658C26.0887 129.456 26.041 129.218 26.041 128.944C26.041 128.667 26.0887 128.432 26.1839 128.236C26.2791 128.039 26.4104 127.888 26.5776 127.783C26.7472 127.677 26.9411 127.623 27.1595 127.623C27.3801 127.623 27.5741 127.677 27.7413 127.783C27.9086 127.888 28.0398 128.039 28.135 128.236C28.2303 128.432 28.2779 128.667 28.2779 128.944C28.2779 129.218 28.2303 129.456 28.135 129.658C28.0398 129.858 27.9086 130.012 27.7413 130.121C27.5741 130.231 27.3801 130.285 27.1595 130.285ZM27.1595 129.93C27.3012 129.93 27.4243 129.889 27.5288 129.808C27.6356 129.726 27.7181 129.613 27.7762 129.466C27.8342 129.318 27.8633 129.143 27.8633 128.944C27.8633 128.744 27.8342 128.572 27.7762 128.428C27.7181 128.282 27.6356 128.17 27.5288 128.094C27.4243 128.015 27.3012 127.975 27.1595 127.975C27.0178 127.975 26.8935 128.015 26.7867 128.094C26.6821 128.17 26.6008 128.282 26.5428 128.428C26.487 128.572 26.4591 128.744 26.4591 128.944C26.4591 129.143 26.487 129.318 26.5428 129.466C26.6008 129.613 26.6821 129.726 26.7867 129.808C26.8935 129.889 27.0178 129.93 27.1595 129.93ZM28.8106 130.236V127.668H29.2252L30.0754 129.177L30.3437 129.717H30.3611C30.3495 129.587 30.3367 129.448 30.3228 129.299C30.3111 129.15 30.3053 129.006 30.3053 128.867V127.668H30.6921V130.236H30.2775L29.4273 128.724L29.159 128.188H29.1451C29.1544 128.32 29.1649 128.458 29.1765 128.602C29.1881 128.746 29.1939 128.889 29.1939 129.031V130.236H28.8106Z" fill="white"/>
<path d="M13.3731 147.31C13.2128 147.31 13.063 147.28 12.9236 147.222C12.7866 147.162 12.6658 147.075 12.5613 146.961C12.4567 146.847 12.3754 146.709 12.3174 146.546C12.2593 146.382 12.2303 146.193 12.2303 145.982C12.2303 145.773 12.2605 145.586 12.3209 145.421C12.3813 145.256 12.4637 145.117 12.5682 145.003C12.6728 144.887 12.7959 144.799 12.9376 144.738C13.0792 144.678 13.2314 144.648 13.394 144.648C13.5519 144.648 13.6925 144.68 13.8156 144.745C13.9387 144.81 14.0397 144.886 14.1187 144.972L13.9027 145.229C13.8353 145.162 13.7598 145.108 13.6762 145.066C13.5949 145.022 13.5032 145 13.4009 145C13.2523 145 13.1211 145.039 13.0072 145.118C12.8957 145.197 12.8075 145.308 12.7424 145.452C12.6797 145.596 12.6484 145.77 12.6484 145.972C12.6484 146.174 12.6786 146.349 12.739 146.498C12.7994 146.644 12.8853 146.757 12.9968 146.836C13.1083 146.915 13.2395 146.954 13.3905 146.954C13.5066 146.954 13.61 146.93 13.7006 146.881C13.7935 146.83 13.8783 146.763 13.9549 146.679L14.1744 146.937C14.0699 147.057 13.9514 147.15 13.819 147.215C13.689 147.278 13.5403 147.31 13.3731 147.31ZM15.465 147.31C15.2467 147.31 15.0528 147.255 14.8832 147.146C14.716 147.037 14.5847 146.882 14.4895 146.682C14.3942 146.48 14.3466 146.242 14.3466 145.968C14.3466 145.692 14.3942 145.456 14.4895 145.261C14.5847 145.063 14.716 144.912 14.8832 144.808C15.0528 144.701 15.2467 144.648 15.465 144.648C15.6857 144.648 15.8797 144.701 16.0469 144.808C16.2141 144.912 16.3454 145.063 16.4406 145.261C16.5358 145.456 16.5835 145.692 16.5835 145.968C16.5835 146.242 16.5358 146.48 16.4406 146.682C16.3454 146.882 16.2141 147.037 16.0469 147.146C15.8797 147.255 15.6857 147.31 15.465 147.31ZM15.465 146.954C15.6067 146.954 15.7298 146.913 15.8344 146.832C15.9412 146.751 16.0237 146.637 16.0817 146.491C16.1398 146.342 16.1688 146.168 16.1688 145.968C16.1688 145.768 16.1398 145.596 16.0817 145.452C16.0237 145.306 15.9412 145.195 15.8344 145.118C15.7298 145.039 15.6067 145 15.465 145C15.3234 145 15.1991 145.039 15.0922 145.118C14.9877 145.195 14.9064 145.306 14.8483 145.452C14.7926 145.596 14.7647 145.768 14.7647 145.968C14.7647 146.168 14.7926 146.342 14.8483 146.491C14.9064 146.637 14.9877 146.751 15.0922 146.832C15.1991 146.913 15.3234 146.954 15.465 146.954ZM17.1162 147.261V144.693H17.5831L18.05 145.993C18.0802 146.076 18.1092 146.162 18.1371 146.25C18.1649 146.336 18.1928 146.422 18.2207 146.508H18.2381C18.2683 146.422 18.2962 146.336 18.3217 146.25C18.3496 146.162 18.3775 146.076 18.4054 145.993L18.8653 144.693H19.3356V147.261H18.9593V145.993C18.9593 145.916 18.9617 145.831 18.9663 145.738C18.9733 145.645 18.9802 145.551 18.9872 145.456C18.9965 145.361 19.0058 145.275 19.0151 145.198H18.9977L18.7921 145.79L18.3461 147.013H18.0953L17.6458 145.79L17.4402 145.198H17.4263C17.4356 145.275 17.4437 145.361 17.4507 145.456C17.46 145.551 17.467 145.645 17.4716 145.738C17.4786 145.831 17.4821 145.916 17.4821 145.993V147.261H17.1162ZM20.0083 147.261V144.693H20.7853C20.9781 144.693 21.1477 144.718 21.294 144.77C21.4403 144.818 21.5553 144.9 21.6389 145.013C21.7249 145.125 21.7678 145.278 21.7678 145.473C21.7678 145.659 21.726 145.812 21.6424 145.933C21.5588 146.052 21.4438 146.141 21.2975 146.202C21.1535 146.26 20.9874 146.289 20.7993 146.289H20.4125V147.261H20.0083ZM20.4125 145.961H20.7644C20.9665 145.961 21.1175 145.922 21.2174 145.843C21.3172 145.764 21.3672 145.641 21.3672 145.473C21.3672 145.301 21.3149 145.183 21.2104 145.118C21.1059 145.053 20.9514 145.02 20.747 145.02H20.4125V145.961ZM21.7221 147.261L22.5722 144.693H23.0391L23.8892 147.261H23.4607L23.0461 145.867C23.0043 145.728 22.9636 145.587 22.9241 145.445C22.8846 145.301 22.8452 145.157 22.8057 145.013H22.7917C22.7546 145.16 22.7151 145.304 22.6733 145.445C22.6338 145.587 22.5931 145.728 22.5513 145.867L22.1367 147.261H21.7221ZM22.2029 146.533V146.212H23.4015V146.533H22.2029ZM24.2275 147.261V144.693H24.6421L25.4922 146.202L25.7605 146.742H25.7779C25.7663 146.612 25.7535 146.472 25.7396 146.324C25.728 146.175 25.7222 146.031 25.7222 145.891V144.693H26.1089V147.261H25.6943L24.8441 145.749L24.5759 145.212H24.5619C24.5712 145.344 24.5817 145.483 24.5933 145.627C24.6049 145.771 24.6107 145.914 24.6107 146.055V147.261H24.2275ZM26.7861 147.261V144.693H27.1903V147.261H26.7861ZM28.8369 147.31C28.6186 147.31 28.4246 147.255 28.255 147.146C28.0878 147.037 27.9566 146.882 27.8613 146.682C27.7661 146.48 27.7185 146.242 27.7185 145.968C27.7185 145.692 27.7661 145.456 27.8613 145.261C27.9566 145.063 28.0878 144.912 28.255 144.808C28.4246 144.701 28.6186 144.648 28.8369 144.648C29.0576 144.648 29.2515 144.701 29.4188 144.808C29.586 144.912 29.7172 145.063 29.8125 145.261C29.9077 145.456 29.9553 145.692 29.9553 145.968C29.9553 146.242 29.9077 146.48 29.8125 146.682C29.7172 146.882 29.586 147.037 29.4188 147.146C29.2515 147.255 29.0576 147.31 28.8369 147.31ZM28.8369 146.954C28.9786 146.954 29.1017 146.913 29.2062 146.832C29.3131 146.751 29.3955 146.637 29.4536 146.491C29.5117 146.342 29.5407 146.168 29.5407 145.968C29.5407 145.768 29.5117 145.596 29.4536 145.452C29.3955 145.306 29.3131 145.195 29.2062 145.118C29.1017 145.039 28.9786 145 28.8369 145C28.6952 145 28.5709 145.039 28.4641 145.118C28.3596 145.195 28.2783 145.306 28.2202 145.452C28.1645 145.596 28.1366 145.768 28.1366 145.968C28.1366 146.168 28.1645 146.342 28.2202 146.491C28.2783 146.637 28.3596 146.751 28.4641 146.832C28.5709 146.913 28.6952 146.954 28.8369 146.954ZM30.4881 147.261V144.693H30.9027L31.7528 146.202L32.0211 146.742H32.0385C32.0269 146.612 32.0141 146.472 32.0002 146.324C31.9886 146.175 31.9828 146.031 31.9828 145.891V144.693H32.3695V147.261H31.9549L31.1048 145.749L30.8365 145.212H30.8225C30.8318 145.344 30.8423 145.483 30.8539 145.627C30.8655 145.771 30.8713 145.914 30.8713 146.055V147.261H30.4881Z" fill="white"/>
<path d="M12.3731 79.1611V76.5933H13.1501C13.3429 76.5933 13.5124 76.6189 13.6588 76.67C13.8051 76.7187 13.9201 76.8 14.0037 76.9138C14.0897 77.0253 14.1326 77.1786 14.1326 77.3738C14.1326 77.5596 14.0908 77.7129 14.0072 77.8337C13.9236 77.9521 13.8086 78.0416 13.6623 78.1019C13.5182 78.16 13.3522 78.1891 13.164 78.1891H12.7773V79.1611H12.3731ZM12.7773 77.8615H13.1292C13.3313 77.8615 13.4822 77.8221 13.5821 77.7431C13.682 77.6641 13.7319 77.541 13.7319 77.3738C13.7319 77.2019 13.6797 77.0834 13.5752 77.0184C13.4706 76.9533 13.3162 76.9208 13.1118 76.9208H12.7773V77.8615ZM15.608 79.2099C15.3896 79.2099 15.1957 79.1553 15.0261 79.0462C14.8589 78.937 14.7276 78.7825 14.6324 78.5828C14.5372 78.3807 14.4895 78.1426 14.4895 77.8685C14.4895 77.5921 14.5372 77.3563 14.6324 77.1612C14.7276 76.9638 14.8589 76.8128 15.0261 76.7083C15.1957 76.6014 15.3896 76.548 15.608 76.548C15.8286 76.548 16.0226 76.6014 16.1898 76.7083C16.357 76.8128 16.4883 76.9638 16.5835 77.1612C16.6788 77.3563 16.7264 77.5921 16.7264 77.8685C16.7264 78.1426 16.6788 78.3807 16.5835 78.5828C16.4883 78.7825 16.357 78.937 16.1898 79.0462C16.0226 79.1553 15.8286 79.2099 15.608 79.2099ZM15.608 78.8545C15.7496 78.8545 15.8727 78.8139 15.9773 78.7326C16.0841 78.6513 16.1666 78.5375 16.2246 78.3911C16.2827 78.2425 16.3118 78.0683 16.3118 77.8685C16.3118 77.6687 16.2827 77.4969 16.2246 77.3529C16.1666 77.2065 16.0841 77.095 15.9773 77.0184C15.8727 76.9394 15.7496 76.8999 15.608 76.8999C15.4663 76.8999 15.342 76.9394 15.2351 77.0184C15.1306 77.095 15.0493 77.2065 14.9913 77.3529C14.9355 77.4969 14.9076 77.6687 14.9076 77.8685C14.9076 78.0683 14.9355 78.2425 14.9913 78.3911C15.0493 78.5375 15.1306 78.6513 15.2351 78.7326C15.342 78.8139 15.4663 78.8545 15.608 78.8545ZM17.2591 79.1611V76.5933H18.0361C18.2289 76.5933 18.3984 76.6189 18.5448 76.67C18.6911 76.7187 18.8061 76.8 18.8897 76.9138C18.9757 77.0253 19.0186 77.1786 19.0186 77.3738C19.0186 77.5596 18.9768 77.7129 18.8932 77.8337C18.8096 77.9521 18.6946 78.0416 18.5483 78.1019C18.4042 78.16 18.2382 78.1891 18.05 78.1891H17.6633V79.1611H17.2591ZM17.6633 77.8615H18.0152C18.2173 77.8615 18.3682 77.8221 18.4681 77.7431C18.568 77.6641 18.6179 77.541 18.6179 77.3738C18.6179 77.2019 18.5657 77.0834 18.4612 77.0184C18.3566 76.9533 18.2022 76.9208 17.9978 76.9208H17.6633V77.8615ZM20.4591 79.2099C20.3174 79.2099 20.1873 79.189 20.0689 79.1472C19.9527 79.1054 19.8529 79.0392 19.7692 78.9486C19.6856 78.858 19.6206 78.7395 19.5741 78.5932C19.5277 78.4469 19.5044 78.2692 19.5044 78.0601V76.5933H19.9086V78.0845C19.9086 78.2773 19.9318 78.4306 19.9783 78.5444C20.0271 78.6559 20.0921 78.7361 20.1734 78.7848C20.257 78.8313 20.3523 78.8545 20.4591 78.8545C20.5683 78.8545 20.6647 78.8313 20.7483 78.7848C20.8319 78.7361 20.8981 78.6559 20.9469 78.5444C20.9957 78.4306 21.0201 78.2773 21.0201 78.0845V76.5933H21.4103V78.0601C21.4103 78.2692 21.3871 78.4469 21.3406 78.5932C21.2965 78.7395 21.2326 78.858 21.149 78.9486C21.0654 79.0392 20.9643 79.1054 20.8459 79.1472C20.7297 79.189 20.6008 79.2099 20.4591 79.2099ZM22.0737 79.1611V76.5933H22.8506C23.0434 76.5933 23.213 76.6189 23.3593 76.67C23.5057 76.7187 23.6206 76.8 23.7043 76.9138C23.7902 77.0253 23.8332 77.1786 23.8332 77.3738C23.8332 77.5596 23.7914 77.7129 23.7077 77.8337C23.6241 77.9521 23.5091 78.0416 23.3628 78.1019C23.2188 78.16 23.0527 78.1891 22.8646 78.1891H22.4778V79.1611H22.0737ZM22.4778 77.8615H22.8297C23.0318 77.8615 23.1828 77.8221 23.2827 77.7431C23.3826 77.6641 23.4325 77.541 23.4325 77.3738C23.4325 77.2019 23.3802 77.0834 23.2757 77.0184C23.1712 76.9533 23.0167 76.9208 22.8123 76.9208H22.4778V77.8615ZM25.1155 79.1611V76.5933H25.5301L26.3803 78.1019L26.6485 78.642H26.666C26.6543 78.5119 26.6416 78.3725 26.6276 78.2239C26.616 78.0752 26.6102 77.9312 26.6102 77.7919V76.5933H26.997V79.1611H26.5823L25.7322 77.649L25.4639 77.1124H25.45C25.4593 77.2448 25.4697 77.383 25.4813 77.5271C25.493 77.6711 25.4988 77.8139 25.4988 77.9556V79.1611H25.1155ZM27.3362 79.1611L28.1864 76.5933H28.6532L29.5034 79.1611H29.0748L28.6602 77.7675C28.6184 77.6281 28.5778 77.4876 28.5383 77.3459C28.4988 77.2019 28.4593 77.0579 28.4198 76.9138H28.4059C28.3687 77.0602 28.3292 77.2042 28.2874 77.3459C28.2479 77.4876 28.2073 77.6281 28.1655 77.7675L27.7508 79.1611H27.3362ZM27.817 78.4329V78.1124H29.0156V78.4329H27.817ZM29.8416 79.1611V76.5933H30.3085L30.7753 77.8929C30.8055 77.9765 30.8346 78.0625 30.8624 78.1507C30.8903 78.2367 30.9182 78.3226 30.9461 78.4086H30.9635C30.9937 78.3226 31.0216 78.2367 31.0471 78.1507C31.075 78.0625 31.1029 77.9765 31.1307 77.8929L31.5906 76.5933H32.061V79.1611H31.6847V77.8929C31.6847 77.8162 31.687 77.7315 31.6917 77.6386C31.6986 77.5456 31.7056 77.4516 31.7126 77.3563C31.7219 77.2611 31.7312 77.1752 31.7405 77.0985H31.723L31.5175 77.6908L31.0715 78.9138H30.8206L30.3712 77.6908L30.1656 77.0985H30.1517C30.161 77.1752 30.1691 77.2611 30.1761 77.3563C30.1854 77.4516 30.1923 77.5456 30.197 77.6386C30.2039 77.7315 30.2074 77.8162 30.2074 77.8929V79.1611H29.8416ZM32.7337 79.1611V76.5933H34.2493V76.9348H33.1379V77.649H34.0786V77.9905H33.1379V78.8162H34.2877V79.1611H32.7337Z" fill="white"/>
<path d="M105.331 165.796C105.385 165.637 105.611 165.637 105.665 165.796L106.221 167.435C106.294 167.649 106.496 167.794 106.722 167.794H108.488C108.661 167.794 108.73 168.016 108.589 168.115L107.187 169.09C106.994 169.224 106.912 169.471 106.988 169.694L107.53 171.289C107.584 171.45 107.402 171.588 107.262 171.491L105.8 170.474C105.619 170.348 105.378 170.348 105.196 170.474L103.734 171.491C103.595 171.588 103.412 171.45 103.467 171.289L104.008 169.694C104.084 169.471 104.003 169.224 103.809 169.09L102.408 168.115C102.266 168.016 102.336 167.794 102.508 167.794H104.274C104.501 167.794 104.702 167.649 104.775 167.435L105.331 165.796Z" stroke="white" stroke-width="0.352681"/>
<path d="M113.725 165.818C113.778 165.657 114.006 165.657 114.059 165.818L114.596 167.432C114.668 167.648 114.871 167.794 115.098 167.794H116.818C116.99 167.794 117.06 168.014 116.92 168.114L115.543 169.091C115.353 169.226 115.274 169.468 115.347 169.689L115.877 171.28C115.931 171.442 115.746 171.578 115.607 171.48L114.198 170.48C114.015 170.35 113.769 170.35 113.586 170.48L112.177 171.48C112.038 171.578 111.854 171.442 111.908 171.28L112.437 169.689C112.51 169.468 112.431 169.226 112.241 169.091L110.864 168.114C110.724 168.014 110.794 167.794 110.966 167.794H112.686C112.914 167.794 113.116 167.648 113.188 167.432L113.725 165.818Z" stroke="white" stroke-width="0.352681"/>
<path d="M105.331 165.796C105.385 165.637 105.611 165.637 105.665 165.796L106.221 167.435C106.294 167.649 106.496 167.794 106.722 167.794H108.488C108.661 167.794 108.73 168.016 108.589 168.115L107.187 169.09C106.994 169.224 106.912 169.471 106.988 169.694L107.53 171.289C107.584 171.45 107.402 171.588 107.262 171.491L105.8 170.474C105.619 170.348 105.378 170.348 105.196 170.474L103.734 171.491C103.595 171.588 103.412 171.45 103.467 171.289L104.008 169.694C104.084 169.471 104.003 169.224 103.809 169.09L102.408 168.115C102.266 168.016 102.336 167.794 102.508 167.794H104.274C104.501 167.794 104.702 167.649 104.775 167.435L105.331 165.796Z" stroke="white" stroke-width="0.352681"/>
<path d="M96.6242 165.796C96.6784 165.637 96.904 165.637 96.9582 165.796L97.5143 167.435C97.5871 167.649 97.7886 167.794 98.0152 167.794H99.7809C99.9536 167.794 100.023 168.016 99.8816 168.115L98.4801 169.09C98.2865 169.224 98.2054 169.471 98.2812 169.694L98.8227 171.289C98.8774 171.45 98.6947 171.588 98.555 171.491L97.0932 170.474C96.9117 170.348 96.6707 170.348 96.4891 170.474L95.0273 171.491C94.8876 171.588 94.705 171.45 94.7597 171.289L95.3012 169.694C95.377 169.471 95.2959 169.224 95.1023 169.09L93.7007 168.115C93.559 168.016 93.6287 167.794 93.8014 167.794H95.5671C95.7938 167.794 95.9952 167.649 96.0681 167.435L96.6242 165.796Z" stroke="white" stroke-width="0.352681"/>
<path d="M87.9133 165.796C87.9674 165.637 88.1931 165.637 88.2472 165.796L88.8033 167.435C88.8762 167.649 89.0777 167.794 89.3043 167.794H91.07C91.2427 167.794 91.3125 168.016 91.1707 168.115L89.7691 169.09C89.5755 169.224 89.4944 169.471 89.5702 169.694L90.1118 171.289C90.1665 171.45 89.9838 171.588 89.8441 171.491L88.3823 170.474C88.2007 170.348 87.9598 170.348 87.7782 170.474L86.3164 171.491C86.1767 171.588 85.994 171.45 86.0487 171.289L86.5903 169.694C86.6661 169.471 86.5849 169.224 86.3914 169.09L84.9898 168.115C84.848 168.016 84.9178 167.794 85.0905 167.794H86.8562C87.0828 167.794 87.2843 167.649 87.3571 167.435L87.9133 165.796Z" stroke="white" stroke-width="0.352681"/>
<path d="M79.2023 165.796C79.2565 165.637 79.4821 165.637 79.5363 165.796L80.0924 167.435C80.1653 167.649 80.3667 167.794 80.5934 167.794H82.3591C82.5317 167.794 82.6015 168.016 82.4597 168.115L81.0582 169.09C80.8646 169.224 80.7835 169.471 80.8593 169.694L81.4008 171.289C81.4555 171.45 81.2728 171.588 81.1332 171.491L79.6714 170.474C79.4898 170.348 79.2488 170.348 79.0673 170.474L77.6055 171.491C77.4658 171.588 77.2831 171.45 77.3378 171.289L77.8793 169.694C77.9551 169.471 77.874 169.224 77.6804 169.09L76.2789 168.115C76.1371 168.016 76.2069 167.794 76.3795 167.794H78.1453C78.3719 167.794 78.5734 167.649 78.6462 167.435L79.2023 165.796Z" stroke="white" stroke-width="0.352681"/>
<path d="M113.725 165.818C113.778 165.657 114.006 165.657 114.059 165.818L114.596 167.432C114.668 167.648 114.871 167.794 115.098 167.794H116.818C116.99 167.794 117.06 168.014 116.92 168.114L115.543 169.091C115.353 169.226 115.274 169.468 115.347 169.689L115.877 171.28C115.931 171.442 115.746 171.578 115.607 171.48L114.198 170.48C114.015 170.35 113.769 170.35 113.586 170.48L112.177 171.48C112.038 171.578 111.854 171.442 111.908 171.28L112.437 169.689C112.51 169.468 112.431 169.226 112.241 169.091L110.864 168.114C110.724 168.014 110.794 167.794 110.966 167.794H112.686C112.914 167.794 113.116 167.648 113.188 167.432L113.725 165.818Z" stroke="white" stroke-width="0.352681"/>
<path d="M48.5688 22.4215C48.5021 21.786 48.4688 21.1327 48.4688 20.4617C48.4688 19.7906 48.5021 19.1374 48.5688 18.5018C48.5821 18.3774 48.6088 18.2619 48.6488 18.1552C48.6888 18.0485 48.7443 17.9552 48.8154 17.8752C48.891 17.7952 48.9799 17.733 49.0821 17.6886C49.1887 17.6397 49.3132 17.6152 49.4554 17.6152C49.5932 17.6152 49.7132 17.6397 49.8154 17.6886C49.922 17.733 50.0109 17.7952 50.082 17.8752C50.1576 17.9552 50.2153 18.0485 50.2553 18.1552C50.2953 18.2619 50.322 18.3774 50.3353 18.5018C50.402 19.1374 50.4353 19.7906 50.4353 20.4617C50.4353 21.1327 50.402 21.786 50.3353 22.4215C50.322 22.546 50.2953 22.6615 50.2553 22.7682C50.2153 22.8793 50.1576 22.9748 50.082 23.0548C50.0109 23.1348 49.922 23.197 49.8154 23.2415C49.7132 23.2904 49.5932 23.3148 49.4554 23.3148C49.3132 23.3148 49.1887 23.2904 49.0821 23.2415C48.9799 23.197 48.891 23.1348 48.8154 23.0548C48.7443 22.9748 48.6888 22.8793 48.6488 22.7682C48.6088 22.6615 48.5821 22.546 48.5688 22.4215ZM51.2492 18.8818C51.3114 18.9174 51.3803 18.944 51.4559 18.9618C51.5359 18.9751 51.6136 18.9818 51.6892 18.9818C51.7381 18.9818 51.7847 18.9774 51.8292 18.9685C51.878 18.9596 51.9225 18.9485 51.9625 18.9351C51.9803 18.9263 51.9892 18.9129 51.9892 18.8951C51.9936 18.8774 51.9914 18.8618 51.9825 18.8485C51.978 18.8307 51.9692 18.8196 51.9558 18.8152C51.9425 18.8063 51.9269 18.8063 51.9092 18.8152C51.8025 18.8463 51.7158 18.8618 51.6492 18.8618C51.5514 18.8618 51.4625 18.8418 51.3825 18.8018C51.307 18.7618 51.2403 18.7085 51.1825 18.6418C51.1292 18.5752 51.087 18.4996 51.0559 18.4152C51.0248 18.3307 51.0092 18.2441 51.0092 18.1552C51.0092 18.0619 51.0226 17.9708 51.0492 17.8819C51.0803 17.7886 51.1292 17.7064 51.1959 17.6352C51.2625 17.5641 51.347 17.5064 51.4492 17.4619C51.5559 17.4175 51.6803 17.3953 51.8225 17.3953C51.978 17.3953 52.1114 17.4242 52.2225 17.4819C52.338 17.5397 52.4313 17.6175 52.5024 17.7152C52.578 17.813 52.6335 17.9241 52.6691 18.0485C52.7047 18.1685 52.7224 18.293 52.7224 18.4219C52.7224 18.5596 52.7002 18.6974 52.6558 18.8352C52.6113 18.9685 52.5469 19.0885 52.4624 19.1951C52.3825 19.3018 52.2825 19.3884 52.1625 19.4551C52.0425 19.5173 51.9025 19.5484 51.7425 19.5484C51.587 19.5484 51.4647 19.524 51.3759 19.4751C51.287 19.4218 51.2248 19.3618 51.1892 19.2951C51.1581 19.224 51.147 19.1507 51.1559 19.0751C51.1692 18.9996 51.2003 18.9351 51.2492 18.8818ZM63.6674 23.3615C63.1386 23.3615 62.6964 23.2859 62.3409 23.1348C61.9898 22.9837 61.7076 22.7771 61.4943 22.5149C61.2854 22.2482 61.1365 21.9393 61.0476 21.5883C60.9588 21.2327 60.9143 20.855 60.9143 20.455C60.9143 20.0551 60.9588 19.6795 61.0476 19.3284C61.1365 18.9729 61.2854 18.6641 61.4943 18.4019C61.7076 18.1397 61.9898 17.933 62.3409 17.7819C62.6964 17.6264 63.1386 17.5486 63.6674 17.5486C63.9741 17.5486 64.2496 17.573 64.494 17.6219C64.7429 17.6708 64.9607 17.7464 65.1473 17.8486C65.2806 17.9152 65.3806 17.9997 65.4473 18.1019C65.5184 18.2041 65.5628 18.3152 65.5806 18.4352C65.6028 18.5507 65.6006 18.6707 65.574 18.7952C65.5473 18.9151 65.5028 19.0307 65.4406 19.1418C65.3784 19.2573 65.3006 19.3618 65.2073 19.4551C65.114 19.5484 65.0096 19.6218 64.894 19.6751C64.7829 19.724 64.6629 19.7506 64.534 19.7551C64.4096 19.7551 64.2807 19.7217 64.1474 19.6551C64.0896 19.624 64.0207 19.5995 63.9408 19.5818C63.8608 19.5595 63.7697 19.5484 63.6674 19.5484C63.5075 19.5484 63.3719 19.5729 63.2608 19.6218C63.1497 19.6706 63.0586 19.7373 62.9875 19.8217C62.9208 19.9062 62.8697 20.0017 62.8342 20.1084C62.8031 20.215 62.7875 20.3284 62.7875 20.4484C62.7875 20.5683 62.8031 20.6839 62.8342 20.795C62.8697 20.9061 62.9208 21.0039 62.9875 21.0883C63.0586 21.1727 63.1497 21.2394 63.2608 21.2883C63.3719 21.3372 63.5075 21.3616 63.6674 21.3616C63.7697 21.3616 63.8608 21.3527 63.9408 21.335C64.0207 21.3127 64.0896 21.2861 64.1474 21.255C64.2807 21.1883 64.4118 21.1572 64.5407 21.1616C64.674 21.1616 64.7985 21.1905 64.914 21.2483C65.0296 21.3061 65.1318 21.3838 65.2206 21.4816C65.314 21.5749 65.3917 21.6816 65.454 21.8016C65.5117 21.9127 65.5517 22.0282 65.574 22.1482C65.5962 22.2682 65.5962 22.386 65.574 22.5015C65.5562 22.6126 65.5117 22.7171 65.4406 22.8148C65.3695 22.917 65.2718 23.0015 65.1473 23.0681C64.9607 23.1704 64.7429 23.2437 64.494 23.2881C64.2496 23.337 63.9741 23.3615 63.6674 23.3615ZM67.9138 21.4416C67.9049 21.606 67.8938 21.7705 67.8804 21.9349C67.8715 22.0949 67.8582 22.2549 67.8404 22.4149C67.8271 22.5393 67.8004 22.6548 67.7604 22.7615C67.7205 22.8726 67.6627 22.9682 67.5871 23.0482C67.516 23.1281 67.4271 23.1904 67.3205 23.2348C67.2183 23.2837 67.0983 23.3081 66.9605 23.3081C66.8183 23.3081 66.6939 23.2837 66.5872 23.2348C66.485 23.1904 66.3961 23.1281 66.3206 23.0482C66.2495 22.9682 66.1939 22.8726 66.1539 22.7615C66.1139 22.6548 66.0872 22.5393 66.0739 22.4149C66.0295 22.0149 66.0006 21.6083 65.9873 21.195C65.9784 20.7817 65.9761 20.3661 65.9806 19.9484C65.985 19.4684 66.0273 19.0751 66.1072 18.7685C66.1917 18.4618 66.325 18.2196 66.5072 18.0419C66.6939 17.8597 66.9361 17.733 67.2338 17.6619C67.5316 17.5908 67.9004 17.553 68.3404 17.5486C69.0337 17.5397 69.5625 17.7108 69.9269 18.0619C70.2958 18.4085 70.4758 18.9285 70.4669 19.6218C70.4669 20.0884 70.3869 20.4595 70.2269 20.735C70.0669 21.0105 69.8003 21.2172 69.427 21.355C69.3692 21.3727 69.347 21.4038 69.3603 21.4483C69.3781 21.4927 69.4136 21.5083 69.467 21.4949C69.5647 21.4727 69.6625 21.4372 69.7603 21.3883C69.8625 21.335 69.958 21.2794 70.0469 21.2216C70.1625 21.3238 70.2758 21.4483 70.3869 21.5949C70.498 21.7416 70.5913 21.9194 70.6669 22.1282C70.7424 22.3504 70.7424 22.5571 70.6669 22.7482C70.5958 22.9393 70.4336 23.0926 70.1803 23.2081C70.0425 23.2704 69.9003 23.3037 69.7536 23.3081C69.6114 23.3126 69.4714 23.2904 69.3337 23.2415C69.1959 23.197 69.0692 23.1281 68.9537 23.0348C68.8381 22.9459 68.7426 22.8371 68.667 22.7082C68.5648 22.5393 68.4826 22.3482 68.4204 22.1349C68.3582 21.9171 68.316 21.6905 68.2937 21.4549C68.2315 21.4549 68.1671 21.4549 68.1004 21.4549C68.0382 21.4505 67.976 21.4461 67.9138 21.4416ZM68.7337 19.8151C68.5782 19.7573 68.4359 19.6929 68.3071 19.6218C68.1826 19.5462 68.0582 19.444 67.9338 19.3151C67.9115 19.2973 67.8871 19.2929 67.8604 19.3018C67.8382 19.3062 67.816 19.3196 67.7938 19.3418C67.776 19.3596 67.7649 19.384 67.7604 19.4151C67.756 19.4462 67.7649 19.4773 67.7871 19.5084C67.8849 19.6373 68.0093 19.744 68.1604 19.8284C68.316 19.9084 68.4715 19.9773 68.627 20.0351C68.6626 20.0484 68.6915 20.0462 68.7137 20.0284C68.7404 20.0106 68.7581 19.9884 68.767 19.9617C68.7759 19.9351 68.7781 19.9084 68.7737 19.8817C68.7693 19.8506 68.7559 19.8284 68.7337 19.8151ZM73.062 22.1749C73.0664 22.3082 73.0576 22.4415 73.0353 22.5749C73.0131 22.7082 72.9665 22.8304 72.8954 22.9415C72.8242 23.0526 72.7265 23.1415 72.602 23.2081C72.4776 23.2792 72.3198 23.3148 72.1287 23.3148C71.871 23.3148 71.6577 23.2392 71.4888 23.0881C71.3199 22.937 71.2266 22.7326 71.2088 22.4749C71.1822 21.8216 71.1688 21.1505 71.1688 20.4617C71.1688 20.0617 71.2022 19.6906 71.2688 19.3484C71.3355 19.0018 71.4532 18.6996 71.6221 18.4419C71.791 18.1841 72.0176 17.9819 72.3021 17.8352C72.5909 17.6886 72.9531 17.6152 73.3886 17.6152C73.8286 17.6152 74.1908 17.6886 74.4752 17.8352C74.7641 17.9819 74.993 18.1841 75.1618 18.4419C75.3307 18.6996 75.4485 19.0018 75.5151 19.3484C75.5862 19.6906 75.6218 20.0617 75.6218 20.4617C75.6218 20.8039 75.6174 21.1439 75.6085 21.4816C75.604 21.8149 75.5929 22.146 75.5751 22.4749C75.5618 22.7326 75.4685 22.937 75.2952 23.0881C75.1263 23.2392 74.9107 23.3148 74.6485 23.3148C74.4574 23.3148 74.2997 23.2792 74.1752 23.2081C74.0553 23.1415 73.9597 23.0526 73.8886 22.9415C73.8175 22.8304 73.7686 22.7082 73.7419 22.5749C73.7153 22.4371 73.7064 22.3038 73.7153 22.1749C73.6442 22.1927 73.5842 22.206 73.5353 22.2149C73.4864 22.2238 73.4375 22.2282 73.3886 22.2282C73.3442 22.2282 73.2953 22.2238 73.242 22.2149C73.1931 22.206 73.1331 22.1927 73.062 22.1749ZM73.9619 20.355C73.8286 20.2528 73.6775 20.1862 73.5086 20.155C73.3442 20.1239 73.1776 20.1039 73.0087 20.0951C72.9687 20.0951 72.9398 20.1062 72.922 20.1284C72.9042 20.1506 72.8931 20.1773 72.8887 20.2084C72.8842 20.2395 72.8887 20.2684 72.902 20.295C72.9198 20.3173 72.942 20.3306 72.9687 20.335C73.1331 20.3439 73.2864 20.3661 73.4286 20.4017C73.5753 20.4372 73.7264 20.4972 73.8819 20.5817C73.9042 20.595 73.9264 20.595 73.9486 20.5817C73.9708 20.5639 73.9886 20.5417 74.0019 20.515C74.0153 20.4884 74.0197 20.4595 74.0153 20.4284C74.0108 20.3973 73.993 20.3728 73.9619 20.355ZM78.0692 21.4283C78.0603 21.5927 78.0492 21.7571 78.0359 21.9216C78.0225 22.086 78.0092 22.2504 77.9959 22.4149C77.9825 22.5393 77.9559 22.6548 77.9159 22.7615C77.8759 22.8726 77.8181 22.9682 77.7426 23.0482C77.6715 23.1281 77.5826 23.1904 77.4759 23.2348C77.3737 23.2837 77.2537 23.3081 77.116 23.3081C76.9737 23.3081 76.8493 23.2837 76.7426 23.2348C76.6404 23.1904 76.5516 23.1281 76.476 23.0482C76.4049 22.9682 76.3493 22.8726 76.3093 22.7615C76.2694 22.6548 76.2427 22.5393 76.2294 22.4149C76.1627 21.7794 76.1294 21.1327 76.1294 20.475C76.1338 19.8173 76.1671 19.1707 76.2294 18.5352C76.2471 18.3752 76.2849 18.2396 76.3427 18.1285C76.4005 18.0174 76.4738 17.9263 76.5627 17.8552C76.6515 17.7841 76.7515 17.7308 76.8626 17.6952C76.9782 17.6552 77.1004 17.6264 77.2293 17.6086C77.3848 17.5908 77.5426 17.5775 77.7026 17.5686C77.867 17.5553 78.027 17.5486 78.1825 17.5486C78.4936 17.5441 78.8003 17.5619 79.1025 17.6019C79.4091 17.6419 79.6824 17.7286 79.9224 17.8619C80.1668 17.9952 80.3624 18.1908 80.509 18.4485C80.6601 18.7063 80.7357 19.0507 80.7357 19.4818C80.7357 19.784 80.7001 20.0417 80.629 20.255C80.5623 20.4684 80.4668 20.6483 80.3424 20.795C80.2224 20.9372 80.0779 21.0528 79.9091 21.1416C79.7446 21.2261 79.5624 21.2905 79.3624 21.335C79.1669 21.3794 78.958 21.4083 78.7358 21.4216C78.5181 21.4305 78.2959 21.4327 78.0692 21.4283ZM78.0692 19.6218C78.3447 19.764 78.6403 19.8195 78.9558 19.7884C78.9958 19.784 79.0225 19.7684 79.0358 19.7417C79.0536 19.7151 79.0625 19.6884 79.0625 19.6618C79.0625 19.6306 79.0536 19.604 79.0358 19.5818C79.0225 19.5595 79.0025 19.5484 78.9758 19.5484C78.8114 19.5573 78.6647 19.5484 78.5358 19.5218C78.407 19.4951 78.2714 19.4507 78.1292 19.3884C78.1025 19.3751 78.0781 19.3773 78.0559 19.3951C78.0337 19.4084 78.0159 19.4284 78.0025 19.4551C77.9937 19.4818 77.9937 19.5129 78.0025 19.5484C78.0114 19.5795 78.0337 19.604 78.0692 19.6218Z" fill="#343434"/>
<circle cx="57.4796" cy="15.3819" r="0.444409" fill="#343434"/>
<path fill-rule="evenodd" clip-rule="evenodd" d="M55.4758 23.6022C56.5266 24.1204 57.9942 24.2235 59.208 23.79C59.3648 23.734 59.5117 23.671 59.6481 23.6021L59.7249 23.6016C59.7337 23.6015 59.7408 23.609 59.7402 23.6178C59.7227 23.8926 59.6727 24.3058 59.5795 24.6522C59.533 24.8253 59.4754 24.9828 59.4052 25.098C59.3783 25.142 59.3467 25.1866 59.3145 25.2319C59.2893 25.2674 59.2637 25.3034 59.2399 25.34C59.1169 25.4099 58.9626 25.467 58.7924 25.5117C58.4516 25.6014 58.0632 25.6377 57.7742 25.6377C57.7128 25.6377 57.6631 25.6874 57.6631 25.7488C57.6631 25.8102 57.7128 25.8599 57.7742 25.8599C58.0779 25.8599 58.4859 25.8221 58.8489 25.7266C58.9432 25.7018 59.0354 25.6729 59.1227 25.6392L58.8799 27.8308C58.8383 28.206 58.5212 28.4899 58.1437 28.4899H56.9676C56.5901 28.4899 56.273 28.206 56.2314 27.8308L55.9856 25.612C55.9706 25.4767 55.8818 25.3516 55.7968 25.2319C55.7647 25.1866 55.733 25.142 55.7062 25.098C55.6359 24.9828 55.5783 24.8253 55.5318 24.6522C55.4387 24.3058 55.3887 23.8926 55.3711 23.6178C55.3706 23.609 55.3776 23.6015 55.3865 23.6016L55.4758 23.6022Z" fill="#343434"/>
<path fill-rule="evenodd" clip-rule="evenodd" d="M57.7172 16.2695C58.0952 16.3152 58.3731 16.4219 58.5887 16.5572C59.3804 16.9805 59.7988 17.4745 59.984 17.762C60.1046 17.9493 60.2268 18.2449 60.3162 18.5329C60.3168 18.5361 60.3176 18.5393 60.3184 18.5425C60.4241 18.93 60.4094 19.168 60.3892 19.2948C60.3576 19.4919 60.2862 19.6283 60.1983 19.7234C60.1098 19.819 59.9973 19.8808 59.8721 19.9164C59.6382 19.9831 59.3728 19.9548 59.19 19.8988C58.6844 19.6693 58.004 19.4678 57.2335 19.5241C57.1519 19.53 57.0906 19.601 57.0966 19.6826C57.1025 19.7642 57.1735 19.8255 57.2551 19.8195C57.9316 19.7701 58.5364 19.9375 58.9996 20.1384C59.0116 20.1478 59.0253 20.1556 59.0405 20.1611C59.0543 20.1661 59.0686 20.171 59.0834 20.1758C59.3805 20.3121 59.6126 20.4582 59.759 20.5599C59.8706 20.6473 59.972 20.7421 60.0611 20.8438C60.8739 21.7703 60.3714 22.9209 58.9388 23.4138C57.5062 23.9067 55.686 23.5552 54.8733 22.6287C54.533 22.2409 54.4233 21.8137 54.5158 21.412C54.5264 21.3817 54.5441 21.3391 54.5708 21.2895C54.6137 21.2098 54.6752 21.1214 54.7558 21.047C54.8358 20.9732 54.9329 20.9146 55.0495 20.889C55.1654 20.8636 55.3104 20.8685 55.4908 20.9364C55.4983 20.9393 55.5059 20.9414 55.5135 20.943C56.0389 21.2208 56.7149 21.454 57.731 21.454C57.8128 21.454 57.8791 21.3877 57.8791 21.3058C57.8791 21.2635 57.8614 21.2253 57.8329 21.1983C57.8059 21.1701 57.7679 21.1525 57.7258 21.1525C56.4563 21.1525 55.7626 20.7729 55.1936 20.4075C55.0753 20.3164 54.9683 20.2173 54.8746 20.1105C54.0619 19.184 54.5644 18.0333 55.997 17.5404C56.1143 17.5 56.2343 17.4653 56.3561 17.4361C57.7314 17.0636 57.7555 16.5462 57.7172 16.2695ZM59.9398 20.3248L59.9387 20.3239L59.9411 20.3236L59.9398 20.3248Z" fill="#343434"/>
</svg>
