<svg width="128" height="189" viewBox="0 0 128 189" fill="none" xmlns="http://www.w3.org/2000/svg">
<rect x="0.356458" y="0.507826" width="126.737" height="187.709" rx="6.75057" fill="white" stroke="#2A2A2A" stroke-width="0.435521"/>
<rect x="14.8209" y="49.2447" width="97.7969" height="109.245" rx="8.64069" stroke="#343434" stroke-width="0.352681"/>
<line x1="22.6406" y1="112.38" x2="104.812" y2="112.38" stroke="#343434" stroke-width="0.352681"/>
<path d="M25.8909 138.177C25.7283 138.177 25.5773 138.148 25.438 138.09C25.2986 138.032 25.1755 137.946 25.0687 137.832C24.9618 137.718 24.8782 137.579 24.8178 137.414C24.7597 137.249 24.7307 137.061 24.7307 136.849C24.7307 136.638 24.7609 136.45 24.8213 136.285C24.884 136.12 24.9688 135.979 25.0756 135.863C25.1848 135.747 25.3102 135.659 25.4519 135.598C25.5959 135.538 25.7492 135.508 25.9118 135.508C26.0744 135.508 26.2184 135.542 26.3439 135.609C26.4693 135.674 26.5727 135.749 26.654 135.835L26.4101 136.128C26.3427 136.063 26.2695 136.01 26.1906 135.968C26.1116 135.926 26.021 135.905 25.9188 135.905C25.7817 135.905 25.6586 135.943 25.5495 136.02C25.4403 136.094 25.3555 136.201 25.2951 136.341C25.2347 136.478 25.2045 136.643 25.2045 136.835C25.2045 137.03 25.2336 137.199 25.2916 137.341C25.3497 137.48 25.431 137.588 25.5355 137.665C25.6424 137.739 25.7667 137.776 25.9083 137.776C26.0222 137.776 26.1244 137.752 26.2149 137.703C26.3055 137.654 26.3868 137.59 26.4588 137.511L26.7027 137.8C26.5982 137.924 26.4786 138.018 26.3439 138.083C26.2091 138.145 26.0582 138.177 25.8909 138.177ZM27.9931 138.177C27.7701 138.177 27.5727 138.122 27.4008 138.013C27.2312 137.904 27.0977 137.749 27.0001 137.55C26.9049 137.347 26.8573 137.108 26.8573 136.832C26.8573 136.553 26.9049 136.315 27.0001 136.118C27.0977 135.92 27.2312 135.769 27.4008 135.665C27.5727 135.56 27.7701 135.508 27.9931 135.508C28.2184 135.508 28.4158 135.561 28.5854 135.668C28.755 135.773 28.8874 135.924 28.9826 136.121C29.0802 136.316 29.1289 136.553 29.1289 136.832C29.1289 137.108 29.0802 137.347 28.9826 137.55C28.8874 137.749 28.755 137.904 28.5854 138.013C28.4158 138.122 28.2184 138.177 27.9931 138.177ZM27.9931 137.776C28.1278 137.776 28.2451 137.738 28.345 137.661C28.4449 137.582 28.5215 137.472 28.575 137.33C28.6307 137.188 28.6586 137.022 28.6586 136.832C28.6586 136.639 28.6307 136.474 28.575 136.337C28.5215 136.198 28.4449 136.091 28.345 136.017C28.2451 135.942 28.1278 135.905 27.9931 135.905C27.8584 135.905 27.7411 135.942 27.6412 136.017C27.5413 136.091 27.4647 136.198 27.4112 136.337C27.3578 136.474 27.3311 136.639 27.3311 136.832C27.3311 137.022 27.3578 137.188 27.4112 137.33C27.4647 137.472 27.5413 137.582 27.6412 137.661C27.7411 137.738 27.8584 137.776 27.9931 137.776ZM29.6471 138.128V135.553H30.1662L30.6192 136.811C30.6471 136.89 30.6749 136.972 30.7028 137.058C30.7307 137.144 30.7574 137.229 30.7829 137.313H30.8004C30.8282 137.229 30.8549 137.144 30.8805 137.058C30.9084 136.972 30.9351 136.89 30.9606 136.811L31.4066 135.553H31.9257V138.128H31.5042V136.957C31.5042 136.876 31.5076 136.788 31.5146 136.692C31.5216 136.595 31.5297 136.497 31.539 136.4C31.5483 136.302 31.5564 136.214 31.5634 136.135H31.5495L31.3404 136.734L30.9188 137.888H30.6436L30.222 136.734L30.0164 136.135H30.0025C30.0118 136.214 30.0199 136.302 30.0269 136.4C30.0362 136.497 30.0443 136.595 30.0513 136.692C30.0582 136.788 30.0617 136.876 30.0617 136.957V138.128H29.6471ZM32.5801 138.128V135.553H33.3919C33.5847 135.553 33.7554 135.579 33.904 135.63C34.0527 135.679 34.17 135.761 34.2559 135.877C34.3442 135.993 34.3883 136.15 34.3883 136.348C34.3883 136.538 34.3454 136.696 34.2594 136.821C34.1735 136.944 34.0562 137.036 33.9075 137.097C33.7589 137.155 33.5916 137.184 33.4058 137.184H33.04V138.128H32.5801ZM33.04 136.818H33.371C33.5614 136.818 33.7031 136.78 33.796 136.703C33.8889 136.624 33.9354 136.505 33.9354 136.348C33.9354 136.19 33.8866 136.079 33.7891 136.017C33.6915 135.954 33.5463 135.922 33.3535 135.922H33.04V136.818ZM34.3279 138.128L35.1676 135.553H35.7042L36.5404 138.128H36.0561L35.6658 136.759C35.624 136.622 35.5845 136.481 35.5474 136.337C35.5102 136.193 35.4719 136.051 35.4324 135.912H35.4185C35.3836 136.054 35.3464 136.197 35.307 136.341C35.2675 136.482 35.228 136.622 35.1885 136.759L34.7948 138.128H34.3279ZM34.8227 137.431V137.072H36.0386V137.431H34.8227ZM36.8638 138.128V135.553H37.3342L38.132 136.996L38.4003 137.546H38.4178C38.4038 137.414 38.3899 137.271 38.3759 137.118C38.362 136.962 38.355 136.812 38.355 136.668V135.553H38.7906V138.128H38.3202L37.5258 136.682L37.2575 136.138H37.2436C37.2529 136.273 37.2645 136.416 37.2784 136.567C37.2924 136.716 37.2993 136.862 37.2993 137.006V138.128H36.8638ZM39.4497 138.128V135.553H39.9096V138.128H39.4497ZM41.5623 138.177C41.3393 138.177 41.1419 138.122 40.97 138.013C40.8004 137.904 40.6669 137.749 40.5693 137.55C40.4741 137.347 40.4265 137.108 40.4265 136.832C40.4265 136.553 40.4741 136.315 40.5693 136.118C40.6669 135.92 40.8004 135.769 40.97 135.665C41.1419 135.56 41.3393 135.508 41.5623 135.508C41.7876 135.508 41.985 135.561 42.1546 135.668C42.3242 135.773 42.4566 135.924 42.5518 136.121C42.6494 136.316 42.6981 136.553 42.6981 136.832C42.6981 137.108 42.6494 137.347 42.5518 137.55C42.4566 137.749 42.3242 137.904 42.1546 138.013C41.985 138.122 41.7876 138.177 41.5623 138.177ZM41.5623 137.776C41.697 137.776 41.8143 137.738 41.9142 137.661C42.0141 137.582 42.0907 137.472 42.1441 137.33C42.1999 137.188 42.2278 137.022 42.2278 136.832C42.2278 136.639 42.1999 136.474 42.1441 136.337C42.0907 136.198 42.0141 136.091 41.9142 136.017C41.8143 135.942 41.697 135.905 41.5623 135.905C41.4276 135.905 41.3103 135.942 41.2104 136.017C41.1105 136.091 41.0339 136.198 40.9804 136.337C40.927 136.474 40.9003 136.639 40.9003 136.832C40.9003 137.022 40.927 137.188 40.9804 137.33C41.0339 137.472 41.1105 137.582 41.2104 137.661C41.3103 137.738 41.4276 137.776 41.5623 137.776ZM43.2163 138.128V135.553H43.6867L44.4845 136.996L44.7528 137.546H44.7702C44.7563 137.414 44.7424 137.271 44.7284 137.118C44.7145 136.962 44.7075 136.812 44.7075 136.668V135.553H45.143V138.128H44.6727L43.8783 136.682L43.61 136.138H43.5961C43.6054 136.273 43.617 136.416 43.6309 136.567C43.6448 136.716 43.6518 136.862 43.6518 137.006V138.128H43.2163Z" fill="#343434"/>
<path d="M75.6044 22.6714C75.6585 22.5118 75.8842 22.5118 75.9383 22.6714L76.8812 25.4489C76.954 25.6635 77.1555 25.8079 77.3821 25.8079L80.3992 25.8079C80.5719 25.8079 80.6416 26.0304 80.4999 26.129L78.0859 27.8078C77.8923 27.9424 77.8112 28.1889 77.887 28.4121L78.8153 31.1467C78.8699 31.3078 78.6873 31.4453 78.5476 31.3481L76.0734 29.6275C75.8918 29.5012 75.6509 29.5012 75.4693 29.6275L72.9951 31.3481C72.8554 31.4453 72.6728 31.3078 72.7275 31.1467L73.6557 28.4121C73.7315 28.1889 73.6504 27.9424 73.4568 27.8078L71.0429 26.129C70.9011 26.0304 70.9708 25.8079 71.1435 25.8079L74.1606 25.8079C74.3872 25.8079 74.5887 25.6635 74.6616 25.4489L75.6044 22.6714Z" stroke="#343434" stroke-width="0.352681"/>
<path d="M87.3268 22.6925C87.3803 22.5316 87.6079 22.5316 87.6615 22.6925L88.5774 25.4458C88.6493 25.662 88.8515 25.8079 89.0793 25.8079L92.0253 25.8079C92.1972 25.8079 92.2675 26.0286 92.1274 26.128L89.7584 27.8091C89.5686 27.9438 89.4892 28.1867 89.5626 28.4076L90.4708 31.1377C90.5246 31.2995 90.3405 31.4359 90.2014 31.3372L87.8003 29.6332C87.6169 29.5031 87.3713 29.5031 87.188 29.6332L84.7868 31.3372C84.6478 31.4358 84.4636 31.2995 84.5174 31.1377L85.4256 28.4076C85.4991 28.1867 85.4196 27.9438 85.2298 27.8091L82.8609 26.128C82.7207 26.0286 82.7911 25.8079 82.9629 25.8079L85.9089 25.8079C86.1367 25.8079 86.339 25.662 86.4109 25.4458L87.3268 22.6925Z" stroke="#343434" stroke-width="0.352681"/>
<path d="M51.7489 22.6714C51.8031 22.5118 52.0287 22.5118 52.0829 22.6714L53.0257 25.4489C53.0985 25.6635 53.3 25.8079 53.5266 25.8079L56.5437 25.8079C56.7164 25.8079 56.7862 26.0304 56.6444 26.129L54.2304 27.8078C54.0369 27.9424 53.9558 28.1889 54.0315 28.4121L54.9598 31.1467C55.0145 31.3078 54.8318 31.4453 54.6921 31.3481L52.2179 29.6275C52.0364 29.5012 51.7954 29.5012 51.6138 29.6275L49.1397 31.3481C49 31.4453 48.8173 31.3078 48.872 31.1467L49.8002 28.4121C49.876 28.1889 49.7949 27.9424 49.6013 27.8078L47.1874 26.129C47.0456 26.0304 47.1154 25.8079 47.2881 25.8079L50.3051 25.8079C50.5318 25.8079 50.7332 25.6635 50.8061 25.4489L51.7489 22.6714Z" stroke="#343434" stroke-width="0.352681"/>
<path d="M63.5067 22.6714C63.5609 22.5118 63.7865 22.5118 63.8407 22.6714L64.7835 25.4489C64.8563 25.6635 65.0578 25.8079 65.2844 25.8079L68.3015 25.8079C68.4742 25.8079 68.544 26.0304 68.4022 26.129L65.9883 27.8078C65.7947 27.9424 65.7136 28.1889 65.7894 28.4121L66.7176 31.1467C66.7723 31.3078 66.5896 31.4453 66.4499 31.3481L63.9757 29.6275C63.7942 29.5012 63.5532 29.5012 63.3717 29.6275L60.8975 31.3481C60.7578 31.4453 60.5751 31.3078 60.6298 31.1467L61.558 28.4121C61.6338 28.1889 61.5527 27.9424 61.3591 27.8078L58.9452 26.129C58.8034 26.0304 58.8732 25.8079 59.0459 25.8079L62.063 25.8079C62.2896 25.8079 62.491 25.6635 62.5639 25.4489L63.5067 22.6714Z" stroke="#343434" stroke-width="0.352681"/>
<path d="M39.8698 22.6925C39.9233 22.5316 40.1509 22.5316 40.2044 22.6925L41.1203 25.4458C41.1923 25.662 41.3945 25.8079 41.6223 25.8079L44.5683 25.8079C44.7401 25.8079 44.8105 26.0286 44.6704 26.128L42.3014 27.8091C42.1116 27.9438 42.0321 28.1867 42.1056 28.4076L43.0138 31.1377C43.0676 31.2995 42.8834 31.4359 42.7444 31.3372L40.3433 29.6332C40.1599 29.5031 39.9143 29.5031 39.7309 29.6332L37.3298 31.3372C37.1908 31.4358 37.0066 31.2995 37.0604 31.1377L37.9686 28.4076C38.0421 28.1867 37.9626 27.9438 37.7728 27.8091L35.4038 26.128C35.2637 26.0286 35.3341 25.8079 35.5059 25.8079L38.4519 25.8079C38.6797 25.8079 38.8819 25.662 38.9539 25.4458L39.8698 22.6925Z" stroke="#343434" stroke-width="0.352681"/>
<path d="M51.5383 172.094C51.4858 171.595 51.4596 171.081 51.4596 170.553C51.4596 170.025 51.4858 169.511 51.5383 169.011C51.5488 168.913 51.5698 168.822 51.6012 168.738C51.6327 168.654 51.6764 168.581 51.7323 168.518C51.7917 168.455 51.8617 168.406 51.9421 168.371C52.026 168.333 52.1239 168.314 52.2357 168.314C52.3441 168.314 52.4385 168.333 52.5189 168.371C52.6028 168.406 52.6727 168.455 52.7287 168.518C52.7881 168.581 52.8336 168.654 52.865 168.738C52.8965 168.822 52.9175 168.913 52.928 169.011C52.9804 169.511 53.0066 170.025 53.0066 170.553C53.0066 171.081 52.9804 171.595 52.928 172.094C52.9175 172.192 52.8965 172.283 52.865 172.367C52.8336 172.455 52.7881 172.53 52.7287 172.593C52.6727 172.656 52.6028 172.705 52.5189 172.739C52.4385 172.778 52.3441 172.797 52.2357 172.797C52.1239 172.797 52.026 172.778 51.9421 172.739C51.8617 172.705 51.7917 172.656 51.7323 172.593C51.6764 172.53 51.6327 172.455 51.6012 172.367C51.5698 172.283 51.5488 172.192 51.5383 172.094ZM53.6469 169.31C53.6958 169.338 53.75 169.359 53.8094 169.373C53.8724 169.383 53.9336 169.389 53.993 169.389C54.0314 169.389 54.0681 169.385 54.1031 169.378C54.1416 169.371 54.1765 169.362 54.208 169.352C54.222 169.345 54.229 169.334 54.229 169.32C54.2325 169.306 54.2307 169.294 54.2237 169.284C54.2202 169.27 54.2132 169.261 54.2027 169.257C54.1923 169.25 54.18 169.25 54.166 169.257C54.0821 169.282 54.014 169.294 53.9615 169.294C53.8846 169.294 53.8147 169.278 53.7518 169.247C53.6923 169.215 53.6399 169.174 53.5944 169.121C53.5525 169.069 53.5193 169.009 53.4948 168.943C53.4703 168.876 53.4581 168.808 53.4581 168.738C53.4581 168.665 53.4686 168.593 53.4896 168.523C53.514 168.45 53.5525 168.385 53.6049 168.329C53.6574 168.273 53.7238 168.228 53.8042 168.193C53.8881 168.158 53.986 168.14 54.0979 168.14C54.2202 168.14 54.3251 168.163 54.4125 168.209C54.5034 168.254 54.5768 168.315 54.6328 168.392C54.6922 168.469 54.7359 168.556 54.7639 168.654C54.7918 168.749 54.8058 168.847 54.8058 168.948C54.8058 169.056 54.7883 169.165 54.7534 169.273C54.7184 169.378 54.6677 169.472 54.6013 169.556C54.5384 169.64 54.4597 169.708 54.3653 169.761C54.2709 169.81 54.1608 169.834 54.0349 169.834C53.9126 169.834 53.8164 169.815 53.7465 169.777C53.6766 169.735 53.6277 169.687 53.5997 169.635C53.5752 169.579 53.5665 169.521 53.5735 169.462C53.584 169.403 53.6084 169.352 53.6469 169.31ZM63.4159 172.834C62.9999 172.834 62.652 172.774 62.3723 172.656C62.0961 172.537 61.8741 172.374 61.7063 172.168C61.542 171.958 61.4249 171.715 61.355 171.439C61.2851 171.159 61.2501 170.862 61.2501 170.547C61.2501 170.233 61.2851 169.937 61.355 169.661C61.4249 169.382 61.542 169.139 61.7063 168.932C61.8741 168.726 62.0961 168.563 62.3723 168.445C62.652 168.322 62.9999 168.261 63.4159 168.261C63.6571 168.261 63.8739 168.28 64.0661 168.319C64.2619 168.357 64.4332 168.417 64.5801 168.497C64.6849 168.549 64.7636 168.616 64.816 168.696C64.872 168.777 64.9069 168.864 64.9209 168.959C64.9384 169.049 64.9367 169.144 64.9157 169.242C64.8947 169.336 64.8597 169.427 64.8108 169.514C64.7619 169.605 64.7007 169.687 64.6273 169.761C64.5538 169.834 64.4717 169.892 64.3808 169.934C64.2934 169.972 64.199 169.993 64.0976 169.997C63.9997 169.997 63.8983 169.971 63.7935 169.918C63.748 169.894 63.6938 169.874 63.6309 169.861C63.568 169.843 63.4963 169.834 63.4159 169.834C63.29 169.834 63.1834 169.854 63.096 169.892C63.0086 169.93 62.9369 169.983 62.881 170.049C62.8286 170.116 62.7884 170.191 62.7604 170.275C62.7359 170.359 62.7237 170.448 62.7237 170.542C62.7237 170.637 62.7359 170.728 62.7604 170.815C62.7884 170.902 62.8286 170.979 62.881 171.046C62.9369 171.112 63.0086 171.165 63.096 171.203C63.1834 171.241 63.29 171.261 63.4159 171.261C63.4963 171.261 63.568 171.254 63.6309 171.24C63.6938 171.222 63.748 171.201 63.7935 171.177C63.8983 171.124 64.0015 171.1 64.1029 171.103C64.2077 171.103 64.3056 171.126 64.3965 171.172C64.4874 171.217 64.5678 171.278 64.6377 171.355C64.7112 171.428 64.7723 171.512 64.8213 171.607C64.8667 171.694 64.8982 171.785 64.9157 171.879C64.9332 171.974 64.9332 172.066 64.9157 172.157C64.9017 172.245 64.8667 172.327 64.8108 172.404C64.7549 172.484 64.6779 172.551 64.5801 172.603C64.4332 172.684 64.2619 172.741 64.0661 172.776C63.8739 172.815 63.6571 172.834 63.4159 172.834ZM66.7563 171.324C66.7493 171.453 66.7406 171.582 66.7301 171.712C66.7231 171.838 66.7126 171.963 66.6986 172.089C66.6882 172.187 66.6672 172.278 66.6357 172.362C66.6043 172.449 66.5588 172.524 66.4994 172.587C66.4434 172.65 66.3735 172.699 66.2896 172.734C66.2092 172.773 66.1148 172.792 66.0064 172.792C65.8946 172.792 65.7967 172.773 65.7128 172.734C65.6324 172.699 65.5624 172.65 65.503 172.587C65.4471 172.524 65.4034 172.449 65.3719 172.362C65.3404 172.278 65.3195 172.187 65.309 172.089C65.274 171.775 65.2513 171.455 65.2408 171.13C65.2338 170.804 65.2321 170.478 65.2356 170.149C65.2391 169.771 65.2723 169.462 65.3352 169.221C65.4016 168.98 65.5065 168.789 65.6498 168.649C65.7967 168.506 65.9872 168.406 66.2214 168.35C66.4557 168.294 66.7458 168.265 67.0919 168.261C67.6373 168.254 68.0534 168.389 68.34 168.665C68.6302 168.938 68.7718 169.347 68.7648 169.892C68.7648 170.259 68.7019 170.551 68.576 170.768C68.4502 170.984 68.2404 171.147 67.9467 171.255C67.9013 171.269 67.8838 171.294 67.8943 171.329C67.9083 171.364 67.9362 171.376 67.9782 171.366C68.0551 171.348 68.132 171.32 68.2089 171.282C68.2893 171.24 68.3645 171.196 68.4344 171.151C68.5253 171.231 68.6145 171.329 68.7019 171.444C68.7893 171.56 68.8627 171.699 68.9221 171.864C68.9815 172.039 68.9815 172.201 68.9221 172.351C68.8662 172.502 68.7386 172.622 68.5393 172.713C68.4309 172.762 68.3191 172.788 68.2037 172.792C68.0918 172.795 67.9817 172.778 67.8733 172.739C67.7649 172.705 67.6653 172.65 67.5744 172.577C67.4835 172.507 67.4083 172.421 67.3489 172.32C67.2685 172.187 67.2038 172.037 67.1549 171.869C67.1059 171.698 67.0727 171.519 67.0552 171.334C67.0063 171.334 66.9556 171.334 66.9032 171.334C66.8542 171.331 66.8053 171.327 66.7563 171.324ZM67.4013 170.044C67.279 169.999 67.1671 169.948 67.0657 169.892C66.9678 169.833 66.87 169.752 66.7721 169.651C66.7546 169.637 66.7354 169.633 66.7144 169.64C66.6969 169.644 66.6794 169.654 66.6619 169.672C66.648 169.686 66.6392 169.705 66.6357 169.729C66.6322 169.754 66.6392 169.778 66.6567 169.803C66.7336 169.904 66.8315 169.988 66.9504 170.055C67.0727 170.117 67.1951 170.172 67.3174 170.217C67.3454 170.228 67.3681 170.226 67.3856 170.212C67.4066 170.198 67.4206 170.18 67.4276 170.159C67.4346 170.138 67.4363 170.117 67.4328 170.096C67.4293 170.072 67.4188 170.055 67.4013 170.044ZM70.8063 171.9C70.8098 172.005 70.8028 172.11 70.7853 172.215C70.7678 172.32 70.7311 172.416 70.6752 172.503C70.6192 172.591 70.5423 172.661 70.4444 172.713C70.3466 172.769 70.2224 172.797 70.0721 172.797C69.8693 172.797 69.7015 172.738 69.5687 172.619C69.4358 172.5 69.3624 172.339 69.3484 172.136C69.3275 171.622 69.317 171.095 69.317 170.553C69.317 170.238 69.3432 169.946 69.3956 169.677C69.4481 169.404 69.5407 169.167 69.6736 168.964C69.8064 168.761 69.9847 168.602 70.2085 168.487C70.4357 168.371 70.7206 168.314 71.0632 168.314C71.4093 168.314 71.6943 168.371 71.918 168.487C72.1453 168.602 72.3253 168.761 72.4581 168.964C72.591 169.167 72.6836 169.404 72.7361 169.677C72.792 169.946 72.82 170.238 72.82 170.553C72.82 170.822 72.8165 171.089 72.8095 171.355C72.806 171.617 72.7973 171.878 72.7833 172.136C72.7728 172.339 72.6994 172.5 72.563 172.619C72.4302 172.738 72.2606 172.797 72.0544 172.797C71.904 172.797 71.7799 172.769 71.682 172.713C71.5876 172.661 71.5125 172.591 71.4565 172.503C71.4006 172.416 71.3621 172.32 71.3412 172.215C71.3202 172.107 71.3132 172.002 71.3202 171.9C71.2643 171.914 71.2171 171.925 71.1786 171.932C71.1401 171.939 71.1017 171.942 71.0632 171.942C71.0283 171.942 70.9898 171.939 70.9479 171.932C70.9094 171.925 70.8622 171.914 70.8063 171.9ZM71.5142 170.469C71.4093 170.388 71.2905 170.336 71.1576 170.311C71.0283 170.287 70.8972 170.271 70.7643 170.264C70.7329 170.264 70.7101 170.273 70.6962 170.291C70.6822 170.308 70.6734 170.329 70.6699 170.353C70.6664 170.378 70.6699 170.401 70.6804 170.422C70.6944 170.439 70.7119 170.45 70.7329 170.453C70.8622 170.46 70.9828 170.478 71.0947 170.506C71.2101 170.533 71.3289 170.581 71.4513 170.647C71.4688 170.658 71.4863 170.658 71.5037 170.647C71.5212 170.633 71.5352 170.616 71.5457 170.595C71.5562 170.574 71.5597 170.551 71.5562 170.526C71.5527 170.502 71.5387 170.483 71.5142 170.469ZM74.7453 171.313C74.7383 171.442 74.7295 171.572 74.7191 171.701C74.7086 171.831 74.6981 171.96 74.6876 172.089C74.6771 172.187 74.6561 172.278 74.6247 172.362C74.5932 172.449 74.5478 172.524 74.4883 172.587C74.4324 172.65 74.3625 172.699 74.2786 172.734C74.1982 172.773 74.1038 172.792 73.9954 172.792C73.8835 172.792 73.7856 172.773 73.7017 172.734C73.6213 172.699 73.5514 172.65 73.492 172.587C73.436 172.524 73.3923 172.449 73.3609 172.362C73.3294 172.278 73.3084 172.187 73.2979 172.089C73.2455 171.589 73.2193 171.081 73.2193 170.563C73.2228 170.046 73.249 169.537 73.2979 169.037C73.3119 168.911 73.3416 168.805 73.3871 168.717C73.4325 168.63 73.4902 168.558 73.5601 168.502C73.63 168.446 73.7087 168.404 73.7961 168.376C73.887 168.345 73.9831 168.322 74.0845 168.308C74.2069 168.294 74.331 168.284 74.4569 168.277C74.5862 168.266 74.7121 168.261 74.8344 168.261C75.0791 168.258 75.3204 168.272 75.5581 168.303C75.7993 168.334 76.0143 168.403 76.2031 168.508C76.3954 168.612 76.5492 168.766 76.6646 168.969C76.7835 169.172 76.8429 169.443 76.8429 169.782C76.8429 170.02 76.8149 170.222 76.759 170.39C76.7065 170.558 76.6314 170.7 76.5335 170.815C76.4391 170.927 76.3255 171.018 76.1926 171.088C76.0633 171.154 75.9199 171.205 75.7626 171.24C75.6088 171.275 75.4445 171.297 75.2697 171.308C75.0984 171.315 74.9236 171.317 74.7453 171.313ZM74.7453 169.892C74.962 170.004 75.1945 170.048 75.4427 170.023C75.4742 170.02 75.4952 170.007 75.5057 169.986C75.5196 169.965 75.5266 169.944 75.5266 169.923C75.5266 169.899 75.5196 169.878 75.5057 169.861C75.4952 169.843 75.4794 169.834 75.4585 169.834C75.3291 169.841 75.2137 169.834 75.1124 169.813C75.011 169.792 74.9043 169.757 74.7925 169.708C74.7715 169.698 74.7523 169.7 74.7348 169.714C74.7173 169.724 74.7033 169.74 74.6928 169.761C74.6858 169.782 74.6858 169.806 74.6928 169.834C74.6998 169.859 74.7173 169.878 74.7453 169.892Z" fill="#343434"/>
<circle cx="58.5293" cy="166.276" r="0.349602" fill="#343434"/>
<path fill-rule="evenodd" clip-rule="evenodd" d="M56.9548 172.743C57.7815 173.151 58.9366 173.232 59.8918 172.891C60.0155 172.847 60.1313 172.797 60.2389 172.743L60.3 172.742C60.3069 172.742 60.3125 172.748 60.312 172.755C60.2982 172.971 60.2589 173.296 60.1857 173.569C60.149 173.705 60.1037 173.829 60.0485 173.919C60.0273 173.954 60.0025 173.989 59.9771 174.025C59.9578 174.052 59.9383 174.08 59.9199 174.108L59.9173 174.109C59.8205 174.164 59.6989 174.209 59.5649 174.244C59.2968 174.315 58.9912 174.343 58.7639 174.343C58.7156 174.343 58.6765 174.383 58.6765 174.431C58.6765 174.479 58.7156 174.518 58.7639 174.518C59.0028 174.518 59.3238 174.489 59.6094 174.413C59.6841 174.394 59.7573 174.371 59.8264 174.344L59.6353 176.069C59.6026 176.364 59.3531 176.588 59.0562 176.588H58.1309C57.834 176.588 57.5845 176.364 57.5518 176.069L57.3584 174.324C57.3466 174.217 57.2767 174.119 57.2099 174.025L57.2099 174.025C57.1846 173.989 57.1597 173.954 57.1386 173.919C57.0833 173.829 57.038 173.705 57.0014 173.569C56.9281 173.296 56.8888 172.971 56.875 172.755C56.8746 172.748 56.8801 172.742 56.8871 172.742L56.9548 172.743Z" fill="#343434"/>
<path fill-rule="evenodd" clip-rule="evenodd" d="M58.715 166.976C59.0117 167.011 59.2301 167.095 59.3995 167.201C60.0227 167.534 60.352 167.923 60.4978 168.149C60.6064 168.318 60.7167 168.599 60.788 168.854C60.8459 169.106 60.8351 169.265 60.8208 169.355C60.796 169.51 60.7398 169.617 60.6706 169.692C60.6011 169.767 60.5126 169.816 60.414 169.844C60.2236 169.898 60.0067 169.872 59.8626 169.825C59.4659 169.647 58.9346 169.491 58.3336 169.535C58.2694 169.54 58.2212 169.596 58.2259 169.66C58.2306 169.724 58.2864 169.772 58.3506 169.768C58.8883 169.728 59.3684 169.863 59.7342 170.023C59.742 170.029 59.7506 170.033 59.7598 170.036C59.7656 170.038 59.7714 170.04 59.7773 170.043C60.0442 170.164 60.2458 170.296 60.3581 170.377L60.3625 170.381C60.3677 170.386 60.3732 170.39 60.3789 170.394C60.4457 170.45 60.5073 170.51 60.5628 170.573C61.2022 171.302 60.8069 172.208 59.6799 172.595C58.5529 172.983 57.1211 172.707 56.4817 171.978C56.2039 171.661 56.1214 171.311 56.2094 170.985C56.217 170.967 56.2266 170.947 56.2385 170.925C56.2723 170.862 56.3206 170.792 56.384 170.734C56.447 170.676 56.5234 170.63 56.6151 170.61C56.7062 170.59 56.8203 170.593 56.9623 170.647C56.9681 170.649 56.9739 170.651 56.9798 170.652C57.3931 170.871 57.9249 171.054 58.7242 171.054C58.7885 171.054 58.8407 171.002 58.8407 170.937C58.8407 170.912 58.8323 170.888 58.818 170.868C58.7972 170.837 58.7614 170.816 58.7208 170.816C57.7497 170.816 57.2069 170.534 56.7661 170.254L56.7665 170.254C56.6607 170.175 56.5656 170.089 56.4835 169.996C55.8442 169.267 56.2395 168.362 57.3665 167.974C57.46 167.942 57.5557 167.914 57.6528 167.891C58.7263 167.598 58.745 167.193 58.715 166.976ZM60.4654 170.167L60.462 170.165L60.4689 170.164L60.4654 170.167Z" fill="#343434"/>
<path d="M24.4174 81.0234V78.4486H25.1037C25.3685 78.4486 25.5938 78.4963 25.7797 78.5915C25.9678 78.6867 26.1107 78.8284 26.2082 79.0166C26.3081 79.2047 26.358 79.4416 26.358 79.7273C26.358 80.0107 26.3081 80.2488 26.2082 80.4416C26.1107 80.6344 25.9701 80.7795 25.7866 80.8771C25.6031 80.9747 25.3836 81.0234 25.1281 81.0234H24.4174ZM24.8773 80.6506H25.0724C25.2443 80.6506 25.3906 80.6181 25.5114 80.5531C25.6345 80.4857 25.7274 80.3835 25.7901 80.2465C25.8552 80.1094 25.8877 79.9364 25.8877 79.7273C25.8877 79.5136 25.8552 79.3406 25.7901 79.2082C25.7274 79.0758 25.6345 78.9782 25.5114 78.9155C25.3906 78.8528 25.2443 78.8214 25.0724 78.8214H24.8773V80.6506ZM26.4919 81.0234L27.3315 78.4486H27.8681L28.7043 81.0234H28.22L27.8298 79.6542C27.788 79.5171 27.7485 79.3766 27.7113 79.2326C27.6741 79.0886 27.6358 78.9469 27.5963 78.8075H27.5824C27.5476 78.9492 27.5104 79.092 27.4709 79.2361C27.4314 79.3777 27.3919 79.5171 27.3524 79.6542L26.9587 81.0234H26.4919ZM26.9866 80.3266V79.9677H28.2026V80.3266H26.9866ZM29.278 81.0234V78.8354H28.5394V78.4486H30.4835V78.8354H29.7414V81.0234H29.278ZM30.9161 81.0234V78.4486H32.4666V78.8354H31.3761V79.4904H32.2994V79.8771H31.3761V80.6367H32.5049V81.0234H30.9161Z" fill="#343434"/>
<path d="M24.4174 98.0498V95.475H25.2292C25.422 95.475 25.5927 95.5006 25.7413 95.5517C25.89 95.6004 26.0073 95.6829 26.0932 95.799C26.1815 95.9152 26.2256 96.072 26.2256 96.2694C26.2256 96.4599 26.1827 96.6178 26.0967 96.7432C26.0108 96.8663 25.8935 96.9581 25.7448 97.0185C25.5962 97.0766 25.4289 97.1056 25.2431 97.1056H24.8773V98.0498H24.4174ZM24.8773 96.7398H25.2083C25.3987 96.7398 25.5404 96.7014 25.6333 96.6248C25.7262 96.5458 25.7727 96.4273 25.7727 96.2694C25.7727 96.1114 25.7239 96.0011 25.6264 95.9384C25.5288 95.8757 25.3836 95.8443 25.1908 95.8443H24.8773V96.7398ZM26.7106 98.0498V95.475H27.1706V97.6631H28.2402V98.0498H26.7106ZM28.3326 98.0498L29.1723 95.475H29.7089L30.5451 98.0498H30.0608L29.6705 96.6805C29.6287 96.5435 29.5892 96.403 29.5521 96.2589C29.5149 96.1149 29.4766 95.9732 29.4371 95.8339H29.4232C29.3883 95.9756 29.3511 96.1184 29.3117 96.2624C29.2722 96.4041 29.2327 96.5435 29.1932 96.6805L28.7995 98.0498H28.3326ZM28.8274 97.353V96.9941H30.0433V97.353H28.8274ZM31.8384 98.0986C31.6758 98.0986 31.5248 98.0695 31.3855 98.0115C31.2461 97.9534 31.123 97.8675 31.0161 97.7537C30.9093 97.6398 30.8257 97.5005 30.7653 97.3356C30.7072 97.1706 30.6782 96.9825 30.6782 96.7711C30.6782 96.5597 30.7084 96.3716 30.7688 96.2067C30.8315 96.0418 30.9163 95.9012 31.0231 95.7851C31.1323 95.669 31.2577 95.5807 31.3994 95.5203C31.5434 95.4599 31.6967 95.4297 31.8593 95.4297C32.0219 95.4297 32.1659 95.4634 32.2914 95.5308C32.4168 95.5958 32.5201 95.6713 32.6014 95.7572L32.3576 96.0499C32.2902 95.9849 32.217 95.9314 32.1381 95.8896C32.0591 95.8478 31.9685 95.8269 31.8663 95.8269C31.7292 95.8269 31.6061 95.8652 31.497 95.9419C31.3878 96.0162 31.303 96.1231 31.2426 96.2624C31.1822 96.3995 31.152 96.5644 31.152 96.7572C31.152 96.9523 31.1811 97.1207 31.2391 97.2624C31.2972 97.4017 31.3785 97.5098 31.483 97.5864C31.5899 97.6607 31.7141 97.6979 31.8558 97.6979C31.9696 97.6979 32.0719 97.6735 32.1624 97.6247C32.253 97.576 32.3343 97.5121 32.4063 97.4331L32.6502 97.7223C32.5457 97.8454 32.4261 97.9395 32.2914 98.0045C32.1566 98.0672 32.0057 98.0986 31.8384 98.0986ZM33.0835 98.0498V95.475H34.634V95.8617H33.5434V96.5168H34.4668V96.9035H33.5434V97.6631H34.6723V98.0498H33.0835Z" fill="#343434"/>
<path d="M24.4174 63.999V61.4242H25.2292C25.422 61.4242 25.5927 61.4498 25.7413 61.5009C25.89 61.5497 26.0073 61.6321 26.0932 61.7483C26.1815 61.8644 26.2256 62.0212 26.2256 62.2186C26.2256 62.4091 26.1827 62.567 26.0967 62.6925C26.0108 62.8156 25.8935 62.9073 25.7448 62.9677C25.5962 63.0258 25.4289 63.0548 25.2431 63.0548H24.8773V63.999H24.4174ZM24.8773 62.689H25.2083C25.3987 62.689 25.5404 62.6507 25.6333 62.574C25.7262 62.495 25.7727 62.3766 25.7727 62.2186C25.7727 62.0607 25.7239 61.9503 25.6264 61.8876C25.5288 61.8249 25.3836 61.7935 25.1908 61.7935H24.8773V62.689ZM27.7106 64.0478C27.4876 64.0478 27.2902 63.9932 27.1183 63.884C26.9487 63.7749 26.8152 63.6204 26.7176 63.4207C26.6224 63.2186 26.5748 62.9793 26.5748 62.7029C26.5748 62.4242 26.6224 62.1861 26.7176 61.9887C26.8152 61.7912 26.9487 61.6402 27.1183 61.5357C27.2902 61.4312 27.4876 61.3789 27.7106 61.3789C27.9359 61.3789 28.1333 61.4324 28.3029 61.5392C28.4725 61.6437 28.6049 61.7947 28.7001 61.9921C28.7977 62.1873 28.8464 62.4242 28.8464 62.7029C28.8464 62.9793 28.7977 63.2186 28.7001 63.4207C28.6049 63.6204 28.4725 63.7749 28.3029 63.884C28.1333 63.9932 27.9359 64.0478 27.7106 64.0478ZM27.7106 63.6471C27.8453 63.6471 27.9626 63.6088 28.0625 63.5321C28.1624 63.4532 28.239 63.3428 28.2925 63.2011C28.3482 63.0595 28.3761 62.8934 28.3761 62.7029C28.3761 62.5101 28.3482 62.3452 28.2925 62.2082C28.239 62.0688 28.1624 61.9619 28.0625 61.8876C27.9626 61.8133 27.8453 61.7761 27.7106 61.7761C27.5759 61.7761 27.4586 61.8133 27.3587 61.8876C27.2588 61.9619 27.1822 62.0688 27.1287 62.2082C27.0753 62.3452 27.0486 62.5101 27.0486 62.7029C27.0486 62.8934 27.0753 63.0595 27.1287 63.2011C27.1822 63.3428 27.2588 63.4532 27.3587 63.5321C27.4586 63.6088 27.5759 63.6471 27.7106 63.6471ZM29.3646 63.999V61.4242H30.1764C30.3692 61.4242 30.5399 61.4498 30.6886 61.5009C30.8372 61.5497 30.9545 61.6321 31.0405 61.7483C31.1287 61.8644 31.1729 62.0212 31.1729 62.2186C31.1729 62.4091 31.1299 62.567 31.044 62.6925C30.958 62.8156 30.8407 62.9073 30.6921 62.9677C30.5434 63.0258 30.3762 63.0548 30.1903 63.0548H29.8245V63.999H29.3646ZM29.8245 62.689H30.1555C30.346 62.689 30.4877 62.6507 30.5806 62.574C30.6735 62.495 30.7199 62.3766 30.7199 62.2186C30.7199 62.0607 30.6712 61.9503 30.5736 61.8876C30.476 61.8249 30.3309 61.7935 30.1381 61.7935H29.8245V62.689ZM32.623 64.0478C32.4743 64.0478 32.3396 64.0257 32.2188 63.9816C32.0981 63.9375 31.9947 63.8689 31.9087 63.776C31.8251 63.6831 31.7601 63.5612 31.7136 63.4102C31.6695 63.2592 31.6474 63.0792 31.6474 62.8702V61.4242H32.1039V62.905C32.1039 63.0885 32.1259 63.2348 32.1701 63.344C32.2142 63.4532 32.2746 63.531 32.3512 63.5774C32.4302 63.6239 32.5208 63.6471 32.623 63.6471C32.7299 63.6471 32.8228 63.6239 32.9017 63.5774C32.9807 63.531 33.0423 63.4532 33.0864 63.344C33.1329 63.2348 33.1561 63.0885 33.1561 62.905V61.4242H33.5986V62.8702C33.5986 63.0792 33.5753 63.2592 33.5289 63.4102C33.4848 63.5612 33.4197 63.6831 33.3338 63.776C33.2502 63.8689 33.148 63.9375 33.0272 63.9816C32.9087 64.0257 32.774 64.0478 32.623 64.0478ZM34.237 63.999V61.4242H35.0488C35.2416 61.4242 35.4123 61.4498 35.561 61.5009C35.7096 61.5497 35.8269 61.6321 35.9129 61.7483C36.0011 61.8644 36.0453 62.0212 36.0453 62.2186C36.0453 62.4091 36.0023 62.567 35.9164 62.6925C35.8304 62.8156 35.7131 62.9073 35.5645 62.9677C35.4158 63.0258 35.2486 63.0548 35.0627 63.0548H34.6969V63.999H34.237ZM34.6969 62.689H35.0279C35.2184 62.689 35.3601 62.6507 35.453 62.574C35.5459 62.495 35.5923 62.3766 35.5923 62.2186C35.5923 62.0607 35.5436 61.9503 35.446 61.8876C35.3484 61.8249 35.2033 61.7935 35.0105 61.7935H34.6969V62.689ZM37.3163 63.999V61.4242H37.7866L38.5845 62.8667L38.8528 63.4172H38.8702C38.8563 63.2848 38.8423 63.1419 38.8284 62.9886C38.8144 62.833 38.8075 62.6832 38.8075 62.5392V61.4242H39.243V63.999H38.7726L37.9782 62.5531L37.71 62.0096H37.696C37.7053 62.1443 37.7169 62.2871 37.7309 62.4381C37.7448 62.5868 37.7518 62.7331 37.7518 62.8771V63.999H37.3163ZM39.5677 63.999L40.4074 61.4242H40.9439L41.7801 63.999H41.2958L40.9056 62.6297C40.8638 62.4927 40.8243 62.3522 40.7871 62.2082C40.75 62.0641 40.7117 61.9225 40.6722 61.7831H40.6582C40.6234 61.9248 40.5862 62.0676 40.5467 62.2116C40.5072 62.3533 40.4678 62.4927 40.4283 62.6297L40.0346 63.999H39.5677ZM40.0624 63.3022V62.9433H41.2784V63.3022H40.0624ZM42.1036 63.999V61.4242H42.6227L43.0757 62.682C43.1035 62.761 43.1314 62.8434 43.1593 62.9294C43.1872 63.0153 43.2139 63.1001 43.2394 63.1837H43.2568C43.2847 63.1001 43.3114 63.0153 43.337 62.9294C43.3649 62.8434 43.3916 62.761 43.4171 62.682L43.8631 61.4242H44.3822V63.999H43.9606V62.8283C43.9606 62.747 43.9641 62.6588 43.9711 62.5635C43.9781 62.466 43.9862 62.3684 43.9955 62.2709C44.0048 62.1733 44.0129 62.0851 44.0199 62.0061H44.0059L43.7969 62.6054L43.3753 63.7586H43.1001L42.6785 62.6054L42.4729 62.0061H42.459C42.4683 62.0851 42.4764 62.1733 42.4834 62.2709C42.4926 62.3684 42.5008 62.466 42.5077 62.5635C42.5147 62.6588 42.5182 62.747 42.5182 62.8283V63.999H42.1036ZM45.0365 63.999V61.4242H46.587V61.811H45.4965V62.466H46.4198V62.8527H45.4965V63.6123H46.6253V63.999H45.0365Z" fill="#343434"/>
<path d="M24.4657 121.104L25.3054 118.529H25.8419L26.6781 121.104H26.1938L25.8036 119.734C25.7618 119.597 25.7223 119.457 25.6851 119.313C25.648 119.169 25.6097 119.027 25.5702 118.888H25.5562C25.5214 119.029 25.4842 119.172 25.4447 119.316C25.4053 119.458 25.3658 119.597 25.3263 119.734L24.9326 121.104H24.4657ZM24.9604 120.407V120.048H26.1764V120.407H24.9604ZM27.0016 121.104V118.529H27.688C27.9528 118.529 28.1781 118.576 28.3639 118.672C28.552 118.767 28.6949 118.908 28.7925 119.097C28.8923 119.285 28.9423 119.522 28.9423 119.807C28.9423 120.091 28.8923 120.329 28.7925 120.522C28.6949 120.714 28.5544 120.86 28.3709 120.957C28.1874 121.055 27.9679 121.104 27.7124 121.104H27.0016ZM27.4615 120.731H27.6566C27.8285 120.731 27.9748 120.698 28.0956 120.633C28.2187 120.566 28.3116 120.464 28.3744 120.327C28.4394 120.19 28.4719 120.016 28.4719 119.807C28.4719 119.594 28.4394 119.421 28.3744 119.288C28.3116 119.156 28.2187 119.058 28.0956 118.996C27.9748 118.933 27.8285 118.902 27.6566 118.902H27.4615V120.731ZM29.465 121.104V118.529H29.9841L30.4371 119.787C30.465 119.865 30.4928 119.948 30.5207 120.034C30.5486 120.12 30.5753 120.205 30.6008 120.288H30.6183C30.6461 120.205 30.6728 120.12 30.6984 120.034C30.7263 119.948 30.753 119.865 30.7785 119.787L31.2245 118.529H31.7436V121.104H31.3221V119.933C31.3221 119.852 31.3255 119.763 31.3325 119.668C31.3395 119.57 31.3476 119.473 31.3569 119.375C31.3662 119.278 31.3743 119.19 31.3813 119.111H31.3674L31.1583 119.71L30.7367 120.863H30.4615L30.0399 119.71L29.8343 119.111H29.8204C29.8297 119.19 29.8378 119.278 29.8448 119.375C29.8541 119.473 29.8622 119.57 29.8692 119.668C29.8761 119.763 29.8796 119.852 29.8796 119.933V121.104H29.465ZM32.398 121.104V118.529H32.8579V121.104H32.398ZM34.2632 121.152C34.0866 121.152 33.9182 121.12 33.758 121.055C33.5977 120.987 33.4572 120.894 33.3364 120.776L33.6012 120.459C33.6941 120.547 33.7986 120.618 33.9147 120.671C34.0332 120.725 34.1517 120.752 34.2701 120.752C34.4165 120.752 34.5268 120.721 34.6011 120.661C34.6778 120.601 34.7161 120.522 34.7161 120.424C34.7161 120.352 34.6987 120.294 34.6638 120.25C34.629 120.206 34.5814 120.169 34.521 120.138C34.4629 120.106 34.3956 120.073 34.3189 120.041L33.967 119.891C33.8834 119.856 33.8009 119.81 33.7196 119.752C33.6407 119.694 33.5745 119.62 33.521 119.532C33.4699 119.442 33.4444 119.335 33.4444 119.212C33.4444 119.072 33.4816 118.948 33.5559 118.839C33.6302 118.73 33.7324 118.644 33.8625 118.581C33.9949 118.516 34.1447 118.483 34.3119 118.483C34.4629 118.483 34.6081 118.512 34.7475 118.571C34.8868 118.629 35.0065 118.709 35.1063 118.811L34.8694 119.104C34.7881 119.034 34.7022 118.979 34.6116 118.94C34.5233 118.9 34.4234 118.881 34.3119 118.881C34.1912 118.881 34.0948 118.907 34.0228 118.961C33.9508 119.014 33.9147 119.087 33.9147 119.18C33.9147 119.248 33.9333 119.303 33.9705 119.347C34.01 119.392 34.0599 119.429 34.1203 119.459C34.183 119.487 34.2504 119.516 34.3224 119.546L34.6673 119.689C34.7695 119.731 34.859 119.783 34.9356 119.846C35.0146 119.906 35.0761 119.98 35.1203 120.069C35.1644 120.155 35.1865 120.26 35.1865 120.386C35.1865 120.525 35.1493 120.653 35.075 120.769C35.003 120.885 34.8973 120.978 34.7579 121.048C34.6209 121.117 34.456 121.152 34.2632 121.152ZM36.3285 121.152C36.152 121.152 35.9836 121.12 35.8233 121.055C35.663 120.987 35.5225 120.894 35.4017 120.776L35.6665 120.459C35.7594 120.547 35.8639 120.618 35.9801 120.671C36.0985 120.725 36.217 120.752 36.3355 120.752C36.4818 120.752 36.5921 120.721 36.6664 120.661C36.7431 120.601 36.7814 120.522 36.7814 120.424C36.7814 120.352 36.764 120.294 36.7292 120.25C36.6943 120.206 36.6467 120.169 36.5863 120.138C36.5282 120.106 36.4609 120.073 36.3842 120.041L36.0323 119.891C35.9487 119.856 35.8663 119.81 35.785 119.752C35.706 119.694 35.6398 119.62 35.5864 119.532C35.5353 119.442 35.5097 119.335 35.5097 119.212C35.5097 119.072 35.5469 118.948 35.6212 118.839C35.6955 118.73 35.7977 118.644 35.9278 118.581C36.0602 118.516 36.21 118.483 36.3773 118.483C36.5282 118.483 36.6734 118.512 36.8128 118.571C36.9522 118.629 37.0718 118.709 37.1717 118.811L36.9347 119.104C36.8534 119.034 36.7675 118.979 36.6769 118.94C36.5886 118.9 36.4888 118.881 36.3773 118.881C36.2565 118.881 36.1601 118.907 36.0881 118.961C36.0161 119.014 35.9801 119.087 35.9801 119.18C35.9801 119.248 35.9987 119.303 36.0358 119.347C36.0753 119.392 36.1252 119.429 36.1856 119.459C36.2483 119.487 36.3157 119.516 36.3877 119.546L36.7326 119.689C36.8349 119.731 36.9243 119.783 37.0009 119.846C37.0799 119.906 37.1415 119.98 37.1856 120.069C37.2297 120.155 37.2518 120.26 37.2518 120.386C37.2518 120.525 37.2146 120.653 37.1403 120.769C37.0683 120.885 36.9626 120.978 36.8232 121.048C36.6862 121.117 36.5213 121.152 36.3285 121.152ZM37.7229 121.104V118.529H38.1828V121.104H37.7229ZM39.8355 121.152C39.6125 121.152 39.415 121.098 39.2432 120.989C39.0736 120.879 38.94 120.725 38.8425 120.525C38.7472 120.323 38.6996 120.084 38.6996 119.807C38.6996 119.529 38.7472 119.291 38.8425 119.093C38.94 118.896 39.0736 118.745 39.2432 118.64C39.415 118.536 39.6125 118.483 39.8355 118.483C40.0608 118.483 40.2582 118.537 40.4278 118.644C40.5973 118.748 40.7297 118.899 40.825 119.097C40.9225 119.292 40.9713 119.529 40.9713 119.807C40.9713 120.084 40.9225 120.323 40.825 120.525C40.7297 120.725 40.5973 120.879 40.4278 120.989C40.2582 121.098 40.0608 121.152 39.8355 121.152ZM39.8355 120.752C39.9702 120.752 40.0875 120.713 40.1874 120.637C40.2872 120.558 40.3639 120.447 40.4173 120.306C40.4731 120.164 40.5009 119.998 40.5009 119.807C40.5009 119.615 40.4731 119.45 40.4173 119.313C40.3639 119.173 40.2872 119.066 40.1874 118.992C40.0875 118.918 39.9702 118.881 39.8355 118.881C39.7007 118.881 39.5834 118.918 39.4836 118.992C39.3837 119.066 39.307 119.173 39.2536 119.313C39.2002 119.45 39.1735 119.615 39.1735 119.807C39.1735 119.998 39.2002 120.164 39.2536 120.306C39.307 120.447 39.3837 120.558 39.4836 120.637C39.5834 120.713 39.7007 120.752 39.8355 120.752ZM41.4895 121.104V118.529H41.9598L42.7577 119.971L43.026 120.522H43.0434C43.0295 120.389 43.0155 120.246 43.0016 120.093C42.9877 119.937 42.9807 119.788 42.9807 119.644V118.529H43.4162V121.104H42.9458L42.1515 119.658L41.8832 119.114H41.8692C41.8785 119.249 41.8901 119.392 41.9041 119.543C41.918 119.691 41.925 119.838 41.925 119.982V121.104H41.4895Z" fill="#343434"/>
</svg>
