<svg width="128" height="189" viewBox="0 0 128 189" fill="none" xmlns="http://www.w3.org/2000/svg">
<rect x="0.942396" y="0.78224" width="126.737" height="187.709" rx="6.75057" fill="#343434" stroke="#2A2A2A" stroke-width="0.435521"/>
<rect x="8.56641" y="8.4043" width="111.845" height="172.377" rx="6.53281" fill="white"/>
<path d="M76.1864 46.73C76.2406 46.5704 76.4662 46.5704 76.5204 46.73L77.4632 49.5075C77.536 49.7221 77.7375 49.8665 77.9641 49.8665L80.9812 49.8665C81.1539 49.8665 81.2237 50.089 81.0819 50.1876L78.6679 51.8664C78.4744 52.001 78.3933 52.2474 78.469 52.4707L79.3973 55.2053C79.452 55.3664 79.2693 55.5039 79.1296 55.4067L76.6554 53.6861C76.4739 53.5598 76.2329 53.5598 76.0513 53.6861L73.5772 55.4067C73.4375 55.5039 73.2548 55.3664 73.3095 55.2053L74.2377 52.4707C74.3135 52.2474 74.2324 52.001 74.0388 51.8664L71.6249 50.1876C71.4831 50.089 71.5529 49.8665 71.7256 49.8665L74.7426 49.8665C74.9693 49.8665 75.1707 49.7221 75.2436 49.5075L76.1864 46.73Z" stroke="#343434" stroke-width="0.352681"/>
<path d="M87.901 46.7511C87.9545 46.5902 88.1821 46.5902 88.2357 46.7511L89.1516 49.5044C89.2235 49.7206 89.4257 49.8665 89.6536 49.8665L92.5996 49.8665C92.7714 49.8665 92.8417 50.0872 92.7016 50.1866L90.3326 51.8677C90.1429 52.0024 90.0634 52.2453 90.1368 52.4661L91.045 55.1963C91.0988 55.3581 90.9147 55.4944 90.7757 55.3958L88.3745 53.6918C88.1911 53.5617 87.9456 53.5617 87.7622 53.6918L85.361 55.3958C85.222 55.4944 85.0378 55.3581 85.0917 55.1963L85.9999 52.4661C86.0733 52.2453 85.9938 52.0024 85.8041 51.8677L83.4351 50.1866C83.295 50.0872 83.3653 49.8665 83.5371 49.8665L86.4831 49.8665C86.711 49.8665 86.9132 49.7206 86.9851 49.5044L87.901 46.7511Z" stroke="#343434" stroke-width="0.352681"/>
<path d="M76.1864 46.73C76.2406 46.5704 76.4662 46.5704 76.5204 46.73L77.4632 49.5075C77.536 49.7221 77.7375 49.8665 77.9641 49.8665L80.9812 49.8665C81.1539 49.8665 81.2237 50.089 81.0819 50.1876L78.6679 51.8664C78.4744 52.001 78.3933 52.2474 78.469 52.4707L79.3973 55.2053C79.452 55.3664 79.2693 55.5039 79.1296 55.4067L76.6554 53.6861C76.4739 53.5598 76.2329 53.5598 76.0513 53.6861L73.5772 55.4067C73.4375 55.5039 73.2548 55.3664 73.3095 55.2053L74.2377 52.4707C74.3135 52.2474 74.2324 52.001 74.0388 51.8664L71.6249 50.1876C71.4831 50.089 71.5529 49.8665 71.7256 49.8665L74.7426 49.8665C74.9693 49.8665 75.1707 49.7221 75.2436 49.5075L76.1864 46.73Z" stroke="#343434" stroke-width="0.352681"/>
<path d="M64.0966 46.73C64.1507 46.5704 64.3764 46.5704 64.4305 46.73L65.3733 49.5075C65.4462 49.7221 65.6476 49.8665 65.8743 49.8665L68.8914 49.8665C69.064 49.8665 69.1338 50.089 68.992 50.1876L66.5781 51.8664C66.3845 52.001 66.3034 52.2474 66.3792 52.4707L67.3074 55.2053C67.3621 55.3664 67.1795 55.5039 67.0398 55.4067L64.5656 53.6861C64.384 53.5598 64.1431 53.5598 63.9615 53.6861L61.4873 55.4067C61.3476 55.5039 61.165 55.3664 61.2196 55.2053L62.1479 52.4707C62.2237 52.2474 62.1426 52.001 61.949 51.8664L59.535 50.1876C59.3933 50.089 59.463 49.8665 59.6357 49.8665L62.6528 49.8665C62.8794 49.8665 63.0809 49.7221 63.1537 49.5075L64.0966 46.73Z" stroke="#343434" stroke-width="0.352681"/>
<path d="M51.9012 46.73C51.9554 46.5704 52.1811 46.5704 52.2352 46.73L53.178 49.5075C53.2509 49.7221 53.4523 49.8665 53.679 49.8665L56.696 49.8665C56.8687 49.8665 56.9385 50.089 56.7967 50.1876L54.3828 51.8664C54.1892 52.001 54.1081 52.2474 54.1839 52.4707L55.1121 55.2053C55.1668 55.3664 54.9841 55.5039 54.8445 55.4067L52.3703 53.6861C52.1887 53.5598 51.9478 53.5598 51.7662 53.6861L49.292 55.4067C49.1523 55.5039 48.9696 55.3664 49.0243 55.2053L49.9526 52.4707C50.0284 52.2474 49.9472 52.001 49.7537 51.8664L47.3397 50.1876C47.198 50.089 47.2677 49.8665 47.4404 49.8665L50.4575 49.8665C50.6841 49.8665 50.8856 49.7221 50.9584 49.5075L51.9012 46.73Z" stroke="#343434" stroke-width="0.352681"/>
<path d="M39.7059 46.73C39.7601 46.5704 39.9857 46.5704 40.0399 46.73L40.9827 49.5075C41.0556 49.7221 41.257 49.8665 41.4837 49.8665L44.5007 49.8665C44.6734 49.8665 44.7432 50.089 44.6014 50.1876L42.1875 51.8664C41.9939 52.001 41.9128 52.2474 41.9886 52.4707L42.9168 55.2053C42.9715 55.3664 42.7888 55.5039 42.6491 55.4067L40.175 53.6861C39.9934 53.5598 39.7524 53.5598 39.5709 53.6861L37.0967 55.4067C36.957 55.5039 36.7743 55.3664 36.829 55.2053L37.7573 52.4707C37.833 52.2474 37.7519 52.001 37.5584 51.8664L35.1444 50.1876C35.0026 50.089 35.0724 49.8665 35.2451 49.8665L38.2622 49.8665C38.4888 49.8665 38.6903 49.7221 38.7631 49.5075L39.7059 46.73Z" stroke="#343434" stroke-width="0.352681"/>
<path d="M87.901 46.7511C87.9545 46.5902 88.1821 46.5902 88.2357 46.7511L89.1516 49.5044C89.2235 49.7206 89.4257 49.8665 89.6536 49.8665L92.5996 49.8665C92.7714 49.8665 92.8417 50.0872 92.7016 50.1866L90.3326 51.8677C90.1429 52.0024 90.0634 52.2453 90.1368 52.4661L91.045 55.1963C91.0988 55.3581 90.9147 55.4944 90.7757 55.3958L88.3745 53.6918C88.1911 53.5617 87.9456 53.5617 87.7622 53.6918L85.361 55.3958C85.222 55.4944 85.0378 55.3581 85.0917 55.1963L85.9999 52.4661C86.0733 52.2453 85.9938 52.0024 85.8041 51.8677L83.4351 50.1866C83.295 50.0872 83.3653 49.8665 83.5371 49.8665L86.4831 49.8665C86.711 49.8665 86.9132 49.7206 86.9851 49.5044L87.901 46.7511Z" stroke="#343434" stroke-width="0.352681"/>
<line x1="15.6172" y1="86.3022" x2="113.006" y2="86.3022" stroke="#343434" stroke-width="0.352681"/>
<line x1="15.6172" y1="103.329" x2="113.006" y2="103.329" stroke="#343434" stroke-width="0.352681"/>
<line x1="15.6172" y1="120.352" x2="113.006" y2="120.352" stroke="#343434" stroke-width="0.352681"/>
<line x1="15.6172" y1="137.377" x2="113.006" y2="137.377" stroke="#343434" stroke-width="0.352681"/>
<line x1="15.6172" y1="154.404" x2="113.006" y2="154.404" stroke="#343434" stroke-width="0.352681"/>
<path d="M52.1164 168.311C52.064 167.811 52.0378 167.297 52.0378 166.77C52.0378 166.242 52.064 165.728 52.1164 165.228C52.1269 165.13 52.1479 165.039 52.1793 164.955C52.2108 164.871 52.2545 164.798 52.3104 164.735C52.3699 164.672 52.4398 164.623 52.5202 164.588C52.6041 164.55 52.702 164.53 52.8139 164.53C52.9222 164.53 53.0166 164.55 53.097 164.588C53.181 164.623 53.2509 164.672 53.3068 164.735C53.3662 164.798 53.4117 164.871 53.4432 164.955C53.4746 165.039 53.4956 165.13 53.5061 165.228C53.5585 165.728 53.5847 166.242 53.5847 166.77C53.5847 167.297 53.5585 167.811 53.5061 168.311C53.4956 168.409 53.4746 168.5 53.4432 168.584C53.4117 168.671 53.3662 168.747 53.3068 168.809C53.2509 168.872 53.181 168.921 53.097 168.956C53.0166 168.995 52.9222 169.014 52.8139 169.014C52.702 169.014 52.6041 168.995 52.5202 168.956C52.4398 168.921 52.3699 168.872 52.3104 168.809C52.2545 168.747 52.2108 168.671 52.1793 168.584C52.1479 168.5 52.1269 168.409 52.1164 168.311ZM54.225 165.527C54.2739 165.555 54.3281 165.576 54.3876 165.59C54.4505 165.6 54.5117 165.605 54.5711 165.605C54.6096 165.605 54.6463 165.602 54.6812 165.595C54.7197 165.588 54.7547 165.579 54.7861 165.569C54.8001 165.562 54.8071 165.551 54.8071 165.537C54.8106 165.523 54.8088 165.511 54.8018 165.5C54.7984 165.486 54.7914 165.478 54.7809 165.474C54.7704 165.467 54.7581 165.467 54.7442 165.474C54.6603 165.499 54.5921 165.511 54.5396 165.511C54.4627 165.511 54.3928 165.495 54.3299 165.464C54.2705 165.432 54.218 165.39 54.1726 165.338C54.1306 165.285 54.0974 165.226 54.0729 165.16C54.0485 165.093 54.0362 165.025 54.0362 164.955C54.0362 164.882 54.0467 164.81 54.0677 164.74C54.0922 164.667 54.1306 164.602 54.1831 164.546C54.2355 164.49 54.3019 164.445 54.3823 164.41C54.4662 164.375 54.5641 164.357 54.676 164.357C54.7984 164.357 54.9032 164.38 54.9906 164.425C55.0815 164.471 55.1549 164.532 55.2109 164.609C55.2703 164.686 55.314 164.773 55.342 164.871C55.3699 164.966 55.3839 165.063 55.3839 165.165C55.3839 165.273 55.3665 165.382 55.3315 165.49C55.2965 165.595 55.2458 165.689 55.1794 165.773C55.1165 165.857 55.0378 165.925 54.9434 165.978C54.849 166.027 54.7389 166.051 54.6131 166.051C54.4907 166.051 54.3946 166.032 54.3246 165.993C54.2547 165.951 54.2058 165.904 54.1778 165.852C54.1533 165.796 54.1446 165.738 54.1516 165.679C54.1621 165.619 54.1865 165.569 54.225 165.527ZM63.994 169.051C63.578 169.051 63.2301 168.991 62.9504 168.872C62.6743 168.754 62.4523 168.591 62.2845 168.385C62.1201 168.175 62.003 167.932 61.9331 167.656C61.8632 167.376 61.8282 167.079 61.8282 166.764C61.8282 166.45 61.8632 166.154 61.9331 165.878C62.003 165.598 62.1201 165.355 62.2845 165.149C62.4523 164.943 62.6743 164.78 62.9504 164.661C63.2301 164.539 63.578 164.478 63.994 164.478C64.2352 164.478 64.452 164.497 64.6443 164.536C64.84 164.574 65.0114 164.633 65.1582 164.714C65.2631 164.766 65.3417 164.833 65.3942 164.913C65.4501 164.994 65.4851 165.081 65.499 165.175C65.5165 165.266 65.5148 165.361 65.4938 165.459C65.4728 165.553 65.4379 165.644 65.3889 165.731C65.34 165.822 65.2788 165.904 65.2054 165.978C65.132 166.051 65.0498 166.109 64.9589 166.151C64.8715 166.189 64.7771 166.21 64.6757 166.214C64.5778 166.214 64.4765 166.187 64.3716 166.135C64.3261 166.111 64.2719 166.091 64.209 166.077C64.1461 166.06 64.0744 166.051 63.994 166.051C63.8682 166.051 63.7615 166.07 63.6741 166.109C63.5867 166.147 63.5151 166.2 63.4591 166.266C63.4067 166.333 63.3665 166.408 63.3385 166.492C63.314 166.575 63.3018 166.665 63.3018 166.759C63.3018 166.853 63.314 166.944 63.3385 167.032C63.3665 167.119 63.4067 167.196 63.4591 167.262C63.5151 167.329 63.5867 167.381 63.6741 167.42C63.7615 167.458 63.8682 167.477 63.994 167.477C64.0744 167.477 64.1461 167.47 64.209 167.456C64.2719 167.439 64.3261 167.418 64.3716 167.394C64.4765 167.341 64.5796 167.317 64.681 167.32C64.7859 167.32 64.8837 167.343 64.9746 167.388C65.0655 167.434 65.1459 167.495 65.2159 167.572C65.2893 167.645 65.3505 167.729 65.3994 167.824C65.4449 167.911 65.4763 168.002 65.4938 168.096C65.5113 168.191 65.5113 168.283 65.4938 168.374C65.4798 168.462 65.4449 168.544 65.3889 168.621C65.333 168.701 65.2561 168.767 65.1582 168.82C65.0114 168.9 64.84 168.958 64.6443 168.993C64.452 169.031 64.2352 169.051 63.994 169.051ZM67.3345 167.54C67.3275 167.67 67.3187 167.799 67.3082 167.928C67.3012 168.054 67.2908 168.18 67.2768 168.306C67.2663 168.404 67.2453 168.495 67.2138 168.579C67.1824 168.666 67.1369 168.741 67.0775 168.804C67.0216 168.867 66.9516 168.916 66.8677 168.951C66.7873 168.989 66.6929 169.009 66.5846 169.009C66.4727 169.009 66.3748 168.989 66.2909 168.951C66.2105 168.916 66.1406 168.867 66.0811 168.804C66.0252 168.741 65.9815 168.666 65.95 168.579C65.9186 168.495 65.8976 168.404 65.8871 168.306C65.8521 167.991 65.8294 167.671 65.8189 167.346C65.8119 167.021 65.8102 166.694 65.8137 166.366C65.8172 165.988 65.8504 165.679 65.9133 165.438C65.9797 165.196 66.0846 165.006 66.228 164.866C66.3748 164.723 66.5653 164.623 66.7996 164.567C67.0338 164.511 67.324 164.481 67.6701 164.478C68.2155 164.471 68.6315 164.605 68.9182 164.882C69.2083 165.154 69.3499 165.563 69.3429 166.109C69.3429 166.476 69.28 166.768 69.1541 166.985C69.0283 167.201 68.8185 167.364 68.5249 167.472C68.4794 167.486 68.4619 167.511 68.4724 167.546C68.4864 167.581 68.5144 167.593 68.5563 167.582C68.6332 167.565 68.7101 167.537 68.7871 167.498C68.8675 167.456 68.9426 167.413 69.0125 167.367C69.1034 167.448 69.1926 167.546 69.28 167.661C69.3674 167.776 69.4408 167.916 69.5002 168.081C69.5597 168.255 69.5597 168.418 69.5002 168.568C69.4443 168.719 69.3167 168.839 69.1174 168.93C69.009 168.979 68.8972 169.005 68.7818 169.009C68.6699 169.012 68.5598 168.995 68.4514 168.956C68.3431 168.921 68.2434 168.867 68.1525 168.794C68.0616 168.724 67.9865 168.638 67.927 168.537C67.8466 168.404 67.7819 168.254 67.733 168.086C67.6841 167.914 67.6508 167.736 67.6334 167.551C67.5844 167.551 67.5337 167.551 67.4813 167.551C67.4323 167.547 67.3834 167.544 67.3345 167.54ZM67.9795 166.261C67.8571 166.215 67.7452 166.165 67.6439 166.109C67.546 166.049 67.4481 165.969 67.3502 165.868C67.3327 165.854 67.3135 165.85 67.2925 165.857C67.275 165.861 67.2575 165.871 67.2401 165.889C67.2261 165.902 67.2173 165.922 67.2138 165.946C67.2103 165.971 67.2173 165.995 67.2348 166.02C67.3117 166.121 67.4096 166.205 67.5285 166.271C67.6508 166.334 67.7732 166.388 67.8956 166.434C67.9235 166.444 67.9463 166.443 67.9637 166.429C67.9847 166.415 67.9987 166.397 68.0057 166.376C68.0127 166.355 68.0144 166.334 68.0109 166.313C68.0074 166.289 67.997 166.271 67.9795 166.261ZM71.3844 168.117C71.3879 168.222 71.3809 168.327 71.3634 168.432C71.3459 168.537 71.3092 168.633 71.2533 168.72C71.1974 168.808 71.1205 168.878 71.0226 168.93C70.9247 168.986 70.8006 169.014 70.6502 169.014C70.4475 169.014 70.2797 168.955 70.1468 168.836C70.014 168.717 69.9405 168.556 69.9266 168.353C69.9056 167.839 69.8951 167.311 69.8951 166.77C69.8951 166.455 69.9213 166.163 69.9738 165.894C70.0262 165.621 70.1188 165.383 70.2517 165.181C70.3845 164.978 70.5628 164.819 70.7866 164.703C71.0138 164.588 71.2987 164.53 71.6414 164.53C71.9875 164.53 72.2724 164.588 72.4961 164.703C72.7234 164.819 72.9034 164.978 73.0363 165.181C73.1691 165.383 73.2618 165.621 73.3142 165.894C73.3701 166.163 73.3981 166.455 73.3981 166.77C73.3981 167.039 73.3946 167.306 73.3876 167.572C73.3841 167.834 73.3754 168.095 73.3614 168.353C73.3509 168.556 73.2775 168.717 73.1412 168.836C73.0083 168.955 72.8387 169.014 72.6325 169.014C72.4822 169.014 72.358 168.986 72.2602 168.93C72.1658 168.878 72.0906 168.808 72.0347 168.72C71.9787 168.633 71.9403 168.537 71.9193 168.432C71.8983 168.323 71.8913 168.219 71.8983 168.117C71.8424 168.131 71.7952 168.142 71.7567 168.149C71.7183 168.156 71.6798 168.159 71.6414 168.159C71.6064 168.159 71.5679 168.156 71.526 168.149C71.4875 168.142 71.4403 168.131 71.3844 168.117ZM72.0923 166.686C71.9875 166.605 71.8686 166.553 71.7358 166.528C71.6064 166.504 71.4753 166.488 71.3425 166.481C71.311 166.481 71.2883 166.49 71.2743 166.507C71.2603 166.525 71.2516 166.546 71.2481 166.57C71.2446 166.595 71.2481 166.617 71.2585 166.638C71.2725 166.656 71.29 166.666 71.311 166.67C71.4403 166.677 71.561 166.694 71.6728 166.722C71.7882 166.75 71.9071 166.797 72.0294 166.864C72.0469 166.874 72.0644 166.874 72.0819 166.864C72.0993 166.85 72.1133 166.832 72.1238 166.811C72.1343 166.79 72.1378 166.768 72.1343 166.743C72.1308 166.719 72.1168 166.7 72.0923 166.686ZM75.3234 167.53C75.3164 167.659 75.3077 167.789 75.2972 167.918C75.2867 168.047 75.2762 168.177 75.2657 168.306C75.2552 168.404 75.2343 168.495 75.2028 168.579C75.1713 168.666 75.1259 168.741 75.0664 168.804C75.0105 168.867 74.9406 168.916 74.8567 168.951C74.7763 168.989 74.6819 169.009 74.5735 169.009C74.4616 169.009 74.3637 168.989 74.2798 168.951C74.1994 168.916 74.1295 168.867 74.0701 168.804C74.0141 168.741 73.9704 168.666 73.939 168.579C73.9075 168.495 73.8865 168.404 73.8761 168.306C73.8236 167.806 73.7974 167.297 73.7974 166.78C73.8009 166.263 73.8271 165.754 73.8761 165.254C73.89 165.128 73.9198 165.022 73.9652 164.934C74.0106 164.847 74.0683 164.775 74.1383 164.719C74.2082 164.663 74.2868 164.621 74.3742 164.593C74.4651 164.562 74.5613 164.539 74.6627 164.525C74.785 164.511 74.9091 164.501 75.035 164.494C75.1643 164.483 75.2902 164.478 75.4126 164.478C75.6573 164.474 75.8985 164.488 76.1362 164.52C76.3775 164.551 76.5925 164.619 76.7812 164.724C76.9735 164.829 77.1273 164.983 77.2427 165.186C77.3616 165.389 77.421 165.66 77.421 165.999C77.421 166.236 77.393 166.439 77.3371 166.607C77.2847 166.775 77.2095 166.916 77.1116 167.032C77.0172 167.144 76.9036 167.234 76.7708 167.304C76.6414 167.371 76.4981 167.422 76.3407 167.456C76.1869 167.491 76.0226 167.514 75.8478 167.525C75.6765 167.532 75.5017 167.533 75.3234 167.53ZM75.3234 166.109C75.5402 166.221 75.7726 166.264 76.0209 166.24C76.0523 166.236 76.0733 166.224 76.0838 166.203C76.0978 166.182 76.1048 166.161 76.1048 166.14C76.1048 166.116 76.0978 166.095 76.0838 166.077C76.0733 166.06 76.0576 166.051 76.0366 166.051C75.9072 166.058 75.7919 166.051 75.6905 166.03C75.5891 166.009 75.4825 165.974 75.3706 165.925C75.3496 165.915 75.3304 165.916 75.3129 165.93C75.2954 165.941 75.2815 165.957 75.271 165.978C75.264 165.999 75.264 166.023 75.271 166.051C75.278 166.076 75.2954 166.095 75.3234 166.109Z" fill="#343434"/>
<circle cx="59.1074" cy="162.493" r="0.349602" fill="#343434"/>
<path fill-rule="evenodd" clip-rule="evenodd" d="M57.5323 168.96C58.359 169.369 59.5141 169.45 60.4692 169.109C60.593 169.064 60.7088 169.015 60.8165 168.96L60.8742 168.96C60.8812 168.96 60.8867 168.966 60.8863 168.973C60.8725 169.189 60.8331 169.514 60.7599 169.786C60.7233 169.923 60.678 170.047 60.6227 170.137C60.6016 170.172 60.5767 170.207 60.5514 170.243C60.532 170.27 60.5125 170.297 60.4941 170.325L60.4915 170.327C60.3947 170.382 60.2732 170.427 60.1391 170.462C59.871 170.533 59.5655 170.561 59.3381 170.561C59.2899 170.561 59.2507 170.6 59.2507 170.649C59.2507 170.697 59.2899 170.736 59.3381 170.736C59.5771 170.736 59.898 170.706 60.1836 170.631C60.2583 170.611 60.3315 170.589 60.4006 170.562L60.2095 172.287C60.1768 172.582 59.9273 172.805 59.6304 172.805H58.7051C58.4082 172.805 58.1587 172.582 58.126 172.287L57.9326 170.541C57.9208 170.435 57.851 170.337 57.7841 170.243L57.7841 170.243C57.7588 170.207 57.7339 170.172 57.7128 170.137C57.6575 170.047 57.6123 169.923 57.5756 169.786C57.5024 169.514 57.463 169.189 57.4492 168.973C57.4488 168.966 57.4543 168.96 57.4613 168.96L57.5323 168.96Z" fill="#343434"/>
<path fill-rule="evenodd" clip-rule="evenodd" d="M59.2998 163.194C59.5965 163.23 59.8148 163.314 59.9843 163.42C60.6075 163.753 60.9368 164.142 61.0826 164.368C61.1749 164.511 61.2684 164.736 61.3381 164.956C61.3386 164.964 61.3399 164.972 61.3421 164.98C61.4252 165.285 61.4137 165.472 61.3977 165.572C61.3729 165.727 61.3167 165.835 61.2476 165.909C61.178 165.985 61.0895 166.033 60.991 166.061C60.8078 166.113 60.6002 166.092 60.4565 166.048C60.0587 165.867 59.5233 165.709 58.917 165.753C58.8529 165.758 58.8046 165.814 58.8093 165.878C58.814 165.942 58.8698 165.99 58.934 165.985C59.465 165.947 59.9398 166.078 60.3038 166.235C60.3134 166.243 60.3245 166.249 60.3367 166.254C60.3484 166.258 60.3604 166.262 60.3729 166.266C60.6444 166.391 60.8468 166.526 60.9546 166.604C60.9582 166.607 60.9618 166.609 60.9655 166.611C61.0325 166.667 61.0943 166.728 61.15 166.791C61.7894 167.52 61.3941 168.425 60.2671 168.813C59.1401 169.201 57.7082 168.924 57.0689 168.195C56.7946 167.883 56.7107 167.537 56.7934 167.215C56.8016 167.194 56.8128 167.17 56.8272 167.143C56.861 167.08 56.9093 167.011 56.9728 166.952C57.0357 166.894 57.1121 166.848 57.2038 166.828C57.295 166.808 57.4091 166.812 57.551 166.865C57.5576 166.868 57.5643 166.87 57.571 166.871C57.6658 166.921 57.7669 166.969 57.876 167.013C58.2425 167.163 58.6997 167.272 59.3159 167.272C59.3802 167.272 59.4324 167.22 59.4324 167.155C59.4324 167.104 59.3996 167.061 59.3539 167.045C59.3389 167.038 59.322 167.034 59.3043 167.034C58.3321 167.034 57.7892 166.751 57.3481 166.471C57.2433 166.393 57.149 166.308 57.0676 166.215C56.4283 165.486 56.8236 164.581 57.9506 164.193C58.0422 164.162 58.1359 164.134 58.2309 164.112C59.311 163.819 59.3299 163.412 59.2998 163.194ZM61.0499 166.386L61.0464 166.383L61.0535 166.382L61.0499 166.386Z" fill="#343434"/>
<path d="M17.8274 99.5723V95.7623H18.7211C19.1148 95.7623 19.4406 95.839 19.6984 95.9923C19.9562 96.1456 20.1479 96.3633 20.2733 96.6456C20.4022 96.9278 20.4667 97.264 20.4667 97.6542C20.4667 98.0445 20.404 98.3842 20.2785 98.6734C20.1531 98.9591 19.9615 99.1803 19.7036 99.3371C19.4458 99.4939 19.1235 99.5723 18.7368 99.5723H17.8274ZM18.141 99.3057H18.6898C19.0242 99.3057 19.2995 99.2378 19.5155 99.1019C19.7315 98.9625 19.89 98.7692 19.9911 98.5218C20.0921 98.2709 20.1426 97.9817 20.1426 97.6542C20.1426 97.3232 20.0921 97.0358 19.9911 96.7919C19.89 96.548 19.7315 96.3599 19.5155 96.2275C19.2995 96.0951 19.0242 96.0289 18.6898 96.0289H18.141V99.3057ZM20.5041 99.5723L21.8315 95.7623H22.1556L23.4935 99.5723H23.159L22.4169 97.3511C22.3437 97.1281 22.2723 96.9121 22.2026 96.7031C22.1364 96.494 22.0702 96.2728 22.004 96.0393H21.9831C21.9169 96.2728 21.849 96.494 21.7793 96.7031C21.7131 96.9121 21.6434 97.1281 21.5702 97.3511L20.8177 99.5723H20.5041ZM21.126 98.2971V98.041H22.8507V98.2971H21.126ZM24.3619 99.5723V96.0341H23.1651V95.7623H25.8775V96.0341H24.6807V99.5723H24.3619ZM26.3425 99.5723V95.7623H28.4487V96.0341H26.6561V97.4138H28.1613V97.6856H26.6561V99.3005H28.5062V99.5723H26.3425Z" fill="#343434"/>
<path d="M17.8274 116.599V112.789H18.8152C19.1044 112.789 19.3517 112.824 19.5573 112.893C19.7664 112.963 19.9266 113.076 20.0381 113.233C20.1496 113.386 20.2054 113.595 20.2054 113.86C20.2054 114.114 20.1496 114.325 20.0381 114.492C19.9301 114.656 19.7733 114.78 19.5678 114.864C19.3657 114.947 19.1218 114.989 18.8361 114.989H18.141V116.599H17.8274ZM18.141 114.722H18.7734C19.1497 114.722 19.4284 114.656 19.6096 114.524C19.7942 114.388 19.8866 114.167 19.8866 113.86C19.8866 113.55 19.7925 113.337 19.6043 113.222C19.4162 113.107 19.1322 113.05 18.7525 113.05H18.141V114.722ZM20.7662 116.599V112.789H21.0797V116.327H22.8149V116.599H20.7662ZM22.7589 116.599L24.0864 112.789H24.4104L25.7483 116.599H25.4139L24.6717 114.377C24.5986 114.154 24.5271 113.938 24.4574 113.729C24.3912 113.52 24.3251 113.299 24.2589 113.066H24.2379C24.1717 113.299 24.1038 113.52 24.0341 113.729C23.9679 113.938 23.8982 114.154 23.8251 114.377L23.0725 116.599H22.7589ZM23.3808 115.323V115.067H25.1055V115.323H23.3808ZM27.3903 116.667C27.1568 116.667 26.9408 116.621 26.7422 116.531C26.5471 116.44 26.3764 116.308 26.23 116.133C26.0872 115.959 25.9757 115.752 25.8956 115.512C25.8189 115.268 25.7806 114.994 25.7806 114.691C25.7806 114.384 25.8207 114.111 25.9008 113.871C25.9809 113.627 26.0942 113.419 26.2405 113.249C26.3868 113.078 26.5593 112.947 26.7579 112.857C26.96 112.766 27.1812 112.721 27.4216 112.721C27.6481 112.721 27.845 112.768 28.0122 112.862C28.1829 112.956 28.3205 113.062 28.4251 113.181L28.2474 113.384C28.1463 113.27 28.0261 113.177 27.8868 113.107C27.7509 113.038 27.5976 113.003 27.4269 113.003C27.1551 113.003 26.9199 113.071 26.7213 113.207C26.5262 113.343 26.3746 113.538 26.2666 113.792C26.1586 114.043 26.1046 114.341 26.1046 114.686C26.1046 115.031 26.1569 115.33 26.2614 115.585C26.3694 115.839 26.521 116.036 26.7161 116.175C26.9112 116.315 27.1412 116.384 27.406 116.384C27.5976 116.384 27.7683 116.346 27.9181 116.269C28.0714 116.189 28.216 116.074 28.3519 115.924L28.5296 116.123C28.3833 116.294 28.2195 116.428 28.0383 116.525C27.8572 116.62 27.6411 116.667 27.3903 116.667ZM29.0363 116.599V112.789H31.1425V113.06H29.3499V114.44H30.855V114.712H29.3499V116.327H31.2V116.599H29.0363Z" fill="#343434"/>
<path d="M17.3152 133.622L18.6427 129.812H18.9667L20.3047 133.622H19.9702L19.2281 131.401C19.1549 131.178 19.0835 130.962 19.0138 130.753C18.9476 130.544 18.8814 130.323 18.8152 130.089H18.7943C18.7281 130.323 18.6601 130.544 18.5905 130.753C18.5243 130.962 18.4546 131.178 18.3814 131.401L17.6288 133.622H17.3152ZM17.9372 132.347V132.091H19.6618V132.347H17.9372ZM20.6386 133.622V129.812H21.5323C21.926 129.812 22.2517 129.889 22.5096 130.042C22.7674 130.195 22.959 130.413 23.0845 130.695C23.2134 130.978 23.2778 131.314 23.2778 131.704C23.2778 132.094 23.2151 132.434 23.0897 132.723C22.9643 133.009 22.7726 133.23 22.5148 133.387C22.257 133.544 21.9347 133.622 21.5479 133.622H20.6386ZM20.9521 133.356H21.5009C21.8354 133.356 22.1106 133.288 22.3266 133.152C22.5427 133.012 22.7012 132.819 22.8022 132.572C22.9033 132.321 22.9538 132.032 22.9538 131.704C22.9538 131.373 22.9033 131.086 22.8022 130.842C22.7012 130.598 22.5427 130.41 22.3266 130.277C22.1106 130.145 21.8354 130.079 21.5009 130.079H20.9521V133.356ZM23.8886 133.622V129.812H24.312L25.0907 132.002C25.1395 132.138 25.1882 132.277 25.237 132.42C25.2858 132.559 25.3363 132.699 25.3886 132.838H25.4095C25.4583 132.699 25.5053 132.559 25.5506 132.42C25.5994 132.277 25.6464 132.138 25.6917 132.002L26.4756 129.812H26.8937V133.622H26.5958V131.208C26.5958 131.1 26.5976 130.986 26.6011 130.868C26.6046 130.746 26.6098 130.624 26.6167 130.502C26.6237 130.377 26.6289 130.262 26.6324 130.157H26.6115L26.3136 131.009L25.514 133.214H25.2631L24.4583 131.009L24.1552 130.157H24.1343C24.1447 130.262 24.1517 130.377 24.1552 130.502C24.1622 130.624 24.1674 130.746 24.1709 130.868C24.1743 130.986 24.1761 131.1 24.1761 131.208V133.622H23.8886ZM27.741 133.622V129.812H28.0545V133.622H27.741ZM29.9123 133.69C29.637 133.69 29.3896 133.638 29.1701 133.533C28.9506 133.425 28.766 133.288 28.6162 133.12L28.8095 132.901C28.9489 133.054 29.1144 133.178 29.306 133.272C29.4977 133.362 29.6997 133.408 29.9123 133.408C30.1945 133.408 30.4175 133.34 30.5812 133.204C30.745 133.068 30.8269 132.892 30.8269 132.676C30.8269 132.523 30.7955 132.401 30.7328 132.31C30.6736 132.216 30.5934 132.14 30.4924 132.08C30.3913 132.018 30.2781 131.96 30.1527 131.908L29.583 131.652C29.4715 131.603 29.3548 131.54 29.2329 131.464C29.1144 131.387 29.0134 131.288 28.9297 131.166C28.8496 131.04 28.8095 130.885 28.8095 130.701C28.8095 130.509 28.8583 130.343 28.9559 130.204C29.0534 130.061 29.1876 129.95 29.3583 129.87C29.529 129.786 29.7224 129.744 29.9384 129.744C30.1684 129.744 30.3739 129.789 30.5551 129.88C30.7398 129.967 30.8913 130.075 31.0098 130.204L30.8373 130.408C30.7258 130.293 30.5952 130.201 30.4453 130.131C30.2955 130.061 30.1265 130.026 29.9384 130.026C29.6945 130.026 29.4977 130.086 29.3478 130.204C29.2015 130.319 29.1283 130.476 29.1283 130.674C29.1283 130.817 29.1632 130.934 29.2329 131.025C29.3025 131.115 29.3879 131.188 29.4889 131.244C29.59 131.3 29.6875 131.349 29.7816 131.39L30.346 131.641C30.4924 131.704 30.6248 131.777 30.7432 131.861C30.8652 131.944 30.9627 132.049 31.0359 132.174C31.1091 132.3 31.1457 132.46 31.1457 132.655C31.1457 132.85 31.0951 133.026 30.9941 133.183C30.8931 133.34 30.7502 133.464 30.5655 133.554C30.3809 133.645 30.1631 133.69 29.9123 133.69ZM32.6111 133.69C32.3359 133.69 32.0885 133.638 31.869 133.533C31.6495 133.425 31.4648 133.288 31.315 133.12L31.5084 132.901C31.6478 133.054 31.8133 133.178 32.0049 133.272C32.1965 133.362 32.3986 133.408 32.6111 133.408C32.8934 133.408 33.1163 133.34 33.2801 133.204C33.4439 133.068 33.5257 132.892 33.5257 132.676C33.5257 132.523 33.4944 132.401 33.4317 132.31C33.3724 132.216 33.2923 132.14 33.1912 132.08C33.0902 132.018 32.977 131.96 32.8515 131.908L32.2819 131.652C32.1704 131.603 32.0537 131.54 31.9317 131.464C31.8133 131.387 31.7122 131.288 31.6286 131.166C31.5485 131.04 31.5084 130.885 31.5084 130.701C31.5084 130.509 31.5572 130.343 31.6547 130.204C31.7523 130.061 31.8864 129.95 32.0572 129.87C32.2279 129.786 32.4212 129.744 32.6373 129.744C32.8672 129.744 33.0728 129.789 33.254 129.88C33.4386 129.967 33.5902 130.075 33.7086 130.204L33.5362 130.408C33.4247 130.293 33.294 130.201 33.1442 130.131C32.9944 130.061 32.8254 130.026 32.6373 130.026C32.3934 130.026 32.1965 130.086 32.0467 130.204C31.9004 130.319 31.8272 130.476 31.8272 130.674C31.8272 130.817 31.862 130.934 31.9317 131.025C32.0014 131.115 32.0868 131.188 32.1878 131.244C32.2888 131.3 32.3864 131.349 32.4805 131.39L33.0449 131.641C33.1912 131.704 33.3236 131.777 33.4421 131.861C33.5641 131.944 33.6616 132.049 33.7348 132.174C33.8079 132.3 33.8445 132.46 33.8445 132.655C33.8445 132.85 33.794 133.026 33.693 133.183C33.5919 133.34 33.4491 133.464 33.2644 133.554C33.0798 133.645 32.862 133.69 32.6111 133.69ZM34.3728 133.622V129.812H34.6864V133.622H34.3728ZM36.8786 133.69C36.5685 133.69 36.295 133.608 36.0581 133.444C35.8211 133.281 35.6347 133.051 35.4988 132.755C35.363 132.458 35.295 132.108 35.295 131.704C35.295 131.3 35.363 130.951 35.4988 130.659C35.6347 130.366 35.8211 130.141 36.0581 129.985C36.295 129.824 36.5685 129.744 36.8786 129.744C37.1852 129.744 37.4569 129.824 37.6939 129.985C37.9343 130.145 38.1207 130.371 38.2531 130.664C38.389 130.953 38.4569 131.3 38.4569 131.704C38.4569 132.108 38.389 132.458 38.2531 132.755C38.1207 133.051 37.9343 133.281 37.6939 133.444C37.4569 133.608 37.1852 133.69 36.8786 133.69ZM36.8786 133.408C37.1294 133.408 37.3489 133.338 37.5371 133.199C37.7252 133.056 37.8716 132.857 37.9761 132.603C38.0806 132.349 38.1329 132.049 38.1329 131.704C38.1329 131.359 38.0806 131.061 37.9761 130.81C37.8716 130.559 37.7252 130.366 37.5371 130.23C37.3489 130.094 37.1294 130.026 36.8786 130.026C36.6277 130.026 36.4065 130.094 36.2148 130.23C36.0267 130.366 35.8804 130.559 35.7758 130.81C35.6713 131.061 35.619 131.359 35.619 131.704C35.619 132.049 35.6713 132.349 35.7758 132.603C35.8804 132.857 36.0267 133.056 36.2148 133.199C36.4065 133.338 36.6277 133.408 36.8786 133.408ZM39.0662 133.622V129.812H39.3902L40.9477 132.43L41.3762 133.199H41.4023C41.3884 133.011 41.3762 132.822 41.3658 132.634C41.3588 132.443 41.3553 132.255 41.3553 132.07V129.812H41.6532V133.622H41.3292L39.7718 130.998L39.3484 130.235H39.3275C39.3345 130.42 39.3415 130.603 39.3484 130.784C39.3589 130.965 39.3641 131.15 39.3641 131.338V133.622H39.0662Z" fill="#343434"/>
<path d="M19.1967 150.715C18.9633 150.715 18.7472 150.67 18.5486 150.58C18.3535 150.489 18.1828 150.357 18.0365 150.182C17.8936 150.008 17.7821 149.801 17.702 149.56C17.6253 149.317 17.587 149.043 17.587 148.74C17.587 148.433 17.6271 148.16 17.7072 147.919C17.7874 147.675 17.9006 147.468 18.0469 147.297C18.1933 147.127 18.3657 146.996 18.5643 146.905C18.7664 146.815 18.9876 146.77 19.2281 146.77C19.4545 146.77 19.6514 146.817 19.8186 146.911C19.9893 147.005 20.127 147.111 20.2315 147.229L20.0538 147.433C19.9528 147.318 19.8326 147.226 19.6932 147.156C19.5573 147.087 19.404 147.052 19.2333 147.052C18.9615 147.052 18.7263 147.12 18.5277 147.256C18.3326 147.392 18.1811 147.587 18.0731 147.841C17.965 148.092 17.911 148.39 17.911 148.735C17.911 149.08 17.9633 149.379 18.0678 149.634C18.1758 149.888 18.3274 150.085 18.5225 150.224C18.7176 150.364 18.9476 150.433 19.2124 150.433C19.404 150.433 19.5747 150.395 19.7245 150.318C19.8779 150.238 20.0224 150.123 20.1583 149.973L20.336 150.172C20.1897 150.343 20.0259 150.477 19.8448 150.574C19.6636 150.668 19.4476 150.715 19.1967 150.715ZM22.0379 150.715C21.7278 150.715 21.4543 150.634 21.2173 150.47C20.9804 150.306 20.794 150.076 20.6581 149.78C20.5222 149.484 20.4543 149.134 20.4543 148.729C20.4543 148.325 20.5222 147.977 20.6581 147.684C20.794 147.392 20.9804 147.167 21.2173 147.01C21.4543 146.85 21.7278 146.77 22.0379 146.77C22.3445 146.77 22.6162 146.85 22.8532 147.01C23.0936 147.17 23.28 147.397 23.4124 147.689C23.5482 147.979 23.6162 148.325 23.6162 148.729C23.6162 149.134 23.5482 149.484 23.4124 149.78C23.28 150.076 23.0936 150.306 22.8532 150.47C22.6162 150.634 22.3445 150.715 22.0379 150.715ZM22.0379 150.433C22.2887 150.433 22.5082 150.364 22.6964 150.224C22.8845 150.081 23.0308 149.883 23.1354 149.628C23.2399 149.374 23.2922 149.074 23.2922 148.729C23.2922 148.384 23.2399 148.087 23.1354 147.836C23.0308 147.585 22.8845 147.392 22.6964 147.256C22.5082 147.12 22.2887 147.052 22.0379 147.052C21.787 147.052 21.5658 147.12 21.3741 147.256C21.186 147.392 21.0396 147.585 20.9351 147.836C20.8306 148.087 20.7783 148.384 20.7783 148.729C20.7783 149.074 20.8306 149.374 20.9351 149.628C21.0396 149.883 21.186 150.081 21.3741 150.224C21.5658 150.364 21.787 150.433 22.0379 150.433ZM24.2255 150.647V146.838H24.6488L25.4275 149.027C25.4763 149.163 25.5251 149.303 25.5739 149.445C25.6226 149.585 25.6732 149.724 25.7254 149.864H25.7463C25.7951 149.724 25.8421 149.585 25.8874 149.445C25.9362 149.303 25.9833 149.163 26.0285 149.027L26.8125 146.838H27.2306V150.647H26.9327V148.233C26.9327 148.125 26.9344 148.012 26.9379 147.893C26.9414 147.771 26.9466 147.649 26.9536 147.527C26.9606 147.402 26.9658 147.287 26.9693 147.182H26.9484L26.6505 148.034L25.8509 150.24H25.6L24.7952 148.034L24.492 147.182H24.4711C24.4816 147.287 24.4885 147.402 24.492 147.527C24.499 147.649 24.5042 147.771 24.5077 147.893C24.5112 148.012 24.5129 148.125 24.5129 148.233V150.647H24.2255ZM28.0778 150.647V146.838H29.0656C29.3548 146.838 29.6021 146.872 29.8077 146.942C30.0167 147.012 30.177 147.125 30.2885 147.282C30.4 147.435 30.4558 147.644 30.4558 147.909C30.4558 148.163 30.4 148.374 30.2885 148.541C30.1805 148.705 30.0237 148.829 29.8182 148.912C29.6161 148.996 29.3722 149.038 29.0865 149.038H28.3914V150.647H28.0778ZM28.3914 148.771H29.0238C29.4001 148.771 29.6788 148.705 29.86 148.573C30.0446 148.437 30.137 148.216 30.137 147.909C30.137 147.599 30.0429 147.386 29.8547 147.271C29.6666 147.156 29.3826 147.099 29.0029 147.099H28.3914V148.771ZM30.2135 150.647L31.5409 146.838H31.865L33.2029 150.647H32.8684L32.1263 148.426C32.0531 148.203 31.9817 147.987 31.912 147.778C31.8458 147.569 31.7796 147.348 31.7134 147.115H31.6925C31.6263 147.348 31.5584 147.569 31.4887 147.778C31.4225 147.987 31.3528 148.203 31.2796 148.426L30.527 150.647H30.2135ZM30.8354 149.372V149.116H32.5601V149.372H30.8354ZM33.5368 150.647V146.838H33.8608L35.4182 149.456L35.8468 150.224H35.8729C35.859 150.036 35.8468 149.848 35.8363 149.66C35.8294 149.468 35.8259 149.28 35.8259 149.095V146.838H36.1238V150.647H35.7998L34.2423 148.024L33.819 147.261H33.7981C33.8051 147.446 33.812 147.628 33.819 147.81C33.8295 147.991 33.8347 148.175 33.8347 148.364V150.647H33.5368ZM36.9706 150.647V146.838H37.2842V150.647H36.9706ZM39.4764 150.715C39.1663 150.715 38.8928 150.634 38.6559 150.47C38.4189 150.306 38.2325 150.076 38.0967 149.78C37.9608 149.484 37.8928 149.134 37.8928 148.729C37.8928 148.325 37.9608 147.977 38.0967 147.684C38.2325 147.392 38.4189 147.167 38.6559 147.01C38.8928 146.85 39.1663 146.77 39.4764 146.77C39.783 146.77 40.0548 146.85 40.2917 147.01C40.5321 147.17 40.7185 147.397 40.8509 147.689C40.9868 147.979 41.0547 148.325 41.0547 148.729C41.0547 149.134 40.9868 149.484 40.8509 149.78C40.7185 150.076 40.5321 150.306 40.2917 150.47C40.0548 150.634 39.783 150.715 39.4764 150.715ZM39.4764 150.433C39.7272 150.433 39.9467 150.364 40.1349 150.224C40.323 150.081 40.4694 149.883 40.5739 149.628C40.6784 149.374 40.7307 149.074 40.7307 148.729C40.7307 148.384 40.6784 148.087 40.5739 147.836C40.4694 147.585 40.323 147.392 40.1349 147.256C39.9467 147.12 39.7272 147.052 39.4764 147.052C39.2255 147.052 39.0043 147.12 38.8127 147.256C38.6245 147.392 38.4782 147.585 38.3736 147.836C38.2691 148.087 38.2169 148.384 38.2169 148.729C38.2169 149.074 38.2691 149.374 38.3736 149.628C38.4782 149.883 38.6245 150.081 38.8127 150.224C39.0043 150.364 39.2255 150.433 39.4764 150.433ZM41.664 150.647V146.838H41.988L43.5455 149.456L43.974 150.224H44.0002C43.9862 150.036 43.974 149.848 43.9636 149.66C43.9566 149.468 43.9531 149.28 43.9531 149.095V146.838H44.251V150.647H43.927L42.3696 148.024L41.9462 147.261H41.9253C41.9323 147.446 41.9393 147.628 41.9462 147.81C41.9567 147.991 41.9619 148.175 41.9619 148.364V150.647H41.664Z" fill="#343434"/>
<path d="M17.8274 82.5479V78.7379H18.8152C19.1044 78.7379 19.3517 78.7728 19.5573 78.8424C19.7664 78.9121 19.9266 79.0254 20.0381 79.1821C20.1496 79.3354 20.2054 79.5445 20.2054 79.8093C20.2054 80.0636 20.1496 80.2744 20.0381 80.4417C19.9301 80.6054 19.7733 80.7291 19.5678 80.8127C19.3657 80.8964 19.1218 80.9382 18.8361 80.9382H18.141V82.5479H17.8274ZM18.141 80.6716H18.7734C19.1497 80.6716 19.4284 80.6054 19.6096 80.473C19.7942 80.3371 19.8866 80.1159 19.8866 79.8093C19.8866 79.4992 19.7925 79.2867 19.6043 79.1717C19.4162 79.0567 19.1322 78.9992 18.7525 78.9992H18.141V80.6716ZM22.1093 82.6158C21.7992 82.6158 21.5257 82.5339 21.2888 82.3702C21.0519 82.2064 20.8655 81.9764 20.7296 81.6803C20.5937 81.3841 20.5258 81.034 20.5258 80.6298C20.5258 80.2257 20.5937 79.8772 20.7296 79.5846C20.8655 79.2919 21.0519 79.0672 21.2888 78.9104C21.5257 78.7501 21.7992 78.67 22.1093 78.67C22.4159 78.67 22.6877 78.7501 22.9246 78.9104C23.165 79.0707 23.3514 79.2971 23.4838 79.5898C23.6197 79.879 23.6876 80.2257 23.6876 80.6298C23.6876 81.034 23.6197 81.3841 23.4838 81.6803C23.3514 81.9764 23.165 82.2064 22.9246 82.3702C22.6877 82.5339 22.4159 82.6158 22.1093 82.6158ZM22.1093 82.3336C22.3602 82.3336 22.5797 82.2639 22.7678 82.1245C22.956 81.9817 23.1023 81.7831 23.2068 81.5287C23.3113 81.2744 23.3636 80.9748 23.3636 80.6298C23.3636 80.2849 23.3113 79.987 23.2068 79.7361C23.1023 79.4853 22.956 79.2919 22.7678 79.156C22.5797 79.0201 22.3602 78.9522 22.1093 78.9522C21.8585 78.9522 21.6372 79.0201 21.4456 79.156C21.2574 79.2919 21.1111 79.4853 21.0066 79.7361C20.902 79.987 20.8498 80.2849 20.8498 80.6298C20.8498 80.9748 20.902 81.2744 21.0066 81.5287C21.1111 81.7831 21.2574 81.9817 21.4456 82.1245C21.6372 82.2639 21.8585 82.3336 22.1093 82.3336ZM24.2969 82.5479V78.7379H25.2847C25.5739 78.7379 25.8213 78.7728 26.0268 78.8424C26.2359 78.9121 26.3962 79.0254 26.5076 79.1821C26.6191 79.3354 26.6749 79.5445 26.6749 79.8093C26.6749 80.0636 26.6191 80.2744 26.5076 80.4417C26.3996 80.6054 26.2429 80.7291 26.0373 80.8127C25.8352 80.8964 25.5913 80.9382 25.3056 80.9382H24.6105V82.5479H24.2969ZM24.6105 80.6716H25.2429C25.6192 80.6716 25.8979 80.6054 26.0791 80.473C26.2638 80.3371 26.3561 80.1159 26.3561 79.8093C26.3561 79.4992 26.262 79.2867 26.0739 79.1717C25.8857 79.0567 25.6018 78.9992 25.222 78.9992H24.6105V80.6716ZM28.5213 82.6158C28.3506 82.6158 28.1869 82.5914 28.0301 82.5426C27.8768 82.4904 27.7392 82.405 27.6172 82.2865C27.4953 82.1681 27.3994 82.0095 27.3298 81.811C27.2601 81.6089 27.2252 81.3598 27.2252 81.0636V78.7379H27.5336V81.0427C27.5336 81.3702 27.5789 81.6298 27.6695 81.8214C27.7635 82.0095 27.8855 82.1419 28.0353 82.2186C28.1851 82.2952 28.3471 82.3336 28.5213 82.3336C28.7025 82.3336 28.868 82.2952 29.0178 82.2186C29.1711 82.1419 29.2931 82.0095 29.3837 81.8214C29.4778 81.6298 29.5248 81.3702 29.5248 81.0427V78.7379H29.8279V81.0636C29.8279 81.3598 29.7931 81.6089 29.7234 81.811C29.6537 82.0095 29.5561 82.1681 29.4307 82.2865C29.3088 82.405 29.1694 82.4904 29.0126 82.5426C28.8558 82.5914 28.6921 82.6158 28.5213 82.6158ZM30.6593 82.5479V78.7379H31.6471C31.9362 78.7379 32.1836 78.7728 32.3892 78.8424C32.5982 78.9121 32.7585 79.0254 32.87 79.1821C32.9815 79.3354 33.0372 79.5445 33.0372 79.8093C33.0372 80.0636 32.9815 80.2744 32.87 80.4417C32.762 80.6054 32.6052 80.7291 32.3996 80.8127C32.1976 80.8964 31.9537 80.9382 31.668 80.9382H30.9729V82.5479H30.6593ZM30.9729 80.6716H31.6052C31.9815 80.6716 32.2603 80.6054 32.4414 80.473C32.6261 80.3371 32.7184 80.1159 32.7184 79.8093C32.7184 79.4992 32.6244 79.2867 32.4362 79.1717C32.2481 79.0567 31.9641 78.9992 31.5843 78.9992H30.9729V80.6716ZM34.4902 82.5479V78.7379H34.8142L36.3716 81.3563L36.8002 82.1245H36.8263C36.8124 81.9364 36.8002 81.7482 36.7897 81.5601C36.7828 81.3685 36.7793 81.1803 36.7793 80.9957V78.7379H37.0772V82.5479H36.7531L35.1957 79.9243L34.7724 79.1612H34.7515C34.7585 79.3459 34.7654 79.5288 34.7724 79.71C34.7828 79.8912 34.7881 80.0758 34.7881 80.264V82.5479H34.4902ZM37.4118 82.5479L38.7393 78.7379H39.0633L40.4012 82.5479H40.0667L39.3246 80.3267C39.2515 80.1037 39.18 79.8877 39.1103 79.6786C39.0441 79.4696 38.9779 79.2483 38.9117 79.0149H38.8908C38.8246 79.2483 38.7567 79.4696 38.687 79.6786C38.6208 79.8877 38.5511 80.1037 38.478 80.3267L37.7254 82.5479H37.4118ZM38.0337 81.2726V81.0166H39.7584V81.2726H38.0337ZM40.7351 82.5479V78.7379H41.1585L41.9372 80.9277C41.986 81.0636 42.0347 81.203 42.0835 81.3458C42.1323 81.4852 42.1828 81.6245 42.2351 81.7639H42.256C42.3048 81.6245 42.3518 81.4852 42.3971 81.3458C42.4459 81.203 42.4929 81.0636 42.5382 80.9277L43.3221 78.7379H43.7402V82.5479H43.4423V80.1333C43.4423 80.0253 43.4441 79.9121 43.4476 79.7936C43.451 79.6717 43.4563 79.5497 43.4632 79.4278C43.4702 79.3024 43.4754 79.1874 43.4789 79.0828H43.458L43.1601 79.9347L42.3605 82.1402H42.1096L41.3048 79.9347L41.0017 79.0828H40.9808C40.9912 79.1874 40.9982 79.3024 41.0017 79.4278C41.0086 79.5497 41.0139 79.6717 41.0174 79.7936C41.0208 79.9121 41.0226 80.0253 41.0226 80.1333V82.5479H40.7351ZM44.5875 82.5479V78.7379H46.6936V79.0097H44.901V80.3894H46.4062V80.6612H44.901V82.2761H46.7511V82.5479H44.5875Z" fill="#343434"/>
</svg>
