<svg width="1220" height="675" viewBox="0 0 1220 675" fill="none" xmlns="http://www.w3.org/2000/svg">
<rect width="1220" height="675" rx="18.6532" fill="#3E3E3E"/>
<rect width="1215" height="664" rx="18.6532" fill="#5A5A5A"/>
<rect width="531" height="624" rx="18.6532" transform="matrix(-1 0 0 1 1190 20)" fill="#898989"/>
<rect width="531" height="624" rx="18.6532" transform="matrix(-1 0 0 1 1183 20)" fill="#BBBBBB"/>
<rect width="531" height="624" rx="18.6532" transform="matrix(-1 0 0 1 1174 20)" fill="#E0E0E0"/>
<rect x="626" y="20" width="528" height="624" rx="18.6532" fill="white"/>
<rect x="38" y="25" width="531" height="624" rx="18.6532" fill="#898989"/>
<rect x="46" y="20" width="531" height="624" rx="18.6532" fill="#BBBBBB"/>
<rect x="55" y="20" width="531" height="624" rx="18.6532" fill="#E0E0E0"/>
<rect x="65" y="20" width="531" height="624" rx="18.6532" fill="white"/>
<ellipse cx="590.69" cy="80.7484" rx="6.99495" ry="7.46128" fill="#ACACAC"/>
<ellipse cx="649.448" cy="80.7484" rx="6.99495" ry="7.46128" fill="#ACACAC"/>
<path d="M648.981 80.748C648.981 69.931 636.037 61.1621 620.069 61.1621C604.101 61.1621 591.156 69.931 591.156 80.748" stroke="#353535" stroke-width="9.32661" stroke-linecap="round"/>
<ellipse cx="590.69" cy="154.428" rx="6.99495" ry="7.46128" fill="#ACACAC"/>
<ellipse cx="649.448" cy="154.428" rx="6.99495" ry="7.46128" fill="#ACACAC"/>
<path d="M648.981 154.428C648.981 143.611 636.037 134.842 620.069 134.842C604.101 134.842 591.156 143.611 591.156 154.428" stroke="#353535" stroke-width="9.32661" stroke-linecap="round"/>
<ellipse cx="590.69" cy="228.11" rx="6.99495" ry="7.46128" fill="#ACACAC"/>
<ellipse cx="649.448" cy="228.11" rx="6.99495" ry="7.46128" fill="#ACACAC"/>
<path d="M648.981 228.109C648.981 217.292 636.037 208.523 620.069 208.523C604.101 208.523 591.156 217.292 591.156 228.109" stroke="#353535" stroke-width="9.32661" stroke-linecap="round"/>
<ellipse cx="590.69" cy="301.789" rx="6.99495" ry="7.46128" fill="#ACACAC"/>
<ellipse cx="649.448" cy="301.789" rx="6.99495" ry="7.46128" fill="#ACACAC"/>
<path d="M648.981 301.789C648.981 290.972 636.037 282.203 620.069 282.203C604.101 282.203 591.156 290.972 591.156 301.789" stroke="#353535" stroke-width="9.32661" stroke-linecap="round"/>
<ellipse cx="590.69" cy="375.469" rx="6.99495" ry="7.46128" fill="#ACACAC"/>
<ellipse cx="649.448" cy="375.469" rx="6.99495" ry="7.46128" fill="#ACACAC"/>
<path d="M648.981 375.469C648.981 364.652 636.037 355.883 620.069 355.883C604.101 355.883 591.156 364.652 591.156 375.469" stroke="#353535" stroke-width="9.32661" stroke-linecap="round"/>
<ellipse cx="590.69" cy="449.149" rx="6.99495" ry="7.46128" fill="#ACACAC"/>
<ellipse cx="649.448" cy="449.149" rx="6.99495" ry="7.46128" fill="#ACACAC"/>
<path d="M648.981 449.148C648.981 438.331 636.037 429.562 620.069 429.562C604.101 429.562 591.156 438.331 591.156 449.148" stroke="#353535" stroke-width="9.32661" stroke-linecap="round"/>
<ellipse cx="590.69" cy="522.828" rx="6.99495" ry="7.46128" fill="#ACACAC"/>
<ellipse cx="649.448" cy="522.828" rx="6.99495" ry="7.46128" fill="#ACACAC"/>
<path d="M648.981 522.828C648.981 512.011 636.037 503.242 620.069 503.242C604.101 503.242 591.156 512.011 591.156 522.828" stroke="#353535" stroke-width="9.32661" stroke-linecap="round"/>
<ellipse cx="590.69" cy="596.508" rx="6.99495" ry="7.46128" fill="#ACACAC"/>
<ellipse cx="649.448" cy="596.508" rx="6.99495" ry="7.46128" fill="#ACACAC"/>
<path d="M648.981 596.508C648.981 585.691 636.037 576.922 620.069 576.922C604.101 576.922 591.156 585.691 591.156 596.508" stroke="#353535" stroke-width="9.32661" stroke-linecap="round"/>
<line x1="114.496" y1="99.8657" x2="560.308" y2="99.8657" stroke="black" stroke-width="0.932661"/>
<line x1="677.688" y1="99.8657" x2="1123.5" y2="99.8657" stroke="black" stroke-width="0.932661"/>
<line x1="114.496" y1="269.612" x2="560.308" y2="269.612" stroke="black" stroke-width="0.932661"/>
<line x1="677.688" y1="269.612" x2="1123.5" y2="269.612" stroke="black" stroke-width="0.932661"/>
<line x1="114.496" y1="439.354" x2="560.308" y2="439.354" stroke="black" stroke-width="0.932661"/>
<line x1="677.688" y1="439.354" x2="1123.5" y2="439.354" stroke="black" stroke-width="0.932661"/>
<line x1="114.496" y1="609.1" x2="560.308" y2="609.1" stroke="black" stroke-width="0.932661"/>
<line x1="677.688" y1="609.1" x2="1123.5" y2="609.1" stroke="black" stroke-width="0.932661"/>
<line x1="261.392" y1="109.66" x2="261.392" y2="260.751" stroke="black" stroke-width="0.932661"/>
<line x1="824.584" y1="109.66" x2="824.583" y2="260.751" stroke="black" stroke-width="0.932661"/>
<line x1="261.392" y1="449.148" x2="261.392" y2="600.239" stroke="black" stroke-width="0.932661"/>
<line x1="824.584" y1="449.148" x2="824.583" y2="600.239" stroke="black" stroke-width="0.932661"/>
<line x1="261.392" y1="279.404" x2="261.392" y2="430.495" stroke="black" stroke-width="0.932661"/>
<line x1="824.584" y1="279.404" x2="824.583" y2="430.495" stroke="black" stroke-width="0.932661"/>
<line x1="414.349" y1="109.66" x2="414.349" y2="260.751" stroke="black" stroke-width="0.932661"/>
<line x1="977.541" y1="109.66" x2="977.541" y2="260.751" stroke="black" stroke-width="0.932661"/>
<line x1="414.349" y1="449.148" x2="414.349" y2="600.239" stroke="black" stroke-width="0.932661"/>
<line x1="977.541" y1="449.148" x2="977.541" y2="600.239" stroke="black" stroke-width="0.932661"/>
<line x1="414.349" y1="279.404" x2="414.349" y2="430.495" stroke="black" stroke-width="0.932661"/>
<line x1="977.541" y1="279.404" x2="977.541" y2="430.495" stroke="black" stroke-width="0.932661"/>
<ellipse cx="607.853" cy="60.8772" rx="3.70375" ry="1.09277" transform="rotate(-12.6642 607.853 60.8772)" fill="#BBBBBB"/>
<ellipse cx="607.853" cy="134.879" rx="3.70375" ry="1.09277" transform="rotate(-12.6642 607.853 134.879)" fill="#BBBBBB"/>
<ellipse cx="607.853" cy="208.877" rx="3.70375" ry="1.09277" transform="rotate(-12.6642 607.853 208.877)" fill="#BBBBBB"/>
<ellipse cx="607.853" cy="282.877" rx="3.70375" ry="1.09277" transform="rotate(-12.6642 607.853 282.877)" fill="#BBBBBB"/>
<ellipse cx="607.853" cy="356.877" rx="3.70375" ry="1.09277" transform="rotate(-12.6642 607.853 356.877)" fill="#BBBBBB"/>
<ellipse cx="607.853" cy="430.877" rx="3.70375" ry="1.09277" transform="rotate(-12.6642 607.853 430.877)" fill="#BBBBBB"/>
<ellipse cx="607.853" cy="504.877" rx="3.70375" ry="1.09277" transform="rotate(-12.6642 607.853 504.877)" fill="#BBBBBB"/>
<ellipse cx="607.853" cy="578.877" rx="3.70375" ry="1.09277" transform="rotate(-12.6642 607.853 578.877)" fill="#BBBBBB"/>
</svg>
