<svg width="1220" height="675" viewBox="0 0 1220 675" fill="none" xmlns="http://www.w3.org/2000/svg">
<rect width="1220" height="675" rx="18.6532" fill="#3E3E3E"/>
<rect width="1215" height="664" rx="18.6532" fill="#5A5A5A"/>
<rect width="531" height="624" rx="18.6532" transform="matrix(-1 0 0 1 1180 20)" fill="#898989"/>
<rect width="531" height="624" rx="18.6532" transform="matrix(-1 0 0 1 1173 20)" fill="#BBBBBB"/>
<rect width="531" height="624" rx="18.6532" transform="matrix(-1 0 0 1 1164 20)" fill="#E0E0E0"/>
<rect x="626" y="20" width="528" height="624" rx="18.6532" fill="#FFF6DA"/>
<rect x="39" y="20" width="531" height="624" rx="18.6532" fill="#898989"/>
<rect x="46" y="20" width="531" height="624" rx="18.6532" fill="#BBBBBB"/>
<rect x="55" y="20" width="531" height="624" rx="18.6532" fill="#E0E0E0"/>
<rect x="65" y="20" width="531" height="624" rx="18.6532" fill="#FFF6DA"/>
<ellipse cx="580.69" cy="80.7484" rx="6.99495" ry="7.46128" fill="#ACACAC"/>
<ellipse cx="639.448" cy="80.7484" rx="6.99495" ry="7.46128" fill="#ACACAC"/>
<path d="M638.981 80.748C638.981 69.931 626.037 61.1621 610.069 61.1621C594.101 61.1621 581.156 69.931 581.156 80.748" stroke="#353535" stroke-width="9.32661" stroke-linecap="round"/>
<ellipse cx="580.69" cy="154.428" rx="6.99495" ry="7.46128" fill="#ACACAC"/>
<ellipse cx="639.448" cy="154.428" rx="6.99495" ry="7.46128" fill="#ACACAC"/>
<path d="M638.981 154.428C638.981 143.611 626.037 134.842 610.069 134.842C594.101 134.842 581.156 143.611 581.156 154.428" stroke="#353535" stroke-width="9.32661" stroke-linecap="round"/>
<ellipse cx="580.69" cy="228.11" rx="6.99495" ry="7.46128" fill="#ACACAC"/>
<ellipse cx="639.448" cy="228.11" rx="6.99495" ry="7.46128" fill="#ACACAC"/>
<path d="M638.981 228.109C638.981 217.292 626.037 208.523 610.069 208.523C594.101 208.523 581.156 217.292 581.156 228.109" stroke="#353535" stroke-width="9.32661" stroke-linecap="round"/>
<ellipse cx="580.69" cy="301.789" rx="6.99495" ry="7.46128" fill="#ACACAC"/>
<ellipse cx="639.448" cy="301.789" rx="6.99495" ry="7.46128" fill="#ACACAC"/>
<path d="M638.981 301.789C638.981 290.972 626.037 282.203 610.069 282.203C594.101 282.203 581.156 290.972 581.156 301.789" stroke="#353535" stroke-width="9.32661" stroke-linecap="round"/>
<ellipse cx="580.69" cy="375.469" rx="6.99495" ry="7.46128" fill="#ACACAC"/>
<ellipse cx="639.448" cy="375.469" rx="6.99495" ry="7.46128" fill="#ACACAC"/>
<path d="M638.981 375.469C638.981 364.652 626.037 355.883 610.069 355.883C594.101 355.883 581.156 364.652 581.156 375.469" stroke="#353535" stroke-width="9.32661" stroke-linecap="round"/>
<ellipse cx="580.69" cy="449.149" rx="6.99495" ry="7.46128" fill="#ACACAC"/>
<ellipse cx="639.448" cy="449.149" rx="6.99495" ry="7.46128" fill="#ACACAC"/>
<path d="M638.981 449.148C638.981 438.331 626.037 429.562 610.069 429.562C594.101 429.562 581.156 438.331 581.156 449.148" stroke="#353535" stroke-width="9.32661" stroke-linecap="round"/>
<ellipse cx="580.69" cy="522.828" rx="6.99495" ry="7.46128" fill="#ACACAC"/>
<ellipse cx="639.448" cy="522.828" rx="6.99495" ry="7.46128" fill="#ACACAC"/>
<path d="M638.981 522.828C638.981 512.011 626.037 503.242 610.069 503.242C594.101 503.242 581.156 512.011 581.156 522.828" stroke="#353535" stroke-width="9.32661" stroke-linecap="round"/>
<ellipse cx="580.69" cy="596.508" rx="6.99495" ry="7.46128" fill="#ACACAC"/>
<ellipse cx="639.448" cy="596.508" rx="6.99495" ry="7.46128" fill="#ACACAC"/>
<path d="M638.981 596.508C638.981 585.691 626.037 576.922 610.069 576.922C594.101 576.922 581.156 585.691 581.156 596.508" stroke="#353535" stroke-width="9.32661" stroke-linecap="round"/>
<line x1="104.496" y1="99.8657" x2="550.308" y2="99.8657" stroke="black" stroke-width="0.932661"/>
<line x1="667.688" y1="99.8657" x2="1113.5" y2="99.8657" stroke="black" stroke-width="0.932661"/>
<line x1="104.496" y1="269.612" x2="550.308" y2="269.612" stroke="black" stroke-width="0.932661"/>
<line x1="667.688" y1="269.612" x2="1113.5" y2="269.612" stroke="black" stroke-width="0.932661"/>
<line x1="104.496" y1="439.354" x2="550.308" y2="439.354" stroke="black" stroke-width="0.932661"/>
<line x1="667.688" y1="439.354" x2="1113.5" y2="439.354" stroke="black" stroke-width="0.932661"/>
<line x1="104.496" y1="609.1" x2="550.308" y2="609.1" stroke="black" stroke-width="0.932661"/>
<line x1="667.688" y1="609.1" x2="1113.5" y2="609.1" stroke="black" stroke-width="0.932661"/>
<line x1="251.392" y1="109.66" x2="251.392" y2="260.751" stroke="black" stroke-width="0.932661"/>
<line x1="814.584" y1="109.66" x2="814.583" y2="260.751" stroke="black" stroke-width="0.932661"/>
<line x1="251.392" y1="449.148" x2="251.392" y2="600.239" stroke="black" stroke-width="0.932661"/>
<line x1="814.584" y1="449.148" x2="814.583" y2="600.239" stroke="black" stroke-width="0.932661"/>
<line x1="251.392" y1="279.404" x2="251.392" y2="430.495" stroke="black" stroke-width="0.932661"/>
<line x1="814.584" y1="279.404" x2="814.583" y2="430.495" stroke="black" stroke-width="0.932661"/>
<line x1="404.349" y1="109.66" x2="404.349" y2="260.751" stroke="black" stroke-width="0.932661"/>
<line x1="967.541" y1="109.66" x2="967.541" y2="260.751" stroke="black" stroke-width="0.932661"/>
<line x1="404.349" y1="449.148" x2="404.349" y2="600.239" stroke="black" stroke-width="0.932661"/>
<line x1="967.541" y1="449.148" x2="967.541" y2="600.239" stroke="black" stroke-width="0.932661"/>
<line x1="404.349" y1="279.404" x2="404.349" y2="430.495" stroke="black" stroke-width="0.932661"/>
<line x1="967.541" y1="279.404" x2="967.541" y2="430.495" stroke="black" stroke-width="0.932661"/>
<ellipse cx="597.853" cy="60.8772" rx="3.70375" ry="1.09277" transform="rotate(-12.6642 597.853 60.8772)" fill="#BBBBBB"/>
<ellipse cx="597.853" cy="134.877" rx="3.70375" ry="1.09277" transform="rotate(-12.6642 597.853 134.877)" fill="#BBBBBB"/>
<ellipse cx="597.853" cy="208.877" rx="3.70375" ry="1.09277" transform="rotate(-12.6642 597.853 208.877)" fill="#BBBBBB"/>
<ellipse cx="597.853" cy="282.877" rx="3.70375" ry="1.09277" transform="rotate(-12.6642 597.853 282.877)" fill="#BBBBBB"/>
<ellipse cx="597.853" cy="356.877" rx="3.70375" ry="1.09277" transform="rotate(-12.6642 597.853 356.877)" fill="#BBBBBB"/>
<ellipse cx="597.853" cy="430.877" rx="3.70375" ry="1.09277" transform="rotate(-12.6642 597.853 430.877)" fill="#BBBBBB"/>
<ellipse cx="597.853" cy="504.877" rx="3.70375" ry="1.09277" transform="rotate(-12.6642 597.853 504.877)" fill="#BBBBBB"/>
<ellipse cx="597.853" cy="578.877" rx="3.70375" ry="1.09277" transform="rotate(-12.6642 597.853 578.877)" fill="#BBBBBB"/>
</svg>
