<svg width="22" height="23" viewBox="0 0 22 23" fill="none" xmlns="http://www.w3.org/2000/svg">
<path d="M10.9554 0.750001L10.9565 0.749998C12.3437 0.751588 13.7161 1.04564 14.9914 1.61423C16.2667 2.1828 17.4184 3.01406 18.378 4.05768C19.3376 5.10127 20.0855 6.33583 20.5774 7.68728C21.0694 9.0387 21.2955 10.4796 21.2424 11.924L21.2423 11.9264C21.1183 14.617 20.0402 17.165 18.2153 19.0728C16.3901 20.9809 13.9484 22.1119 11.3655 22.242L11.3629 22.2421C8.8093 22.3442 6.31192 21.4522 4.35392 19.7417C2.39623 18.0314 1.11705 15.6248 0.760803 12.9887L0.760061 12.9832L0.760122 12.9832C0.735584 12.7654 0.75577 12.5445 0.819485 12.3351C0.883205 12.1257 0.989157 11.9322 1.1309 11.7677C1.27266 11.6032 1.44707 11.4714 1.64289 11.3818L1.74685 11.6092L1.64289 11.3818C1.83875 11.2923 2.05114 11.2472 2.26574 11.2501M10.9554 0.750001L2.26237 11.5001M10.9554 0.750001C8.51514 0.757501 6.16056 1.66738 4.30607 3.31124M10.9554 0.750001L4.30607 3.31124M2.26574 11.2501L2.26237 11.5001M2.26574 11.2501C2.26522 11.2501 2.2647 11.2501 2.26418 11.2501L2.26237 11.5001M2.26574 11.2501C2.63443 11.2532 2.98781 11.3957 3.26097 11.6484C3.5337 11.9007 3.70808 12.2457 3.7548 12.6187M2.26237 11.5001C2.56792 11.5023 2.86237 11.6202 3.09119 11.8319C3.32002 12.0436 3.46772 12.3348 3.50697 12.6516M3.7548 12.6187C3.75471 12.618 3.75462 12.6173 3.75452 12.6167L3.50697 12.6516M3.7548 12.6187C4.02176 14.5074 4.95543 16.2206 6.36866 17.422C7.78204 18.6235 9.57272 19.2263 11.3875 19.1144C13.2024 19.0025 14.9136 18.1836 16.1828 16.8159C17.4523 15.4478 18.187 13.6301 18.2392 11.7208L18.2392 11.7207C18.2799 10.2431 17.9095 8.78564 17.1738 7.52524C16.4383 6.26493 15.3696 5.25656 14.099 4.62092C12.8284 3.98535 11.4096 3.74923 10.0143 3.94042C8.70286 4.12012 7.4636 4.67026 6.42913 5.53072M3.7548 12.6187C3.7549 12.6194 3.75499 12.6201 3.75508 12.6209L3.50697 12.6516M3.50697 12.6516L6.42913 5.53072M6.42913 5.53072L6.25592 5.34964C7.32831 4.45348 8.61601 3.87968 9.98036 3.69274C11.426 3.49465 12.8956 3.73941 14.2108 4.39733C15.526 5.05525 16.6303 6.09805 17.3898 7.39922C18.1492 8.70038 18.5311 10.204 18.4891 11.7276L6.42913 5.53072ZM6.42913 5.53072L7.19714 6.33362L7.19717 6.33364C7.34825 6.49163 7.44997 6.69159 7.49107 6.90769C7.53217 7.12375 7.51115 7.3478 7.43027 7.55196C7.34935 7.7562 7.21163 7.93255 7.03284 8.05747C6.85389 8.1825 6.64228 8.25002 6.42479 8.25006H6.42473H2.58628C2.29432 8.25006 2.01669 8.12871 1.81378 7.91659C1.61124 7.70484 1.49929 7.41993 1.49929 7.12506V3.11227V3.11222C1.49933 2.89216 1.56174 2.6762 1.67977 2.49158C1.79787 2.30685 1.96686 2.16114 2.16667 2.07463C2.36663 1.98805 2.58734 1.96519 2.80041 2.00948C3.01338 2.05376 3.20743 2.16274 3.35867 2.3208L3.35869 2.32083L4.30607 3.31124M6.42913 5.53072C6.36509 5.58398 6.30185 5.63843 6.23941 5.69406L7.01649 6.50643C7.13351 6.6288 7.21319 6.78469 7.24547 6.9544C7.27775 7.12411 7.26118 7.30002 7.19784 7.45988C7.13451 7.61975 7.02726 7.75639 6.88965 7.85254C6.75204 7.94869 6.59025 8.00003 6.42473 8.00006L4.30607 3.31124" fill="#999999" stroke="#999999" stroke-width="0.5"/>
</svg>
