<svg width="1920" height="184" viewBox="0 0 1920 184" fill="none" xmlns="http://www.w3.org/2000/svg">
<path d="M135.97 96.7211C127.603 22.9524 41.6698 1.50345 0 1.50133e-05H57.1552L113.809 1.11986e-05C428.955 -1.39983e-05 472.23 1.11986e-05 472.23 1.11986e-05C421.429 -0.000171302 417.132 55.4106 392.464 95.7469C380.51 115.292 330.208 121.835 312.278 86.2253C297.018 55.9179 293.737 32.5957 255.003 35.5815C222.132 38.1153 207.19 64.8396 207.19 113.788C207.19 183.949 185.434 183.09 175.814 183.949C159.275 185.425 142.582 155.02 135.97 96.7211Z" fill="#4AC7CF"/>
<path d="M1246.25 1.11986e-05C1291.07 0.541128 1368.33 10.9249 1381.08 96.7211C1397.02 203.966 1450.31 182.417 1458.78 159.866C1467.25 137.314 1474.22 43.0986 1505.1 42.0963C1535.98 41.0941 1533.99 84.6936 1537.97 90.7073C1541.95 96.7211 1559.39 118.27 1572.83 90.7073C1586.28 63.1443 1599.67 0.000517845 1650.53 11.5264C1662.48 17.3731 1687.38 41.3945 1691.37 90.7073C1696.35 152.348 1736.19 133.806 1741.67 108.749L1741.81 108.099C1747.32 82.8923 1757.39 36.8307 1803.43 21.0481C1848.75 5.51259 1901.07 3.84212 1920 1.11986e-05H1246.25Z" fill="#4AC7CF"/>
</svg>
