<svg width="1920" height="185" viewBox="0 0 1920 185" fill="none" xmlns="http://www.w3.org/2000/svg">
<path d="M135 96.972C126.6 23.372 40.8333 1.97196 -1 0.471957H451C400 0.471957 417.266 55.7559 392.5 96C380.5 115.5 330 122.028 312 86.5C296.68 56.2619 293.386 32.993 254.5 35.972C221.5 38.5 206.5 65.1634 206.5 114C206.5 184 184.658 183.143 175 184C158.396 185.473 141.638 155.137 135 96.972Z" fill="#4AC7CF"/>
<path d="M1259 0.471957C1265.24 -0.124157 1272.65 -0.201022 1280.69 0.5047L1921.5 1.47192C1902.5 5.30525 1854.5 5.97192 1809 21.4719C1762.78 37.2184 1752.67 83.1744 1747.14 108.324L1747 108.972C1741.5 133.972 1701.5 152.472 1696.5 90.9719C1692.5 41.7719 1667.5 17.8053 1655.5 11.9719C1612 -7.02808 1591 63.4719 1577.5 90.9719C1564 118.472 1546.5 96.972 1542.5 90.9719C1538.5 84.9719 1540.5 41.4719 1509.5 42.4719C1478.5 43.4719 1471.5 137.472 1463 159.972C1454.5 182.472 1401 203.972 1385 96.972C1374.38 25.9512 1319.89 3.94252 1280.69 0.5047L1259 0.471957Z" fill="#4AC7CF"/>
</svg>