<svg width="75" height="40" viewBox="0 0 75 40" fill="none" xmlns="http://www.w3.org/2000/svg">
<path d="M0.742 27.384C0.602 26.0493 0.532 24.6773 0.532 23.268C0.532 21.8587 0.602 20.4867 0.742 19.152C0.77 18.8907 0.826 18.648 0.91 18.424C0.994 18.2 1.11067 18.004 1.26 17.836C1.41867 17.668 1.60533 17.5373 1.82 17.444C2.044 17.3413 2.30533 17.29 2.604 17.29C2.89333 17.29 3.14533 17.3413 3.36 17.444C3.584 17.5373 3.77067 17.668 3.92 17.836C4.07867 18.004 4.2 18.2 4.284 18.424C4.368 18.648 4.424 18.8907 4.452 19.152C4.592 20.4867 4.662 21.8587 4.662 23.268C4.662 24.6773 4.592 26.0493 4.452 27.384C4.424 27.6453 4.368 27.888 4.284 28.112C4.2 28.3453 4.07867 28.546 3.92 28.714C3.77067 28.882 3.584 29.0127 3.36 29.106C3.14533 29.2087 2.89333 29.26 2.604 29.26C2.30533 29.26 2.044 29.2087 1.82 29.106C1.60533 29.0127 1.41867 28.882 1.26 28.714C1.11067 28.546 0.994 28.3453 0.91 28.112C0.826 27.888 0.77 27.6453 0.742 27.384ZM6.37131 19.95C6.50198 20.0247 6.64665 20.0807 6.80531 20.118C6.97331 20.146 7.13665 20.16 7.29531 20.16C7.39798 20.16 7.49598 20.1507 7.58931 20.132C7.69198 20.1133 7.78531 20.09 7.86931 20.062C7.90665 20.0433 7.92531 20.0153 7.92531 19.978C7.93465 19.9407 7.92998 19.908 7.91131 19.88C7.90198 19.8427 7.88331 19.8193 7.85531 19.81C7.82731 19.7913 7.79465 19.7913 7.75731 19.81C7.53331 19.8753 7.35131 19.908 7.21131 19.908C7.00598 19.908 6.81931 19.866 6.65131 19.782C6.49265 19.698 6.35265 19.586 6.23131 19.446C6.11931 19.306 6.03065 19.1473 5.96531 18.97C5.89998 18.7927 5.86731 18.6107 5.86731 18.424C5.86731 18.228 5.89531 18.0367 5.95131 17.85C6.01665 17.654 6.11931 17.4813 6.25931 17.332C6.39931 17.1827 6.57665 17.0613 6.79131 16.968C7.01531 16.8747 7.27665 16.828 7.57531 16.828C7.90198 16.828 8.18198 16.8887 8.41531 17.01C8.65798 17.1313 8.85398 17.2947 9.00331 17.5C9.16198 17.7053 9.27865 17.9387 9.35331 18.2C9.42798 18.452 9.46531 18.7133 9.46531 18.984C9.46531 19.2733 9.41865 19.5627 9.32531 19.852C9.23198 20.132 9.09665 20.384 8.91931 20.608C8.75131 20.832 8.54131 21.014 8.28931 21.154C8.03731 21.2847 7.74331 21.35 7.40731 21.35C7.08065 21.35 6.82398 21.2987 6.63731 21.196C6.45065 21.084 6.31998 20.958 6.24531 20.818C6.17998 20.6687 6.15665 20.5147 6.17531 20.356C6.20331 20.1973 6.26865 20.062 6.37131 19.95ZM38.9048 29.358C37.7941 29.358 36.8655 29.1993 36.1188 28.882C35.3815 28.5647 34.7888 28.1307 34.3408 27.58C33.9021 27.02 33.5895 26.3713 33.4028 25.634C33.2161 24.8873 33.1228 24.094 33.1228 23.254C33.1228 22.414 33.2161 21.6253 33.4028 20.888C33.5895 20.1413 33.9021 19.4927 34.3408 18.942C34.7888 18.3913 35.3815 17.9573 36.1188 17.64C36.8655 17.3133 37.7941 17.15 38.9048 17.15C39.5488 17.15 40.1275 17.2013 40.6408 17.304C41.1635 17.4067 41.6208 17.5653 42.0128 17.78C42.2928 17.92 42.5028 18.0973 42.6428 18.312C42.7921 18.5267 42.8855 18.76 42.9228 19.012C42.9695 19.2547 42.9648 19.5067 42.9088 19.768C42.8528 20.02 42.7595 20.2627 42.6288 20.496C42.4981 20.7387 42.3348 20.958 42.1388 21.154C41.9428 21.35 41.7235 21.504 41.4808 21.616C41.2475 21.7187 40.9955 21.7747 40.7248 21.784C40.4635 21.784 40.1928 21.714 39.9128 21.574C39.7915 21.5087 39.6468 21.4573 39.4788 21.42C39.3108 21.3733 39.1195 21.35 38.9048 21.35C38.5688 21.35 38.2841 21.4013 38.0508 21.504C37.8175 21.6067 37.6261 21.7467 37.4768 21.924C37.3368 22.1013 37.2295 22.302 37.1548 22.526C37.0895 22.75 37.0568 22.988 37.0568 23.24C37.0568 23.492 37.0895 23.7347 37.1548 23.968C37.2295 24.2013 37.3368 24.4067 37.4768 24.584C37.6261 24.7613 37.8175 24.9013 38.0508 25.004C38.2841 25.1067 38.5688 25.158 38.9048 25.158C39.1195 25.158 39.3108 25.1393 39.4788 25.102C39.6468 25.0553 39.7915 24.9993 39.9128 24.934C40.1928 24.794 40.4681 24.7287 40.7388 24.738C41.0188 24.738 41.2801 24.7987 41.5228 24.92C41.7655 25.0413 41.9801 25.2047 42.1668 25.41C42.3628 25.606 42.5261 25.83 42.6568 26.082C42.7781 26.3153 42.8621 26.558 42.9088 26.81C42.9555 27.062 42.9555 27.3093 42.9088 27.552C42.8715 27.7853 42.7781 28.0047 42.6288 28.21C42.4795 28.4247 42.2741 28.602 42.0128 28.742C41.6208 28.9567 41.1635 29.1107 40.6408 29.204C40.1275 29.3067 39.5488 29.358 38.9048 29.358ZM47.8228 25.326C47.8041 25.6713 47.7808 26.0167 47.7528 26.362C47.7341 26.698 47.7061 27.034 47.6688 27.37C47.6408 27.6313 47.5848 27.874 47.5008 28.098C47.4168 28.3313 47.2955 28.532 47.1368 28.7C46.9875 28.868 46.8008 28.9987 46.5768 29.092C46.3621 29.1947 46.1101 29.246 45.8208 29.246C45.5221 29.246 45.2608 29.1947 45.0368 29.092C44.8221 28.9987 44.6355 28.868 44.4768 28.7C44.3275 28.532 44.2108 28.3313 44.1268 28.098C44.0428 27.874 43.9868 27.6313 43.9588 27.37C43.8655 26.53 43.8048 25.676 43.7768 24.808C43.7581 23.94 43.7535 23.0673 43.7628 22.19C43.7721 21.182 43.8608 20.356 44.0288 19.712C44.2061 19.068 44.4861 18.5593 44.8688 18.186C45.2608 17.8033 45.7695 17.5373 46.3948 17.388C47.0201 17.2387 47.7948 17.1593 48.7188 17.15C50.1748 17.1313 51.2855 17.4907 52.0508 18.228C52.8255 18.956 53.2035 20.048 53.1848 21.504C53.1848 22.484 53.0168 23.2633 52.6808 23.842C52.3448 24.4207 51.7848 24.8547 51.0008 25.144C50.8795 25.1813 50.8328 25.2467 50.8608 25.34C50.8981 25.4333 50.9728 25.466 51.0848 25.438C51.2901 25.3913 51.4955 25.3167 51.7008 25.214C51.9155 25.102 52.1161 24.9853 52.3028 24.864C52.5455 25.0787 52.7835 25.34 53.0168 25.648C53.2501 25.956 53.4461 26.3293 53.6048 26.768C53.7635 27.2347 53.7635 27.6687 53.6048 28.07C53.4555 28.4713 53.1148 28.7933 52.5828 29.036C52.2935 29.1667 51.9948 29.2367 51.6868 29.246C51.3881 29.2553 51.0941 29.2087 50.8048 29.106C50.5155 29.0127 50.2495 28.868 50.0068 28.672C49.7641 28.4853 49.5635 28.2567 49.4048 27.986C49.1901 27.6313 49.0175 27.23 48.8868 26.782C48.7561 26.3247 48.6675 25.8487 48.6208 25.354C48.4901 25.354 48.3548 25.354 48.2148 25.354C48.0841 25.3447 47.9535 25.3353 47.8228 25.326ZM49.5448 21.91C49.2181 21.7887 48.9195 21.6533 48.6488 21.504C48.3875 21.3453 48.1261 21.1307 47.8648 20.86C47.8181 20.8227 47.7668 20.8133 47.7108 20.832C47.6641 20.8413 47.6175 20.8693 47.5708 20.916C47.5335 20.9533 47.5101 21.0047 47.5008 21.07C47.4915 21.1353 47.5101 21.2007 47.5568 21.266C47.7621 21.5367 48.0235 21.7607 48.3408 21.938C48.6675 22.106 48.9941 22.2507 49.3208 22.372C49.3955 22.4 49.4561 22.3953 49.5028 22.358C49.5588 22.3207 49.5961 22.274 49.6148 22.218C49.6335 22.162 49.6381 22.106 49.6288 22.05C49.6195 21.9847 49.5915 21.938 49.5448 21.91ZM58.635 26.866C58.6443 27.146 58.6256 27.426 58.579 27.706C58.5323 27.986 58.4343 28.2427 58.285 28.476C58.1356 28.7093 57.9303 28.896 57.669 29.036C57.4076 29.1853 57.0763 29.26 56.675 29.26C56.1336 29.26 55.6856 29.1013 55.331 28.784C54.9763 28.4667 54.7803 28.0373 54.743 27.496C54.687 26.124 54.659 24.7147 54.659 23.268C54.659 22.428 54.729 21.6487 54.869 20.93C55.009 20.202 55.2563 19.5673 55.611 19.026C55.9656 18.4847 56.4416 18.06 57.039 17.752C57.6456 17.444 58.4063 17.29 59.321 17.29C60.245 17.29 61.0056 17.444 61.603 17.752C62.2096 18.06 62.6903 18.4847 63.045 19.026C63.3996 19.5673 63.647 20.202 63.787 20.93C63.9363 21.6487 64.011 22.428 64.011 23.268C64.011 23.9867 64.0016 24.7007 63.983 25.41C63.9736 26.11 63.9503 26.8053 63.913 27.496C63.885 28.0373 63.689 28.4667 63.325 28.784C62.9703 29.1013 62.5176 29.26 61.967 29.26C61.5656 29.26 61.2343 29.1853 60.973 29.036C60.721 28.896 60.5203 28.7093 60.371 28.476C60.2216 28.2427 60.119 27.986 60.063 27.706C60.007 27.4167 59.9883 27.1367 60.007 26.866C59.8576 26.9033 59.7316 26.9313 59.629 26.95C59.5263 26.9687 59.4236 26.978 59.321 26.978C59.2276 26.978 59.125 26.9687 59.013 26.95C58.9103 26.9313 58.7843 26.9033 58.635 26.866ZM60.525 23.044C60.245 22.8293 59.9276 22.6893 59.573 22.624C59.2276 22.5587 58.8776 22.5167 58.523 22.498C58.439 22.498 58.3783 22.5213 58.341 22.568C58.3036 22.6147 58.2803 22.6707 58.271 22.736C58.2616 22.8013 58.271 22.862 58.299 22.918C58.3363 22.9647 58.383 22.9927 58.439 23.002C58.7843 23.0207 59.1063 23.0673 59.405 23.142C59.713 23.2167 60.0303 23.3427 60.357 23.52C60.4036 23.548 60.4503 23.548 60.497 23.52C60.5436 23.4827 60.581 23.436 60.609 23.38C60.637 23.324 60.6463 23.2633 60.637 23.198C60.6276 23.1327 60.5903 23.0813 60.525 23.044ZM69.1509 25.298C69.1323 25.6433 69.1089 25.9887 69.0809 26.334C69.0529 26.6793 69.0249 27.0247 68.9969 27.37C68.9689 27.6313 68.9129 27.874 68.8289 28.098C68.7449 28.3313 68.6236 28.532 68.4649 28.7C68.3156 28.868 68.1289 28.9987 67.9049 29.092C67.6903 29.1947 67.4383 29.246 67.1489 29.246C66.8503 29.246 66.5889 29.1947 66.3649 29.092C66.1503 28.9987 65.9636 28.868 65.8049 28.7C65.6556 28.532 65.5389 28.3313 65.4549 28.098C65.3709 27.874 65.3149 27.6313 65.2869 27.37C65.1469 26.0353 65.0769 24.6773 65.0769 23.296C65.0863 21.9147 65.1563 20.5567 65.2869 19.222C65.3243 18.886 65.4036 18.6013 65.5249 18.368C65.6463 18.1347 65.8003 17.9433 65.9869 17.794C66.1736 17.6447 66.3836 17.5327 66.6169 17.458C66.8596 17.374 67.1163 17.3133 67.3869 17.276C67.7136 17.2387 68.0449 17.2107 68.3809 17.192C68.7263 17.164 69.0623 17.15 69.3889 17.15C70.0423 17.1407 70.6863 17.178 71.3209 17.262C71.9649 17.346 72.5389 17.528 73.0429 17.808C73.5563 18.088 73.9669 18.4987 74.2749 19.04C74.5923 19.5813 74.7509 20.3047 74.7509 21.21C74.7509 21.8447 74.6763 22.386 74.5269 22.834C74.3869 23.282 74.1863 23.66 73.9249 23.968C73.6729 24.2667 73.3696 24.5093 73.0149 24.696C72.6696 24.8733 72.2869 25.0087 71.8669 25.102C71.4563 25.1953 71.0176 25.256 70.5509 25.284C70.0936 25.3027 69.6269 25.3073 69.1509 25.298ZM69.1509 21.504C69.7296 21.8027 70.3503 21.9193 71.0129 21.854C71.0969 21.8447 71.1529 21.812 71.1809 21.756C71.2183 21.7 71.2369 21.644 71.2369 21.588C71.2369 21.5227 71.2183 21.4667 71.1809 21.42C71.1529 21.3733 71.1109 21.35 71.0549 21.35C70.7096 21.3687 70.4016 21.35 70.1309 21.294C69.8603 21.238 69.5756 21.1447 69.2769 21.014C69.2209 20.986 69.1696 20.9907 69.1229 21.028C69.0763 21.056 69.0389 21.098 69.0109 21.154C68.9923 21.21 68.9923 21.2753 69.0109 21.35C69.0296 21.4153 69.0763 21.4667 69.1509 21.504Z" fill="white"/>
<path d="M24.4832 1.59731C24.4832 2.30688 23.9083 2.88211 23.199 2.88211C22.4898 2.88211 21.9148 2.30688 21.9148 1.59731C21.9148 0.887727 22.4898 0.3125 23.199 0.3125C23.9083 0.3125 24.4832 0.887727 24.4832 1.59731Z" fill="white"/>
<path d="M17.4071 25.361C20.4438 26.8613 24.6877 27.1604 28.1971 25.9064C28.6524 25.7437 29.0785 25.5609 29.4742 25.3607L29.6885 25.3591C29.7141 25.3589 29.7345 25.3805 29.7328 25.406C29.6821 26.2005 29.5377 27.3951 29.2685 28.3966C29.134 28.8971 28.9676 29.3522 28.7646 29.6854C28.687 29.8127 28.5956 29.9415 28.5026 30.0726C28.4287 30.1768 28.3536 30.2826 28.2838 30.3901C27.9292 30.5907 27.4855 30.7545 26.9964 30.8833C26.0116 31.1425 24.8892 31.2474 24.0541 31.2474C23.8768 31.2474 23.733 31.3912 23.733 31.5686C23.733 31.746 23.8768 31.8898 24.0541 31.8898C24.9318 31.8898 26.1108 31.7807 27.1598 31.5045C27.4311 31.4331 27.6968 31.3498 27.9482 31.2528L27.2468 37.5861C27.1267 38.6708 26.2104 39.4916 25.1195 39.4916H21.7208C20.63 39.4916 19.7137 38.6708 19.5935 37.5861L18.8831 31.1712C18.8398 30.7802 18.5832 30.4185 18.3377 30.0726C18.2447 29.9415 18.1533 29.8127 18.0758 29.6854C17.8727 29.3522 17.7063 28.8971 17.5718 28.3966C17.3027 27.3951 17.1582 26.2005 17.1076 25.406C17.1059 25.3805 17.1263 25.3589 17.1519 25.3591L17.4071 25.361Z" fill="white"/>
<path d="M23.8745 4.16692C24.9534 4.29744 25.7502 4.59992 26.37 4.98416C28.6737 6.2109 29.8898 7.64655 30.4269 8.4809C30.8122 9.07947 31.2032 10.0613 31.4655 10.9726C31.7034 11.9539 31.6629 12.5702 31.6086 12.9101C31.5174 13.48 31.3112 13.8742 31.057 14.1491C30.8014 14.4257 30.4763 14.6041 30.1145 14.7073C29.4145 14.9068 28.6171 14.8121 28.0881 14.6387C26.6314 13.9829 24.6813 13.4127 22.4756 13.5739C22.2399 13.5911 22.0627 13.7963 22.0799 14.0322C22.0971 14.2681 22.3022 14.4454 22.538 14.4282C24.5119 14.2839 26.2745 14.7787 27.6178 15.3669C27.6463 15.3862 27.6775 15.4023 27.7113 15.4145C27.7321 15.4221 27.7532 15.4296 27.7747 15.4369C28.6797 15.8479 29.3805 16.2932 29.8085 16.5929C30.1202 16.8398 30.4037 17.1065 30.6541 17.392C33.0027 20.0706 31.5506 23.3972 27.4109 24.8222C23.2712 26.2473 18.0113 25.2311 15.6628 22.5525C14.6684 21.4184 14.3554 20.1681 14.6391 18.9952C14.6705 18.9119 14.7175 18.8041 14.7833 18.6819C14.9074 18.4515 15.0849 18.196 15.3178 17.9809C15.5491 17.7673 15.8297 17.5982 16.1667 17.5242C16.5014 17.4507 16.9205 17.4647 17.442 17.6612C17.4598 17.6679 17.4777 17.6734 17.4958 17.6776C19.0142 18.4815 20.9682 19.1563 23.9061 19.1562C24.1425 19.1562 24.3341 18.9645 24.3341 18.728C24.3341 18.6619 24.3192 18.5993 24.2925 18.5434C24.2275 18.3897 24.0753 18.2819 23.898 18.2819C20.2311 18.2819 18.2266 17.185 16.5826 16.129C16.2416 15.8661 15.933 15.58 15.6628 15.2719C13.3143 12.5933 14.7663 9.26672 18.9061 7.8417C19.2305 7.73001 19.5619 7.63331 19.8982 7.55124C23.9152 6.4734 23.9854 4.96967 23.8745 4.16692Z" fill="white"/>
<path d="M30.2997 15.8913L30.2943 15.8876L30.3054 15.8861L30.2997 15.8913Z" fill="white"/>
</svg>
