<svg width="621" height="406" viewBox="0 0 621 406" fill="none" xmlns="http://www.w3.org/2000/svg">
<rect x="1" y="71.6562" width="620" height="283.566" rx="8.73855" fill="#4AC7CF"/>
<rect x="14.9844" y="131.078" width="589.415" height="212.784" rx="6.55391" fill="white"/>
<rect x="568.566" y="38.4492" width="51.1205" height="19.2248" rx="9.6124" fill="#FEDC74"/>
<path d="M248.914 31.8971C247.795 31.8971 247.201 31.0407 247.201 29.5202C247.201 27.7375 248.075 26.3918 249.84 25.483L250.434 26.6365C249.281 27.2307 248.721 27.9822 248.721 29.1532L248.844 30.7611L247.9 29.5027C248.197 29.2755 248.529 29.1008 248.914 29.1008C249.665 29.1008 250.294 29.6076 250.294 30.429C250.294 31.3378 249.717 31.8971 248.914 31.8971ZM258.529 39.3423C255.086 39.3423 252.744 36.7907 252.744 32.5787C252.744 28.3667 255.086 25.9374 258.529 25.9374C261.955 25.9374 264.297 28.3842 264.297 32.5787C264.297 36.7907 261.955 39.3423 258.529 39.3423ZM258.529 37.1053C260.452 37.1053 261.675 35.3401 261.675 32.5787C261.675 29.8173 260.452 28.157 258.529 28.157C256.589 28.157 255.383 29.8173 255.383 32.5787C255.383 35.3401 256.589 37.1053 258.529 37.1053ZM271.979 39.3423C268.536 39.3423 266.194 36.7907 266.194 32.5787C266.194 28.3667 268.536 25.9374 271.979 25.9374C275.404 25.9374 277.746 28.3842 277.746 32.5787C277.746 36.7907 275.404 39.3423 271.979 39.3423ZM271.979 37.1053C273.901 37.1053 275.124 35.3401 275.124 32.5787C275.124 29.8173 273.901 28.157 271.979 28.157C270.039 28.157 268.833 29.8173 268.833 32.5787C268.833 35.3401 270.039 37.1053 271.979 37.1053ZM280.639 31.7048L280.045 30.5688C281.198 29.9571 281.757 29.2231 281.757 28.0347L281.635 26.4442L282.561 27.6851C282.282 27.9298 281.95 28.0871 281.583 28.0871C280.814 28.0871 280.185 27.5802 280.185 26.7413C280.185 25.85 280.761 25.2907 281.583 25.2907C282.684 25.2907 283.278 26.1646 283.278 27.6502C283.278 29.4328 282.404 30.796 280.639 31.7048ZM290.29 25.5354C292.841 25.5354 294.746 27.1958 294.746 29.5202C294.746 31.8621 292.841 33.5225 290.29 33.5225C287.756 33.5225 285.816 31.8621 285.816 29.5202C285.816 27.1958 287.756 25.5354 290.29 25.5354ZM290.29 27.5278C289.049 27.5278 288.105 28.2619 288.105 29.5202C288.105 30.796 289.049 31.5301 290.29 31.5301C291.531 31.5301 292.474 30.796 292.474 29.5202C292.474 28.2619 291.531 27.5278 290.29 27.5278ZM296.267 24.4518H298.591V40.6881H296.267V24.4518ZM285.431 37.4024L285.151 35.5323C288 35.5323 291.968 35.4974 295.376 34.9905L295.55 36.6683C292.037 37.3674 288.227 37.4024 285.431 37.4024ZM305.451 25.448H314.085V27.3006H305.451V25.448ZM305.276 33.1554L305.031 31.2679C307.758 31.2679 311.515 31.233 314.644 30.8135L314.801 32.5263C311.62 33.0855 307.95 33.1554 305.276 33.1554ZM306.727 26.7413H308.964V32.1068H306.727V26.7413ZM310.589 26.7413H312.809V32.1068H310.589V26.7413ZM315.535 24.4693H317.86V33.47H315.535V24.4693ZM317.213 27.9473H320.009V29.8523H317.213V27.9473ZM307.286 34.0817H309.593V35.4624H315.553V34.0817H317.86V40.4783H307.286V34.0817ZM309.593 37.2626V38.6258H315.553V37.2626H309.593ZM329.376 28.0347H333.43V29.9047H329.376V28.0347ZM325.67 25.1335C328.1 25.1335 329.935 26.7588 329.935 28.9959C329.935 31.2504 328.1 32.8583 325.67 32.8583C323.224 32.8583 321.389 31.2504 321.389 28.9959C321.389 26.7588 323.224 25.1335 325.67 25.1335ZM325.67 27.0734C324.482 27.0734 323.608 27.79 323.608 28.9959C323.608 30.2018 324.482 30.9359 325.67 30.9359C326.859 30.9359 327.715 30.2018 327.715 28.9959C327.715 27.79 326.859 27.0734 325.67 27.0734ZM332.417 24.4693H334.741V33.1729H332.417V24.4693ZM323.993 33.872H326.3V35.41H332.434V33.872H334.741V40.4783H323.993V33.872ZM326.3 37.1927V38.6258H332.434V37.1927H326.3ZM345.795 24.9412C348.259 24.9412 350.112 26.4792 350.112 28.6464C350.112 30.796 348.259 32.334 345.795 32.334C343.331 32.334 341.478 30.796 341.478 28.6464C341.478 26.4792 343.331 24.9412 345.795 24.9412ZM345.795 26.8287C344.607 26.8287 343.715 27.4929 343.715 28.6464C343.715 29.7998 344.607 30.464 345.795 30.464C346.984 30.464 347.857 29.7998 347.857 28.6464C347.857 27.4929 346.984 26.8287 345.795 26.8287ZM352.349 24.4693H354.691V32.5612H352.349V24.4693ZM343.89 33.2254H354.691V37.6645H346.197V39.622H343.925V35.9867H352.384V35.0255H343.89V33.2254ZM343.925 38.6782H355.093V40.4783H343.925V38.6782ZM366.085 28.3842H369.161V30.2717H366.085V28.3842ZM368.531 24.4693H370.856V34.0817H368.531V24.4693ZM365.368 34.4313C368.794 34.4313 370.908 35.6022 370.908 37.5597C370.908 39.5346 368.794 40.6706 365.368 40.6706C361.943 40.6706 359.828 39.5346 359.828 37.5597C359.828 35.6022 361.943 34.4313 365.368 34.4313ZM365.368 36.1965C363.271 36.1965 362.152 36.6334 362.152 37.5597C362.152 38.4685 363.271 38.9054 365.368 38.9054C367.483 38.9054 368.601 38.4685 368.601 37.5597C368.601 36.6334 367.483 36.1965 365.368 36.1965ZM361.051 26.0947H362.939V27.1084C362.939 30.2018 361.506 33.0331 358.412 34.0817L357.224 32.2466C359.898 31.3378 361.051 29.1881 361.051 27.1084V26.0947ZM361.541 26.0947H363.411V27.1084C363.411 29.0134 364.512 30.9883 367.063 31.8447L365.927 33.6798C362.921 32.6836 361.541 29.9921 361.541 27.1084V26.0947ZM357.853 25.448H366.557V27.3006H357.853V25.448Z" fill="#4AC7CF"/>
<path d="M251.394 4.92283H252.486V14.9066H251.394V4.92283ZM249.886 8.88795H251.688V9.81642H249.886V8.88795ZM249.143 5.11945H250.214V14.4151H249.143V5.11945ZM244.435 6.08069H245.582V11.8481H244.435V6.08069ZM244.435 11.4003H245.091C246.096 11.4003 247.221 11.3457 248.499 11.0944L248.619 12.0884C247.286 12.3397 246.14 12.3834 245.091 12.3834H244.435V11.4003ZM260.634 4.91191H261.781V14.8957H260.634V4.91191ZM261.475 8.8661H263.277V9.8055H261.475V8.8661ZM258.045 5.97146H259.17C259.17 8.87703 257.936 11.444 254.67 13.0825L254.025 12.2086C256.723 10.8323 258.045 8.83333 258.045 6.16808V5.97146ZM254.528 5.97146H258.635V6.89993H254.528V5.97146ZM270.47 10.4063H271.606V12.0338H270.47V10.4063ZM266.538 9.75088H275.561V10.6684H266.538V9.75088ZM267.543 11.6843H274.457V14.9066H273.321V12.6018H267.543V11.6843ZM267.718 5.16314H268.843V6.179H273.267V5.16314H274.403V8.95349H267.718V5.16314ZM268.843 7.05285V8.04686H273.267V7.05285H268.843ZM276.947 5.895H281.611V12.4161H276.947V5.895ZM280.486 6.80162H278.072V11.5095H280.486V6.80162ZM283.184 4.92283H284.331V14.9066H283.184V4.92283ZM284.069 8.81149H285.882V9.7618H284.069V8.81149ZM287.695 5.87315H294.008V6.80162H287.695V5.87315ZM286.646 12.6674H295.668V13.6177H286.646V12.6674ZM293.517 5.87315H294.642V7.0747C294.642 8.52748 294.642 9.9038 294.205 12.0011L293.069 11.8918C293.517 9.93657 293.517 8.49471 293.517 7.0747V5.87315ZM293.779 8.62579V9.4778L287.563 9.79457L287.411 8.8661L293.779 8.62579ZM303.336 4.93375H304.483V12.4052H303.336V4.93375ZM304.144 8.10148H305.892V9.0518H304.144V8.10148ZM296.705 6.06977H302.582V6.97639H296.705V6.06977ZM299.644 7.43516C301.064 7.43516 302.058 8.19979 302.058 9.32488C302.058 10.4609 301.064 11.2146 299.644 11.2146C298.213 11.2146 297.219 10.4609 297.219 9.32488C297.219 8.19979 298.213 7.43516 299.644 7.43516ZM299.644 8.31994C298.857 8.31994 298.322 8.70225 298.322 9.32488C298.322 9.95842 298.857 10.3298 299.644 10.3298C300.43 10.3298 300.965 9.95842 300.965 9.32488C300.965 8.70225 300.43 8.31994 299.644 8.31994ZM299.076 4.92283H300.212V6.51762H299.076V4.92283ZM298.169 13.7815H304.887V14.71H298.169V13.7815ZM298.169 11.8263H299.316V14.1748H298.169V11.8263ZM309.448 5.57822H314.778V6.49577H309.448V5.57822ZM309.306 10.155L309.174 9.22657C310.879 9.22657 313.238 9.20472 315.193 8.94256L315.27 9.79457C313.282 10.1223 310.977 10.155 309.306 10.155ZM310.343 6.21177H311.447V9.63073H310.343V6.21177ZM312.779 6.21177H313.882V9.63073H312.779V6.21177ZM315.838 4.92283H316.985V10.4609H315.838V4.92283ZM316.668 7.16208H318.394V8.1124H316.668V7.16208ZM310.594 10.865H311.731V11.9027H315.849V10.865H316.985V14.7865H310.594V10.865ZM311.731 12.7984V13.858H315.849V12.7984H311.731ZM324.269 7.22762H326.869V8.1561H324.269V7.22762ZM321.976 5.35976C323.472 5.35976 324.575 6.33192 324.575 7.70824C324.575 9.08457 323.472 10.0458 321.976 10.0458C320.479 10.0458 319.376 9.08457 319.376 7.70824C319.376 6.33192 320.479 5.35976 321.976 5.35976ZM321.976 6.321C321.102 6.321 320.468 6.86716 320.468 7.70824C320.468 8.53841 321.102 9.09549 321.976 9.09549C322.849 9.09549 323.472 8.53841 323.472 7.70824C323.472 6.86716 322.849 6.321 321.976 6.321ZM326.367 4.92283H327.514V10.2861H326.367V4.92283ZM321.014 10.7558H322.15V11.87H326.378V10.7558H327.514V14.7865H321.014V10.7558ZM322.15 12.7657V13.8689H326.378V12.7657H322.15ZM333.794 5.07576C336.033 5.07576 337.355 5.68745 337.355 6.80162C337.355 7.90486 336.033 8.51656 333.794 8.51656C331.554 8.51656 330.244 7.90486 330.244 6.80162C330.244 5.68745 331.554 5.07576 333.794 5.07576ZM333.794 5.92777C332.253 5.92777 331.423 6.23361 331.423 6.80162C331.423 7.36963 332.253 7.66455 333.794 7.66455C335.345 7.66455 336.164 7.36963 336.164 6.80162C336.164 6.23361 335.345 5.92777 333.794 5.92777ZM329.282 9.09549H338.305V10.0021H329.282V9.09549ZM330.353 10.734H337.18V13.1152H331.5V14.1857H330.364V12.3069H336.055V11.586H330.353V10.734ZM330.364 13.9345H337.464V14.8192H330.364V13.9345ZM348.437 4.93375H349.583V12.4052H348.437V4.93375ZM349.245 8.10148H350.993V9.0518H349.245V8.10148ZM341.806 6.06977H347.683V6.97639H341.806V6.06977ZM344.744 7.43516C346.164 7.43516 347.158 8.19979 347.158 9.32488C347.158 10.4609 346.164 11.2146 344.744 11.2146C343.314 11.2146 342.32 10.4609 342.32 9.32488C342.32 8.19979 343.314 7.43516 344.744 7.43516ZM344.744 8.31994C343.958 8.31994 343.423 8.70225 343.423 9.32488C343.423 9.95842 343.958 10.3298 344.744 10.3298C345.531 10.3298 346.066 9.95842 346.066 9.32488C346.066 8.70225 345.531 8.31994 344.744 8.31994ZM344.176 4.92283H345.312V6.51762H344.176V4.92283ZM343.27 13.7815H349.988V14.71H343.27V13.7815ZM343.27 11.8263H344.417V14.1748H343.27V11.8263ZM353.034 7.79563H359.861V8.70225H353.034V7.79563ZM353.034 5.25053H354.17V8.1561H353.034V5.25053ZM351.844 9.73996H360.866V10.6575H351.844V9.73996ZM355.874 10.3626H357.01V12.5691H355.874V10.3626ZM352.947 13.7815H359.916V14.71H352.947V13.7815ZM352.947 11.7498H354.083V14.2512H352.947V11.7498ZM365.912 8.71318H367.681V9.64165H365.912V8.71318ZM369.32 4.92283H370.412V14.9066H369.32V4.92283ZM367.31 5.10853H368.391V14.426H367.31V5.10853ZM364.131 5.69838C365.442 5.69838 366.283 7.05285 366.283 9.23749C366.283 11.4331 365.442 12.7875 364.131 12.7875C362.832 12.7875 361.99 11.4331 361.99 9.23749C361.99 7.05285 362.832 5.69838 364.131 5.69838ZM364.131 6.76885C363.454 6.76885 363.039 7.66455 363.039 9.23749C363.039 10.8104 363.454 11.7061 364.131 11.7061C364.82 11.7061 365.235 10.8104 365.235 9.23749C365.235 7.66455 364.82 6.76885 364.131 6.76885ZM372.891 11.444L372.705 7.0747L372.672 5.76392H373.94L373.907 7.0747L373.732 11.444H372.891ZM373.306 14.1529C372.836 14.1529 372.465 13.7815 372.465 13.2681C372.465 12.7438 372.836 12.3834 373.306 12.3834C373.787 12.3834 374.147 12.7438 374.147 13.2681C374.147 13.7815 373.787 14.1529 373.306 14.1529Z" fill="#777777"/>
<path d="M581.295 48.4716H581.832V49.494H581.295V48.4716ZM578.89 48.1767H584.244V48.6223H578.89V48.1767ZM579.486 49.3105H583.582V51.2046H583.038V49.7496H579.486V49.3105ZM579.604 45.4175H580.142V46.086H583.006V45.4175H583.55V47.6327H579.604V45.4175ZM580.142 46.512V47.2001H583.006V46.512H580.142ZM585.155 45.8697H587.875V49.7037H585.155V45.8697ZM587.344 46.3088H585.686V49.2646H587.344V46.3088ZM588.93 45.2798H589.48V51.2046H588.93V45.2798ZM589.349 47.6458H590.45V48.1046H589.349V47.6458ZM591.59 45.8828H595.352V46.3285H591.59V45.8828ZM590.954 49.9266H596.309V50.3853H590.954V49.9266ZM595.116 45.8828H595.647V46.6103C595.647 47.4819 595.647 48.2881 595.398 49.5005L594.861 49.4481C595.116 48.3077 595.116 47.4623 595.116 46.6103V45.8828ZM595.254 47.5213V47.9276L591.512 48.1308L591.433 47.6786L595.254 47.5213ZM598.764 45.7386H601.385V46.1843H598.764V45.7386ZM599.655 47.0625H600.193V48.5437H599.655V47.0625ZM601.169 45.7386H601.707V46.0532C601.707 46.4399 601.707 47.0297 601.549 47.8096L601.018 47.7507C601.169 46.9707 601.169 46.4333 601.169 46.0532V45.7386ZM602.513 45.2798H603.057V49.743H602.513V45.2798ZM602.808 47.2067H603.902V47.6589H602.808V47.2067ZM599.314 50.6278H603.247V51.0735H599.314V50.6278ZM599.314 49.3301H599.852V50.7655H599.314V49.3301ZM598.462 48.7993L598.403 48.3536C599.459 48.3536 600.913 48.3274 602.113 48.1635L602.152 48.5568C600.92 48.7731 599.504 48.7993 598.462 48.7993ZM608.791 45.2733H609.335V51.2111H608.791V45.2733ZM604.819 49.3301H605.311C606.3 49.3301 607.185 49.2908 608.234 49.1204L608.293 49.5661C607.218 49.743 606.327 49.7824 605.311 49.7824H604.819V49.3301ZM604.806 45.8304H607.546V47.9473H605.363V49.5005H604.819V47.5016H606.995V46.276H604.806V45.8304Z" fill="#B4643A"/>
<path d="M286.096 119.737V110.038H288.233L289.885 114.586C290.107 115.189 290.278 115.818 290.488 116.447H290.54C290.763 115.818 290.933 115.189 291.13 114.586L292.742 110.038H294.892V119.737H293.122V115.687C293.122 114.769 293.28 113.419 293.384 112.502H293.319L292.519 114.783L291.025 118.872H289.911L288.417 114.783L287.63 112.502H287.578C287.682 113.419 287.827 114.769 287.827 115.687V119.737H286.096ZM301.125 119.921C298.543 119.921 296.786 118.007 296.786 114.848C296.786 111.689 298.543 109.867 301.125 109.867C303.694 109.867 305.451 111.702 305.451 114.848C305.451 118.007 303.694 119.921 301.125 119.921ZM301.125 118.243C302.567 118.243 303.484 116.919 303.484 114.848C303.484 112.777 302.567 111.532 301.125 111.532C299.67 111.532 298.766 112.777 298.766 114.848C298.766 116.919 299.67 118.243 301.125 118.243ZM307.358 119.737V110.038H309.324L312.143 115.215L313.126 117.312H313.191C313.086 116.303 312.929 115.005 312.929 113.904V110.038H314.777V119.737H312.798L309.993 114.547L309.01 112.476H308.944C309.036 113.511 309.193 114.73 309.193 115.857V119.737H307.358ZM319.103 119.737V111.65H316.364V110.038H323.783V111.65H321.043V119.737H319.103ZM325.369 119.737V110.038H327.309V113.865H330.979V110.038H332.906V119.737H330.979V115.543H327.309V119.737H325.369Z" fill="black"/>
<path d="M41.0526 155.28C39.9385 155.28 38.9226 154.843 38.1908 154.1L38.9335 153.215C39.5015 153.794 40.2989 154.166 41.0745 154.166C42.0357 154.166 42.5819 153.718 42.5819 153.03C42.5819 152.298 42.0357 152.068 41.2929 151.752L40.1788 151.26C39.4032 150.943 38.5512 150.332 38.5512 149.163C38.5512 147.896 39.6545 146.945 41.1837 146.945C42.134 146.945 43.0188 147.339 43.6196 147.961L42.9642 148.759C42.4617 148.322 41.8937 148.049 41.1837 148.049C40.3645 148.049 39.8402 148.442 39.8402 149.076C39.8402 149.764 40.4846 150.026 41.14 150.299L42.2433 150.758C43.1936 151.162 43.8817 151.752 43.8817 152.931C43.8817 154.22 42.8113 155.28 41.0526 155.28ZM48.3537 155.28C46.5623 155.28 45.3607 154.297 45.3607 151.686V147.087H46.6278V151.763C46.6278 153.576 47.3487 154.166 48.3537 154.166C49.3586 154.166 50.1123 153.576 50.1123 151.763V147.087H51.3357V151.686C51.3357 154.297 50.1342 155.28 48.3537 155.28ZM53.4045 155.127V147.087H54.7044L57.3806 151.817L58.2217 153.51H58.2763C58.1998 152.691 58.1015 151.708 58.1015 150.845V147.087H59.314V155.127H58.0032L55.3489 150.397L54.5078 148.704H54.4532C54.5078 149.545 54.617 150.463 54.617 151.348V155.127H53.4045Z" fill="black"/>
<path d="M125.693 155.127V147.087H127.157L128.621 151.162C128.817 151.686 128.981 152.232 129.167 152.778H129.21C129.407 152.232 129.56 151.686 129.735 151.162L131.188 147.087H132.651V155.127H131.482V151.162C131.482 150.43 131.581 149.403 131.646 148.671H131.603L130.947 150.528L129.549 154.362H128.763L127.364 150.528L126.72 148.671H126.676C126.742 149.403 126.84 150.43 126.84 151.162V155.127H125.693ZM137.83 155.28C135.754 155.28 134.323 153.674 134.323 151.074C134.323 148.486 135.754 146.945 137.83 146.945C139.894 146.945 141.325 148.486 141.325 151.074C141.325 153.674 139.894 155.28 137.83 155.28ZM137.83 154.166C139.162 154.166 140.025 152.953 140.025 151.074C140.025 149.196 139.162 148.049 137.83 148.049C136.486 148.049 135.634 149.196 135.634 151.074C135.634 152.953 136.486 154.166 137.83 154.166ZM142.995 155.127V147.087H144.295L146.971 151.817L147.812 153.51H147.867C147.791 152.691 147.692 151.708 147.692 150.845V147.087H148.905V155.127H147.594L144.94 150.397L144.099 148.704H144.044C144.099 149.545 144.208 150.463 144.208 151.348V155.127H142.995Z" fill="black"/>
<path d="M216.906 155.127V148.158H214.546V147.087H220.543V148.158H218.184V155.127H216.906ZM224.905 155.28C223.114 155.28 221.912 154.297 221.912 151.686V147.087H223.179V151.763C223.179 153.576 223.9 154.166 224.905 154.166C225.91 154.166 226.664 153.576 226.664 151.763V147.087H227.887V151.686C227.887 154.297 226.686 155.28 224.905 155.28ZM229.956 155.127V147.087H234.719V148.158H231.234V150.386H234.172V151.468H231.234V154.056H234.839V155.127H229.956Z" fill="black"/>
<path d="M301.734 155.127L300.096 147.087H301.407L302.149 151.271C302.302 152.123 302.444 152.986 302.586 153.86H302.63C302.805 152.986 302.99 152.123 303.176 151.271L304.203 147.087H305.328L306.366 151.271C306.562 152.112 306.726 152.986 306.923 153.86H306.977C307.108 152.986 307.25 152.123 307.382 151.271L308.146 147.087H309.359L307.775 155.127H306.202L305.131 150.659C304.989 150.037 304.869 149.436 304.76 148.824H304.716C304.596 149.436 304.454 150.037 304.334 150.659L303.274 155.127H301.734ZM310.665 155.127V147.087H315.427V148.158H311.943V150.386H314.881V151.468H311.943V154.056H315.547V155.127H310.665ZM317.214 155.127V147.087H319.311C321.78 147.087 323.178 148.453 323.178 151.074C323.178 153.696 321.78 155.127 319.377 155.127H317.214ZM318.492 154.089H319.213C320.939 154.089 321.878 153.073 321.878 151.074C321.878 149.076 320.939 148.114 319.213 148.114H318.492V154.089Z" fill="black"/>
<path d="M390.8 155.127V148.158H388.441V147.087H394.438V148.158H392.078V155.127H390.8ZM395.84 155.127V147.087H397.118V150.375H400.558V147.087H401.825V155.127H400.558V151.479H397.118V155.127H395.84ZM406.896 155.28C405.105 155.28 403.903 154.297 403.903 151.686V147.087H405.17V151.763C405.17 153.576 405.891 154.166 406.896 154.166C407.901 154.166 408.655 153.576 408.655 151.763V147.087H409.878V151.686C409.878 154.297 408.677 155.28 406.896 155.28Z" fill="black"/>
<path d="M478.299 155.127V147.087H483.072V148.158H479.577V150.605H482.548V151.675H479.577V155.127H478.299ZM484.486 155.127V147.087H487.118C488.778 147.087 490.024 147.677 490.024 149.425C490.024 151.107 488.778 151.883 487.118 151.883H485.764V155.127H484.486ZM485.764 150.867H486.976C488.134 150.867 488.767 150.386 488.767 149.425C488.767 148.453 488.134 148.114 486.976 148.114H485.764V150.867ZM488.888 155.127L486.878 151.555L487.817 150.812L490.308 155.127H488.888ZM491.654 155.127V147.087H492.932V155.127H491.654Z" fill="black"/>
<path d="M45.9594 191.401C44.854 191.401 44.1331 190.959 43.6525 190.421L44.2004 189.709C44.6137 190.132 45.1328 190.488 45.8729 190.488C46.6611 190.488 47.2091 190.046 47.2091 189.315C47.2091 188.527 46.7092 188.027 45.1232 188.027V187.201C46.5073 187.201 46.9687 186.681 46.9687 185.97C46.9687 185.345 46.565 184.951 45.8825 184.951C45.3442 184.951 44.8828 185.211 44.4791 185.615L43.8928 184.913C44.4599 184.413 45.1135 184.067 45.9306 184.067C47.1994 184.067 48.0934 184.721 48.0934 185.884C48.0934 186.701 47.6224 187.268 46.8726 187.547V187.595C47.6897 187.806 48.3337 188.412 48.3337 189.373C48.3337 190.651 47.2667 191.401 45.9594 191.401ZM51.6145 191.401C50.2207 191.401 49.3268 190.161 49.3268 187.7C49.3268 185.259 50.2207 184.067 51.6145 184.067C52.9987 184.067 53.9023 185.259 53.9023 187.7C53.9023 190.161 52.9987 191.401 51.6145 191.401ZM51.6145 190.517C52.3355 190.517 52.8353 189.748 52.8353 187.7C52.8353 185.682 52.3355 184.932 51.6145 184.932C50.8936 184.932 50.3841 185.682 50.3841 187.7C50.3841 189.748 50.8936 190.517 51.6145 190.517Z" fill="#777777"/>
<path d="M134.225 191.401C133.12 191.401 132.399 190.959 131.918 190.421L132.466 189.709C132.879 190.132 133.398 190.488 134.139 190.488C134.927 190.488 135.475 190.046 135.475 189.315C135.475 188.527 134.975 188.027 133.389 188.027V187.201C134.773 187.201 135.234 186.681 135.234 185.97C135.234 185.345 134.831 184.951 134.148 184.951C133.61 184.951 133.148 185.211 132.745 185.615L132.158 184.913C132.726 184.413 133.379 184.067 134.196 184.067C135.465 184.067 136.359 184.721 136.359 185.884C136.359 186.701 135.888 187.268 135.138 187.547V187.595C135.955 187.806 136.599 188.412 136.599 189.373C136.599 190.651 135.532 191.401 134.225 191.401ZM137.958 191.267V190.353H139.515V185.432H138.236V184.73C138.909 184.615 139.371 184.442 139.784 184.192H140.62V190.353H142.005V191.267H137.958Z" fill="#777777"/>
<circle cx="224.705" cy="187.005" r="10.4863" fill="#D9D9D9"/>
<path d="M223.158 191.266V190.352H224.715V185.431H223.437V184.729C224.11 184.614 224.571 184.441 224.984 184.191H225.821V190.352H227.205V191.266H223.158Z" fill="black"/>
<circle cx="312.092" cy="187.005" r="10.4863" fill="#D9D9D9"/>
<path d="M310.141 191.266V190.622C312.237 188.776 313.304 187.401 313.304 186.238C313.304 185.479 312.9 184.95 312.112 184.95C311.554 184.95 311.093 185.296 310.718 185.729L310.083 185.123C310.699 184.46 311.323 184.066 312.246 184.066C313.544 184.066 314.38 184.902 314.38 186.19C314.38 187.546 313.284 188.959 311.785 190.401C312.15 190.362 312.602 190.324 312.948 190.324H314.717V191.266H310.141Z" fill="black"/>
<circle cx="399.471" cy="187.005" r="10.4863" fill="#D9D9D9"/>
<path d="M399.673 191.4C398.568 191.4 397.847 190.958 397.366 190.42L397.914 189.708C398.327 190.131 398.846 190.487 399.587 190.487C400.375 190.487 400.923 190.045 400.923 189.314C400.923 188.526 400.423 188.026 398.837 188.026V187.2C400.221 187.2 400.682 186.681 400.682 185.969C400.682 185.344 400.279 184.95 399.596 184.95C399.058 184.95 398.597 185.21 398.193 185.614L397.606 184.912C398.174 184.412 398.827 184.066 399.644 184.066C400.913 184.066 401.807 184.72 401.807 185.883C401.807 186.7 401.336 187.267 400.586 187.546V187.594C401.403 187.805 402.047 188.411 402.047 189.372C402.047 190.65 400.98 191.4 399.673 191.4Z" fill="black"/>
<circle cx="485.99" cy="187.004" r="10.4863" fill="#D9D9D9"/>
<path d="M486.875 191.265V186.651C486.875 186.276 486.904 185.67 486.933 185.286H486.885C486.712 185.641 486.519 186.016 486.318 186.382L484.933 188.506H488.817V189.371H483.818V188.621L486.625 184.19H487.913V191.265H486.875Z" fill="black"/>
<circle cx="571.185" cy="187.004" r="11.1416" stroke="#4AC7CF" stroke-width="1.31078"/>
<path d="M571.398 191.399C570.283 191.399 569.581 190.947 569.071 190.448L569.61 189.727C570.004 190.13 570.523 190.486 571.263 190.486C572.061 190.486 572.657 189.919 572.657 188.977C572.657 188.044 572.119 187.506 571.311 187.506C570.869 187.506 570.6 187.631 570.186 187.9L569.639 187.554L569.85 184.19H573.445V185.132H570.821L570.657 186.939C570.955 186.785 571.244 186.699 571.628 186.699C572.811 186.699 573.781 187.391 573.781 188.948C573.781 190.505 572.628 191.399 571.398 191.399Z" fill="black"/>
<path d="M49.6475 224.17C48.3017 224.17 47.2059 223.035 47.2059 220.632C47.2059 217.922 48.4748 216.835 49.8782 216.835C50.6664 216.835 51.2431 217.162 51.6469 217.595L51.0413 218.268C50.7817 217.96 50.3492 217.739 49.9358 217.739C48.9938 217.739 48.2344 218.47 48.2344 220.632C48.2344 222.459 48.7727 223.314 49.6379 223.314C50.2531 223.314 50.7337 222.757 50.7337 221.844C50.7337 220.93 50.3203 220.421 49.5706 220.421C49.1476 220.421 48.6382 220.671 48.2152 221.315L48.1672 220.507C48.5805 219.95 49.2341 219.623 49.7628 219.623C50.9548 219.623 51.7622 220.344 51.7622 221.844C51.7622 223.247 50.7913 224.17 49.6475 224.17Z" fill="black"/>
<path d="M136.8 224.035C136.925 221.459 137.377 219.806 138.751 217.902H135.425V216.96H139.972V217.633C138.319 219.71 138.059 221.276 137.934 224.035H136.8Z" fill="black"/>
<path d="M225.09 224.17C223.754 224.17 222.783 223.382 222.783 222.286C222.783 221.353 223.389 220.719 224.042 220.373V220.334C223.514 219.959 223.091 219.421 223.091 218.681C223.091 217.576 223.956 216.855 225.119 216.855C226.349 216.855 227.109 217.614 227.109 218.719C227.109 219.45 226.619 220.056 226.186 220.392V220.44C226.82 220.796 227.378 221.344 227.378 222.315C227.378 223.362 226.455 224.17 225.09 224.17ZM225.552 220.113C225.974 219.719 226.186 219.267 226.186 218.787C226.186 218.143 225.782 217.653 225.1 217.653C224.523 217.653 224.09 218.047 224.09 218.681C224.09 219.44 224.763 219.796 225.552 220.113ZM225.109 223.362C225.83 223.362 226.33 222.939 226.33 222.276C226.33 221.421 225.552 221.094 224.59 220.69C224.1 221.036 223.754 221.555 223.754 222.17C223.754 222.872 224.34 223.362 225.109 223.362Z" fill="black"/>
<path d="M311.626 224.17C310.809 224.17 310.223 223.833 309.819 223.41L310.415 222.728C310.703 223.045 311.136 223.257 311.578 223.257C312.472 223.257 313.231 222.507 313.231 220.257C313.231 218.489 312.683 217.681 311.818 217.681C311.203 217.681 310.722 218.229 310.722 219.162C310.722 220.056 311.136 220.575 311.876 220.575C312.318 220.575 312.818 220.325 313.231 219.681L313.289 220.488C312.876 221.036 312.241 221.382 311.674 221.382C310.492 221.382 309.694 220.642 309.694 219.162C309.694 217.749 310.655 216.835 311.809 216.835C313.164 216.835 314.26 217.922 314.26 220.257C314.26 223.045 312.991 224.17 311.626 224.17Z" fill="black"/>
<path d="M394.632 224.035V223.122H396.189V218.2H394.911V217.499C395.583 217.383 396.045 217.21 396.458 216.96H397.294V223.122H398.679V224.035H394.632ZM402.036 224.17C400.643 224.17 399.749 222.93 399.749 220.469C399.749 218.027 400.643 216.835 402.036 216.835C403.421 216.835 404.324 218.027 404.324 220.469C404.324 222.93 403.421 224.17 402.036 224.17ZM402.036 223.285C402.757 223.285 403.257 222.516 403.257 220.469C403.257 218.45 402.757 217.701 402.036 217.701C401.315 217.701 400.806 218.45 400.806 220.469C400.806 222.516 401.315 223.285 402.036 223.285Z" fill="black"/>
<path d="M481.144 224.035V223.122H482.701V218.2H481.422V217.499C482.095 217.383 482.557 217.21 482.97 216.96H483.806V223.122H485.19V224.035H481.144ZM486.626 224.035V223.122H488.183V218.2H486.904V217.499C487.577 217.383 488.039 217.21 488.452 216.96H489.288V223.122H490.672V224.035H486.626Z" fill="black"/>
<path d="M566.343 224.035V223.122H567.9V218.2H566.622V217.499C567.294 217.383 567.756 217.21 568.169 216.96H569.005V223.122H570.39V224.035H566.343ZM571.421 224.035V223.391C573.517 221.546 574.584 220.171 574.584 219.008C574.584 218.248 574.18 217.72 573.392 217.72C572.834 217.72 572.373 218.066 571.998 218.498L571.363 217.893C571.979 217.23 572.603 216.835 573.526 216.835C574.824 216.835 575.66 217.672 575.66 218.96C575.66 220.315 574.564 221.728 573.065 223.17C573.43 223.132 573.882 223.093 574.228 223.093H575.997V224.035H571.421Z" fill="black"/>
<path d="M44.21 256.368V255.455H45.7672V250.533H44.4887V249.832C45.1616 249.716 45.623 249.543 46.0363 249.293H46.8726V255.455H48.2568V256.368H44.21ZM51.4415 256.503C50.3361 256.503 49.6152 256.061 49.1345 255.522L49.6824 254.811C50.0958 255.234 50.6148 255.59 51.355 255.59C52.1432 255.59 52.6911 255.147 52.6911 254.417C52.6911 253.629 52.1913 253.129 50.6052 253.129V252.302C51.9894 252.302 52.4508 251.783 52.4508 251.072C52.4508 250.447 52.0471 250.053 51.3646 250.053C50.8263 250.053 50.3649 250.312 49.9612 250.716L49.3748 250.014C49.942 249.515 50.5956 249.168 51.4127 249.168C52.6815 249.168 53.5755 249.822 53.5755 250.985C53.5755 251.802 53.1045 252.369 52.3547 252.648V252.696C53.1717 252.908 53.8158 253.513 53.8158 254.475C53.8158 255.753 52.7488 256.503 51.4415 256.503Z" fill="black"/>
<path d="M132.476 256.368V255.455H134.033V250.533H132.754V249.832C133.427 249.716 133.889 249.543 134.302 249.293H135.138V255.455H136.522V256.368H132.476ZM140.39 256.368V251.754C140.39 251.379 140.418 250.774 140.447 250.389H140.399C140.226 250.745 140.034 251.12 139.832 251.485L138.448 253.609H142.331V254.475H137.333V253.725L140.14 249.293H141.428V256.368H140.39Z" fill="black"/>
<path d="M219.862 256.368V255.455H221.42V250.533H220.141V249.832C220.814 249.716 221.275 249.543 221.689 249.293H222.525V255.455H223.909V256.368H219.862ZM227.103 256.503C225.988 256.503 225.287 256.051 224.777 255.551L225.316 254.83C225.71 255.234 226.229 255.59 226.969 255.59C227.767 255.59 228.363 255.022 228.363 254.08C228.363 253.148 227.824 252.61 227.017 252.61C226.575 252.61 226.306 252.735 225.892 253.004L225.344 252.658L225.556 249.293H229.151V250.235H226.527L226.363 252.043C226.661 251.889 226.95 251.802 227.334 251.802C228.516 251.802 229.487 252.494 229.487 254.052C229.487 255.609 228.334 256.503 227.103 256.503Z" fill="black"/>
<path d="M307.245 256.368V255.455H308.802V250.533H307.524V249.832C308.197 249.716 308.658 249.543 309.071 249.293H309.908V255.455H311.292V256.368H307.245ZM314.861 256.503C313.515 256.503 312.42 255.368 312.42 252.965C312.42 250.255 313.688 249.168 315.092 249.168C315.88 249.168 316.457 249.495 316.861 249.928L316.255 250.601C315.995 250.293 315.563 250.072 315.15 250.072C314.208 250.072 313.448 250.803 313.448 252.965C313.448 254.792 313.986 255.647 314.852 255.647C315.467 255.647 315.947 255.09 315.947 254.177C315.947 253.263 315.534 252.754 314.784 252.754C314.361 252.754 313.852 253.004 313.429 253.648L313.381 252.84C313.794 252.283 314.448 251.956 314.977 251.956C316.168 251.956 316.976 252.677 316.976 254.177C316.976 255.58 316.005 256.503 314.861 256.503Z" fill="black"/>
<path d="M394.632 256.368V255.455H396.189V250.533H394.911V249.832C395.583 249.716 396.045 249.543 396.458 249.293H397.294V255.455H398.679V256.368H394.632ZM401.142 256.368C401.267 253.792 401.719 252.139 403.094 250.235H399.768V249.293H404.315V249.966C402.661 252.043 402.402 253.609 402.277 256.368H401.142Z" fill="black"/>
<circle cx="485.99" cy="252.545" r="10.4863" fill="#003754"/>
<path d="M481.144 256.806V255.892H482.701V250.971H481.422V250.269C482.095 250.154 482.557 249.981 482.97 249.731H483.806V255.892H485.19V256.806H481.144ZM488.558 256.94C487.222 256.94 486.251 256.152 486.251 255.056C486.251 254.124 486.856 253.489 487.51 253.143V253.105C486.981 252.73 486.558 252.192 486.558 251.452C486.558 250.346 487.423 249.625 488.587 249.625C489.817 249.625 490.576 250.385 490.576 251.49C490.576 252.221 490.086 252.826 489.654 253.163V253.211C490.288 253.566 490.845 254.114 490.845 255.085C490.845 256.133 489.923 256.94 488.558 256.94ZM489.019 252.884C489.442 252.49 489.654 252.038 489.654 251.557C489.654 250.913 489.25 250.423 488.567 250.423C487.991 250.423 487.558 250.817 487.558 251.452C487.558 252.211 488.231 252.567 489.019 252.884ZM488.577 256.133C489.298 256.133 489.798 255.71 489.798 255.047C489.798 254.191 489.019 253.864 488.058 253.461C487.568 253.807 487.222 254.326 487.222 254.941C487.222 255.643 487.808 256.133 488.577 256.133Z" fill="white"/>
<circle cx="571.185" cy="252.545" r="10.4863" fill="#003754"/>
<path d="M566.339 256.806V255.892H567.896V250.971H566.618V250.269C567.291 250.154 567.752 249.981 568.165 249.731H569.002V255.892H570.386V256.806H566.339ZM573.34 256.94C572.523 256.94 571.936 256.604 571.533 256.181L572.129 255.498C572.417 255.816 572.849 256.027 573.292 256.027C574.186 256.027 574.945 255.277 574.945 253.028C574.945 251.259 574.397 250.452 573.532 250.452C572.917 250.452 572.436 251 572.436 251.932C572.436 252.826 572.849 253.345 573.59 253.345C574.032 253.345 574.532 253.095 574.945 252.451L575.003 253.259C574.589 253.807 573.955 254.153 573.388 254.153C572.205 254.153 571.408 253.412 571.408 251.932C571.408 250.519 572.369 249.606 573.522 249.606C574.878 249.606 575.974 250.692 575.974 253.028C575.974 255.816 574.705 256.94 573.34 256.94Z" fill="white"/>
<circle cx="49.0566" cy="285.312" r="10.4863" fill="#003754"/>
<path d="M43.8063 289.573V288.929C45.9018 287.084 46.9687 285.709 46.9687 284.546C46.9687 283.787 46.565 283.258 45.7768 283.258C45.2193 283.258 44.7579 283.604 44.383 284.036L43.7486 283.431C44.3638 282.768 44.9886 282.374 45.9114 282.374C47.2091 282.374 48.0453 283.21 48.0453 284.498C48.0453 285.853 46.9495 287.266 45.45 288.708C45.8153 288.67 46.267 288.631 46.6131 288.631H48.3818V289.573H43.8063ZM51.6145 289.708C50.2207 289.708 49.3268 288.468 49.3268 286.007C49.3268 283.565 50.2207 282.374 51.6145 282.374C52.9987 282.374 53.9023 283.565 53.9023 286.007C53.9023 288.468 52.9987 289.708 51.6145 289.708ZM51.6145 288.823C52.3355 288.823 52.8353 288.054 52.8353 286.007C52.8353 283.988 52.3355 283.239 51.6145 283.239C50.8936 283.239 50.3841 283.988 50.3841 286.007C50.3841 288.054 50.8936 288.823 51.6145 288.823Z" fill="white"/>
<circle cx="137.322" cy="285.312" r="10.4863" fill="url(#paint0_linear_1195_1655)"/>
<path d="M132.072 289.573V288.929C134.167 287.084 135.234 285.709 135.234 284.546C135.234 283.787 134.831 283.258 134.042 283.258C133.485 283.258 133.024 283.604 132.649 284.036L132.014 283.431C132.629 282.768 133.254 282.374 134.177 282.374C135.475 282.374 136.311 283.21 136.311 284.498C136.311 285.853 135.215 287.266 133.716 288.708C134.081 288.67 134.533 288.631 134.879 288.631H136.647V289.573H132.072ZM137.958 289.573V288.66H139.515V283.739H138.236V283.037C138.909 282.921 139.371 282.748 139.784 282.499H140.62V288.66H142.005V289.573H137.958Z" fill="white"/>
<circle cx="224.705" cy="285.312" r="10.4863" fill="url(#paint1_linear_1195_1655)"/>
<path d="M219.455 289.573V288.929C221.55 287.084 222.617 285.709 222.617 284.546C222.617 283.787 222.213 283.258 221.425 283.258C220.868 283.258 220.406 283.604 220.031 284.036L219.397 283.431C220.012 282.768 220.637 282.374 221.56 282.374C222.857 282.374 223.694 283.21 223.694 284.498C223.694 285.853 222.598 287.266 221.098 288.708C221.464 288.67 221.915 288.631 222.262 288.631H224.03V289.573H219.455ZM224.937 289.573V288.929C227.032 287.084 228.099 285.709 228.099 284.546C228.099 283.787 227.696 283.258 226.907 283.258C226.35 283.258 225.888 283.604 225.514 284.036L224.879 283.431C225.494 282.768 226.119 282.374 227.042 282.374C228.34 282.374 229.176 283.21 229.176 284.498C229.176 285.853 228.08 287.266 226.58 288.708C226.946 288.67 227.398 288.631 227.744 288.631H229.512V289.573H224.937Z" fill="white"/>
<circle cx="312.092" cy="285.312" r="10.4863" fill="url(#paint2_angular_1195_1655)"/>
<path d="M306.841 289.573V288.929C308.937 287.084 310.004 285.709 310.004 284.546C310.004 283.787 309.6 283.258 308.812 283.258C308.254 283.258 307.793 283.604 307.418 284.036L306.784 283.431C307.399 282.768 308.024 282.374 308.947 282.374C310.244 282.374 311.08 283.21 311.08 284.498C311.08 285.853 309.985 287.266 308.485 288.708C308.85 288.67 309.302 288.631 309.648 288.631H311.417V289.573H306.841ZM314.477 289.708C313.371 289.708 312.65 289.266 312.17 288.727L312.718 288.016C313.131 288.439 313.65 288.795 314.39 288.795C315.178 288.795 315.726 288.352 315.726 287.622C315.726 286.834 315.226 286.334 313.64 286.334V285.507C315.025 285.507 315.486 284.988 315.486 284.277C315.486 283.652 315.082 283.258 314.4 283.258C313.861 283.258 313.4 283.517 312.996 283.921L312.41 283.219C312.977 282.72 313.631 282.374 314.448 282.374C315.717 282.374 316.611 283.027 316.611 284.19C316.611 285.007 316.14 285.574 315.39 285.853V285.901C316.207 286.113 316.851 286.718 316.851 287.68C316.851 288.958 315.784 289.708 314.477 289.708Z" fill="white"/>
<circle cx="399.471" cy="285.312" r="10.4863" fill="url(#paint3_angular_1195_1655)"/>
<path d="M394.22 289.573V288.929C396.316 287.084 397.383 285.709 397.383 284.546C397.383 283.787 396.979 283.258 396.191 283.258C395.633 283.258 395.172 283.604 394.797 284.036L394.163 283.431C394.778 282.768 395.403 282.374 396.325 282.374C397.623 282.374 398.459 283.21 398.459 284.498C398.459 285.853 397.364 287.266 395.864 288.708C396.229 288.67 396.681 288.631 397.027 288.631H398.796V289.573H394.22ZM402.538 289.573V284.959C402.538 284.584 402.567 283.979 402.596 283.594H402.548C402.375 283.95 402.182 284.325 401.981 284.69L400.596 286.814H404.48V287.68H399.481V286.93L402.288 282.499H403.576V289.573H402.538Z" fill="white"/>
<circle cx="485.99" cy="285.312" r="10.4863" fill="url(#paint4_angular_1195_1655)"/>
<path d="M480.74 289.573V288.929C482.835 287.084 483.902 285.709 483.902 284.546C483.902 283.787 483.499 283.258 482.71 283.258C482.153 283.258 481.691 283.604 481.317 284.036L480.682 283.431C481.297 282.768 481.922 282.374 482.845 282.374C484.143 282.374 484.979 283.21 484.979 284.498C484.979 285.853 483.883 287.266 482.384 288.708C482.749 288.67 483.201 288.631 483.547 288.631H485.315V289.573H480.74ZM488.385 289.708C487.27 289.708 486.568 289.256 486.059 288.756L486.597 288.035C486.991 288.439 487.51 288.795 488.25 288.795C489.048 288.795 489.644 288.228 489.644 287.285C489.644 286.353 489.106 285.815 488.298 285.815C487.856 285.815 487.587 285.94 487.174 286.209L486.626 285.863L486.837 282.499H490.432V283.441H487.808L487.645 285.248C487.943 285.094 488.231 285.007 488.615 285.007C489.798 285.007 490.769 285.699 490.769 287.257C490.769 288.814 489.615 289.708 488.385 289.708Z" fill="white"/>
<circle cx="571.185" cy="285.312" r="10.4863" fill="#9DD9C3"/>
<path d="M565.935 289.573V288.929C568.031 287.084 569.098 285.709 569.098 284.546C569.098 283.787 568.694 283.258 567.906 283.258C567.348 283.258 566.887 283.604 566.512 284.036L565.877 283.431C566.493 282.768 567.117 282.374 568.04 282.374C569.338 282.374 570.174 283.21 570.174 284.498C570.174 285.853 569.078 287.266 567.579 288.708C567.944 288.67 568.396 288.631 568.742 288.631H570.511V289.573H565.935ZM573.955 289.708C572.609 289.708 571.513 288.574 571.513 286.17C571.513 283.46 572.782 282.374 574.186 282.374C574.974 282.374 575.551 282.7 575.954 283.133L575.349 283.806C575.089 283.498 574.657 283.277 574.243 283.277C573.301 283.277 572.542 284.008 572.542 286.17C572.542 287.997 573.08 288.852 573.945 288.852C574.56 288.852 575.041 288.295 575.041 287.382C575.041 286.468 574.628 285.959 573.878 285.959C573.455 285.959 572.946 286.209 572.523 286.853L572.475 286.045C572.888 285.488 573.542 285.161 574.07 285.161C575.262 285.161 576.07 285.882 576.07 287.382C576.07 288.785 575.099 289.708 573.955 289.708Z" fill="black"/>
<path d="M43.8063 322.345V321.701C45.9018 319.855 46.9687 318.481 46.9687 317.317C46.9687 316.558 46.565 316.029 45.7768 316.029C45.2193 316.029 44.7579 316.375 44.383 316.808L43.7486 316.202C44.3638 315.539 44.9886 315.145 45.9114 315.145C47.2091 315.145 48.0453 315.981 48.0453 317.269C48.0453 318.625 46.9495 320.038 45.45 321.48C45.8153 321.441 46.267 321.403 46.6131 321.403H48.3818V322.345H43.8063ZM50.7206 322.345C50.8455 319.769 51.2973 318.115 52.6719 316.212H49.346V315.27H53.8927V315.943C52.2393 318.019 51.9798 319.586 51.8548 322.345H50.7206Z" fill="black"/>
<path d="M132.072 322.345V321.701C134.167 319.855 135.234 318.481 135.234 317.317C135.234 316.558 134.831 316.029 134.042 316.029C133.485 316.029 133.024 316.375 132.649 316.808L132.014 316.202C132.629 315.539 133.254 315.145 134.177 315.145C135.475 315.145 136.311 315.981 136.311 317.269C136.311 318.625 135.215 320.038 133.716 321.48C134.081 321.441 134.533 321.403 134.879 321.403H136.647V322.345H132.072ZM139.89 322.479C138.554 322.479 137.583 321.691 137.583 320.595C137.583 319.663 138.188 319.028 138.842 318.682V318.644C138.313 318.269 137.89 317.731 137.89 316.991C137.89 315.885 138.756 315.164 139.919 315.164C141.149 315.164 141.908 315.924 141.908 317.029C141.908 317.76 141.418 318.365 140.986 318.702V318.75C141.62 319.105 142.178 319.653 142.178 320.624C142.178 321.672 141.255 322.479 139.89 322.479ZM140.351 318.423C140.774 318.029 140.986 317.577 140.986 317.096C140.986 316.452 140.582 315.962 139.899 315.962C139.323 315.962 138.89 316.356 138.89 316.991C138.89 317.75 139.563 318.106 140.351 318.423ZM139.909 321.672C140.63 321.672 141.13 321.249 141.13 320.586C141.13 319.73 140.351 319.403 139.39 319C138.9 319.346 138.554 319.865 138.554 320.48C138.554 321.182 139.14 321.672 139.909 321.672Z" fill="black"/>
<path d="M219.459 322.345V321.701C221.554 319.855 222.621 318.481 222.621 317.317C222.621 316.558 222.217 316.029 221.429 316.029C220.872 316.029 220.41 316.375 220.035 316.808L219.401 316.202C220.016 315.539 220.641 315.145 221.564 315.145C222.861 315.145 223.698 315.981 223.698 317.269C223.698 318.625 222.602 320.038 221.102 321.48C221.468 321.441 221.919 321.403 222.265 321.403H224.034V322.345H219.459ZM226.863 322.479C226.046 322.479 225.46 322.143 225.056 321.72L225.652 321.037C225.94 321.355 226.373 321.566 226.815 321.566C227.709 321.566 228.468 320.816 228.468 318.567C228.468 316.798 227.921 315.991 227.055 315.991C226.44 315.991 225.96 316.539 225.96 317.471C225.96 318.365 226.373 318.884 227.113 318.884C227.555 318.884 228.055 318.634 228.468 317.99L228.526 318.798C228.113 319.346 227.478 319.692 226.911 319.692C225.729 319.692 224.931 318.952 224.931 317.471C224.931 316.058 225.892 315.145 227.046 315.145C228.401 315.145 229.497 316.231 229.497 318.567C229.497 321.355 228.228 322.479 226.863 322.479Z" fill="black"/>
<path d="M308.995 322.479C307.889 322.479 307.168 322.037 306.688 321.499L307.236 320.788C307.649 321.21 308.168 321.566 308.908 321.566C309.696 321.566 310.244 321.124 310.244 320.393C310.244 319.605 309.744 319.105 308.158 319.105V318.279C309.543 318.279 310.004 317.76 310.004 317.048C310.004 316.423 309.6 316.029 308.918 316.029C308.379 316.029 307.918 316.289 307.514 316.693L306.928 315.991C307.495 315.491 308.149 315.145 308.966 315.145C310.235 315.145 311.129 315.799 311.129 316.962C311.129 317.779 310.658 318.346 309.908 318.625V318.673C310.725 318.884 311.369 319.49 311.369 320.451C311.369 321.73 310.302 322.479 308.995 322.479ZM314.65 322.479C313.256 322.479 312.362 321.239 312.362 318.779C312.362 316.337 313.256 315.145 314.65 315.145C316.034 315.145 316.937 316.337 316.937 318.779C316.937 321.239 316.034 322.479 314.65 322.479ZM314.65 321.595C315.371 321.595 315.87 320.826 315.87 318.779C315.87 316.76 315.371 316.01 314.65 316.01C313.929 316.01 313.419 316.76 313.419 318.779C313.419 320.826 313.929 321.595 314.65 321.595Z" fill="black"/>
<path d="M396.381 322.479C395.276 322.479 394.555 322.037 394.074 321.499L394.622 320.788C395.036 321.21 395.555 321.566 396.295 321.566C397.083 321.566 397.631 321.124 397.631 320.393C397.631 319.605 397.131 319.105 395.545 319.105V318.279C396.929 318.279 397.391 317.76 397.391 317.048C397.391 316.423 396.987 316.029 396.304 316.029C395.766 316.029 395.305 316.289 394.901 316.693L394.315 315.991C394.882 315.491 395.535 315.145 396.352 315.145C397.621 315.145 398.515 315.799 398.515 316.962C398.515 317.779 398.044 318.346 397.294 318.625V318.673C398.112 318.884 398.756 319.49 398.756 320.451C398.756 321.73 397.689 322.479 396.381 322.479ZM400.114 322.345V321.432H401.671V316.51H400.393V315.808C401.066 315.693 401.527 315.52 401.94 315.27H402.777V321.432H404.161V322.345H400.114Z" fill="black"/>
<path d="M484.002 322.345V321.432H485.559V316.51H484.281V315.808C484.953 315.693 485.415 315.52 485.828 315.27H486.664V321.432H488.049V322.345H484.002Z" fill="#777777"/>
<path d="M569.235 322.345V321.701C571.33 319.855 572.397 318.481 572.397 317.317C572.397 316.558 571.994 316.029 571.205 316.029C570.648 316.029 570.186 316.375 569.812 316.808L569.177 316.202C569.792 315.539 570.417 315.145 571.34 315.145C572.638 315.145 573.474 315.981 573.474 317.269C573.474 318.625 572.378 320.038 570.879 321.48C571.244 321.441 571.696 321.403 572.042 321.403H573.81V322.345H569.235Z" fill="#777777"/>
<path d="M564.928 155.28C563.813 155.28 562.798 154.843 562.066 154.1L562.809 153.215C563.377 153.794 564.174 154.166 564.949 154.166C565.911 154.166 566.457 153.718 566.457 153.03C566.457 152.298 565.911 152.068 565.168 151.752L564.054 151.26C563.278 150.943 562.426 150.332 562.426 149.163C562.426 147.896 563.529 146.945 565.059 146.945C566.009 146.945 566.894 147.339 567.495 147.961L566.839 148.759C566.337 148.322 565.769 148.049 565.059 148.049C564.239 148.049 563.715 148.442 563.715 149.076C563.715 149.764 564.36 150.026 565.015 150.299L566.118 150.758C567.069 151.162 567.757 151.752 567.757 152.931C567.757 154.22 566.686 155.28 564.928 155.28ZM568.22 155.127L570.874 147.087H572.349L575.003 155.127H573.66L572.371 150.769C572.098 149.895 571.857 148.988 571.606 148.092H571.562C571.322 148.999 571.082 149.895 570.809 150.769L569.509 155.127H568.22ZM569.716 152.844V151.85H573.474V152.844H569.716ZM576.923 155.127V148.158H574.564V147.087H580.561V148.158H578.201V155.127H576.923Z" fill="black"/>
<rect x="413.241" y="368.985" width="190.937" height="36.265" rx="8.08316" stroke="#D9D9D9" stroke-width="1.31078"/>
<path d="M547.5 389.646V384.869H548.024L549.001 387.621C549.125 387.962 549.25 388.316 549.374 388.663H549.4C549.525 388.316 549.643 387.962 549.761 387.621L550.737 384.869H551.268V389.646H550.888V386.619C550.888 386.225 550.914 385.701 550.941 385.301H550.908L550.541 386.37L549.538 389.135H549.217L548.208 386.37L547.834 385.301H547.808C547.834 385.701 547.86 386.225 547.86 386.619V389.646H547.5ZM552.658 389.646V384.869H553.183L554.159 387.621C554.284 387.962 554.408 388.316 554.533 388.663H554.559C554.684 388.316 554.801 387.962 554.919 387.621L555.896 384.869H556.427V389.646H556.047V386.619C556.047 386.225 556.073 385.701 556.099 385.301H556.066L555.699 386.37L554.697 389.135H554.375L553.366 386.37L552.993 385.301H552.966C552.993 385.701 553.019 386.225 553.019 386.619V389.646H552.658ZM557.935 389.738C557.765 389.738 557.607 389.594 557.607 389.384C557.607 389.161 557.765 389.017 557.935 389.017C558.118 389.017 558.276 389.161 558.276 389.384C558.276 389.594 558.118 389.738 557.935 389.738ZM559.455 389.646V384.869H560.576C562.051 384.869 562.765 385.78 562.765 387.248C562.765 388.709 562.051 389.646 560.589 389.646H559.455ZM559.842 389.319H560.537C561.795 389.319 562.359 388.486 562.359 387.248C562.359 386.003 561.795 385.203 560.537 385.203H559.842V389.319ZM563.859 389.646V384.869H564.98C566.454 384.869 567.169 385.78 567.169 387.248C567.169 388.709 566.454 389.646 564.993 389.646H563.859ZM564.246 389.319H564.94C566.199 389.319 566.762 388.486 566.762 387.248C566.762 386.003 566.199 385.203 564.94 385.203H564.246V389.319ZM571.413 387.726C570.849 387.726 570.521 387.09 570.102 387.09C569.886 387.09 569.702 387.208 569.532 387.543L569.296 387.392C569.519 386.972 569.827 386.776 570.122 386.776C570.679 386.776 571.006 387.418 571.426 387.418C571.642 387.418 571.826 387.3 571.996 386.966L572.232 387.13C572.003 387.536 571.701 387.726 571.413 387.726ZM574.663 389.646V384.869H575.187L576.163 387.621C576.288 387.962 576.412 388.316 576.537 388.663H576.563C576.688 388.316 576.806 387.962 576.924 387.621L577.9 384.869H578.431V389.646H578.051V386.619C578.051 386.225 578.077 385.701 578.103 385.301H578.071L577.704 386.37L576.701 389.135H576.38L575.37 386.37L574.997 385.301H574.971C574.997 385.701 575.023 386.225 575.023 386.619V389.646H574.663ZM579.821 389.646V384.869H580.346L581.322 387.621C581.447 387.962 581.571 388.316 581.696 388.663H581.722C581.846 388.316 581.964 387.962 582.082 387.621L583.059 384.869H583.59V389.646H583.21V386.619C583.21 386.225 583.236 385.701 583.262 385.301H583.229L582.862 386.37L581.86 389.135H581.538L580.529 386.37L580.155 385.301H580.129C580.155 385.701 580.182 386.225 580.182 386.619V389.646H579.821ZM585.098 389.738C584.927 389.738 584.77 389.594 584.77 389.384C584.77 389.161 584.927 389.017 585.098 389.017C585.281 389.017 585.439 389.161 585.439 389.384C585.439 389.594 585.281 389.738 585.098 389.738ZM586.618 389.646V384.869H587.739C589.214 384.869 589.928 385.78 589.928 387.248C589.928 388.709 589.214 389.646 587.752 389.646H586.618ZM587.005 389.319H587.7C588.958 389.319 589.522 388.486 589.522 387.248C589.522 386.003 588.958 385.203 587.7 385.203H587.005V389.319ZM591.022 389.646V384.869H592.142C593.617 384.869 594.332 385.78 594.332 387.248C594.332 388.709 593.617 389.646 592.156 389.646H591.022ZM591.408 389.319H592.103C593.362 389.319 593.925 388.486 593.925 387.248C593.925 386.003 593.362 385.203 592.103 385.203H591.408V389.319Z" fill="black"/>
<path d="M445.638 384.012H449.903V384.746H445.638V384.012ZM445.525 387.673L445.42 386.93C446.783 386.93 448.67 386.913 450.235 386.703L450.296 387.385C448.705 387.647 446.862 387.673 445.525 387.673ZM446.355 384.518H447.237V387.254H446.355V384.518ZM448.303 384.518H449.186V387.254H448.303V384.518ZM450.75 383.487H451.668V387.918H450.75V383.487ZM451.414 385.279H452.795V386.039H451.414V385.279ZM446.556 388.241H447.464V389.071H450.759V388.241H451.668V391.378H446.556V388.241ZM447.464 389.788V390.635H450.759V389.788H447.464ZM457.496 385.331H459.575V386.074H457.496V385.331ZM455.661 383.837C456.858 383.837 457.74 384.615 457.74 385.716C457.74 386.817 456.858 387.586 455.661 387.586C454.463 387.586 453.581 386.817 453.581 385.716C453.581 384.615 454.463 383.837 455.661 383.837ZM455.661 384.606C454.961 384.606 454.455 385.043 454.455 385.716C454.455 386.38 454.961 386.825 455.661 386.825C456.36 386.825 456.858 386.38 456.858 385.716C456.858 385.043 456.36 384.606 455.661 384.606ZM459.173 383.487H460.091V387.778H459.173V383.487ZM454.892 388.154H455.8V389.045H459.182V388.154H460.091V391.378H454.892V388.154ZM455.8 389.762V390.644H459.182V389.762H455.8ZM465.342 384.719H467.527V385.453H465.342V384.719ZM465.342 386.31H467.553V387.044H465.342V386.31ZM467.212 383.487H468.13V388.189H467.212V383.487ZM461.855 384.082H465.561V387.682H461.855V384.082ZM464.661 384.807H462.756V386.956H464.661V384.807ZM465.465 388.416C467.134 388.416 468.156 388.975 468.156 389.936C468.156 390.906 467.134 391.466 465.465 391.466C463.795 391.466 462.773 390.906 462.773 389.936C462.773 388.975 463.795 388.416 465.465 388.416ZM465.465 389.124C464.337 389.124 463.682 389.412 463.682 389.936C463.682 390.469 464.337 390.758 465.465 390.758C466.601 390.758 467.247 390.469 467.247 389.936C467.247 389.412 466.601 389.124 465.465 389.124Z" fill="black"/>
<circle cx="431.321" cy="386.956" r="8.73855" fill="#9DD9C3"/>
<rect x="214.003" y="368.986" width="190.937" height="36.265" rx="8.08316" stroke="#D9D9D9" stroke-width="1.31078"/>
<path d="M348.261 389.647V384.87H348.786L349.762 387.622C349.887 387.963 350.011 388.317 350.136 388.664H350.162C350.287 388.317 350.405 387.963 350.523 387.622L351.499 384.87H352.03V389.647H351.65V386.62C351.65 386.226 351.676 385.702 351.702 385.302H351.669L351.302 386.371L350.3 389.136H349.979L348.969 386.371L348.596 385.302H348.569C348.596 385.702 348.622 386.226 348.622 386.62V389.647H348.261ZM353.42 389.647V384.87H353.944L354.921 387.622C355.045 387.963 355.17 388.317 355.294 388.664H355.321C355.445 388.317 355.563 387.963 355.681 387.622L356.658 384.87H357.189V389.647H356.808V386.62C356.808 386.226 356.835 385.702 356.861 385.302H356.828L356.461 386.371L355.458 389.136H355.137L354.128 386.371L353.754 385.302H353.728C353.754 385.702 353.781 386.226 353.781 386.62V389.647H353.42ZM358.697 389.739C358.526 389.739 358.369 389.595 358.369 389.385C358.369 389.162 358.526 389.018 358.697 389.018C358.88 389.018 359.037 389.162 359.037 389.385C359.037 389.595 358.88 389.739 358.697 389.739ZM360.217 389.647V384.87H361.338C362.813 384.87 363.527 385.781 363.527 387.249C363.527 388.71 362.813 389.647 361.351 389.647H360.217ZM360.604 389.32H361.299C362.557 389.32 363.121 388.487 363.121 387.249C363.121 386.003 362.557 385.204 361.299 385.204H360.604V389.32ZM364.621 389.647V384.87H365.741C367.216 384.87 367.93 385.781 367.93 387.249C367.93 388.71 367.216 389.647 365.754 389.647H364.621ZM365.007 389.32H365.702C366.96 389.32 367.524 388.487 367.524 387.249C367.524 386.003 366.96 385.204 365.702 385.204H365.007V389.32ZM372.174 387.727C371.611 387.727 371.283 387.091 370.864 387.091C370.647 387.091 370.464 387.209 370.294 387.544L370.058 387.393C370.28 386.973 370.588 386.777 370.883 386.777C371.44 386.777 371.768 387.419 372.188 387.419C372.404 387.419 372.587 387.301 372.758 386.967L372.994 387.131C372.764 387.537 372.463 387.727 372.174 387.727ZM375.424 389.647V384.87H375.949L376.925 387.622C377.05 387.963 377.174 388.317 377.299 388.664H377.325C377.449 388.317 377.567 387.963 377.685 387.622L378.662 384.87H379.193V389.647H378.813V386.62C378.813 386.226 378.839 385.702 378.865 385.302H378.832L378.465 386.371L377.463 389.136H377.141L376.132 386.371L375.759 385.302H375.732C375.759 385.702 375.785 386.226 375.785 386.62V389.647H375.424ZM380.583 389.647V384.87H381.107L382.084 387.622C382.208 387.963 382.333 388.317 382.457 388.664H382.484C382.608 388.317 382.726 387.963 382.844 387.622L383.821 384.87H384.351V389.647H383.971V386.62C383.971 386.226 383.998 385.702 384.024 385.302H383.991L383.624 386.371L382.621 389.136H382.3L381.291 386.371L380.917 385.302H380.891C380.917 385.702 380.943 386.226 380.943 386.62V389.647H380.583ZM385.86 389.739C385.689 389.739 385.532 389.595 385.532 389.385C385.532 389.162 385.689 389.018 385.86 389.018C386.043 389.018 386.2 389.162 386.2 389.385C386.2 389.595 386.043 389.739 385.86 389.739ZM387.38 389.647V384.87H388.501C389.975 384.87 390.69 385.781 390.69 387.249C390.69 388.71 389.975 389.647 388.514 389.647H387.38ZM387.767 389.32H388.461C389.72 389.32 390.283 388.487 390.283 387.249C390.283 386.003 389.72 385.204 388.461 385.204H387.767V389.32ZM391.783 389.647V384.87H392.904C394.379 384.87 395.093 385.781 395.093 387.249C395.093 388.71 394.379 389.647 392.917 389.647H391.783ZM392.17 389.32H392.865C394.123 389.32 394.687 388.487 394.687 387.249C394.687 386.003 394.123 385.204 392.865 385.204H392.17V389.32Z" fill="black"/>
<path d="M246.4 384.013H250.664V384.747H246.4V384.013ZM246.286 387.674L246.181 386.931C247.545 386.931 249.432 386.914 250.996 386.704L251.057 387.386C249.467 387.648 247.623 387.674 246.286 387.674ZM247.116 384.519H247.999V387.255H247.116V384.519ZM249.065 384.519H249.948V387.255H249.065V384.519ZM251.512 383.488H252.429V387.919H251.512V383.488ZM252.176 385.28H253.557V386.04H252.176V385.28ZM247.317 388.242H248.226V389.072H251.521V388.242H252.429V391.379H247.317V388.242ZM248.226 389.789V390.636H251.521V389.789H248.226ZM258.257 385.332H260.337V386.075H258.257V385.332ZM256.422 383.838C257.619 383.838 258.502 384.616 258.502 385.717C258.502 386.818 257.619 387.587 256.422 387.587C255.225 387.587 254.342 386.818 254.342 385.717C254.342 384.616 255.225 383.838 256.422 383.838ZM256.422 384.607C255.723 384.607 255.216 385.044 255.216 385.717C255.216 386.381 255.723 386.826 256.422 386.826C257.121 386.826 257.619 386.381 257.619 385.717C257.619 385.044 257.121 384.607 256.422 384.607ZM259.935 383.488H260.853V387.779H259.935V383.488ZM255.653 388.155H256.562V389.046H259.944V388.155H260.853V391.379H255.653V388.155ZM256.562 389.763V390.645H259.944V389.763H256.562ZM266.104 384.72H268.289V385.454H266.104V384.72ZM266.104 386.311H268.315V387.045H266.104V386.311ZM267.974 383.488H268.891V388.19H267.974V383.488ZM262.617 384.082H266.322V387.683H262.617V384.082ZM265.422 384.808H263.517V386.957H265.422V384.808ZM266.226 388.417C267.895 388.417 268.918 388.976 268.918 389.937C268.918 390.907 267.895 391.467 266.226 391.467C264.557 391.467 263.535 390.907 263.535 389.937C263.535 388.976 264.557 388.417 266.226 388.417ZM266.226 389.125C265.099 389.125 264.444 389.413 264.444 389.937C264.444 390.47 265.099 390.759 266.226 390.759C267.362 390.759 268.009 390.47 268.009 389.937C268.009 389.413 267.362 389.125 266.226 389.125Z" fill="black"/>
<circle cx="232.082" cy="386.957" r="8.73855" fill="#00A29B"/>
<rect x="14.7609" y="368.986" width="190.937" height="36.265" rx="8.08316" stroke="#D9D9D9" stroke-width="1.31078"/>
<path d="M149.019 389.647V384.87H149.544L150.52 387.622C150.645 387.963 150.769 388.317 150.894 388.664H150.92C151.044 388.317 151.162 387.963 151.28 387.622L152.257 384.87H152.788V389.647H152.408V386.62C152.408 386.226 152.434 385.702 152.46 385.302H152.427L152.06 386.371L151.058 389.136H150.736L149.727 386.371L149.353 385.302H149.327C149.353 385.702 149.38 386.226 149.38 386.62V389.647H149.019ZM154.178 389.647V384.87H154.702L155.679 387.622C155.803 387.963 155.928 388.317 156.052 388.664H156.079C156.203 388.317 156.321 387.963 156.439 387.622L157.416 384.87H157.946V389.647H157.566V386.62C157.566 386.226 157.592 385.702 157.619 385.302H157.586L157.219 386.371L156.216 389.136H155.895L154.886 386.371L154.512 385.302H154.486C154.512 385.702 154.538 386.226 154.538 386.62V389.647H154.178ZM159.454 389.739C159.284 389.739 159.127 389.595 159.127 389.385C159.127 389.162 159.284 389.018 159.454 389.018C159.638 389.018 159.795 389.162 159.795 389.385C159.795 389.595 159.638 389.739 159.454 389.739ZM160.975 389.647V384.87H162.096C163.57 384.87 164.285 385.781 164.285 387.249C164.285 388.71 163.57 389.647 162.109 389.647H160.975ZM161.362 389.32H162.056C163.315 389.32 163.878 388.487 163.878 387.249C163.878 386.003 163.315 385.204 162.056 385.204H161.362V389.32ZM165.378 389.647V384.87H166.499C167.974 384.87 168.688 385.781 168.688 387.249C168.688 388.71 167.974 389.647 166.512 389.647H165.378ZM165.765 389.32H166.46C167.718 389.32 168.282 388.487 168.282 387.249C168.282 386.003 167.718 385.204 166.46 385.204H165.765V389.32ZM172.932 387.727C172.369 387.727 172.041 387.091 171.622 387.091C171.405 387.091 171.222 387.209 171.051 387.544L170.815 387.393C171.038 386.973 171.346 386.777 171.641 386.777C172.198 386.777 172.526 387.419 172.945 387.419C173.162 387.419 173.345 387.301 173.516 386.967L173.752 387.131C173.522 387.537 173.221 387.727 172.932 387.727ZM176.182 389.647V384.87H176.706L177.683 387.622C177.807 387.963 177.932 388.317 178.057 388.664H178.083C178.207 388.317 178.325 387.963 178.443 387.622L179.42 384.87H179.951V389.647H179.571V386.62C179.571 386.226 179.597 385.702 179.623 385.302H179.59L179.223 386.371L178.22 389.136H177.899L176.89 386.371L176.516 385.302H176.49C176.516 385.702 176.543 386.226 176.543 386.62V389.647H176.182ZM181.341 389.647V384.87H181.865L182.842 387.622C182.966 387.963 183.091 388.317 183.215 388.664H183.241C183.366 388.317 183.484 387.963 183.602 387.622L184.578 384.87H185.109V389.647H184.729V386.62C184.729 386.226 184.755 385.702 184.782 385.302H184.749L184.382 386.371L183.379 389.136H183.058L182.049 386.371L181.675 385.302H181.649C181.675 385.702 181.701 386.226 181.701 386.62V389.647H181.341ZM186.617 389.739C186.447 389.739 186.29 389.595 186.29 389.385C186.29 389.162 186.447 389.018 186.617 389.018C186.801 389.018 186.958 389.162 186.958 389.385C186.958 389.595 186.801 389.739 186.617 389.739ZM188.138 389.647V384.87H189.259C190.733 384.87 191.448 385.781 191.448 387.249C191.448 388.71 190.733 389.647 189.272 389.647H188.138ZM188.525 389.32H189.219C190.478 389.32 191.041 388.487 191.041 387.249C191.041 386.003 190.478 385.204 189.219 385.204H188.525V389.32ZM192.541 389.647V384.87H193.662C195.137 384.87 195.851 385.781 195.851 387.249C195.851 388.71 195.137 389.647 193.675 389.647H192.541ZM192.928 389.32H193.623C194.881 389.32 195.445 388.487 195.445 387.249C195.445 386.003 194.881 385.204 193.623 385.204H192.928V389.32Z" fill="black"/>
<path d="M47.1576 384.013H51.4221V384.747H47.1576V384.013ZM47.044 387.674L46.9392 386.931C48.3024 386.931 50.1899 386.914 51.7541 386.704L51.8153 387.386C50.2249 387.648 48.381 387.674 47.044 387.674ZM47.8742 384.519H48.7568V387.255H47.8742V384.519ZM49.8229 384.519H50.7055V387.255H49.8229V384.519ZM52.2697 383.488H53.1872V387.919H52.2697V383.488ZM52.9338 385.28H54.3145V386.04H52.9338V385.28ZM48.0752 388.242H48.984V389.072H52.2784V388.242H53.1872V391.379H48.0752V388.242ZM48.984 389.789V390.636H52.2784V389.789H48.984ZM59.0152 385.332H61.095V386.075H59.0152V385.332ZM57.1801 383.838C58.3773 383.838 59.2599 384.616 59.2599 385.717C59.2599 386.818 58.3773 387.587 57.1801 387.587C55.9829 387.587 55.1003 386.818 55.1003 385.717C55.1003 384.616 55.9829 383.838 57.1801 383.838ZM57.1801 384.607C56.481 384.607 55.9742 385.044 55.9742 385.717C55.9742 386.381 56.481 386.826 57.1801 386.826C57.8792 386.826 58.3773 386.381 58.3773 385.717C58.3773 385.044 57.8792 384.607 57.1801 384.607ZM60.693 383.488H61.6105V387.779H60.693V383.488ZM56.4111 388.155H57.3199V389.046H60.7017V388.155H61.6105V391.379H56.4111V388.155ZM57.3199 389.763V390.645H60.7017V389.763H57.3199ZM66.8617 384.72H69.0463V385.454H66.8617V384.72ZM66.8617 386.311H69.0726V387.045H66.8617V386.311ZM68.7318 383.488H69.6493V388.19H68.7318V383.488ZM63.375 384.082H67.0802V387.683H63.375V384.082ZM66.1801 384.808H64.2751V386.957H66.1801V384.808ZM66.984 388.417C68.6531 388.417 69.6755 388.976 69.6755 389.937C69.6755 390.907 68.6531 391.467 66.984 391.467C65.315 391.467 64.2926 390.907 64.2926 389.937C64.2926 388.976 65.315 388.417 66.984 388.417ZM66.984 389.125C65.8568 389.125 65.2014 389.413 65.2014 389.937C65.2014 390.47 65.8568 390.759 66.984 390.759C68.1201 390.759 68.7667 390.47 68.7667 389.937C68.7667 389.413 68.1201 389.125 66.984 389.125Z" fill="black"/>
<circle cx="32.8401" cy="386.957" r="8.73855" fill="#003754"/>
<circle cx="31.1511" cy="85.6374" r="3.93235" fill="white"/>
<circle cx="73.9714" cy="85.6374" r="3.93235" fill="white"/>
<circle cx="116.788" cy="85.6374" r="3.93235" fill="white"/>
<circle cx="159.608" cy="85.6374" r="3.93235" fill="white"/>
<circle cx="202.428" cy="85.6374" r="3.93235" fill="white"/>
<circle cx="245.245" cy="85.6374" r="3.93235" fill="white"/>
<circle cx="288.065" cy="85.6374" r="3.93235" fill="white"/>
<circle cx="330.882" cy="85.6374" r="3.93235" fill="white"/>
<circle cx="373.702" cy="85.6374" r="3.93235" fill="white"/>
<circle cx="416.522" cy="85.6374" r="3.93235" fill="white"/>
<circle cx="459.339" cy="85.6374" r="3.93235" fill="white"/>
<circle cx="502.159" cy="85.6374" r="3.93235" fill="white"/>
<circle cx="544.979" cy="85.6374" r="3.93235" fill="white"/>
<circle cx="587.796" cy="85.6374" r="3.93235" fill="white"/>
<path fill-rule="evenodd" clip-rule="evenodd" d="M588.227 382.101C588.483 381.799 588.898 381.799 589.154 382.101L593.086 386.742C593.342 387.044 593.342 387.534 593.086 387.836L589.154 392.477C588.898 392.779 588.483 392.779 588.227 392.477C587.971 392.175 587.971 391.685 588.227 391.383L591.696 387.289L588.227 383.195C587.971 382.892 587.971 382.403 588.227 382.101Z" fill="#D9D9D9" stroke="#D9D9D9" stroke-width="0.436927" stroke-linecap="round" stroke-linejoin="round"/>
<path fill-rule="evenodd" clip-rule="evenodd" d="M6.05413 382.101C5.79819 381.799 5.38322 381.799 5.12727 382.101L1.19492 386.742C0.938978 387.044 0.938978 387.534 1.19492 387.836L5.12727 392.477C5.38322 392.779 5.79819 392.779 6.05413 392.477C6.31008 392.175 6.31008 391.685 6.05413 391.383L2.58522 387.289L6.05413 383.195C6.31008 382.892 6.31008 382.403 6.05413 382.101Z" fill="#D9D9D9" stroke="#D9D9D9" stroke-width="0.436927" stroke-linecap="round" stroke-linejoin="round"/>
<defs>
<linearGradient id="paint0_linear_1195_1655" x1="147.808" y1="285.312" x2="126.836" y2="285.312" gradientUnits="userSpaceOnUse">
<stop stop-color="#00A29B"/>
<stop offset="1" stop-color="#003754"/>
</linearGradient>
<linearGradient id="paint1_linear_1195_1655" x1="235.191" y1="285.312" x2="214.219" y2="285.312" gradientUnits="userSpaceOnUse">
<stop stop-color="#00A29B"/>
<stop offset="1" stop-color="#003754"/>
</linearGradient>
<radialGradient id="paint2_angular_1195_1655" cx="0" cy="0" r="1" gradientUnits="userSpaceOnUse" gradientTransform="translate(312.092 285.312) rotate(-90) scale(10.4863)">
<stop stop-color="#9DD9C3"/>
<stop offset="0.5" stop-color="#00A29B"/>
<stop offset="1" stop-color="#003754"/>
</radialGradient>
<radialGradient id="paint3_angular_1195_1655" cx="0" cy="0" r="1" gradientUnits="userSpaceOnUse" gradientTransform="translate(399.471 285.312) rotate(-90) scale(10.4863)">
<stop stop-color="#9DD9C3"/>
<stop offset="0.5" stop-color="#00A29B"/>
<stop offset="1" stop-color="#003754"/>
</radialGradient>
<radialGradient id="paint4_angular_1195_1655" cx="0" cy="0" r="1" gradientUnits="userSpaceOnUse" gradientTransform="translate(485.99 285.312) rotate(-90) scale(10.4863)">
<stop stop-color="#9DD9C3"/>
<stop offset="0.5" stop-color="#00A29B"/>
<stop offset="1" stop-color="#003754"/>
</radialGradient>
</defs>
</svg>
