<svg width="620" height="402" viewBox="0 0 620 402" fill="none" xmlns="http://www.w3.org/2000/svg">
<rect x="575.457" y="7.42383" width="44.5352" height="19.2113" rx="9.60564" fill="#FEDC74"/>
<rect y="48.0273" width="189.93" height="90.8169" rx="8.7324" fill="white"/>
<rect y="171.592" width="189.93" height="90.8169" rx="8.7324" fill="white"/>
<rect y="295.154" width="189.93" height="90.8169" rx="8.7324" fill="white"/>
<path d="M267.384 11.8045C266.266 11.8045 265.673 10.9487 265.673 9.42929C265.673 7.64788 266.546 6.3031 268.31 5.39493L268.904 6.5476C267.751 7.14141 267.192 7.89239 267.192 9.06253L267.314 10.6693L266.371 9.41183C266.668 9.18479 267 9.01014 267.384 9.01014C268.135 9.01014 268.764 9.51662 268.764 10.3375C268.764 11.2456 268.188 11.8045 267.384 11.8045ZM276.993 19.2445C273.553 19.2445 271.212 16.6946 271.212 12.4856C271.212 8.27662 273.553 5.84901 276.993 5.84901C280.416 5.84901 282.757 8.29408 282.757 12.4856C282.757 16.6946 280.416 19.2445 276.993 19.2445ZM276.993 17.009C278.914 17.009 280.137 15.2451 280.137 12.4856C280.137 9.72619 278.914 8.06704 276.993 8.06704C275.055 8.06704 273.85 9.72619 273.85 12.4856C273.85 15.2451 275.055 17.009 276.993 17.009ZM290.433 19.2445C286.992 19.2445 284.652 16.6946 284.652 12.4856C284.652 8.27662 286.992 5.84901 290.433 5.84901C293.856 5.84901 296.196 8.29408 296.196 12.4856C296.196 16.6946 293.856 19.2445 290.433 19.2445ZM290.433 17.009C292.354 17.009 293.577 15.2451 293.577 12.4856C293.577 9.72619 292.354 8.06704 290.433 8.06704C288.494 8.06704 287.289 9.72619 287.289 12.4856C287.289 15.2451 288.494 17.009 290.433 17.009ZM299.087 11.6124L298.494 10.4772C299.646 9.86591 300.205 9.13239 300.205 7.94479L300.083 6.35549L301.008 7.59549C300.729 7.84 300.397 7.99718 300.03 7.99718C299.262 7.99718 298.633 7.4907 298.633 6.65239C298.633 5.76169 299.21 5.20281 300.03 5.20281C301.131 5.20281 301.724 6.07605 301.724 7.56056C301.724 9.34197 300.851 10.7042 299.087 11.6124ZM310.845 4.60901C314.53 4.60901 316.695 5.58704 316.695 7.36845C316.695 9.14986 314.53 10.1279 310.845 10.1279C307.142 10.1279 304.994 9.14986 304.994 7.36845C304.994 5.58704 307.142 4.60901 310.845 4.60901ZM310.845 6.3031C308.504 6.3031 307.404 6.65239 307.404 7.36845C307.404 8.11943 308.504 8.4338 310.845 8.4338C313.185 8.4338 314.285 8.11943 314.285 7.36845C314.285 6.65239 313.185 6.3031 310.845 6.3031ZM303.527 10.8789H318.145V12.7127H303.527V10.8789ZM305.203 13.6208H316.381V17.7775H307.509V19.2096H305.221V16.1707H314.093V15.3499H305.203V13.6208ZM305.221 18.7031H316.8V20.4496H305.221V18.7031ZM328.789 5.02817C331.252 5.02817 333.033 6.44281 333.033 8.48619C333.033 10.4946 331.252 11.9442 328.789 11.9442C326.344 11.9442 324.563 10.4946 324.563 8.48619C324.563 6.44281 326.344 5.02817 328.789 5.02817ZM328.789 6.91436C327.619 6.91436 326.781 7.47324 326.781 8.48619C326.781 9.48169 327.619 10.0406 328.789 10.0406C329.977 10.0406 330.815 9.48169 330.815 8.48619C330.815 7.47324 329.977 6.91436 328.789 6.91436ZM327.707 13.551H330.029V20.0654H327.707V13.551ZM334.78 4.38197H337.085V20.5544H334.78V4.38197ZM323.882 14.7735L323.602 12.8873C326.432 12.8873 330.431 12.8524 333.854 12.3284L334.011 14.0225C330.501 14.7211 326.676 14.7561 323.882 14.7735ZM350.025 4.39943H352.348V16.4851H350.025V4.39943ZM351.684 9.3245H354.496V11.2282H351.684V9.3245ZM339.616 6.07605H349.134V7.89239H339.616V6.07605ZM344.384 8.46873C346.707 8.46873 348.349 9.74366 348.349 11.5949C348.349 13.4462 346.707 14.7037 344.384 14.7037C342.044 14.7037 340.402 13.4462 340.402 11.5949C340.402 9.74366 342.044 8.46873 344.384 8.46873ZM344.384 10.2327C343.354 10.2327 342.638 10.7217 342.638 11.5949C342.638 12.4682 343.354 12.9397 344.384 12.9397C345.414 12.9397 346.131 12.4682 346.131 11.5949C346.131 10.7217 345.414 10.2327 344.384 10.2327ZM343.214 4.3645H345.537V6.96676H343.214V4.3645ZM341.921 18.4237H352.924V20.2749H341.921V18.4237ZM341.921 15.5769H344.244V19.227H341.921V15.5769Z" fill="white"/>
<rect x="215.254" y="48.0273" width="189.93" height="90.8169" rx="8.7324" fill="white"/>
<rect x="215.254" y="171.592" width="189.93" height="90.8169" rx="8.7324" fill="white"/>
<rect x="215.254" y="295.154" width="189.93" height="90.8169" rx="8.7324" fill="white"/>
<rect x="430.07" y="48.0273" width="189.93" height="90.8169" rx="8.7324" fill="white"/>
<rect x="430.07" y="171.592" width="189.93" height="90.8169" rx="8.7324" fill="white"/>
<rect x="430.07" y="295.154" width="189.93" height="90.8169" rx="8.7324" fill="white"/>
<path d="M0.602535 146.662H4.86395V147.395H0.602535V146.662ZM0.489014 150.321L0.384225 149.578C1.74648 149.578 3.63268 149.561 5.19578 149.351L5.2569 150.033C3.66761 150.295 1.82507 150.321 0.489014 150.321ZM1.31859 147.168H2.20056V149.902H1.31859V147.168ZM3.26592 147.168H4.14789V149.902H3.26592V147.168ZM5.71099 146.138H6.62789V150.565H5.71099V146.138ZM6.37465 147.928H7.75437V148.688H6.37465V147.928ZM1.51944 150.888H2.42761V151.718H5.71972V150.888H6.62789V154.023H1.51944V150.888ZM2.42761 152.434V153.281H5.71972V152.434H2.42761ZM12.4517 147.98H14.53V148.723H12.4517V147.98ZM10.6179 146.487C11.8142 146.487 12.6962 147.264 12.6962 148.365C12.6962 149.465 11.8142 150.233 10.6179 150.233C9.42157 150.233 8.5396 149.465 8.5396 148.365C8.5396 147.264 9.42157 146.487 10.6179 146.487ZM10.6179 147.256C9.91932 147.256 9.41284 147.692 9.41284 148.365C9.41284 149.028 9.91932 149.474 10.6179 149.474C11.3165 149.474 11.8142 149.028 11.8142 148.365C11.8142 147.692 11.3165 147.256 10.6179 147.256ZM14.1283 146.138H15.0452V150.426H14.1283V146.138ZM9.84946 150.801H10.7576V151.692H14.1371V150.801H15.0452V154.023H9.84946V150.801ZM10.7576 152.408V153.29H14.1371V152.408H10.7576ZM20.2927 147.369H22.4758V148.103H20.2927V147.369ZM20.2927 148.958H22.502V149.692H20.2927V148.958ZM22.1615 146.138H23.0784V150.836H22.1615V146.138ZM16.8085 146.732H20.511V150.329H16.8085V146.732ZM19.6116 147.457H17.7079V149.605H19.6116V147.457ZM20.415 151.063C22.0829 151.063 23.1046 151.622 23.1046 152.582C23.1046 153.552 22.0829 154.111 20.415 154.111C18.7471 154.111 17.7254 153.552 17.7254 152.582C17.7254 151.622 18.7471 151.063 20.415 151.063ZM20.415 151.77C19.2885 151.77 18.6336 152.058 18.6336 152.582C18.6336 153.115 19.2885 153.403 20.415 153.403C21.5502 153.403 22.1964 153.115 22.1964 152.582C22.1964 152.058 21.5502 151.77 20.415 151.77Z" fill="black"/>
<path d="M216.009 146.662H220.27V147.395H216.009V146.662ZM215.895 150.321L215.79 149.578C217.153 149.578 219.039 149.561 220.602 149.351L220.663 150.033C219.074 150.295 217.231 150.321 215.895 150.321ZM216.725 147.168H217.607V149.902H216.725V147.168ZM218.672 147.168H219.554V149.902H218.672V147.168ZM221.117 146.138H222.034V150.565H221.117V146.138ZM221.781 147.928H223.161V148.688H221.781V147.928ZM216.926 150.888H217.834V151.718H221.126V150.888H222.034V154.023H216.926V150.888ZM217.834 152.434V153.281H221.126V152.434H217.834ZM227.858 147.98H229.936V148.723H227.858V147.98ZM226.024 146.487C227.22 146.487 228.102 147.264 228.102 148.365C228.102 149.465 227.22 150.233 226.024 150.233C224.828 150.233 223.946 149.465 223.946 148.365C223.946 147.264 224.828 146.487 226.024 146.487ZM226.024 147.256C225.326 147.256 224.819 147.692 224.819 148.365C224.819 149.028 225.326 149.474 226.024 149.474C226.723 149.474 227.22 149.028 227.22 148.365C227.22 147.692 226.723 147.256 226.024 147.256ZM229.535 146.138H230.451V150.426H229.535V146.138ZM225.256 150.801H226.164V151.692H229.543V150.801H230.451V154.023H225.256V150.801ZM226.164 152.408V153.29H229.543V152.408H226.164ZM235.699 147.369H237.882V148.103H235.699V147.369ZM235.699 148.958H237.908V149.692H235.699V148.958ZM237.568 146.138H238.485V150.836H237.568V146.138ZM232.215 146.732H235.917V150.329H232.215V146.732ZM235.018 147.457H233.114V149.605H235.018V147.457ZM235.821 151.063C237.489 151.063 238.511 151.622 238.511 152.582C238.511 153.552 237.489 154.111 235.821 154.111C234.153 154.111 233.132 153.552 233.132 152.582C233.132 151.622 234.153 151.063 235.821 151.063ZM235.821 151.77C234.695 151.77 234.04 152.058 234.04 152.582C234.04 153.115 234.695 153.403 235.821 153.403C236.956 153.403 237.603 153.115 237.603 152.582C237.603 152.058 236.956 151.77 235.821 151.77Z" fill="black"/>
<path d="M0.602535 270.097H4.86395V270.831H0.602535V270.097ZM0.489014 273.756L0.384225 273.014C1.74648 273.014 3.63268 272.997 5.19578 272.787L5.2569 273.468C3.66761 273.73 1.82507 273.756 0.489014 273.756ZM1.31859 270.604H2.20056V273.337H1.31859V270.604ZM3.26592 270.604H4.14789V273.337H3.26592V270.604ZM5.71099 269.573H6.62789V274.001H5.71099V269.573ZM6.37465 271.364H7.75437V272.123H6.37465V271.364ZM1.51944 274.324H2.42761V275.153H5.71972V274.324H6.62789V277.459H1.51944V274.324ZM2.42761 275.87V276.717H5.71972V275.87H2.42761ZM12.4517 271.416H14.53V272.158H12.4517V271.416ZM10.6179 269.923C11.8142 269.923 12.6962 270.7 12.6962 271.8C12.6962 272.9 11.8142 273.669 10.6179 273.669C9.42157 273.669 8.5396 272.9 8.5396 271.8C8.5396 270.7 9.42157 269.923 10.6179 269.923ZM10.6179 270.691C9.91932 270.691 9.41284 271.128 9.41284 271.8C9.41284 272.464 9.91932 272.909 10.6179 272.909C11.3165 272.909 11.8142 272.464 11.8142 271.8C11.8142 271.128 11.3165 270.691 10.6179 270.691ZM14.1283 269.573H15.0452V273.861H14.1283V269.573ZM9.84946 274.237H10.7576V275.127H14.1371V274.237H15.0452V277.459H9.84946V274.237ZM10.7576 275.843V276.725H14.1371V275.843H10.7576ZM20.2927 270.805H22.4758V271.538H20.2927V270.805ZM20.2927 272.394H22.502V273.128H20.2927V272.394ZM22.1615 269.573H23.0784V274.271H22.1615V269.573ZM16.8085 270.167H20.511V273.765H16.8085V270.167ZM19.6116 270.892H17.7079V273.04H19.6116V270.892ZM20.415 274.499C22.0829 274.499 23.1046 275.057 23.1046 276.018C23.1046 276.987 22.0829 277.546 20.415 277.546C18.7471 277.546 17.7254 276.987 17.7254 276.018C17.7254 275.057 18.7471 274.499 20.415 274.499ZM20.415 275.206C19.2885 275.206 18.6336 275.494 18.6336 276.018C18.6336 276.551 19.2885 276.839 20.415 276.839C21.5502 276.839 22.1964 276.551 22.1964 276.018C22.1964 275.494 21.5502 275.206 20.415 275.206Z" fill="black"/>
<path d="M216.009 270.097H220.27V270.831H216.009V270.097ZM215.895 273.756L215.79 273.014C217.153 273.014 219.039 272.997 220.602 272.787L220.663 273.468C219.074 273.73 217.231 273.756 215.895 273.756ZM216.725 270.604H217.607V273.337H216.725V270.604ZM218.672 270.604H219.554V273.337H218.672V270.604ZM221.117 269.573H222.034V274.001H221.117V269.573ZM221.781 271.364H223.161V272.123H221.781V271.364ZM216.926 274.324H217.834V275.153H221.126V274.324H222.034V277.459H216.926V274.324ZM217.834 275.87V276.717H221.126V275.87H217.834ZM227.858 271.416H229.936V272.158H227.858V271.416ZM226.024 269.923C227.22 269.923 228.102 270.7 228.102 271.8C228.102 272.9 227.22 273.669 226.024 273.669C224.828 273.669 223.946 272.9 223.946 271.8C223.946 270.7 224.828 269.923 226.024 269.923ZM226.024 270.691C225.326 270.691 224.819 271.128 224.819 271.8C224.819 272.464 225.326 272.909 226.024 272.909C226.723 272.909 227.22 272.464 227.22 271.8C227.22 271.128 226.723 270.691 226.024 270.691ZM229.535 269.573H230.451V273.861H229.535V269.573ZM225.256 274.237H226.164V275.127H229.543V274.237H230.451V277.459H225.256V274.237ZM226.164 275.843V276.725H229.543V275.843H226.164ZM235.699 270.805H237.882V271.538H235.699V270.805ZM235.699 272.394H237.908V273.128H235.699V272.394ZM237.568 269.573H238.485V274.271H237.568V269.573ZM232.215 270.167H235.917V273.765H232.215V270.167ZM235.018 270.892H233.114V273.04H235.018V270.892ZM235.821 274.499C237.489 274.499 238.511 275.057 238.511 276.018C238.511 276.987 237.489 277.546 235.821 277.546C234.153 277.546 233.132 276.987 233.132 276.018C233.132 275.057 234.153 274.499 235.821 274.499ZM235.821 275.206C234.695 275.206 234.04 275.494 234.04 276.018C234.04 276.551 234.695 276.839 235.821 276.839C236.956 276.839 237.603 276.551 237.603 276.018C237.603 275.494 236.956 275.206 235.821 275.206Z" fill="black"/>
<path d="M0.602535 393.889H4.86395V394.623H0.602535V393.889ZM0.489014 397.548L0.384225 396.806C1.74648 396.806 3.63268 396.789 5.19578 396.579L5.2569 397.26C3.66761 397.522 1.82507 397.548 0.489014 397.548ZM1.31859 394.396H2.20056V397.129H1.31859V394.396ZM3.26592 394.396H4.14789V397.129H3.26592V394.396ZM5.71099 393.365H6.62789V397.793H5.71099V393.365ZM6.37465 395.156H7.75437V395.915H6.37465V395.156ZM1.51944 398.116H2.42761V398.945H5.71972V398.116H6.62789V401.251H1.51944V398.116ZM2.42761 399.662V400.509H5.71972V399.662H2.42761ZM12.4517 395.208H14.53V395.95H12.4517V395.208ZM10.6179 393.715C11.8142 393.715 12.6962 394.492 12.6962 395.592C12.6962 396.692 11.8142 397.461 10.6179 397.461C9.42157 397.461 8.5396 396.692 8.5396 395.592C8.5396 394.492 9.42157 393.715 10.6179 393.715ZM10.6179 394.483C9.91932 394.483 9.41284 394.92 9.41284 395.592C9.41284 396.256 9.91932 396.701 10.6179 396.701C11.3165 396.701 11.8142 396.256 11.8142 395.592C11.8142 394.92 11.3165 394.483 10.6179 394.483ZM14.1283 393.365H15.0452V397.653H14.1283V393.365ZM9.84946 398.029H10.7576V398.919H14.1371V398.029H15.0452V401.251H9.84946V398.029ZM10.7576 399.635V400.517H14.1371V399.635H10.7576ZM20.2927 394.597H22.4758V395.33H20.2927V394.597ZM20.2927 396.186H22.502V396.92H20.2927V396.186ZM22.1615 393.365H23.0784V398.063H22.1615V393.365ZM16.8085 393.959H20.511V397.557H16.8085V393.959ZM19.6116 394.684H17.7079V396.832H19.6116V394.684ZM20.415 398.291C22.0829 398.291 23.1046 398.849 23.1046 399.81C23.1046 400.779 22.0829 401.338 20.415 401.338C18.7471 401.338 17.7254 400.779 17.7254 399.81C17.7254 398.849 18.7471 398.291 20.415 398.291ZM20.415 398.998C19.2885 398.998 18.6336 399.286 18.6336 399.81C18.6336 400.343 19.2885 400.631 20.415 400.631C21.5502 400.631 22.1964 400.343 22.1964 399.81C22.1964 399.286 21.5502 398.998 20.415 398.998Z" fill="black"/>
<path d="M216.009 393.889H220.27V394.623H216.009V393.889ZM215.895 397.548L215.79 396.806C217.153 396.806 219.039 396.789 220.602 396.579L220.663 397.26C219.074 397.522 217.231 397.548 215.895 397.548ZM216.725 394.396H217.607V397.129H216.725V394.396ZM218.672 394.396H219.554V397.129H218.672V394.396ZM221.117 393.365H222.034V397.793H221.117V393.365ZM221.781 395.156H223.161V395.915H221.781V395.156ZM216.926 398.116H217.834V398.945H221.126V398.116H222.034V401.251H216.926V398.116ZM217.834 399.662V400.509H221.126V399.662H217.834ZM227.858 395.208H229.936V395.95H227.858V395.208ZM226.024 393.715C227.22 393.715 228.102 394.492 228.102 395.592C228.102 396.692 227.22 397.461 226.024 397.461C224.828 397.461 223.946 396.692 223.946 395.592C223.946 394.492 224.828 393.715 226.024 393.715ZM226.024 394.483C225.326 394.483 224.819 394.92 224.819 395.592C224.819 396.256 225.326 396.701 226.024 396.701C226.723 396.701 227.22 396.256 227.22 395.592C227.22 394.92 226.723 394.483 226.024 394.483ZM229.535 393.365H230.451V397.653H229.535V393.365ZM225.256 398.029H226.164V398.919H229.543V398.029H230.451V401.251H225.256V398.029ZM226.164 399.635V400.517H229.543V399.635H226.164ZM235.699 394.597H237.882V395.33H235.699V394.597ZM235.699 396.186H237.908V396.92H235.699V396.186ZM237.568 393.365H238.485V398.063H237.568V393.365ZM232.215 393.959H235.917V397.557H232.215V393.959ZM235.018 394.684H233.114V396.832H235.018V394.684ZM235.821 398.291C237.489 398.291 238.511 398.849 238.511 399.81C238.511 400.779 237.489 401.338 235.821 401.338C234.153 401.338 233.132 400.779 233.132 399.81C233.132 398.849 234.153 398.291 235.821 398.291ZM235.821 398.998C234.695 398.998 234.04 399.286 234.04 399.81C234.04 400.343 234.695 400.631 235.821 400.631C236.956 400.631 237.603 400.343 237.603 399.81C237.603 399.286 236.956 398.998 235.821 398.998Z" fill="black"/>
<path d="M430.673 146.662H434.934V147.395H430.673V146.662ZM430.559 150.321L430.455 149.578C431.817 149.578 433.703 149.561 435.266 149.351L435.327 150.033C433.738 150.295 431.895 150.321 430.559 150.321ZM431.389 147.168H432.271V149.902H431.389V147.168ZM433.336 147.168H434.218V149.902H433.336V147.168ZM435.781 146.138H436.698V150.565H435.781V146.138ZM436.445 147.928H437.825V148.688H436.445V147.928ZM431.59 150.888H432.498V151.718H435.79V150.888H436.698V154.023H431.59V150.888ZM432.498 152.434V153.281H435.79V152.434H432.498ZM442.522 147.98H444.6V148.723H442.522V147.98ZM440.688 146.487C441.885 146.487 442.767 147.264 442.767 148.365C442.767 149.465 441.885 150.233 440.688 150.233C439.492 150.233 438.61 149.465 438.61 148.365C438.61 147.264 439.492 146.487 440.688 146.487ZM440.688 147.256C439.99 147.256 439.483 147.692 439.483 148.365C439.483 149.028 439.99 149.474 440.688 149.474C441.387 149.474 441.885 149.028 441.885 148.365C441.885 147.692 441.387 147.256 440.688 147.256ZM444.199 146.138H445.116V150.426H444.199V146.138ZM439.92 150.801H440.828V151.692H444.207V150.801H445.116V154.023H439.92V150.801ZM440.828 152.408V153.29H444.207V152.408H440.828ZM450.363 147.369H452.546V148.103H450.363V147.369ZM450.363 148.958H452.572V149.692H450.363V148.958ZM452.232 146.138H453.149V150.836H452.232V146.138ZM446.879 146.732H450.581V150.329H446.879V146.732ZM449.682 147.457H447.778V149.605H449.682V147.457ZM450.485 151.063C452.153 151.063 453.175 151.622 453.175 152.582C453.175 153.552 452.153 154.111 450.485 154.111C448.817 154.111 447.796 153.552 447.796 152.582C447.796 151.622 448.817 151.063 450.485 151.063ZM450.485 151.77C449.359 151.77 448.704 152.058 448.704 152.582C448.704 153.115 449.359 153.403 450.485 153.403C451.621 153.403 452.267 153.115 452.267 152.582C452.267 152.058 451.621 151.77 450.485 151.77Z" fill="black"/>
<path d="M430.673 270.097H434.934V270.831H430.673V270.097ZM430.559 273.756L430.455 273.014C431.817 273.014 433.703 272.997 435.266 272.787L435.327 273.468C433.738 273.73 431.895 273.756 430.559 273.756ZM431.389 270.604H432.271V273.337H431.389V270.604ZM433.336 270.604H434.218V273.337H433.336V270.604ZM435.781 269.573H436.698V274.001H435.781V269.573ZM436.445 271.364H437.825V272.123H436.445V271.364ZM431.59 274.324H432.498V275.153H435.79V274.324H436.698V277.459H431.59V274.324ZM432.498 275.87V276.717H435.79V275.87H432.498ZM442.522 271.416H444.6V272.158H442.522V271.416ZM440.688 269.923C441.885 269.923 442.767 270.7 442.767 271.8C442.767 272.9 441.885 273.669 440.688 273.669C439.492 273.669 438.61 272.9 438.61 271.8C438.61 270.7 439.492 269.923 440.688 269.923ZM440.688 270.691C439.99 270.691 439.483 271.128 439.483 271.8C439.483 272.464 439.99 272.909 440.688 272.909C441.387 272.909 441.885 272.464 441.885 271.8C441.885 271.128 441.387 270.691 440.688 270.691ZM444.199 269.573H445.116V273.861H444.199V269.573ZM439.92 274.237H440.828V275.127H444.207V274.237H445.116V277.459H439.92V274.237ZM440.828 275.843V276.725H444.207V275.843H440.828ZM450.363 270.805H452.546V271.538H450.363V270.805ZM450.363 272.394H452.572V273.128H450.363V272.394ZM452.232 269.573H453.149V274.271H452.232V269.573ZM446.879 270.167H450.581V273.765H446.879V270.167ZM449.682 270.892H447.778V273.04H449.682V270.892ZM450.485 274.499C452.153 274.499 453.175 275.057 453.175 276.018C453.175 276.987 452.153 277.546 450.485 277.546C448.817 277.546 447.796 276.987 447.796 276.018C447.796 275.057 448.817 274.499 450.485 274.499ZM450.485 275.206C449.359 275.206 448.704 275.494 448.704 276.018C448.704 276.551 449.359 276.839 450.485 276.839C451.621 276.839 452.267 276.551 452.267 276.018C452.267 275.494 451.621 275.206 450.485 275.206Z" fill="black"/>
<path d="M430.673 393.889H434.934V394.623H430.673V393.889ZM430.559 397.548L430.455 396.806C431.817 396.806 433.703 396.789 435.266 396.579L435.327 397.26C433.738 397.522 431.895 397.548 430.559 397.548ZM431.389 394.396H432.271V397.129H431.389V394.396ZM433.336 394.396H434.218V397.129H433.336V394.396ZM435.781 393.365H436.698V397.793H435.781V393.365ZM436.445 395.156H437.825V395.915H436.445V395.156ZM431.59 398.116H432.498V398.945H435.79V398.116H436.698V401.251H431.59V398.116ZM432.498 399.662V400.509H435.79V399.662H432.498ZM442.522 395.208H444.6V395.95H442.522V395.208ZM440.688 393.715C441.885 393.715 442.767 394.492 442.767 395.592C442.767 396.692 441.885 397.461 440.688 397.461C439.492 397.461 438.61 396.692 438.61 395.592C438.61 394.492 439.492 393.715 440.688 393.715ZM440.688 394.483C439.99 394.483 439.483 394.92 439.483 395.592C439.483 396.256 439.99 396.701 440.688 396.701C441.387 396.701 441.885 396.256 441.885 395.592C441.885 394.92 441.387 394.483 440.688 394.483ZM444.199 393.365H445.116V397.653H444.199V393.365ZM439.92 398.029H440.828V398.919H444.207V398.029H445.116V401.251H439.92V398.029ZM440.828 399.635V400.517H444.207V399.635H440.828ZM450.363 394.597H452.546V395.33H450.363V394.597ZM450.363 396.186H452.572V396.92H450.363V396.186ZM452.232 393.365H453.149V398.063H452.232V393.365ZM446.879 393.959H450.581V397.557H446.879V393.959ZM449.682 394.684H447.778V396.832H449.682V394.684ZM450.485 398.291C452.153 398.291 453.175 398.849 453.175 399.81C453.175 400.779 452.153 401.338 450.485 401.338C448.817 401.338 447.796 400.779 447.796 399.81C447.796 398.849 448.817 398.291 450.485 398.291ZM450.485 398.998C449.359 398.998 448.704 399.286 448.704 399.81C448.704 400.343 449.359 400.631 450.485 400.631C451.621 400.631 452.267 400.343 452.267 399.81C452.267 399.286 451.621 398.998 450.485 398.998Z" fill="black"/>
<path d="M588.98 15.8832H590.473V16.3285H588.98V15.8832ZM590.166 14.2589H590.709V18.5946H590.166V14.2589ZM586.93 19.5966H590.873V20.042H586.93V19.5966ZM586.93 18.2147H587.474V19.8258H586.93V18.2147ZM587.349 14.9925H587.795V15.4706C587.795 16.5446 587.127 17.4746 586.138 17.8414L585.856 17.4092C586.74 17.0948 587.349 16.3089 587.349 15.4706V14.9925ZM587.454 14.9925H587.893V15.464C587.893 16.2303 588.469 16.9769 589.327 17.2782L589.052 17.7039C588.089 17.3568 587.454 16.4661 587.454 15.464V14.9925ZM586.026 14.737H589.19V15.1758H586.026V14.737ZM594.278 16.5905H595.398V17.0358H594.278V16.5905ZM593.073 15.7653H593.492V16.0731C593.492 17.252 593.001 18.4439 592.136 18.9613L591.816 18.5487C592.615 18.0837 593.073 17.0424 593.073 16.0731V15.7653ZM593.171 15.7653H593.59V16.0731C593.59 17.0162 594.062 17.992 594.861 18.4243L594.553 18.8303C593.682 18.3457 593.171 17.2258 593.171 16.0731V15.7653ZM591.979 15.3396H594.684V15.7915H591.979V15.3396ZM593.073 14.462H593.597V15.6867H593.073V14.462ZM596.367 14.2524H596.891V20.173H596.367V14.2524ZM595.182 14.3899H595.693V19.8717H595.182V14.3899ZM597.893 18.9679H603.257V19.4198H597.893V18.9679ZM600.29 17.5532H600.833V19.0989H600.29V17.5532ZM598.522 14.6715H599.059V15.726H602.078V14.6715H602.615V17.6973H598.522V14.6715ZM599.059 16.1648V17.252H602.078V16.1648H599.059ZM608.227 14.2524H608.771V20.173H608.227V14.2524ZM606.491 14.8877H607.029C607.029 16.6036 606.256 18.1034 604.278 19.0727L603.99 18.6339C605.699 17.8087 606.491 16.5512 606.491 14.9794V14.8877ZM604.258 14.8877H606.727V15.333H604.258V14.8877Z" fill="#B4643A"/>
</svg>
