<svg width="82" height="184" viewBox="0 0 82 184" fill="none" xmlns="http://www.w3.org/2000/svg">
<circle cx="41.431" cy="6.97786" r="6.0013" fill="white"/>
<path fill-rule="evenodd" clip-rule="evenodd" d="M14.3581 117.997C28.5489 125.003 48.3801 126.4 64.7791 120.543C66.9047 119.784 68.8942 118.931 70.7424 117.996L71.8129 117.988C71.9325 117.987 72.0278 118.088 72.0201 118.207C71.7832 121.919 71.1082 127.498 69.8505 132.176C69.2219 134.514 68.4443 136.64 67.4955 138.196C67.133 138.791 66.7059 139.393 66.2713 140.005L66.2712 140.005C65.9327 140.482 65.5895 140.965 65.2688 141.457L65.2603 141.461C63.598 142.407 61.5119 143.179 59.2111 143.784C54.6088 144.995 49.3634 145.485 45.461 145.485C44.6324 145.485 43.9607 146.157 43.9607 146.985C43.9607 147.814 44.6324 148.486 45.461 148.486C49.5625 148.486 55.0722 147.976 59.9745 146.686C61.2506 146.35 62.5002 145.958 63.6822 145.501L60.4027 175.1C59.8413 180.167 55.5591 184.001 50.4614 184.001H34.5787C29.481 184.001 25.1988 180.167 24.6374 175.1L21.3175 145.137C21.1152 143.31 19.9158 141.621 18.7688 140.005C18.3342 139.393 17.9071 138.791 17.5446 138.196C16.5958 136.64 15.8182 134.514 15.1896 132.176C13.9319 127.498 13.2569 121.919 13.02 118.207C13.0123 118.088 13.1076 117.987 13.2271 117.988L14.3581 117.997Z" fill="white"/>
<path fill-rule="evenodd" clip-rule="evenodd" d="M44.5673 18.9824C49.6253 19.5941 53.3564 21.014 56.2571 22.8169C67.0044 28.5437 72.6796 35.2412 75.1874 39.135C76.9927 41.9382 78.8244 46.541 80.0502 50.8066C81.1568 55.3784 80.9677 58.2511 80.714 59.8366C80.2881 62.4985 79.3243 64.3399 78.1366 65.624C76.9419 66.9158 75.4227 67.7491 73.7318 68.231C70.5554 69.1362 66.9495 68.7452 64.4796 67.9798C57.6527 64.8819 48.4678 62.163 38.0665 62.9228C36.9646 63.0033 36.1366 63.9617 36.2171 65.0636C36.2976 66.1655 37.2561 66.9935 38.3579 66.913C47.5176 66.2439 55.704 68.518 61.9644 71.2402C62.1232 71.3624 62.3032 71.4626 62.5015 71.5347C62.674 71.5975 62.8523 71.6589 63.036 71.7188C67.3086 73.6775 70.5876 75.7883 72.5344 77.1652C73.9137 78.2741 75.1719 79.4672 76.2891 80.7408C87.2643 93.2523 80.4787 108.791 61.1329 115.447C41.7871 122.103 17.2071 117.357 6.23187 104.845C1.57761 99.5394 0.117388 93.6892 1.45458 88.203C1.60118 87.8167 1.81806 87.3211 2.12016 86.7605C2.70005 85.6844 3.52945 84.491 4.61797 83.4863C5.69884 82.4887 7.01007 81.6985 8.5849 81.3529C10.1491 81.0096 12.1077 81.075 14.5446 81.993C14.6263 82.0238 14.7089 82.0489 14.7917 82.0685C21.887 85.8221 31.0168 88.9725 44.7426 88.9724C45.8475 88.9724 46.7431 88.0767 46.743 86.9719C46.743 86.6392 46.6618 86.3255 46.5181 86.0495C46.1956 85.3775 45.5088 84.9135 44.7136 84.9135C27.6059 84.9137 18.2413 79.8073 10.5658 74.8822C8.95802 73.6467 7.50361 72.3012 6.23187 70.8514C-4.74334 58.3399 2.04234 42.8014 21.3881 36.1451C22.0266 35.9255 22.6707 35.7182 23.3198 35.5233C23.7809 35.383 24.2733 35.2428 24.7983 35.1027C25.0341 35.0393 25.2705 34.9775 25.5074 34.9172C44.7518 29.8744 45.09 22.7636 44.5673 18.9824ZM74.6297 73.7474L74.5932 73.722L74.668 73.7119L74.6297 73.7474Z" fill="white"/>
</svg>
