<svg width="437" height="184" viewBox="0 0 437 184" fill="none" xmlns="http://www.w3.org/2000/svg">
<circle cx="124.431" cy="6.97786" r="6.0013" fill="white"/>
<path fill-rule="evenodd" clip-rule="evenodd" d="M97.3563 117.997C111.547 125.003 131.378 126.399 147.777 120.543C149.902 119.784 151.891 118.931 153.74 117.996L154.809 117.988C154.929 117.987 155.024 118.088 155.016 118.207C154.779 121.919 154.104 127.498 152.847 132.176C152.218 134.514 151.44 136.64 150.492 138.196C150.129 138.791 149.702 139.392 149.267 140.005C148.928 140.483 148.584 140.967 148.263 141.46L148.258 141.463C146.596 142.408 144.51 143.18 142.209 143.785C137.607 144.996 132.361 145.486 128.459 145.486C127.63 145.486 126.959 146.158 126.959 146.986C126.959 147.815 127.63 148.487 128.459 148.487C132.56 148.487 138.07 147.977 142.973 146.687C144.248 146.351 145.497 145.959 146.678 145.503L143.399 175.1C142.837 180.167 138.555 184.001 133.457 184.001H117.575C112.477 184.001 108.195 180.167 107.633 175.1L104.314 145.137C104.111 143.31 102.912 141.621 101.765 140.005C101.33 139.393 100.903 138.791 100.541 138.196C99.5919 136.64 98.8143 134.514 98.1857 132.176C96.928 127.498 96.2529 121.919 96.0161 118.207C96.0084 118.088 96.1037 117.987 96.2232 117.988L97.3563 117.997Z" fill="white"/>
<path fill-rule="evenodd" clip-rule="evenodd" d="M127.568 18.9824C132.625 19.5939 136.355 21.0134 139.256 22.8157C150.005 28.5428 155.68 35.2411 158.188 39.1352C159.982 41.9205 161.802 46.4826 163.028 50.7252C164.156 55.3441 163.966 58.2413 163.711 59.8362C163.285 62.4981 162.322 64.3394 161.134 65.6236C159.939 66.9153 158.42 67.7487 156.729 68.2306C153.556 69.135 149.953 68.7455 147.484 67.9815C140.656 64.8829 131.47 62.1628 121.067 62.9227C119.965 63.0032 119.137 63.9617 119.217 65.0636C119.298 66.1654 120.256 66.9934 121.358 66.9129C130.515 66.2441 138.699 68.5165 144.959 71.2377C145.118 71.3608 145.299 71.4618 145.499 71.5343C145.674 71.5979 145.854 71.6601 146.041 71.7208C150.319 73.6826 153.601 75.7967 155.546 77.1729C156.921 78.2792 158.175 79.4694 159.289 80.7395C170.264 93.251 163.479 108.79 144.133 115.446C124.787 122.102 100.207 117.355 89.2319 104.844C84.5765 99.5368 83.1167 93.6852 84.4555 88.1979C84.6021 87.8122 84.8185 87.3183 85.1194 86.7599C85.6993 85.6838 86.5287 84.4904 87.6172 83.4857C88.6981 82.4881 90.0093 81.6979 91.5841 81.3523C93.1484 81.0091 95.1069 81.0744 97.5438 81.9924C97.6253 82.0231 97.7075 82.0481 97.7901 82.0677C104.885 85.8213 114.015 88.9718 127.741 88.9717C128.846 88.9716 129.742 88.076 129.742 86.9712C129.742 86.6522 129.667 86.3507 129.534 86.0831C129.219 85.393 128.522 84.9134 127.714 84.9134C110.615 84.9136 101.251 79.8125 93.5778 74.8898C91.9653 73.6516 90.5068 72.3031 89.2319 70.8497C78.2567 58.3382 85.0423 42.7997 104.388 36.1434C105.793 35.6601 107.225 35.2369 108.678 34.8724C127.754 29.8324 128.089 22.7524 127.568 18.9824ZM157.629 73.7466L157.592 73.7207L157.668 73.7105L157.629 73.7466Z" fill="white"/>
<path d="M2.20652 102.04C0.406523 84.94 0.406523 66.13 2.20652 49.12C2.83652 42.46 6.52652 37.15 14.1765 37.15C21.6465 37.15 25.4265 42.46 26.0565 49.12C27.8565 66.13 27.8565 84.94 26.0565 102.04C25.4265 108.79 21.6465 114.1 14.1765 114.1C6.52652 114.1 2.83652 108.79 2.20652 102.04ZM38.395 54.25C40.015 55.15 42.355 55.6 44.335 55.6C45.685 55.6 46.945 55.33 48.025 54.97C48.925 54.43 48.295 52.81 47.305 53.35C45.775 53.8 44.605 53.98 43.795 53.98C38.485 53.98 35.245 49.3 35.155 44.44C35.065 39.31 38.395 34.18 46.135 34.18C54.505 34.18 58.375 41.11 58.285 48.04C58.195 55.51 53.605 63.25 45.055 63.25C36.595 63.25 35.875 57.04 38.395 54.25Z" fill="white"/>
<path d="M206.352 114.73C177.732 114.73 169.182 97.18 169.182 75.49C169.182 53.89 177.732 36.25 206.352 36.25C214.542 36.25 221.292 37.51 226.332 40.3C233.442 43.9 233.622 51.82 230.292 57.76C226.872 63.97 219.942 68.29 212.832 64.69C211.302 63.88 209.142 63.25 206.352 63.25C197.802 63.25 194.472 69.01 194.472 75.4C194.472 81.97 197.802 87.73 206.352 87.73C209.142 87.73 211.302 87.1 212.832 86.29C220.122 82.6 227.232 87.28 230.472 93.67C233.622 99.7 233.172 107.08 226.332 110.77C221.292 113.47 214.542 114.73 206.352 114.73ZM263.682 88.81C263.502 93.22 263.142 97.63 262.692 101.95C262.062 108.7 258.282 114.01 250.812 114.01C243.162 114.01 239.472 108.7 238.842 101.95C237.672 91.24 237.492 79.81 237.582 68.65C237.762 42.82 245.772 36.43 269.442 36.25C288.072 36.07 298.332 45.61 298.152 64.24C298.152 76.75 294.102 83.95 284.112 87.64C282.582 88.09 283.212 89.89 284.652 89.53C287.262 88.99 290.142 87.37 292.482 85.84C295.632 88.54 298.872 92.5 300.852 98.08C302.922 104.02 301.122 109.6 294.282 112.66C286.902 116.08 277.992 112.75 273.852 105.91C271.062 101.32 269.352 95.29 268.812 88.99C267.102 88.99 265.392 88.9 263.682 88.81ZM274.752 66.85C270.522 65.32 267.282 63.52 263.952 60.1C262.872 59.11 260.802 61.09 261.972 62.71C264.582 66.22 269.082 68.29 273.312 69.82C275.202 70.45 276.012 67.48 274.752 66.85ZM333.189 98.71C333.549 105.82 331.029 114.1 320.589 114.1C313.659 114.1 308.619 109.69 308.169 102.76C307.809 93.94 307.629 84.76 307.629 75.58C307.629 54.07 314.019 37.15 337.599 37.15C361.269 37.15 367.749 54.07 367.749 75.58C367.749 84.76 367.569 93.94 367.119 102.76C366.759 109.69 361.629 114.1 354.609 114.1C344.349 114.1 341.649 105.73 342.009 98.71C338.139 99.7 337.149 99.7 333.189 98.71ZM345.339 74.14C341.739 71.44 336.969 70.81 332.469 70.63C330.399 70.54 330.399 73.69 331.929 73.87C336.339 74.14 340.029 74.95 344.259 77.2C345.519 77.92 346.959 75.13 345.339 74.14ZM400.792 88.63C400.522 93.04 400.162 97.54 399.802 101.95C399.172 108.7 395.392 114.01 387.922 114.01C380.272 114.01 376.582 108.7 375.952 101.95C374.152 84.85 374.242 66.58 375.952 49.57C376.942 40.84 382.522 38.05 389.452 37.06C393.682 36.61 398.092 36.25 402.322 36.25C419.152 36.07 436.792 39.04 436.792 62.35C436.792 86.65 419.152 88.99 400.792 88.63ZM400.792 64.24C404.572 66.22 408.442 66.94 412.762 66.49C414.832 66.22 414.472 63.16 413.032 63.25C408.622 63.52 405.472 62.8 401.602 61.09C400.162 60.46 398.902 63.16 400.792 64.24Z" fill="white"/>
</svg>
