<svg width="18" height="18" viewBox="0 0 18 18" fill="none" xmlns="http://www.w3.org/2000/svg">
<path d="M8.96424 0.750001L8.96524 0.749998C10.0803 0.751215 11.1836 0.976305 12.2094 1.41184C13.2351 1.84737 14.1621 2.48442 14.935 3.28494C15.7079 4.08546 16.3108 5.03302 16.7075 6.07096C17.1043 7.10892 17.2867 8.2159 17.2439 9.32571L17.2438 9.32816C17.1437 11.3957 16.2739 13.3519 14.8041 14.8152C13.3343 16.2786 11.37 17.1443 9.29434 17.2439L9.29187 17.244C7.2396 17.3221 5.23103 16.6395 3.65482 15.3281C2.07858 14.0166 1.04675 12.1695 0.75932 10.1439L0.758504 10.1381L0.758571 10.1381C0.737786 9.96236 0.754911 9.78422 0.808786 9.61562L1.04636 9.69154L0.808786 9.61562C0.86266 9.44702 0.952025 9.29189 1.07084 9.16056C1.18966 9.02923 1.33519 8.92473 1.49766 8.85398C1.66014 8.78322 1.83586 8.74782 2.01311 8.75009M8.96424 0.750001L2.00989 9.00007M8.96424 0.750001C7.01667 0.755702 5.13551 1.44244 3.64742 2.68627M8.96424 0.750001L8.96497 1M2.01311 8.75009L2.00989 9.00007M2.01311 8.75009C2.01261 8.75009 2.01212 8.75008 2.01162 8.75008L2.00989 9.00007M2.01311 8.75009C2.31715 8.75255 2.61024 8.8644 2.83823 9.0653C3.06604 9.26603 3.21349 9.54213 3.25319 9.84283M2.00989 9.00007C2.25434 9.00176 2.48989 9.09157 2.67295 9.25287C2.85601 9.41417 2.97418 9.63604 3.00558 9.87741M3.25319 9.84283C3.25308 9.84215 3.25298 9.84146 3.25288 9.84078L3.00558 9.87741M3.25319 9.84283C3.46429 11.2643 4.20248 12.5559 5.3227 13.4628C6.44348 14.3702 7.86527 14.8267 9.30768 14.742C10.7501 14.6573 12.108 14.0375 13.1138 13.0053C14.1195 11.9731 14.7002 10.6033 14.7414 9.16623L14.7414 9.16618C14.7736 8.05394 14.4809 6.95623 13.8987 6.00622C13.3164 5.05621 12.4697 4.29466 11.4611 3.81414C10.4525 3.33361 9.32542 3.15481 8.21664 3.29951C7.19817 3.43242 6.23549 3.833 5.42662 4.45771M3.25319 9.84283C3.25329 9.84361 3.25339 9.84439 3.25349 9.84516L3.00558 9.87741M3.00558 9.87741C3.22549 11.3619 3.99608 12.7104 5.16539 13.6571C6.3347 14.6038 7.81784 15.0799 9.32234 14.9916C10.8268 14.9032 12.2435 14.2568 13.2929 13.1798C14.3423 12.1027 14.9482 10.6733 14.9913 9.17341C15.0249 8.01256 14.7194 6.86696 14.1118 5.87559C13.5043 4.88423 12.6208 4.08972 11.5687 3.58844C10.5165 3.08717 9.34082 2.90068 8.18429 3.05161C7.11111 3.19166 6.0972 3.61665 5.24802 4.27988L5.42662 4.45771M8.96497 1C6.99952 1.00575 5.10394 1.72653 3.635 3.02669M8.96497 1C10.0465 1.00118 11.1168 1.21952 12.1117 1.64195C13.1065 2.06439 14.0056 2.68225 14.7552 3.45858C15.5047 4.23492 16.0893 5.15378 16.474 6.16022C16.8587 7.16667 17.0356 8.24001 16.9941 9.31608C16.897 11.3212 16.0534 13.2186 14.6277 14.6381C13.2019 16.0576 11.2963 16.8975 9.28236 16.9941C7.29162 17.0699 5.34341 16.4078 3.81472 15.1359C2.28603 13.864 1.28553 12.0727 1.00684 10.1088L8.96497 1ZM3.635 3.02669L3.81139 2.84952L3.64742 2.68627M3.635 3.02669L2.74243 2.13801C2.64879 2.0448 2.52949 1.98133 2.39962 1.95562C2.26975 1.92991 2.13514 1.94311 2.0128 1.99356C1.89047 2.044 1.7859 2.12943 1.71232 2.23904C1.63875 2.34865 1.59946 2.47751 1.59943 2.60935V5.66671C1.59943 5.84352 1.66998 6.01309 1.79555 6.13812C1.92112 6.26314 2.09144 6.33338 2.26903 6.33338H5.33979C5.4722 6.33335 5.60163 6.29424 5.71172 6.22098C5.82181 6.14773 5.90761 6.04362 5.95828 5.92181C6.00894 5.80001 6.0222 5.66599 5.99638 5.53669C5.97055 5.40738 5.90681 5.28861 5.81319 5.19537L5.231 4.61572M3.635 3.02669L5.231 4.61572M3.64742 2.68627L2.91882 1.96085L2.91879 1.96082C2.79012 1.83274 2.62632 1.74565 2.44817 1.71038C2.27003 1.67511 2.08537 1.69321 1.9175 1.76244C1.74961 1.83167 1.60593 1.94898 1.50476 2.0997C1.40357 2.25044 1.34947 2.42778 1.34943 2.60929V2.60935V5.66671C1.34943 5.91018 1.44658 6.14346 1.61916 6.31528C1.7917 6.48707 2.02549 6.58338 2.26903 6.58338H5.33979H5.33984C5.52145 6.58334 5.69905 6.5297 5.85022 6.42911C6.00139 6.32852 6.11938 6.18544 6.1891 6.01784C6.25882 5.85023 6.27709 5.66573 6.24154 5.48772C6.20599 5.30972 6.11826 5.14636 5.98961 5.01824L5.98958 5.01821L5.42662 4.45771M3.64742 2.68627L5.231 4.61572M5.42662 4.45771C5.36037 4.50888 5.29514 4.56156 5.231 4.61572" fill="#999999" stroke="#999999" stroke-width="0.5"/>
</svg>
