<svg width="290" height="430" viewBox="0 0 290 430" fill="none" xmlns="http://www.w3.org/2000/svg">
<g clip-path="url(#clip0_1439_2967)">
<path fill-rule="evenodd" clip-rule="evenodd" d="M15 0C6.71573 0 0 6.71574 0 15V415C0 423.284 6.71573 430 15 430H275C283.284 430 290 423.284 290 415V15C290 6.71573 283.284 0 275 0H15ZM32 51C23.7157 51 17 57.7157 17 66V292C17 300.284 23.7157 307 32 307H258C266.284 307 273 300.284 273 292V66C273 57.7157 266.284 51 258 51H32Z" fill="black"/>
<path d="M118.141 326.501L102.72 334.69M118.141 326.501L94.9219 326.424L102.72 334.69M118.141 326.501L105.2 345.78L102.72 334.69" stroke="white" stroke-width="2" stroke-linejoin="round"/>
<path d="M80.0498 338.26L79.1453 337.834C79.0554 338.024 79.028 338.239 79.0672 338.446L80.0498 338.26ZM76.8115 342.139L77.0346 341.164C76.7556 341.1 76.4625 341.159 76.2297 341.326L76.8115 342.139ZM80.9618 343.089L80.7387 344.064C81.0675 344.139 81.4122 344.043 81.6552 343.809C81.8983 343.575 82.007 343.235 81.9444 342.903L80.9618 343.089ZM81 343.283L80.6944 344.236C81.0474 344.349 81.434 344.258 81.6991 343.998C81.9641 343.739 82.0641 343.355 81.9588 342.999L81 343.283ZM80 334C80 335.373 79.6932 336.672 79.1453 337.834L80.9543 338.687C81.6253 337.264 82 335.674 82 334H80ZM71 325C75.9706 325 80 329.029 80 334H82C82 327.925 77.0751 323 71 323V325ZM62 334C62 329.029 66.0294 325 71 325V323C64.9249 323 60 327.925 60 334H62ZM71 343C66.0294 343 62 338.971 62 334H60C60 340.075 64.9249 345 71 345V343ZM76.2297 341.326C74.7559 342.38 72.9519 343 71 343V345C73.3828 345 75.5913 344.241 77.3933 342.952L76.2297 341.326ZM81.1849 342.114L77.0346 341.164L76.5884 343.114L80.7387 344.064L81.1849 342.114ZM79.0672 338.446L79.9792 343.274L81.9444 342.903L81.0324 338.075L79.0672 338.446ZM78.6753 343.588L80.6944 344.236L81.3056 342.331L79.2865 341.683L78.6753 343.588ZM81.9588 342.999L81.8998 342.8L79.9821 343.368L80.0412 343.567L81.9588 342.999Z" fill="white"/>
<path d="M40.5 323C38.5005 323 36.6767 324.033 35.4733 325.62C35.2427 325.924 34.7573 325.924 34.5267 325.62C33.3233 324.033 31.4995 323 29.5 323C25.916 323 23 325.916 23 329.5C23 336.222 32.512 343.356 34.419 344.719L34.7094 344.926C34.8832 345.05 35.1168 345.05 35.2906 344.926L35.581 344.719C37.488 343.357 47 336.222 47 329.5C47 325.916 44.084 323 40.5 323ZM35.5 330C35.7761 330 35.9975 329.775 36.0246 329.501C36.2662 327.051 38.2541 325 40.5 325C42.981 325 45 327.019 45 329.5C45 333.689 39.9569 338.938 35.2957 342.447C35.1201 342.579 34.8799 342.579 34.7043 342.447C30.0431 338.938 25 333.689 25 329.5C25 327.019 27.019 325 29.5 325C31.7459 325 33.7338 327.051 33.9754 329.501C34.0025 329.775 34.2239 330 34.5 330H35.5Z" fill="white"/>
<path d="M265.397 343.997C265.061 343.996 264.728 343.931 264.418 343.806C264.108 343.68 263.827 343.497 263.591 343.266L258 337.917L252.409 343.27C252.05 343.621 251.59 343.859 251.088 343.954C250.586 344.049 250.066 343.996 249.596 343.803C249.121 343.619 248.714 343.301 248.43 342.892C248.145 342.482 247.995 342 248 341.507V327.374C248 326.214 248.479 325.102 249.331 324.281C250.184 323.461 251.34 323 252.546 323H263.454C264.051 323 264.642 323.113 265.194 323.333C265.745 323.553 266.246 323.875 266.669 324.281C267.091 324.687 267.425 325.17 267.654 325.7C267.882 326.231 268 326.8 268 327.374V341.507C268.005 341.999 267.856 342.482 267.572 342.891C267.288 343.301 266.882 343.618 266.408 343.803C266.088 343.932 265.744 343.998 265.397 343.997ZM252.546 324.75C251.822 324.75 251.129 325.026 250.617 325.518C250.106 326.011 249.818 326.678 249.818 327.374V341.507C249.818 341.653 249.863 341.795 249.946 341.917C250.03 342.038 250.15 342.133 250.289 342.189C250.429 342.245 250.583 342.26 250.732 342.232C250.88 342.204 251.017 342.135 251.125 342.032L257.364 336.064C257.534 335.902 257.764 335.81 258.005 335.81C258.245 335.81 258.475 335.902 258.645 336.064L264.877 342.03C264.985 342.133 265.121 342.203 265.27 342.231C265.419 342.259 265.573 342.244 265.712 342.187C265.852 342.131 265.972 342.037 266.055 341.915C266.139 341.794 266.184 341.651 266.184 341.505V327.374C266.184 326.678 265.896 326.011 265.385 325.518C264.873 325.026 264.18 324.75 263.456 324.75H252.546Z" fill="white"/>
</g>
<defs>
<clipPath id="clip0_1439_2967">
<rect width="290" height="430" fill="white"/>
</clipPath>
</defs>
</svg>
