<svg width="114" height="181" viewBox="0 0 114 181" fill="none" xmlns="http://www.w3.org/2000/svg">
<rect width="113.669" height="180.775" rx="8.55941" fill="#D9D9D9"/>
<line x1="8.20312" y1="144.311" x2="105.438" y2="144.311" stroke="black" stroke-width="0.342376"/>
<line x1="8.20312" y1="144.311" x2="105.438" y2="144.311" stroke="black" stroke-width="0.342376"/>
<line x1="8.20312" y1="108.362" x2="105.438" y2="108.362" stroke="black" stroke-width="0.342376"/>
<line x1="8.20312" y1="162.8" x2="105.438" y2="162.8" stroke="black" stroke-width="0.342376"/>
<path d="M20.5703 114.902V112.372H21.2448C21.505 112.372 21.7264 112.419 21.909 112.513C22.0938 112.606 22.2342 112.745 22.3301 112.93C22.4282 113.115 22.4773 113.348 22.4773 113.629C22.4773 113.907 22.4282 114.141 22.3301 114.331C22.2342 114.52 22.0961 114.663 21.9158 114.759C21.7355 114.854 21.5198 114.902 21.2687 114.902H20.5703ZM21.0222 114.536H21.2139C21.3828 114.536 21.5266 114.504 21.6453 114.44C21.7663 114.374 21.8576 114.274 21.9192 114.139C21.9831 114.004 22.0151 113.834 22.0151 113.629C22.0151 113.419 21.9831 113.249 21.9192 113.119C21.8576 112.988 21.7663 112.893 21.6453 112.831C21.5266 112.769 21.3828 112.739 21.2139 112.739H21.0222V114.536ZM22.6088 114.902L23.4339 112.372H23.9612L24.7829 114.902H24.307L23.9235 113.557C23.8824 113.422 23.8436 113.284 23.8071 113.143C23.7706 113.001 23.7329 112.862 23.6941 112.725H23.6804C23.6462 112.864 23.6097 113.004 23.5709 113.146C23.5321 113.285 23.4933 113.422 23.4545 113.557L23.0676 114.902H22.6088ZM23.095 114.218V113.865H24.2899V114.218H23.095ZM25.3467 114.902V112.752H24.6208V112.372H26.5313V112.752H25.802V114.902H25.3467ZM26.9564 114.902V112.372H28.48V112.752H27.4083V113.396H28.3156V113.776H27.4083V114.522H28.5176V114.902H26.9564Z" fill="black"/>
<path d="M51.6734 114.902V112.372H52.4711C52.6606 112.372 52.8283 112.397 52.9744 112.448C53.1205 112.495 53.2358 112.576 53.3202 112.691C53.407 112.805 53.4503 112.959 53.4503 113.153C53.4503 113.34 53.4081 113.495 53.3237 113.618C53.2392 113.739 53.1239 113.83 52.9779 113.889C52.8318 113.946 52.6674 113.975 52.4848 113.975H52.1253V114.902H51.6734ZM52.1253 113.615H52.4506C52.6378 113.615 52.777 113.577 52.8683 113.502C52.9596 113.424 53.0052 113.308 53.0052 113.153C53.0052 112.998 52.9573 112.889 52.8614 112.828C52.7656 112.766 52.6229 112.735 52.4335 112.735H52.1253V113.615ZM53.9269 114.902V112.372H54.3789V114.522H55.43V114.902H53.9269ZM55.5174 114.902L56.3426 112.372H56.8698L57.6915 114.902H57.2156L56.8322 113.557C56.7911 113.422 56.7523 113.284 56.7157 113.143C56.6792 113.001 56.6416 112.862 56.6028 112.725H56.5891C56.5548 112.864 56.5183 113.004 56.4795 113.146C56.4407 113.285 56.4019 113.422 56.3631 113.557L55.9762 114.902H55.5174ZM56.0036 114.218V113.865H57.1985V114.218H56.0036ZM58.9625 114.95C58.8027 114.95 58.6543 114.922 58.5174 114.865C58.3804 114.808 58.2594 114.723 58.1544 114.611C58.0495 114.499 57.9673 114.363 57.9079 114.2C57.8509 114.038 57.8223 113.854 57.8223 113.646C57.8223 113.438 57.852 113.253 57.9114 113.091C57.973 112.929 58.0563 112.791 58.1613 112.677C58.2686 112.563 58.3918 112.476 58.5311 112.417C58.6726 112.357 58.8232 112.328 58.983 112.328C59.1428 112.328 59.2843 112.361 59.4075 112.427C59.5308 112.491 59.6324 112.565 59.7123 112.65L59.4726 112.937C59.4064 112.873 59.3345 112.821 59.2569 112.78C59.1793 112.739 59.0903 112.718 58.9898 112.718C58.8552 112.718 58.7342 112.756 58.6269 112.831C58.5197 112.904 58.4363 113.009 58.377 113.146C58.3176 113.281 58.288 113.443 58.288 113.632C58.288 113.824 58.3165 113.989 58.3736 114.129C58.4306 114.266 58.5105 114.372 58.6132 114.447C58.7182 114.52 58.8403 114.557 58.9796 114.557C59.0914 114.557 59.1919 114.533 59.2809 114.485C59.3699 114.437 59.4498 114.374 59.5205 114.296L59.7602 114.581C59.6575 114.701 59.5399 114.794 59.4075 114.858C59.2752 114.919 59.1268 114.95 58.9625 114.95ZM60.186 114.902V112.372H61.7096V112.752H60.6379V113.396H61.5452V113.776H60.6379V114.522H61.7472V114.902H60.186Z" fill="black"/>
<path d="M79.7071 114.902L80.5322 112.372H81.0595L81.8812 114.902H81.4053L81.0218 113.557C80.9807 113.422 80.9419 113.284 80.9054 113.143C80.8689 113.001 80.8312 112.862 80.7924 112.725H80.7787C80.7445 112.864 80.708 113.004 80.6692 113.146C80.6304 113.285 80.5916 113.422 80.5528 113.557L80.1659 114.902H79.7071ZM80.1933 114.218V113.865H81.3882V114.218H80.1933ZM82.199 114.902V112.372H82.8735C83.1337 112.372 83.3551 112.419 83.5377 112.513C83.7226 112.606 83.863 112.745 83.9588 112.93C84.057 113.115 84.1061 113.348 84.1061 113.629C84.1061 113.907 84.057 114.141 83.9588 114.331C83.863 114.52 83.7249 114.663 83.5446 114.759C83.3643 114.854 83.1486 114.902 82.8975 114.902H82.199ZM82.651 114.536H82.8427C83.0116 114.536 83.1554 114.504 83.2741 114.44C83.3951 114.374 83.4864 114.274 83.548 114.139C83.6119 114.004 83.6439 113.834 83.6439 113.629C83.6439 113.419 83.6119 113.249 83.548 113.119C83.4864 112.988 83.3951 112.893 83.2741 112.831C83.1554 112.769 83.0116 112.739 82.8427 112.739H82.651V114.536ZM84.6197 114.902V112.372H85.1299L85.575 113.608C85.6024 113.686 85.6297 113.767 85.6571 113.851C85.6845 113.936 85.7108 114.019 85.7359 114.101H85.753C85.7804 114.019 85.8066 113.936 85.8318 113.851C85.8591 113.767 85.8854 113.686 85.9105 113.608L86.3487 112.372H86.8589V114.902H86.4446V113.749C86.4446 113.671 86.448 113.585 86.4549 113.492C86.4617 113.396 86.4697 113.3 86.4788 113.204C86.488 113.108 86.496 113.022 86.5028 112.944H86.4891L86.2837 113.533L85.8694 114.666H85.5989L85.1847 113.533L84.9827 112.944H84.969C84.9781 113.022 84.9861 113.108 84.9929 113.204C85.0021 113.3 85.01 113.396 85.0169 113.492C85.0237 113.585 85.0272 113.671 85.0272 113.749V114.902H84.6197ZM87.5019 114.902V112.372H87.9538V114.902H87.5019ZM89.3347 114.95C89.1612 114.95 88.9958 114.918 88.8383 114.854C88.6808 114.788 88.5427 114.697 88.424 114.581L88.6842 114.269C88.7755 114.356 88.8782 114.425 88.9923 114.478C89.1087 114.53 89.2252 114.557 89.3416 114.557C89.4854 114.557 89.5938 114.527 89.6668 114.468C89.7421 114.408 89.7798 114.331 89.7798 114.235C89.7798 114.164 89.7627 114.107 89.7285 114.064C89.6942 114.02 89.6474 113.984 89.5881 113.954C89.531 113.922 89.4648 113.89 89.3895 113.858L89.0437 113.711C88.9615 113.677 88.8805 113.631 88.8006 113.574C88.723 113.517 88.658 113.445 88.6055 113.358C88.5552 113.269 88.5301 113.164 88.5301 113.043C88.5301 112.906 88.5667 112.784 88.6397 112.677C88.7127 112.57 88.8132 112.485 88.941 112.424C89.0711 112.36 89.2183 112.328 89.3827 112.328C89.531 112.328 89.6737 112.356 89.8106 112.413C89.9476 112.47 90.0651 112.549 90.1633 112.65L89.9305 112.937C89.8506 112.869 89.7661 112.815 89.6771 112.776C89.5904 112.737 89.4922 112.718 89.3827 112.718C89.264 112.718 89.1692 112.744 89.0985 112.797C89.0277 112.849 88.9923 112.921 88.9923 113.012C88.9923 113.079 89.0106 113.133 89.0471 113.177C89.0859 113.22 89.135 113.257 89.1943 113.286C89.256 113.314 89.3222 113.342 89.3929 113.372L89.7319 113.512C89.8323 113.553 89.9202 113.605 89.9955 113.666C90.0731 113.726 90.1336 113.799 90.177 113.885C90.2203 113.97 90.242 114.074 90.242 114.197C90.242 114.334 90.2055 114.46 90.1325 114.574C90.0617 114.688 89.9578 114.779 89.8209 114.848C89.6862 114.916 89.5242 114.95 89.3347 114.95ZM91.3676 114.95C91.1941 114.95 91.0286 114.918 90.8711 114.854C90.7136 114.788 90.5755 114.697 90.4569 114.581L90.7171 114.269C90.8084 114.356 90.9111 114.425 91.0252 114.478C91.1416 114.53 91.258 114.557 91.3744 114.557C91.5182 114.557 91.6266 114.527 91.6997 114.468C91.775 114.408 91.8127 114.331 91.8127 114.235C91.8127 114.164 91.7955 114.107 91.7613 114.064C91.7271 114.02 91.6803 113.984 91.6209 113.954C91.5639 113.922 91.4977 113.89 91.4224 113.858L91.0766 113.711C90.9944 113.677 90.9134 113.631 90.8335 113.574C90.7559 113.517 90.6908 113.445 90.6383 113.358C90.5881 113.269 90.563 113.164 90.563 113.043C90.563 112.906 90.5995 112.784 90.6726 112.677C90.7456 112.57 90.846 112.485 90.9738 112.424C91.1039 112.36 91.2512 112.328 91.4155 112.328C91.5639 112.328 91.7065 112.356 91.8435 112.413C91.9804 112.47 92.098 112.549 92.1961 112.65L91.9633 112.937C91.8834 112.869 91.799 112.815 91.71 112.776C91.6232 112.737 91.5251 112.718 91.4155 112.718C91.2968 112.718 91.2021 112.744 91.1313 112.797C91.0606 112.849 91.0252 112.921 91.0252 113.012C91.0252 113.079 91.0435 113.133 91.08 113.177C91.1188 113.22 91.1679 113.257 91.2272 113.286C91.2888 113.314 91.355 113.342 91.4258 113.372L91.7647 113.512C91.8652 113.553 91.953 113.605 92.0284 113.666C92.106 113.726 92.1665 113.799 92.2098 113.885C92.2532 113.97 92.2749 114.074 92.2749 114.197C92.2749 114.334 92.2384 114.46 92.1653 114.574C92.0946 114.688 91.9907 114.779 91.8538 114.848C91.7191 114.916 91.557 114.95 91.3676 114.95ZM92.7378 114.902V112.372H93.1897V114.902H92.7378ZM94.8138 114.95C94.5946 114.95 94.4006 114.897 94.2317 114.789C94.0651 114.682 93.9339 114.53 93.838 114.334C93.7444 114.135 93.6976 113.9 93.6976 113.629C93.6976 113.355 93.7444 113.121 93.838 112.927C93.9339 112.733 94.0651 112.584 94.2317 112.482C94.4006 112.379 94.5946 112.328 94.8138 112.328C95.0352 112.328 95.2292 112.38 95.3958 112.485C95.5624 112.588 95.6925 112.736 95.7861 112.93C95.882 113.122 95.9299 113.355 95.9299 113.629C95.9299 113.9 95.882 114.135 95.7861 114.334C95.6925 114.53 95.5624 114.682 95.3958 114.789C95.2292 114.897 95.0352 114.95 94.8138 114.95ZM94.8138 114.557C94.9461 114.557 95.0614 114.519 95.1596 114.444C95.2577 114.366 95.333 114.258 95.3855 114.118C95.4403 113.979 95.4677 113.816 95.4677 113.629C95.4677 113.439 95.4403 113.277 95.3855 113.143C95.333 113.006 95.2577 112.901 95.1596 112.828C95.0614 112.755 94.9461 112.718 94.8138 112.718C94.6814 112.718 94.5661 112.755 94.468 112.828C94.3698 112.901 94.2945 113.006 94.242 113.143C94.1895 113.277 94.1632 113.439 94.1632 113.629C94.1632 113.816 94.1895 113.979 94.242 114.118C94.2945 114.258 94.3698 114.366 94.468 114.444C94.5661 114.519 94.6814 114.557 94.8138 114.557ZM96.4391 114.902V112.372H96.9013L97.6853 113.79L97.949 114.331H97.9661C97.9524 114.2 97.9387 114.06 97.925 113.909C97.9113 113.757 97.9045 113.609 97.9045 113.468V112.372H98.3324V114.902H97.8702L97.0896 113.481L96.826 112.947H96.8123C96.8214 113.08 96.8328 113.22 96.8465 113.368C96.8602 113.515 96.8671 113.658 96.8671 113.8V114.902H96.4391Z" fill="black"/>
<path d="M47.5472 149.53C47.3874 149.53 47.239 149.502 47.1021 149.445C46.9651 149.388 46.8442 149.303 46.7392 149.191C46.6342 149.08 46.552 148.943 46.4927 148.781C46.4356 148.618 46.4071 148.434 46.4071 148.226C46.4071 148.018 46.4367 147.833 46.4961 147.671C46.5577 147.509 46.641 147.371 46.746 147.257C46.8533 147.143 46.9765 147.056 47.1158 146.997C47.2573 146.937 47.4079 146.908 47.5677 146.908C47.7275 146.908 47.869 146.941 47.9923 147.007C48.1155 147.071 48.2171 147.145 48.297 147.23L48.0573 147.517C47.9911 147.453 47.9192 147.401 47.8416 147.36C47.764 147.319 47.675 147.298 47.5746 147.298C47.4399 147.298 47.3189 147.336 47.2116 147.411C47.1044 147.484 47.0211 147.589 46.9617 147.726C46.9024 147.861 46.8727 148.023 46.8727 148.212C46.8727 148.404 46.9012 148.569 46.9583 148.709C47.0153 148.846 47.0952 148.952 47.1979 149.027C47.3029 149.1 47.4251 149.137 47.5643 149.137C47.6761 149.137 47.7766 149.113 47.8656 149.065C47.9546 149.017 48.0345 148.954 48.1052 148.876L48.3449 149.161C48.2422 149.282 48.1246 149.374 47.9923 149.438C47.8599 149.5 47.7115 149.53 47.5472 149.53ZM49.6096 149.53C49.3904 149.53 49.1964 149.477 49.0275 149.369C48.8609 149.262 48.7297 149.11 48.6338 148.914C48.5402 148.715 48.4934 148.48 48.4934 148.209C48.4934 147.935 48.5402 147.701 48.6338 147.507C48.7297 147.313 48.8609 147.165 49.0275 147.062C49.1964 146.959 49.3904 146.908 49.6096 146.908C49.831 146.908 50.025 146.96 50.1916 147.065C50.3582 147.168 50.4883 147.316 50.5819 147.51C50.6778 147.702 50.7257 147.935 50.7257 148.209C50.7257 148.48 50.6778 148.715 50.5819 148.914C50.4883 149.11 50.3582 149.262 50.1916 149.369C50.025 149.477 49.831 149.53 49.6096 149.53ZM49.6096 149.137C49.7419 149.137 49.8572 149.099 49.9554 149.024C50.0535 148.946 50.1288 148.838 50.1813 148.698C50.2361 148.559 50.2635 148.396 50.2635 148.209C50.2635 148.019 50.2361 147.857 50.1813 147.723C50.1288 147.586 50.0535 147.481 49.9554 147.408C49.8572 147.335 49.7419 147.298 49.6096 147.298C49.4772 147.298 49.3619 147.335 49.2638 147.408C49.1656 147.481 49.0903 147.586 49.0378 147.723C48.9853 147.857 48.959 148.019 48.959 148.209C48.959 148.396 48.9853 148.559 49.0378 148.698C49.0903 148.838 49.1656 148.946 49.2638 149.024C49.3619 149.099 49.4772 149.137 49.6096 149.137ZM51.2349 149.482V146.952H51.745L52.1901 148.188C52.2175 148.266 52.2449 148.347 52.2723 148.431C52.2997 148.516 52.3259 148.599 52.351 148.681H52.3682C52.3955 148.599 52.4218 148.516 52.4469 148.431C52.4743 148.347 52.5005 148.266 52.5256 148.188L52.9639 146.952H53.474V149.482H53.0598V148.329C53.0598 148.251 53.0632 148.165 53.07 148.072C53.0769 147.976 53.0849 147.88 53.094 147.784C53.1031 147.688 53.1111 147.602 53.118 147.524H53.1043L52.8988 148.113L52.4846 149.246H52.2141L51.7998 148.113L51.5978 147.524H51.5841C51.5932 147.602 51.6012 147.688 51.6081 147.784C51.6172 147.88 51.6252 147.976 51.632 148.072C51.6389 148.165 51.6423 148.251 51.6423 148.329V149.482H51.2349ZM54.117 149.482V146.952H54.9147C55.1042 146.952 55.272 146.977 55.418 147.028C55.5641 147.076 55.6794 147.157 55.7638 147.271C55.8506 147.385 55.8939 147.539 55.8939 147.733C55.8939 147.92 55.8517 148.075 55.7673 148.199C55.6828 148.319 55.5675 148.41 55.4215 148.469C55.2754 148.526 55.111 148.555 54.9284 148.555H54.5689V149.482H54.117ZM54.5689 148.195H54.8942C55.0814 148.195 55.2206 148.157 55.3119 148.082C55.4032 148.004 55.4488 147.888 55.4488 147.733C55.4488 147.578 55.4009 147.469 55.305 147.408C55.2092 147.346 55.0665 147.315 54.8771 147.315H54.5689V148.195ZM55.8346 149.482L56.6597 146.952H57.1869L58.0086 149.482H57.5327L57.1493 148.137C57.1082 148.002 57.0694 147.864 57.0329 147.723C56.9964 147.581 56.9587 147.442 56.9199 147.305H56.9062C56.872 147.444 56.8354 147.585 56.7966 147.726C56.7578 147.865 56.719 148.002 56.6802 148.137L56.2933 149.482H55.8346ZM56.3207 148.798V148.445H57.5156V148.798H56.3207ZM58.3265 149.482V146.952H58.7887L59.5727 148.37L59.8364 148.911H59.8535C59.8398 148.781 59.8261 148.64 59.8124 148.49C59.7987 148.337 59.7919 148.189 59.7919 148.048V146.952H60.2198V149.482H59.7576L58.977 148.062L58.7134 147.527H58.6997C58.7088 147.66 58.7202 147.8 58.7339 147.949C58.7476 148.095 58.7545 148.238 58.7545 148.38V149.482H58.3265ZM60.8676 149.482V146.952H61.3195V149.482H60.8676ZM62.9435 149.53C62.7244 149.53 62.5304 149.477 62.3615 149.369C62.1949 149.262 62.0636 149.11 61.9677 148.914C61.8742 148.715 61.8274 148.48 61.8274 148.209C61.8274 147.935 61.8742 147.701 61.9677 147.507C62.0636 147.313 62.1949 147.165 62.3615 147.062C62.5304 146.959 62.7244 146.908 62.9435 146.908C63.1649 146.908 63.3589 146.96 63.5256 147.065C63.6922 147.168 63.8223 147.316 63.9159 147.51C64.0117 147.702 64.0597 147.935 64.0597 148.209C64.0597 148.48 64.0117 148.715 63.9159 148.914C63.8223 149.11 63.6922 149.262 63.5256 149.369C63.3589 149.477 63.1649 149.53 62.9435 149.53ZM62.9435 149.137C63.0759 149.137 63.1912 149.099 63.2893 149.024C63.3875 148.946 63.4628 148.838 63.5153 148.698C63.5701 148.559 63.5975 148.396 63.5975 148.209C63.5975 148.019 63.5701 147.857 63.5153 147.723C63.4628 147.586 63.3875 147.481 63.2893 147.408C63.1912 147.335 63.0759 147.298 62.9435 147.298C62.8111 147.298 62.6959 147.335 62.5977 147.408C62.4996 147.481 62.4242 147.586 62.3718 147.723C62.3193 147.857 62.293 148.019 62.293 148.209C62.293 148.396 62.3193 148.559 62.3718 148.698C62.4242 148.838 62.4996 148.946 62.5977 149.024C62.6959 149.099 62.8111 149.137 62.9435 149.137ZM64.5688 149.482V146.952H65.0311L65.8151 148.37L66.0787 148.911H66.0958C66.0821 148.781 66.0685 148.64 66.0548 148.49C66.0411 148.337 66.0342 148.189 66.0342 148.048V146.952H66.4622V149.482H66L65.2194 148.062L64.9557 147.527H64.942C64.9512 147.66 64.9626 147.8 64.9763 147.949C64.99 148.095 64.9968 148.238 64.9968 148.38V149.482H64.5688Z" fill="black"/>
<path d="M45.8531 95.3867V92.8566H46.6508C46.8403 92.8566 47.008 92.8817 47.1541 92.9319C47.3002 92.9798 47.4155 93.0608 47.4999 93.175C47.5867 93.2891 47.63 93.4432 47.63 93.6372C47.63 93.8243 47.5878 93.9796 47.5033 94.1028C47.4189 94.2238 47.3036 94.3139 47.1575 94.3733C47.0115 94.4303 46.8471 94.4589 46.6645 94.4589H46.305V95.3867H45.8531ZM46.305 94.0994H46.6303C46.8174 94.0994 46.9567 94.0617 47.048 93.9864C47.1393 93.9088 47.1849 93.7924 47.1849 93.6372C47.1849 93.482 47.137 93.3735 47.0411 93.3119C46.9453 93.2503 46.8026 93.2195 46.6132 93.2195H46.305V94.0994ZM49.0892 95.4347C48.8701 95.4347 48.6761 95.381 48.5072 95.2737C48.3406 95.1665 48.2093 95.0147 48.1135 94.8184C48.0199 94.6198 47.9731 94.3847 47.9731 94.1131C47.9731 93.8392 48.0199 93.6052 48.1135 93.4112C48.2093 93.2172 48.3406 93.0688 48.5072 92.9661C48.6761 92.8634 48.8701 92.812 49.0892 92.812C49.3106 92.812 49.5047 92.8645 49.6713 92.9695C49.8379 93.0723 49.968 93.2206 50.0616 93.4146C50.1575 93.6064 50.2054 93.8392 50.2054 94.1131C50.2054 94.3847 50.1575 94.6198 50.0616 94.8184C49.968 95.0147 49.8379 95.1665 49.6713 95.2737C49.5047 95.381 49.3106 95.4347 49.0892 95.4347ZM49.0892 95.0409C49.2216 95.0409 49.3369 95.0033 49.435 94.9279C49.5332 94.8503 49.6085 94.7419 49.661 94.6027C49.7158 94.4634 49.7432 94.3002 49.7432 94.1131C49.7432 93.9236 49.7158 93.7616 49.661 93.6269C49.6085 93.49 49.5332 93.385 49.435 93.3119C49.3369 93.2389 49.2216 93.2024 49.0892 93.2024C48.9569 93.2024 48.8416 93.2389 48.7434 93.3119C48.6453 93.385 48.57 93.49 48.5175 93.6269C48.465 93.7616 48.4387 93.9236 48.4387 94.1131C48.4387 94.3002 48.465 94.4634 48.5175 94.6027C48.57 94.7419 48.6453 94.8503 48.7434 94.9279C48.8416 95.0033 48.9569 95.0409 49.0892 95.0409ZM50.7146 95.3867V92.8566H51.5123C51.7017 92.8566 51.8695 92.8817 52.0156 92.9319C52.1617 92.9798 52.2769 93.0608 52.3614 93.175C52.4481 93.2891 52.4915 93.4432 52.4915 93.6372C52.4915 93.8243 52.4493 93.9796 52.3648 94.1028C52.2804 94.2238 52.1651 94.3139 52.019 94.3733C51.8729 94.4303 51.7086 94.4589 51.526 94.4589H51.1665V95.3867H50.7146ZM51.1665 94.0994H51.4918C51.6789 94.0994 51.8182 94.0617 51.9095 93.9864C52.0008 93.9088 52.0464 93.7924 52.0464 93.6372C52.0464 93.482 51.9985 93.3735 51.9026 93.3119C51.8067 93.2503 51.6641 93.2195 51.4746 93.2195H51.1665V94.0994ZM53.9165 95.4347C53.7704 95.4347 53.638 95.413 53.5193 95.3696C53.4006 95.3262 53.2991 95.2589 53.2146 95.1676C53.1324 95.0763 53.0685 94.9565 53.0229 94.8081C52.9795 94.6597 52.9578 94.4828 52.9578 94.2774V92.8566H53.4063V94.3117C53.4063 94.492 53.428 94.6358 53.4714 94.7431C53.5148 94.8503 53.5741 94.9268 53.6494 94.9724C53.727 95.0181 53.816 95.0409 53.9165 95.0409C54.0215 95.0409 54.1128 95.0181 54.1904 94.9724C54.268 94.9268 54.3285 94.8503 54.3718 94.7431C54.4175 94.6358 54.4403 94.492 54.4403 94.3117V92.8566H54.8751V94.2774C54.8751 94.4828 54.8523 94.6597 54.8067 94.8081C54.7633 94.9565 54.6994 95.0763 54.6149 95.1676C54.5328 95.2589 54.4323 95.3262 54.3136 95.3696C54.1972 95.413 54.0648 95.4347 53.9165 95.4347ZM55.5025 95.3867V92.8566H56.3002C56.4897 92.8566 56.6574 92.8817 56.8035 92.9319C56.9496 92.9798 57.0649 93.0608 57.1493 93.175C57.236 93.2891 57.2794 93.4432 57.2794 93.6372C57.2794 93.8243 57.2372 93.9796 57.1527 94.1028C57.0683 94.2238 56.953 94.3139 56.8069 94.3733C56.6609 94.4303 56.4965 94.4589 56.3139 94.4589H55.9544V95.3867H55.5025ZM55.9544 94.0994H56.2797C56.4668 94.0994 56.6061 94.0617 56.6974 93.9864C56.7887 93.9088 56.8343 93.7924 56.8343 93.6372C56.8343 93.482 56.7864 93.3735 56.6905 93.3119C56.5947 93.2503 56.452 93.2195 56.2626 93.2195H55.9544V94.0994ZM58.5284 95.3867V92.8566H58.9906L59.7746 94.274L60.0382 94.815H60.0554C60.0417 94.6848 60.028 94.5445 60.0143 94.3938C60.0006 94.2409 59.9937 94.0937 59.9937 93.9522V92.8566H60.4217V95.3867H59.9595L59.1789 93.9659L58.9153 93.4317H58.9016C58.9107 93.5641 58.9221 93.7045 58.9358 93.8529C58.9495 93.999 58.9563 94.1428 58.9563 94.2843V95.3867H58.5284ZM60.7408 95.3867L61.5659 92.8566H62.0931L62.9149 95.3867H62.4389L62.0555 94.0412C62.0144 93.9065 61.9756 93.7684 61.9391 93.6269C61.9026 93.4854 61.8649 93.3462 61.8261 93.2092H61.8124C61.7782 93.3484 61.7416 93.4888 61.7028 93.6303C61.664 93.7696 61.6252 93.9065 61.5864 94.0412L61.1995 95.3867H60.7408ZM61.2269 94.702V94.3493H62.4218V94.702H61.2269ZM63.2327 95.3867V92.8566H63.7428L64.1879 94.0925C64.2153 94.1701 64.2427 94.2512 64.2701 94.3356C64.2975 94.4201 64.3237 94.5034 64.3488 94.5856H64.366C64.3934 94.5034 64.4196 94.4201 64.4447 94.3356C64.4721 94.2512 64.4984 94.1701 64.5235 94.0925L64.9617 92.8566H65.4718V95.3867H65.0576V94.2329C65.0576 94.1553 65.061 94.0697 65.0678 93.9761C65.0747 93.8803 65.0827 93.7844 65.0918 93.6885C65.1009 93.5927 65.1089 93.5059 65.1158 93.4283H65.1021L64.8967 94.0172L64.4824 95.1505H64.2119L63.7976 94.0172L63.5956 93.4283H63.5819C63.5911 93.5059 63.599 93.5927 63.6059 93.6885C63.615 93.7844 63.623 93.8803 63.6299 93.9761C63.6367 94.0697 63.6401 94.1553 63.6401 94.2329V95.3867H63.2327ZM66.1148 95.3867V92.8566H67.6384V93.2366H66.5668V93.8803H67.4741V94.2603H66.5668V95.0067H67.6761V95.3867H66.1148Z" fill="black"/>
<path d="M41.6602 168.185C41.7101 168.025 41.9374 168.025 41.9872 168.185L42.4422 169.652C42.5089 169.867 42.7077 170.014 42.9327 170.014H44.4378C44.6017 170.014 44.6719 170.222 44.5415 170.321L43.2969 171.268C43.1252 171.399 43.0535 171.623 43.1174 171.829L43.5863 173.341C43.6356 173.5 43.4517 173.629 43.3191 173.528L42.1348 172.626C41.951 172.486 41.6965 172.486 41.5127 172.626L40.3284 173.528C40.1958 173.629 40.0119 173.5 40.0612 173.341L40.5301 171.829C40.594 171.623 40.5223 171.399 40.3506 171.268L39.106 170.321C38.9756 170.222 39.0458 170.014 39.2097 170.014H40.7147C40.9398 170.014 41.1386 169.867 41.2052 169.652L41.6602 168.185Z" fill="#4AC7CF" stroke="black" stroke-width="0.342376"/>
<path d="M49.215 168.163C49.2654 168.004 49.4909 168.004 49.5414 168.163L50.0135 169.655C50.0811 169.868 50.2792 170.014 50.5032 170.014H52.0498C52.2145 170.014 52.2842 170.223 52.1521 170.322L50.8855 171.267C50.7102 171.398 50.637 171.625 50.7029 171.833L51.1831 173.35C51.2332 173.509 51.0508 173.639 50.9175 173.539L49.6852 172.62C49.5031 172.484 49.2533 172.484 49.0711 172.62L47.8389 173.539C47.7056 173.639 47.5231 173.509 47.5733 173.35L48.0534 171.833C48.1194 171.625 48.0461 171.398 47.8708 171.267L46.6042 170.322C46.4722 170.223 46.5418 170.014 46.7066 170.014H48.2532C48.4771 170.014 48.6753 169.868 48.7428 169.655L49.215 168.163Z" fill="black" stroke="black" stroke-width="0.342376"/>
<path d="M56.8478 168.163C56.8982 168.004 57.1238 168.004 57.1742 168.163L57.6463 169.655C57.7139 169.868 57.912 170.014 58.136 170.014H59.6826C59.8473 170.014 59.917 170.223 59.7849 170.322L58.5183 171.267C58.3431 171.398 58.2698 171.625 58.3358 171.833L58.8159 173.35C58.8661 173.509 58.6836 173.639 58.5503 173.539L57.3181 172.62C57.1359 172.484 56.8861 172.484 56.7039 172.62L55.4717 173.539C55.3384 173.639 55.1559 173.509 55.2061 173.35L55.6862 171.833C55.7522 171.625 55.6789 171.398 55.5037 171.267L54.237 170.322C54.105 170.223 54.1747 170.014 54.3394 170.014H55.886C56.11 170.014 56.3081 169.868 56.3756 169.655L56.8478 168.163Z" fill="black" stroke="black" stroke-width="0.342376"/>
<path d="M64.4728 168.163C64.5232 168.004 64.7488 168.004 64.7992 168.163L65.2713 169.655C65.3389 169.868 65.537 170.014 65.761 170.014H67.3076C67.4723 170.014 67.542 170.223 67.4099 170.322L66.1433 171.267C65.9681 171.398 65.8948 171.625 65.9608 171.833L66.4409 173.35C66.4911 173.509 66.3086 173.639 66.1753 173.539L64.9431 172.62C64.7609 172.484 64.5111 172.484 64.3289 172.62L63.0967 173.539C62.9634 173.639 62.7809 173.509 62.8311 173.35L63.3112 171.833C63.3772 171.625 63.3039 171.398 63.1287 171.267L61.862 170.322C61.73 170.223 61.7997 170.014 61.9644 170.014H63.511C63.735 170.014 63.9331 169.868 64.0006 169.655L64.4728 168.163Z" stroke="black" stroke-width="0.342376"/>
<path d="M72.0274 168.185C72.0772 168.025 72.3046 168.025 72.3544 168.185L72.8094 169.652C72.8761 169.867 73.0749 170.014 73.2999 170.014H74.805C74.9689 170.014 75.0391 170.222 74.9087 170.321L73.6641 171.268C73.4924 171.399 73.4207 171.623 73.4846 171.829L73.9535 173.341C74.0028 173.5 73.8188 173.629 73.6863 173.528L72.502 172.626C72.3182 172.486 72.0637 172.486 71.8799 172.626L70.6956 173.528C70.563 173.629 70.379 173.5 70.4284 173.341L70.8973 171.829C70.9612 171.623 70.8895 171.399 70.7178 171.268L69.4732 170.321C69.3428 170.222 69.413 170.014 69.5769 170.014H71.0819C71.307 170.014 71.5058 169.867 71.5724 169.652L72.0274 168.185Z" stroke="black" stroke-width="0.342376"/>
<path d="M41.6602 168.185C41.7101 168.025 41.9374 168.025 41.9872 168.185L42.4422 169.652C42.5089 169.867 42.7077 170.014 42.9327 170.014H44.4378C44.6017 170.014 44.6719 170.222 44.5415 170.321L43.2969 171.268C43.1252 171.399 43.0535 171.623 43.1174 171.829L43.5863 173.341C43.6356 173.5 43.4517 173.629 43.3191 173.528L42.1348 172.626C41.951 172.486 41.6965 172.486 41.5127 172.626L40.3284 173.528C40.1958 173.629 40.0119 173.5 40.0612 173.341L40.5301 171.829C40.594 171.623 40.5223 171.399 40.3506 171.268L39.106 170.321C38.9756 170.222 39.0458 170.014 39.2097 170.014H40.7147C40.9398 170.014 41.1386 169.867 41.2052 169.652L41.6602 168.185Z" fill="black" stroke="black" stroke-width="0.342376"/>
<path d="M49.215 168.163C49.2654 168.004 49.4909 168.004 49.5414 168.163L50.0135 169.655C50.0811 169.868 50.2792 170.014 50.5032 170.014H52.0498C52.2145 170.014 52.2842 170.223 52.1521 170.322L50.8855 171.267C50.7102 171.398 50.637 171.625 50.7029 171.833L51.1831 173.35C51.2332 173.509 51.0508 173.639 50.9175 173.539L49.6852 172.62C49.5031 172.484 49.2533 172.484 49.0711 172.62L47.8389 173.539C47.7056 173.639 47.5231 173.509 47.5733 173.35L48.0534 171.833C48.1194 171.625 48.0461 171.398 47.8708 171.267L46.6042 170.322C46.4722 170.223 46.5418 170.014 46.7066 170.014H48.2532C48.4771 170.014 48.6753 169.868 48.7428 169.655L49.215 168.163Z" fill="black" stroke="black" stroke-width="0.342376"/>
<path d="M56.8478 168.163C56.8982 168.004 57.1238 168.004 57.1742 168.163L57.6463 169.655C57.7139 169.868 57.912 170.014 58.136 170.014H59.6826C59.8473 170.014 59.917 170.223 59.7849 170.322L58.5183 171.267C58.3431 171.398 58.2698 171.625 58.3358 171.833L58.8159 173.35C58.8661 173.509 58.6836 173.639 58.5503 173.539L57.3181 172.62C57.1359 172.484 56.8861 172.484 56.7039 172.62L55.4717 173.539C55.3384 173.639 55.1559 173.509 55.2061 173.35L55.6862 171.833C55.7522 171.625 55.6789 171.398 55.5037 171.267L54.237 170.322C54.105 170.223 54.1747 170.014 54.3394 170.014H55.886C56.11 170.014 56.3081 169.868 56.3756 169.655L56.8478 168.163Z" fill="black" stroke="black" stroke-width="0.342376"/>
<path d="M64.4728 168.163C64.5232 168.004 64.7488 168.004 64.7992 168.163L65.2713 169.655C65.3389 169.868 65.537 170.014 65.761 170.014H67.3076C67.4723 170.014 67.542 170.223 67.4099 170.322L66.1433 171.267C65.9681 171.398 65.8948 171.625 65.9608 171.833L66.4409 173.35C66.4911 173.509 66.3086 173.639 66.1753 173.539L64.9431 172.62C64.7609 172.484 64.5111 172.484 64.3289 172.62L63.0967 173.539C62.9634 173.639 62.7809 173.509 62.8311 173.35L63.3112 171.833C63.3772 171.625 63.3039 171.398 63.1287 171.267L61.862 170.322C61.73 170.223 61.7997 170.014 61.9644 170.014H63.511C63.735 170.014 63.9331 169.868 64.0006 169.655L64.4728 168.163Z" stroke="black" stroke-width="0.342376"/>
<path d="M72.0274 168.185C72.0772 168.025 72.3046 168.025 72.3544 168.185L72.8094 169.652C72.8761 169.867 73.0749 170.014 73.2999 170.014H74.805C74.9689 170.014 75.0391 170.222 74.9087 170.321L73.6641 171.268C73.4924 171.399 73.4207 171.623 73.4846 171.829L73.9535 173.341C74.0028 173.5 73.8188 173.629 73.6863 173.528L72.502 172.626C72.3182 172.486 72.0637 172.486 71.8799 172.626L70.6956 173.528C70.563 173.629 70.379 173.5 70.4284 173.341L70.8973 171.829C70.9612 171.623 70.8895 171.399 70.7178 171.268L69.4732 170.321C69.3428 170.222 69.413 170.014 69.5769 170.014H71.0819C71.307 170.014 71.5058 169.867 71.5724 169.652L72.0274 168.185Z" stroke="black" stroke-width="0.342376"/>
<rect x="8.37431" y="89.5306" width="96.8925" height="73.2686" stroke="black" stroke-width="0.342376"/>
<path fill-rule="evenodd" clip-rule="evenodd" d="M25.8869 42.0555C25.0448 46.7952 20.9185 50.3993 15.9445 50.4313C13.697 55.0137 8.98562 58.1683 3.53748 58.1683C2.31469 58.1683 1.12903 58.0094 0 57.7111V8.55941C0 3.83218 3.83218 0 8.55941 0H105.11C109.837 0 113.669 3.83218 113.669 8.55941V52.4357C113.516 52.379 113.364 52.3194 113.213 52.2569C112.515 51.9677 111.845 51.6188 111.211 51.2149C107.398 55.2596 101.991 57.7845 95.9935 57.7845C88.8247 57.7845 82.4985 54.1766 78.7318 48.6775C78.3008 48.7793 77.8512 48.8332 77.3891 48.8332C74.8793 48.8332 72.7407 47.2442 71.9244 45.0174C70.2496 46.2504 68.1804 46.979 65.9411 46.979C63.5995 46.979 61.444 46.1824 59.7308 44.8453C57.2975 48.3743 53.2269 50.6873 48.6161 50.6873C43.6126 50.6873 39.2452 47.9635 36.916 43.9178C36.5006 43.9965 36.072 44.0377 35.6338 44.0377C33.7556 44.0377 32.0541 43.2809 30.8178 42.0555H25.8869Z" fill="#9D9D9D"/>
</svg>
