<svg width="115" height="181" viewBox="0 0 115 181" fill="none" xmlns="http://www.w3.org/2000/svg">
<rect x="0.671875" width="113.669" height="180.775" rx="8.55941" fill="#D9D9D9"/>
<rect x="13.5071" y="56.3216" width="87.9907" height="105.452" rx="8.38822" stroke="#444444" stroke-width="0.342376"/>
<line x1="20.5312" y1="117.264" x2="94.4846" y2="117.264" stroke="black" stroke-width="0.342376"/>
<path d="M22.2203 87.1699V84.6398H22.8948C23.155 84.6398 23.3764 84.6866 23.559 84.7801C23.7438 84.8737 23.8842 85.013 23.9801 85.1978C24.0782 85.3827 24.1273 85.6155 24.1273 85.8963C24.1273 86.1747 24.0782 86.4087 23.9801 86.5982C23.8842 86.7876 23.7461 86.9303 23.5658 87.0261C23.3855 87.122 23.1698 87.1699 22.9187 87.1699H22.2203ZM22.6722 86.8036H22.8639C23.0328 86.8036 23.1766 86.7716 23.2953 86.7077C23.4163 86.6415 23.5076 86.5411 23.5692 86.4064C23.6331 86.2718 23.6651 86.1017 23.6651 85.8963C23.6651 85.6863 23.6331 85.5162 23.5692 85.3861C23.5076 85.256 23.4163 85.1602 23.2953 85.0985C23.1766 85.0369 23.0328 85.0061 22.8639 85.0061H22.6722V86.8036ZM24.2588 87.1699L25.0839 84.6398H25.6112L26.4329 87.1699H25.957L25.5735 85.8244C25.5324 85.6897 25.4936 85.5516 25.4571 85.4101C25.4206 85.2686 25.3829 85.1294 25.3441 84.9924H25.3304C25.2962 85.1316 25.2597 85.272 25.2209 85.4135C25.1821 85.5528 25.1433 85.6897 25.1045 85.8244L24.7176 87.1699H24.2588ZM24.745 86.4852V86.1325H25.9399V86.4852H24.745ZM26.9967 87.1699V85.0198H26.2708V84.6398H28.1813V85.0198H27.452V87.1699H26.9967ZM28.6064 87.1699V84.6398H30.13V85.0198H29.0583V85.6635H29.9656V86.0435H29.0583V86.7899H30.1676V87.1699H28.6064Z" fill="black"/>
<path d="M22.2203 103.605V101.075H23.018C23.2075 101.075 23.3752 101.1 23.5213 101.151C23.6674 101.199 23.7826 101.28 23.8671 101.394C23.9538 101.508 23.9972 101.662 23.9972 101.856C23.9972 102.043 23.955 102.198 23.8705 102.322C23.7861 102.443 23.6708 102.533 23.5247 102.592C23.3786 102.649 23.2143 102.678 23.0317 102.678H22.6722V103.605H22.2203ZM22.6722 102.318H22.9975C23.1846 102.318 23.3239 102.28 23.4152 102.205C23.5065 102.128 23.5521 102.011 23.5521 101.856C23.5521 101.701 23.5042 101.592 23.4083 101.531C23.3125 101.469 23.1698 101.438 22.9803 101.438H22.6722V102.318ZM24.4738 103.605V101.075H24.9257V103.225H25.9768V103.605H24.4738ZM26.0643 103.605L26.8894 101.075H27.4167L28.2384 103.605H27.7625L27.379 102.26C27.3379 102.125 27.2991 101.987 27.2626 101.846C27.2261 101.704 27.1884 101.565 27.1496 101.428H27.1359C27.1017 101.567 27.0652 101.708 27.0264 101.849C26.9876 101.988 26.9488 102.125 26.91 102.26L26.5231 103.605H26.0643ZM26.5505 102.921V102.568H27.7454V102.921H26.5505ZM29.5093 103.653C29.3496 103.653 29.2012 103.625 29.0642 103.568C28.9273 103.511 28.8063 103.426 28.7013 103.314C28.5963 103.203 28.5142 103.066 28.4548 102.904C28.3978 102.742 28.3692 102.557 28.3692 102.349C28.3692 102.141 28.3989 101.956 28.4582 101.794C28.5199 101.632 28.6032 101.494 28.7082 101.38C28.8154 101.266 28.9387 101.179 29.0779 101.12C29.2195 101.06 29.3701 101.031 29.5299 101.031C29.6897 101.031 29.8312 101.064 29.9544 101.13C30.0777 101.194 30.1792 101.268 30.2591 101.353L30.0195 101.64C29.9533 101.576 29.8814 101.524 29.8038 101.483C29.7262 101.442 29.6372 101.421 29.5367 101.421C29.4021 101.421 29.2811 101.459 29.1738 101.534C29.0665 101.607 28.9832 101.712 28.9239 101.849C28.8645 101.984 28.8349 102.146 28.8349 102.335C28.8349 102.527 28.8634 102.692 28.9204 102.832C28.9775 102.969 29.0574 103.075 29.1601 103.15C29.2651 103.223 29.3872 103.26 29.5265 103.26C29.6383 103.26 29.7387 103.236 29.8277 103.188C29.9168 103.14 29.9966 103.077 30.0674 102.999L30.3071 103.284C30.2044 103.405 30.0868 103.497 29.9544 103.561C29.822 103.623 29.6737 103.653 29.5093 103.653ZM30.7329 103.605V101.075H32.2564V101.455H31.1848V102.099H32.0921V102.479H31.1848V103.225H32.2941V103.605H30.7329Z" fill="black"/>
<path d="M22.2203 70.7363V68.2062H23.018C23.2075 68.2062 23.3752 68.2313 23.5213 68.2815C23.6674 68.3294 23.7826 68.4105 23.8671 68.5246C23.9538 68.6387 23.9972 68.7928 23.9972 68.9868C23.9972 69.174 23.955 69.3292 23.8705 69.4524C23.7861 69.5734 23.6708 69.6635 23.5247 69.7229C23.3786 69.78 23.2143 69.8085 23.0317 69.8085H22.6722V70.7363H22.2203ZM22.6722 69.449H22.9975C23.1846 69.449 23.3239 69.4113 23.4152 69.336C23.5065 69.2584 23.5521 69.142 23.5521 68.9868C23.5521 68.8316 23.5042 68.7232 23.4083 68.6615C23.3125 68.5999 23.1698 68.5691 22.9803 68.5691H22.6722V69.449ZM25.4564 70.7843C25.2373 70.7843 25.0433 70.7306 24.8744 70.6233C24.7078 70.5161 24.5765 70.3643 24.4807 70.168C24.3871 69.9694 24.3403 69.7343 24.3403 69.4627C24.3403 69.1888 24.3871 68.9548 24.4807 68.7608C24.5765 68.5668 24.7078 68.4184 24.8744 68.3157C25.0433 68.213 25.2373 68.1617 25.4564 68.1617C25.6778 68.1617 25.8718 68.2142 26.0385 68.3192C26.2051 68.4219 26.3352 68.5702 26.4288 68.7642C26.5246 68.956 26.5726 69.1888 26.5726 69.4627C26.5726 69.7343 26.5246 69.9694 26.4288 70.168C26.3352 70.3643 26.2051 70.5161 26.0385 70.6233C25.8718 70.7306 25.6778 70.7843 25.4564 70.7843ZM25.4564 70.3905C25.5888 70.3905 25.7041 70.3529 25.8022 70.2775C25.9004 70.1999 25.9757 70.0915 26.0282 69.9523C26.083 69.8131 26.1104 69.6499 26.1104 69.4627C26.1104 69.2732 26.083 69.1112 26.0282 68.9765C25.9757 68.8396 25.9004 68.7346 25.8022 68.6615C25.7041 68.5885 25.5888 68.552 25.4564 68.552C25.324 68.552 25.2088 68.5885 25.1106 68.6615C25.0125 68.7346 24.9372 68.8396 24.8847 68.9765C24.8322 69.1112 24.8059 69.2732 24.8059 69.4627C24.8059 69.6499 24.8322 69.8131 24.8847 69.9523C24.9372 70.0915 25.0125 70.1999 25.1106 70.2775C25.2088 70.3529 25.324 70.3905 25.4564 70.3905ZM27.0817 70.7363V68.2062H27.8795C28.0689 68.2062 28.2367 68.2313 28.3828 68.2815C28.5289 68.3294 28.6441 68.4105 28.7286 68.5246C28.8153 68.6387 28.8587 68.7928 28.8587 68.9868C28.8587 69.174 28.8165 69.3292 28.732 69.4524C28.6476 69.5734 28.5323 69.6635 28.3862 69.7229C28.2401 69.78 28.0758 69.8085 27.8932 69.8085H27.5337V70.7363H27.0817ZM27.5337 69.449H27.8589C28.0461 69.449 28.1853 69.4113 28.2766 69.336C28.3679 69.2584 28.4136 69.142 28.4136 68.9868C28.4136 68.8316 28.3657 68.7232 28.2698 68.6615C28.1739 68.5999 28.0313 68.5691 27.8418 68.5691H27.5337V69.449ZM30.2837 70.7843C30.1376 70.7843 30.0052 70.7626 29.8865 70.7192C29.7678 70.6758 29.6662 70.6085 29.5818 70.5172C29.4996 70.4259 29.4357 70.3061 29.3901 70.1577C29.3467 70.0093 29.325 69.8325 29.325 69.627V68.2062H29.7735V69.6613C29.7735 69.8416 29.7952 69.9854 29.8386 70.0927C29.8819 70.1999 29.9413 70.2764 30.0166 70.3221C30.0942 70.3677 30.1832 70.3905 30.2837 70.3905C30.3887 70.3905 30.48 70.3677 30.5576 70.3221C30.6352 70.2764 30.6957 70.1999 30.739 70.0927C30.7847 69.9854 30.8075 69.8416 30.8075 69.6613V68.2062H31.2423V69.627C31.2423 69.8325 31.2195 70.0093 31.1738 70.1577C31.1305 70.3061 31.0666 70.4259 30.9821 70.5172C30.8999 70.6085 30.7995 70.6758 30.6808 70.7192C30.5644 70.7626 30.432 70.7843 30.2837 70.7843ZM31.8697 70.7363V68.2062H32.6674C32.8569 68.2062 33.0246 68.2313 33.1707 68.2815C33.3168 68.3294 33.432 68.4105 33.5165 68.5246C33.6032 68.6387 33.6466 68.7928 33.6466 68.9868C33.6466 69.174 33.6044 69.3292 33.5199 69.4524C33.4355 69.5734 33.3202 69.6635 33.1741 69.7229C33.028 69.78 32.8637 69.8085 32.6811 69.8085H32.3216V70.7363H31.8697ZM32.3216 69.449H32.6469C32.834 69.449 32.9733 69.4113 33.0646 69.336C33.1559 69.2584 33.2015 69.142 33.2015 68.9868C33.2015 68.8316 33.1536 68.7232 33.0577 68.6615C32.9619 68.5999 32.8192 68.5691 32.6297 68.5691H32.3216V69.449ZM34.8956 70.7363V68.2062H35.3578L36.1418 69.6236L36.4054 70.1646H36.4226C36.4089 70.0345 36.3952 69.8941 36.3815 69.7434C36.3678 69.5905 36.3609 69.4433 36.3609 69.3018V68.2062H36.7889V70.7363H36.3267L35.5461 69.3155L35.2824 68.7814H35.2687C35.2779 68.9137 35.2893 69.0541 35.303 69.2025C35.3167 69.3486 35.3235 69.4924 35.3235 69.6339V70.7363H34.8956ZM37.108 70.7363L37.9331 68.2062H38.4603L39.282 70.7363H38.8061L38.4227 69.3908C38.3816 69.2561 38.3428 69.118 38.3063 68.9765C38.2697 68.835 38.2321 68.6958 38.1933 68.5588H38.1796C38.1454 68.698 38.1088 68.8384 38.07 68.9799C38.0312 69.1192 37.9924 69.2561 37.9536 69.3908L37.5667 70.7363H37.108ZM37.5941 70.0516V69.6989H38.789V70.0516H37.5941ZM39.5999 70.7363V68.2062H40.11L40.5551 69.4421C40.5825 69.5198 40.6099 69.6008 40.6373 69.6852C40.6647 69.7697 40.6909 69.853 40.716 69.9352H40.7332C40.7605 69.853 40.7868 69.7697 40.8119 69.6852C40.8393 69.6008 40.8655 69.5198 40.8906 69.4421L41.3289 68.2062H41.839V70.7363H41.4248V69.5825C41.4248 69.5049 41.4282 69.4193 41.435 69.3257C41.4419 69.2299 41.4499 69.134 41.459 69.0381C41.4681 68.9423 41.4761 68.8555 41.483 68.7779H41.4693L41.2638 69.3668L40.8496 70.5001H40.5791L40.1648 69.3668L39.9628 68.7779H39.9491C39.9582 68.8555 39.9662 68.9423 39.9731 69.0381C39.9822 69.134 39.9902 69.2299 39.997 69.3257C40.0039 69.4193 40.0073 69.5049 40.0073 69.5825V70.7363H39.5999ZM42.482 70.7363V68.2062H44.0056V68.5862H42.9339V69.2299H43.8412V69.6099H42.9339V70.3563H44.0432V70.7363H42.482Z" fill="black"/>
<path d="M22.2353 125.859L23.0605 123.329H23.5877L24.4094 125.859H23.9335L23.5501 124.514C23.509 124.379 23.4702 124.241 23.4337 124.1C23.3971 123.958 23.3595 123.819 23.3207 123.682H23.307C23.2727 123.821 23.2362 123.961 23.1974 124.103C23.1586 124.242 23.1198 124.379 23.081 124.514L22.6941 125.859H22.2353ZM22.7215 125.175V124.822H23.9164V125.175H22.7215ZM24.7273 125.859V123.329H25.4018C25.662 123.329 25.8834 123.376 26.066 123.47C26.2509 123.563 26.3912 123.702 26.4871 123.887C26.5852 124.072 26.6343 124.305 26.6343 124.586C26.6343 124.864 26.5852 125.098 26.4871 125.288C26.3912 125.477 26.2531 125.62 26.0728 125.716C25.8925 125.811 25.6768 125.859 25.4257 125.859H24.7273ZM25.1792 125.493H25.3709C25.5399 125.493 25.6837 125.461 25.8023 125.397C25.9233 125.331 26.0146 125.231 26.0762 125.096C26.1402 124.961 26.1721 124.791 26.1721 124.586C26.1721 124.376 26.1402 124.206 26.0762 124.076C26.0146 123.945 25.9233 123.85 25.8023 123.788C25.6837 123.726 25.5399 123.696 25.3709 123.696H25.1792V125.493ZM27.148 125.859V123.329H27.6581L28.1032 124.565C28.1306 124.643 28.158 124.724 28.1854 124.808C28.2128 124.893 28.239 124.976 28.2641 125.058H28.2813C28.3086 124.976 28.3349 124.893 28.36 124.808C28.3874 124.724 28.4136 124.643 28.4387 124.565L28.877 123.329H29.3871V125.859H28.9729V124.706C28.9729 124.628 28.9763 124.542 28.9831 124.449C28.99 124.353 28.998 124.257 29.0071 124.161C29.0162 124.065 29.0242 123.979 29.0311 123.901H29.0174L28.8119 124.49L28.3977 125.623H28.1272L27.7129 124.49L27.5109 123.901H27.4972C27.5063 123.979 27.5143 124.065 27.5212 124.161C27.5303 124.257 27.5383 124.353 27.5451 124.449C27.552 124.542 27.5554 124.628 27.5554 124.706V125.859H27.148ZM30.0301 125.859V123.329H30.482V125.859H30.0301ZM31.863 125.907C31.6895 125.907 31.524 125.875 31.3665 125.811C31.209 125.745 31.0709 125.654 30.9522 125.538L31.2125 125.226C31.3038 125.313 31.4065 125.382 31.5206 125.435C31.637 125.487 31.7534 125.514 31.8698 125.514C32.0136 125.514 32.122 125.484 32.1951 125.425C32.2704 125.365 32.3081 125.288 32.3081 125.192C32.3081 125.121 32.2909 125.064 32.2567 125.021C32.2225 124.977 32.1757 124.941 32.1163 124.911C32.0593 124.879 31.9931 124.847 31.9177 124.815L31.5719 124.668C31.4898 124.634 31.4087 124.588 31.3289 124.531C31.2513 124.474 31.1862 124.402 31.1337 124.315C31.0835 124.226 31.0584 124.121 31.0584 124C31.0584 123.863 31.0949 123.741 31.1679 123.634C31.241 123.527 31.3414 123.442 31.4692 123.381C31.5993 123.317 31.7466 123.285 31.9109 123.285C32.0593 123.285 32.2019 123.313 32.3389 123.37C32.4758 123.427 32.5934 123.506 32.6915 123.607L32.4587 123.894C32.3788 123.826 32.2944 123.772 32.2053 123.733C32.1186 123.694 32.0205 123.675 31.9109 123.675C31.7922 123.675 31.6975 123.701 31.6267 123.754C31.556 123.806 31.5206 123.878 31.5206 123.969C31.5206 124.036 31.5389 124.09 31.5754 124.134C31.6142 124.177 31.6632 124.214 31.7226 124.243C31.7842 124.271 31.8504 124.299 31.9212 124.329L32.2601 124.469C32.3606 124.51 32.4484 124.562 32.5238 124.623C32.6014 124.683 32.6618 124.756 32.7052 124.843C32.7486 124.927 32.7703 125.031 32.7703 125.154C32.7703 125.291 32.7337 125.417 32.6607 125.531C32.5899 125.645 32.4861 125.736 32.3491 125.805C32.2145 125.873 32.0524 125.907 31.863 125.907ZM33.8958 125.907C33.7224 125.907 33.5569 125.875 33.3994 125.811C33.2419 125.745 33.1038 125.654 32.9851 125.538L33.2453 125.226C33.3366 125.313 33.4393 125.382 33.5534 125.435C33.6699 125.487 33.7863 125.514 33.9027 125.514C34.0465 125.514 34.1549 125.484 34.2279 125.425C34.3033 125.365 34.3409 125.288 34.3409 125.192C34.3409 125.121 34.3238 125.064 34.2896 125.021C34.2553 124.977 34.2085 124.941 34.1492 124.911C34.0921 124.879 34.0259 124.847 33.9506 124.815L33.6048 124.668C33.5226 124.634 33.4416 124.588 33.3617 124.531C33.2841 124.474 33.2191 124.402 33.1666 124.315C33.1163 124.226 33.0912 124.121 33.0912 124C33.0912 123.863 33.1278 123.741 33.2008 123.634C33.2738 123.527 33.3743 123.442 33.5021 123.381C33.6322 123.317 33.7794 123.285 33.9438 123.285C34.0921 123.285 34.2348 123.313 34.3717 123.37C34.5087 123.427 34.6262 123.506 34.7244 123.607L34.4916 123.894C34.4117 123.826 34.3272 123.772 34.2382 123.733C34.1515 123.694 34.0533 123.675 33.9438 123.675C33.8251 123.675 33.7303 123.701 33.6596 123.754C33.5888 123.806 33.5534 123.878 33.5534 123.969C33.5534 124.036 33.5717 124.09 33.6082 124.134C33.647 124.177 33.6961 124.214 33.7555 124.243C33.8171 124.271 33.8833 124.299 33.954 124.329L34.293 124.469C34.3934 124.51 34.4813 124.562 34.5566 124.623C34.6342 124.683 34.6947 124.756 34.7381 124.843C34.7814 124.927 34.8031 125.031 34.8031 125.154C34.8031 125.291 34.7666 125.417 34.6936 125.531C34.6228 125.645 34.519 125.736 34.382 125.805C34.2473 125.873 34.0853 125.907 33.8958 125.907ZM35.2661 125.859V123.329H35.718V125.859H35.2661ZM37.342 125.907C37.1229 125.907 36.9289 125.854 36.76 125.746C36.5933 125.639 36.4621 125.487 36.3662 125.291C36.2727 125.092 36.2259 124.857 36.2259 124.586C36.2259 124.312 36.2727 124.078 36.3662 123.884C36.4621 123.69 36.5933 123.541 36.76 123.439C36.9289 123.336 37.1229 123.285 37.342 123.285C37.5634 123.285 37.7574 123.337 37.924 123.442C38.0907 123.545 38.2208 123.693 38.3144 123.887C38.4102 124.079 38.4582 124.312 38.4582 124.586C38.4582 124.857 38.4102 125.092 38.3144 125.291C38.2208 125.487 38.0907 125.639 37.924 125.746C37.7574 125.854 37.5634 125.907 37.342 125.907ZM37.342 125.514C37.4744 125.514 37.5897 125.476 37.6878 125.401C37.786 125.323 37.8613 125.215 37.9138 125.075C37.9686 124.936 37.9959 124.773 37.9959 124.586C37.9959 124.396 37.9686 124.234 37.9138 124.1C37.8613 123.963 37.786 123.858 37.6878 123.785C37.5897 123.712 37.4744 123.675 37.342 123.675C37.2096 123.675 37.0944 123.712 36.9962 123.785C36.8981 123.858 36.8227 123.963 36.7702 124.1C36.7177 124.234 36.6915 124.396 36.6915 124.586C36.6915 124.773 36.7177 124.936 36.7702 125.075C36.8227 125.215 36.8981 125.323 36.9962 125.401C37.0944 125.476 37.2096 125.514 37.342 125.514ZM38.9673 125.859V123.329H39.4295L40.2136 124.747L40.4772 125.288H40.4943C40.4806 125.158 40.4669 125.017 40.4532 124.866C40.4396 124.714 40.4327 124.566 40.4327 124.425V123.329H40.8607V125.859H40.3985L39.6178 124.439L39.3542 123.904H39.3405C39.3497 124.037 39.3611 124.177 39.3748 124.326C39.3885 124.472 39.3953 124.615 39.3953 124.757V125.859H38.9673Z" fill="black"/>
<path d="M23.5706 142.341C23.4108 142.341 23.2625 142.312 23.1255 142.255C22.9886 142.198 22.8676 142.114 22.7626 142.002C22.6576 141.89 22.5754 141.753 22.5161 141.591C22.459 141.429 22.4305 141.244 22.4305 141.036C22.4305 140.829 22.4602 140.644 22.5195 140.482C22.5811 140.32 22.6645 140.182 22.7694 140.068C22.8767 139.953 23 139.867 23.1392 139.807C23.2807 139.748 23.4314 139.718 23.5912 139.718C23.7509 139.718 23.8924 139.751 24.0157 139.818C24.139 139.881 24.2405 139.956 24.3204 140.04L24.0807 140.328C24.0146 140.264 23.9427 140.211 23.8651 140.17C23.7874 140.129 23.6984 140.109 23.598 140.109C23.4633 140.109 23.3424 140.146 23.2351 140.222C23.1278 140.295 23.0445 140.4 22.9851 140.537C22.9258 140.671 22.8961 140.833 22.8961 141.023C22.8961 141.214 22.9247 141.38 22.9817 141.519C23.0388 141.656 23.1187 141.762 23.2214 141.838C23.3264 141.911 23.4485 141.947 23.5877 141.947C23.6996 141.947 23.8 141.923 23.889 141.875C23.978 141.827 24.0579 141.765 24.1287 141.687L24.3683 141.971C24.2656 142.092 24.1481 142.185 24.0157 142.248C23.8833 142.31 23.7349 142.341 23.5706 142.341ZM25.633 142.341C25.4139 142.341 25.2199 142.287 25.051 142.18C24.8843 142.073 24.7531 141.921 24.6572 141.725C24.5636 141.526 24.5169 141.291 24.5169 141.019C24.5169 140.745 24.5636 140.511 24.6572 140.317C24.7531 140.123 24.8843 139.975 25.051 139.872C25.2199 139.77 25.4139 139.718 25.633 139.718C25.8544 139.718 26.0484 139.771 26.215 139.876C26.3817 139.979 26.5118 140.127 26.6053 140.321C26.7012 140.513 26.7491 140.745 26.7491 141.019C26.7491 141.291 26.7012 141.526 26.6053 141.725C26.5118 141.921 26.3817 142.073 26.215 142.18C26.0484 142.287 25.8544 142.341 25.633 142.341ZM25.633 141.947C25.7654 141.947 25.8807 141.91 25.9788 141.834C26.0769 141.757 26.1523 141.648 26.2048 141.509C26.2595 141.37 26.2869 141.206 26.2869 141.019C26.2869 140.83 26.2595 140.668 26.2048 140.533C26.1523 140.396 26.0769 140.291 25.9788 140.218C25.8807 140.145 25.7654 140.109 25.633 140.109C25.5006 140.109 25.3853 140.145 25.2872 140.218C25.1891 140.291 25.1137 140.396 25.0612 140.533C25.0087 140.668 24.9825 140.83 24.9825 141.019C24.9825 141.206 25.0087 141.37 25.0612 141.509C25.1137 141.648 25.1891 141.757 25.2872 141.834C25.3853 141.91 25.5006 141.947 25.633 141.947ZM27.2583 142.293V139.763H27.7685L28.2136 140.999C28.2409 141.076 28.2683 141.157 28.2957 141.242C28.3231 141.326 28.3494 141.41 28.3745 141.492H28.3916C28.419 141.41 28.4452 141.326 28.4703 141.242C28.4977 141.157 28.524 141.076 28.5491 140.999L28.9873 139.763H29.4975V142.293H29.0832V141.139C29.0832 141.062 29.0866 140.976 29.0935 140.882C29.1003 140.787 29.1083 140.691 29.1174 140.595C29.1266 140.499 29.1345 140.412 29.1414 140.335H29.1277L28.9223 140.923L28.508 142.057H28.2375L27.8232 140.923L27.6212 140.335H27.6075C27.6167 140.412 27.6247 140.499 27.6315 140.595C27.6406 140.691 27.6486 140.787 27.6555 140.882C27.6623 140.976 27.6658 141.062 27.6658 141.139V142.293H27.2583ZM30.1404 142.293V139.763H30.9382C31.1276 139.763 31.2954 139.788 31.4415 139.838C31.5875 139.886 31.7028 139.967 31.7873 140.081C31.874 140.195 31.9174 140.349 31.9174 140.543C31.9174 140.731 31.8751 140.886 31.7907 141.009C31.7062 141.13 31.591 141.22 31.4449 141.28C31.2988 141.337 31.1345 141.365 30.9519 141.365H30.5924V142.293H30.1404ZM30.5924 141.006H30.9176C31.1048 141.006 31.244 140.968 31.3353 140.893C31.4266 140.815 31.4723 140.699 31.4723 140.543C31.4723 140.388 31.4244 140.28 31.3285 140.218C31.2326 140.157 31.09 140.126 30.9005 140.126H30.5924V141.006ZM31.858 142.293L32.6831 139.763H33.2104L34.0321 142.293H33.5562L33.1727 140.947C33.1316 140.813 33.0928 140.675 33.0563 140.533C33.0198 140.392 32.9821 140.252 32.9433 140.115H32.9296C32.8954 140.255 32.8589 140.395 32.8201 140.537C32.7813 140.676 32.7425 140.813 32.7037 140.947L32.3168 142.293H31.858ZM32.3442 141.608V141.256H33.5391V141.608H32.3442ZM34.3499 142.293V139.763H34.8121L35.5962 141.18L35.8598 141.721H35.8769C35.8632 141.591 35.8495 141.451 35.8358 141.3C35.8221 141.147 35.8153 141 35.8153 140.858V139.763H36.2433V142.293H35.7811L35.0004 140.872L34.7368 140.338H34.7231C34.7323 140.47 34.7437 140.611 34.7574 140.759C34.7711 140.905 34.7779 141.049 34.7779 141.191V142.293H34.3499ZM36.891 142.293V139.763H37.3429V142.293H36.891ZM38.967 142.341C38.7478 142.341 38.5538 142.287 38.3849 142.18C38.2183 142.073 38.087 141.921 37.9912 141.725C37.8976 141.526 37.8508 141.291 37.8508 141.019C37.8508 140.745 37.8976 140.511 37.9912 140.317C38.087 140.123 38.2183 139.975 38.3849 139.872C38.5538 139.77 38.7478 139.718 38.967 139.718C39.1884 139.718 39.3824 139.771 39.549 139.876C39.7156 139.979 39.8457 140.127 39.9393 140.321C40.0352 140.513 40.0831 140.745 40.0831 141.019C40.0831 141.291 40.0352 141.526 39.9393 141.725C39.8457 141.921 39.7156 142.073 39.549 142.18C39.3824 142.287 39.1884 142.341 38.967 142.341ZM38.967 141.947C39.0993 141.947 39.2146 141.91 39.3128 141.834C39.4109 141.757 39.4862 141.648 39.5387 141.509C39.5935 141.37 39.6209 141.206 39.6209 141.019C39.6209 140.83 39.5935 140.668 39.5387 140.533C39.4862 140.396 39.4109 140.291 39.3128 140.218C39.2146 140.145 39.0993 140.109 38.967 140.109C38.8346 140.109 38.7193 140.145 38.6212 140.218C38.523 140.291 38.4477 140.396 38.3952 140.533C38.3427 140.668 38.3164 140.83 38.3164 141.019C38.3164 141.206 38.3427 141.37 38.3952 141.509C38.4477 141.648 38.523 141.757 38.6212 141.834C38.7193 141.91 38.8346 141.947 38.967 141.947ZM40.5923 142.293V139.763H41.0545L41.8385 141.18L42.1022 141.721H42.1193C42.1056 141.591 42.0919 141.451 42.0782 141.3C42.0645 141.147 42.0577 141 42.0577 140.858V139.763H42.4856V142.293H42.0234L41.2428 140.872L40.9792 140.338H40.9655C40.9746 140.47 40.986 140.611 40.9997 140.759C41.0134 140.905 41.0203 141.049 41.0203 141.191V142.293H40.5923Z" fill="black"/>
<path d="M36.2807 27.1246C36.3306 26.964 36.5579 26.964 36.6077 27.1246L37.4037 29.6911C37.4704 29.9061 37.6692 30.0526 37.8943 30.0526L40.5029 30.0526C40.6668 30.0526 40.737 30.2607 40.6066 30.36L38.4692 31.9868C38.2975 32.1175 38.2258 32.3415 38.2897 32.5476L39.0996 35.1589C39.1489 35.318 38.965 35.4467 38.8324 35.3458L36.7553 33.7648C36.5715 33.6249 36.317 33.6249 36.1332 33.7648L34.0561 35.3458C33.9235 35.4467 33.7395 35.318 33.7889 35.1589L34.5988 32.5476C34.6627 32.3415 34.591 32.1175 34.4193 31.9868L32.2819 30.36C32.1515 30.2607 32.2217 30.0526 32.3856 30.0526L34.9942 30.0526C35.2192 30.0526 35.4181 29.9061 35.4847 29.6911L36.2807 27.1246Z" fill="#4AC7CF" stroke="black" stroke-width="0.342376"/>
<path d="M46.843 27.1026C46.8935 26.9432 47.119 26.9432 47.1694 27.1026L47.9896 29.6939C48.0571 29.9074 48.2552 30.0526 48.4792 30.0526L51.1519 30.0526C51.3166 30.0526 51.3863 30.2625 51.2543 30.361L49.0766 31.9853C48.9013 32.116 48.8281 32.3434 48.894 32.5519L49.7222 35.1685C49.7723 35.327 49.5899 35.4568 49.4566 35.3574L47.3133 33.7587C47.1311 33.6228 46.8813 33.6228 46.6992 33.7587L44.5559 35.3574C44.4226 35.4568 44.2401 35.327 44.2903 35.1685L45.1184 32.5519C45.1844 32.3434 45.1111 32.116 44.9359 31.9853L42.7582 30.361C42.6262 30.2625 42.6958 30.0526 42.8606 30.0526L45.5333 30.0526C45.7572 30.0526 45.9553 29.9074 46.0229 29.6939L46.843 27.1026Z" fill="black" stroke="black" stroke-width="0.342376"/>
<path d="M57.5149 27.1026C57.5653 26.9432 57.7909 26.9432 57.8413 27.1026L58.6614 29.6939C58.729 29.9074 58.9271 30.0526 59.1511 30.0526L61.8238 30.0526C61.9885 30.0526 62.0582 30.2625 61.9261 30.361L59.7485 31.9853C59.5732 32.116 59.4999 32.3434 59.5659 32.5519L60.394 35.1685C60.4442 35.327 60.2617 35.4568 60.1285 35.3574L57.9852 33.7587C57.803 33.6228 57.5532 33.6228 57.371 33.7587L55.2278 35.3574C55.0945 35.4568 54.912 35.327 54.9622 35.1685L55.7903 32.5519C55.8563 32.3434 55.783 32.116 55.6077 31.9853L53.4301 30.361C53.298 30.2625 53.3677 30.0526 53.5324 30.0526L56.2052 30.0526C56.4291 30.0526 56.6272 29.9074 56.6948 29.6939L57.5149 27.1026Z" fill="black" stroke="black" stroke-width="0.342376"/>
<path d="M68.1868 27.1026C68.2372 26.9432 68.4628 26.9432 68.5132 27.1026L69.3333 29.6939C69.4009 29.9074 69.599 30.0526 69.8229 30.0526L72.4957 30.0526C72.6604 30.0526 72.7301 30.2625 72.598 30.361L70.4204 31.9853C70.2451 32.116 70.1718 32.3434 70.2378 32.5519L71.0659 35.1685C71.1161 35.327 70.9336 35.4568 70.8003 35.3574L68.657 33.7587C68.4749 33.6228 68.2251 33.6228 68.0429 33.7587L65.8996 35.3574C65.7664 35.4568 65.5839 35.327 65.6341 35.1685L66.4622 32.5519C66.5281 32.3434 66.4549 32.116 66.2796 31.9853L64.102 30.361C63.9699 30.2625 64.0396 30.0526 64.2043 30.0526L66.877 30.0526C67.101 30.0526 67.2991 29.9074 67.3667 29.6939L68.1868 27.1026Z" stroke="black" stroke-width="0.342376"/>
<path d="M78.7339 27.1246C78.7837 26.964 79.011 26.964 79.0609 27.1246L79.8569 29.6911C79.9235 29.9061 80.1224 30.0526 80.3474 30.0526L82.956 30.0526C83.1199 30.0526 83.1901 30.2607 83.0597 30.36L80.9223 31.9868C80.7506 32.1175 80.6789 32.3415 80.7428 32.5476L81.5527 35.1589C81.602 35.318 81.4181 35.4467 81.2855 35.3458L79.2084 33.7648C79.0246 33.6249 78.7701 33.6249 78.5863 33.7648L76.5092 35.3458C76.3766 35.4467 76.1927 35.318 76.242 35.1589L77.0519 32.5476C77.1158 32.3415 77.0441 32.1175 76.8724 31.9868L74.735 30.36C74.6046 30.2607 74.6748 30.0526 74.8387 30.0526L77.4473 30.0526C77.6724 30.0526 77.8712 29.9061 77.9378 29.6911L78.7339 27.1246Z" stroke="black" stroke-width="0.342376"/>
<path d="M36.2807 27.1246C36.3306 26.964 36.5579 26.964 36.6077 27.1246L37.4037 29.6911C37.4704 29.9061 37.6692 30.0526 37.8943 30.0526L40.5029 30.0526C40.6668 30.0526 40.737 30.2607 40.6066 30.36L38.4692 31.9868C38.2975 32.1175 38.2258 32.3415 38.2897 32.5476L39.0996 35.1589C39.1489 35.318 38.965 35.4467 38.8324 35.3458L36.7553 33.7648C36.5715 33.6249 36.317 33.6249 36.1332 33.7648L34.0561 35.3458C33.9235 35.4467 33.7395 35.318 33.7889 35.1589L34.5988 32.5476C34.6627 32.3415 34.591 32.1175 34.4193 31.9868L32.2819 30.36C32.1515 30.2607 32.2217 30.0526 32.3856 30.0526L34.9942 30.0526C35.2192 30.0526 35.4181 29.9061 35.4847 29.6911L36.2807 27.1246Z" fill="black" stroke="black" stroke-width="0.342376"/>
<path d="M46.843 27.1026C46.8935 26.9432 47.119 26.9432 47.1694 27.1026L47.9896 29.6939C48.0571 29.9074 48.2552 30.0526 48.4792 30.0526L51.1519 30.0526C51.3166 30.0526 51.3863 30.2625 51.2543 30.361L49.0766 31.9853C48.9013 32.116 48.8281 32.3434 48.894 32.5519L49.7222 35.1685C49.7723 35.327 49.5899 35.4568 49.4566 35.3574L47.3133 33.7587C47.1311 33.6228 46.8813 33.6228 46.6992 33.7587L44.5559 35.3574C44.4226 35.4568 44.2401 35.327 44.2903 35.1685L45.1184 32.5519C45.1844 32.3434 45.1111 32.116 44.9359 31.9853L42.7582 30.361C42.6262 30.2625 42.6958 30.0526 42.8606 30.0526L45.5333 30.0526C45.7572 30.0526 45.9553 29.9074 46.0229 29.6939L46.843 27.1026Z" fill="black" stroke="black" stroke-width="0.342376"/>
<path d="M57.5149 27.1026C57.5653 26.9432 57.7909 26.9432 57.8413 27.1026L58.6614 29.6939C58.729 29.9074 58.9271 30.0526 59.1511 30.0526L61.8238 30.0526C61.9885 30.0526 62.0582 30.2625 61.9261 30.361L59.7485 31.9853C59.5732 32.116 59.4999 32.3434 59.5659 32.5519L60.394 35.1685C60.4442 35.327 60.2617 35.4568 60.1285 35.3574L57.9852 33.7587C57.803 33.6228 57.5532 33.6228 57.371 33.7587L55.2278 35.3574C55.0945 35.4568 54.912 35.327 54.9622 35.1685L55.7903 32.5519C55.8563 32.3434 55.783 32.116 55.6077 31.9853L53.4301 30.361C53.298 30.2625 53.3677 30.0526 53.5324 30.0526L56.2052 30.0526C56.4291 30.0526 56.6272 29.9074 56.6948 29.6939L57.5149 27.1026Z" fill="black" stroke="black" stroke-width="0.342376"/>
<path d="M68.1868 27.1026C68.2372 26.9432 68.4628 26.9432 68.5132 27.1026L69.3333 29.6939C69.4009 29.9074 69.599 30.0526 69.8229 30.0526L72.4957 30.0526C72.6604 30.0526 72.7301 30.2625 72.598 30.361L70.4204 31.9853C70.2451 32.116 70.1718 32.3434 70.2378 32.5519L71.0659 35.1685C71.1161 35.327 70.9336 35.4568 70.8003 35.3574L68.657 33.7587C68.4749 33.6228 68.2251 33.6228 68.0429 33.7587L65.8996 35.3574C65.7664 35.4568 65.5839 35.327 65.6341 35.1685L66.4622 32.5519C66.5281 32.3434 66.4549 32.116 66.2796 31.9853L64.102 30.361C63.9699 30.2625 64.0396 30.0526 64.2043 30.0526L66.877 30.0526C67.101 30.0526 67.2991 29.9074 67.3667 29.6939L68.1868 27.1026Z" stroke="black" stroke-width="0.342376"/>
<path d="M78.7339 27.1246C78.7837 26.964 79.011 26.964 79.0609 27.1246L79.8569 29.6911C79.9235 29.9061 80.1224 30.0526 80.3474 30.0526L82.956 30.0526C83.1199 30.0526 83.1901 30.2607 83.0597 30.36L80.9223 31.9868C80.7506 32.1175 80.6789 32.3415 80.7428 32.5476L81.5527 35.1589C81.602 35.318 81.4181 35.4467 81.2855 35.3458L79.2084 33.7648C79.0246 33.6249 78.7701 33.6249 78.5863 33.7648L76.5092 35.3458C76.3766 35.4467 76.1927 35.318 76.242 35.1589L77.0519 32.5476C77.1158 32.3415 77.0441 32.1175 76.8724 31.9868L74.735 30.36C74.6046 30.2607 74.6748 30.0526 74.8387 30.0526L77.4473 30.0526C77.6724 30.0526 77.8712 29.9061 77.9378 29.6911L78.7339 27.1246Z" stroke="black" stroke-width="0.342376"/>
</svg>
