<svg width="114" height="181" viewBox="0 0 114 181" fill="none" xmlns="http://www.w3.org/2000/svg">
<path d="M0 8.58676C0 3.85953 3.83218 0.0273438 8.55941 0.0273438H105.11C109.837 0.0273438 113.669 3.85952 113.669 8.58676V172.243C113.669 176.97 109.837 180.802 105.11 180.802H8.55941C3.83218 180.802 0 176.97 0 172.243V8.58676Z" fill="#D9D9D9"/>
<path d="M0 8.58676C0 3.85953 3.83218 0.0273438 8.55941 0.0273438H105.11C109.837 0.0273438 113.669 3.85952 113.669 8.58676V27.0751H0V8.58676Z" fill="#9D9D9D"/>
<path d="M0 173.955H113.669C113.669 177.737 110.603 180.803 106.821 180.803H6.84754C3.06575 180.803 0 177.737 0 173.955Z" fill="#9D9D9D"/>
<line x1="8.21875" y1="70.7272" x2="105.454" y2="70.7272" stroke="black" stroke-width="0.342376"/>
<line x1="8.21875" y1="87.1628" x2="105.454" y2="87.1628" stroke="black" stroke-width="0.342376"/>
<line x1="8.21875" y1="103.596" x2="105.454" y2="103.596" stroke="black" stroke-width="0.342376"/>
<line x1="8.21875" y1="120.03" x2="105.454" y2="120.03" stroke="black" stroke-width="0.342376"/>
<line x1="8.21875" y1="136.464" x2="105.454" y2="136.464" stroke="black" stroke-width="0.342376"/>
<line x1="8.21875" y1="152.899" x2="105.454" y2="152.899" stroke="black" stroke-width="0.342376"/>
<path d="M10.2584 92.334V89.8141H10.9157C11.6895 89.8141 12.1277 90.2421 12.1277 91.0638C12.1277 91.8855 11.6895 92.334 10.9363 92.334H10.2584ZM10.6589 92.0087H10.8849C11.4259 92.0087 11.7203 91.6903 11.7203 91.0638C11.7203 90.4372 11.4259 90.1359 10.8849 90.1359H10.6589V92.0087ZM12.2702 92.334L13.1021 89.8141H13.5643L14.3963 92.334H13.9752L13.5712 90.9679C13.4856 90.694 13.4103 90.4098 13.3315 90.1291H13.3178C13.2425 90.4133 13.1672 90.694 13.0816 90.9679L12.6742 92.334H12.2702ZM12.7392 91.6184V91.3069H13.917V91.6184H12.7392ZM14.9981 92.334V90.1496H14.2586V89.8141H16.1383V90.1496H15.3987V92.334H14.9981ZM16.5776 92.334V89.8141H18.0704V90.1496H16.9782V90.8481H17.8992V91.187H16.9782V91.9985H18.108V92.334H16.5776Z" fill="black"/>
<path d="M10.2584 108.768V106.248H11.0253C11.5868 106.248 11.9874 106.439 11.9874 107.011C11.9874 107.562 11.5868 107.812 11.039 107.812H10.6589V108.768H10.2584ZM10.6589 107.494H11.0013C11.4019 107.494 11.5936 107.34 11.5936 107.011C11.5936 106.676 11.3882 106.57 10.9842 106.57H10.6589V107.494ZM12.4785 108.768V106.248H12.879V108.432H13.9473V108.768H12.4785ZM14.0456 108.768L14.8775 106.248H15.3397L16.1717 108.768H15.7506L15.3466 107.401C15.261 107.128 15.1857 106.843 15.1069 106.563H15.0932C15.0179 106.847 14.9426 107.128 14.857 107.401L14.4496 108.768H14.0456ZM14.5146 108.052V107.74H15.6924V108.052H14.5146ZM17.4332 108.816C16.8032 108.816 16.3136 108.343 16.3136 107.514C16.3136 106.693 16.8169 106.203 17.4537 106.203C17.7687 106.203 18.0118 106.354 18.1659 106.518L17.9536 106.775C17.8235 106.641 17.666 106.549 17.4606 106.549C17.0258 106.549 16.7245 106.912 16.7245 107.501C16.7245 108.1 17.0052 108.466 17.4503 108.466C17.6797 108.466 17.8577 108.364 18.005 108.199L18.2207 108.449C18.0187 108.685 17.7619 108.816 17.4332 108.816ZM18.664 108.768V106.248H20.1567V106.583H19.0646V107.282H19.9856V107.621H19.0646V108.432H20.1944V108.768H18.664Z" fill="black"/>
<path d="M9.92969 125.201L10.7617 122.681H11.2239L12.0558 125.201H11.6347L11.2307 123.835C11.1451 123.561 11.0698 123.277 10.9911 122.996H10.9774C10.902 123.28 10.8267 123.561 10.7411 123.835L10.3337 125.201H9.92969ZM10.3987 124.486V124.174H11.5765V124.486H10.3987ZM12.3882 125.201V122.681H13.0456C13.8193 122.681 14.2576 123.109 14.2576 123.931C14.2576 124.753 13.8193 125.201 13.0661 125.201H12.3882ZM12.7888 124.876H13.0147C13.5557 124.876 13.8501 124.558 13.8501 123.931C13.8501 123.304 13.5557 123.003 13.0147 123.003H12.7888V124.876ZM14.7822 125.201V122.681H15.2409L15.6997 123.958C15.7613 124.123 15.8127 124.294 15.8709 124.465H15.8846C15.9462 124.294 15.9942 124.123 16.0489 123.958L16.5043 122.681H16.9631V125.201H16.5967V123.958C16.5967 123.729 16.6276 123.407 16.6481 123.178H16.6344L16.429 123.76L15.9907 124.962H15.7442L15.306 123.76L15.104 123.178H15.0903C15.1108 123.407 15.1416 123.729 15.1416 123.958V125.201H14.7822ZM17.6241 125.201V122.681H18.0247V125.201H17.6241ZM19.4031 125.249C19.0539 125.249 18.7355 125.112 18.5061 124.879L18.7389 124.602C18.9169 124.783 19.1669 124.9 19.41 124.9C19.7112 124.9 19.8824 124.76 19.8824 124.544C19.8824 124.314 19.7112 124.243 19.4784 124.143L19.1292 123.989C18.8861 123.89 18.6191 123.698 18.6191 123.332C18.6191 122.935 18.9649 122.637 19.4442 122.637C19.7421 122.637 20.0194 122.76 20.2077 122.955L20.0023 123.205C19.8448 123.068 19.6667 122.983 19.4442 122.983C19.1874 122.983 19.0231 123.106 19.0231 123.304C19.0231 123.52 19.2251 123.602 19.4305 123.688L19.7763 123.832C20.0742 123.958 20.2899 124.143 20.2899 124.513C20.2899 124.917 19.9543 125.249 19.4031 125.249ZM21.4159 125.249C21.0667 125.249 20.7483 125.112 20.5189 124.879L20.7517 124.602C20.9297 124.783 21.1797 124.9 21.4228 124.9C21.724 124.9 21.8952 124.76 21.8952 124.544C21.8952 124.314 21.724 124.243 21.4912 124.143L21.142 123.989C20.8989 123.89 20.6319 123.698 20.6319 123.332C20.6319 122.935 20.9777 122.637 21.457 122.637C21.7549 122.637 22.0322 122.76 22.2205 122.955L22.0151 123.205C21.8576 123.068 21.6795 122.983 21.457 122.983C21.2002 122.983 21.0359 123.106 21.0359 123.304C21.0359 123.52 21.2379 123.602 21.4433 123.688L21.7891 123.832C22.087 123.958 22.3027 124.143 22.3027 124.513C22.3027 124.917 21.9671 125.249 21.4159 125.249ZM22.7765 125.201V122.681H23.1771V125.201H22.7765ZM24.7951 125.249C24.1446 125.249 23.6961 124.746 23.6961 123.931C23.6961 123.12 24.1446 122.637 24.7951 122.637C25.4422 122.637 25.8907 123.12 25.8907 123.931C25.8907 124.746 25.4422 125.249 24.7951 125.249ZM24.7951 124.9C25.2128 124.9 25.4833 124.52 25.4833 123.931C25.4833 123.342 25.2128 122.983 24.7951 122.983C24.374 122.983 24.107 123.342 24.107 123.931C24.107 124.52 24.374 124.9 24.7951 124.9ZM26.4143 125.201V122.681H26.8217L27.6605 124.164L27.9241 124.694H27.9413C27.9173 124.438 27.8865 124.13 27.8865 123.859V122.681H28.2665V125.201H27.8557L27.0237 123.719L26.7601 123.188H26.7429C26.7601 123.452 26.7943 123.739 26.7943 124.017V125.201H26.4143Z" fill="black"/>
<path d="M11.241 141.683C10.611 141.683 10.1214 141.21 10.1214 140.382C10.1214 139.56 10.6247 139.07 11.2615 139.07C11.5765 139.07 11.8196 139.221 11.9737 139.385L11.7614 139.642C11.6313 139.509 11.4738 139.416 11.2684 139.416C10.8336 139.416 10.5323 139.779 10.5323 140.368C10.5323 140.967 10.813 141.333 11.2581 141.333C11.4875 141.333 11.6655 141.231 11.8128 141.066L12.0285 141.316C11.8265 141.553 11.5697 141.683 11.241 141.683ZM13.3001 141.683C12.6496 141.683 12.2011 141.179 12.2011 140.365C12.2011 139.553 12.6496 139.07 13.3001 139.07C13.9472 139.07 14.3957 139.553 14.3957 140.365C14.3957 141.179 13.9472 141.683 13.3001 141.683ZM13.3001 141.333C13.7178 141.333 13.9883 140.953 13.9883 140.365C13.9883 139.776 13.7178 139.416 13.3001 139.416C12.879 139.416 12.6119 139.776 12.6119 140.365C12.6119 140.953 12.879 141.333 13.3001 141.333ZM14.9192 141.635V139.115H15.378L15.8368 140.392C15.8984 140.556 15.9498 140.727 16.008 140.899H16.0217C16.0833 140.727 16.1312 140.556 16.186 140.392L16.6414 139.115H17.1002V141.635H16.7338V140.392C16.7338 140.163 16.7646 139.841 16.7852 139.611H16.7715L16.5661 140.193L16.1278 141.395H15.8813L15.4431 140.193L15.2411 139.611H15.2274C15.2479 139.841 15.2787 140.163 15.2787 140.392V141.635H14.9192ZM17.7612 141.635V139.115H18.5282C19.0896 139.115 19.4902 139.307 19.4902 139.878C19.4902 140.43 19.0896 140.68 18.5418 140.68H18.1618V141.635H17.7612ZM18.1618 140.361H18.5042C18.9048 140.361 19.0965 140.207 19.0965 139.878C19.0965 139.543 18.8911 139.437 18.4871 139.437H18.1618V140.361ZM19.4487 141.635L20.2807 139.115H20.7429L21.5748 141.635H21.1537L20.7497 140.269C20.6641 139.995 20.5888 139.711 20.5101 139.43H20.4964C20.421 139.714 20.3457 139.995 20.2601 140.269L19.8527 141.635H19.4487ZM19.9177 140.919V140.608H21.0955V140.919H19.9177ZM21.9072 141.635V139.115H22.3146L23.1534 140.597L23.4171 141.128H23.4342C23.4102 140.871 23.3794 140.563 23.3794 140.293V139.115H23.7595V141.635H23.3486L22.5166 140.152L22.253 139.622H22.2359C22.253 139.885 22.2872 140.173 22.2872 140.45V141.635H21.9072ZM24.4215 141.635V139.115H24.8221V141.635H24.4215ZM26.4402 141.683C25.7896 141.683 25.3411 141.179 25.3411 140.365C25.3411 139.553 25.7896 139.07 26.4402 139.07C27.0872 139.07 27.5358 139.553 27.5358 140.365C27.5358 141.179 27.0872 141.683 26.4402 141.683ZM26.4402 141.333C26.8578 141.333 27.1283 140.953 27.1283 140.365C27.1283 139.776 26.8578 139.416 26.4402 139.416C26.019 139.416 25.752 139.776 25.752 140.365C25.752 140.953 26.019 141.333 26.4402 141.333ZM28.0593 141.635V139.115H28.4667L29.3055 140.597L29.5692 141.128H29.5863C29.5623 140.871 29.5315 140.563 29.5315 140.293V139.115H29.9115V141.635H29.5007L28.6687 140.152L28.4051 139.622H28.388C28.4051 139.885 28.4393 140.173 28.4393 140.45V141.635H28.0593Z" fill="black"/>
<path d="M10.2584 75.8984V73.3785H11.0253C11.5868 73.3785 11.9874 73.5703 11.9874 74.142C11.9874 74.6933 11.5868 74.9432 11.039 74.9432H10.6589V75.8984H10.2584ZM10.6589 74.6248H11.0013C11.4019 74.6248 11.5936 74.4707 11.5936 74.142C11.5936 73.8065 11.3882 73.7004 10.9842 73.7004H10.6589V74.6248ZM13.4405 75.9464C12.79 75.9464 12.3415 75.4431 12.3415 74.6282C12.3415 73.8168 12.79 73.334 13.4405 73.334C14.0876 73.334 14.5361 73.8168 14.5361 74.6282C14.5361 75.4431 14.0876 75.9464 13.4405 75.9464ZM13.4405 75.5971C13.8582 75.5971 14.1287 75.2171 14.1287 74.6282C14.1287 74.0393 13.8582 73.6798 13.4405 73.6798C13.0194 73.6798 12.7524 74.0393 12.7524 74.6282C12.7524 75.2171 13.0194 75.5971 13.4405 75.5971ZM15.0597 75.8984V73.3785H15.8266C16.3881 73.3785 16.7887 73.5703 16.7887 74.142C16.7887 74.6933 16.3881 74.9432 15.8403 74.9432H15.4602V75.8984H15.0597ZM15.4602 74.6248H15.8026C16.2032 74.6248 16.3949 74.4707 16.3949 74.142C16.3949 73.8065 16.1895 73.7004 15.7855 73.7004H15.4602V74.6248ZM18.2076 75.9464C17.6461 75.9464 17.2695 75.6382 17.2695 74.82V73.3785H17.6666V74.8439C17.6666 75.4123 17.8926 75.5971 18.2076 75.5971C18.5226 75.5971 18.7588 75.4123 18.7588 74.8439V73.3785H19.1423V74.82C19.1423 75.6382 18.7657 75.9464 18.2076 75.9464ZM19.7907 75.8984V73.3785H20.5577C21.1192 73.3785 21.5197 73.5703 21.5197 74.142C21.5197 74.6933 21.1192 74.9432 20.5714 74.9432H20.1913V75.8984H19.7907ZM20.1913 74.6248H20.5337C20.9343 74.6248 21.126 74.4707 21.126 74.142C21.126 73.8065 20.9206 73.7004 20.5166 73.7004H20.1913V74.6248ZM22.7799 75.8984V73.3785H23.1873L24.0261 74.861L24.2897 75.3917H24.3069C24.2829 75.1349 24.2521 74.8268 24.2521 74.5563V73.3785H24.6321V75.8984H24.2213L23.3893 74.4159L23.1257 73.8853H23.1085C23.1257 74.1489 23.1599 74.4365 23.1599 74.7138V75.8984H22.7799ZM24.9655 75.8984L25.7975 73.3785H26.2597L27.0917 75.8984H26.6705L26.2665 74.5324C26.1809 74.2585 26.1056 73.9743 26.0269 73.6935H26.0132C25.9378 73.9777 25.8625 74.2585 25.7769 74.5324L25.3695 75.8984H24.9655ZM25.4346 75.1829V74.8713H26.6123V75.1829H25.4346ZM27.424 75.8984V73.3785H27.8828L28.3416 74.6556C28.4032 74.82 28.4546 74.9911 28.5128 75.1623H28.5265C28.5881 74.9911 28.636 74.82 28.6908 74.6556L29.1462 73.3785H29.6049V75.8984H29.2386V74.6556C29.2386 74.4262 29.2694 74.1044 29.29 73.875H29.2763L29.0708 74.457L28.6326 75.6588H28.3861L27.9478 74.457L27.7458 73.875H27.7321C27.7527 74.1044 27.7835 74.4262 27.7835 74.6556V75.8984H27.424ZM30.266 75.8984V73.3785H31.7588V73.7141H30.6666V74.4125H31.5876V74.7515H30.6666V75.5629H31.7964V75.8984H30.266Z" fill="black"/>
</svg>
