<svg width="115" height="181" viewBox="0 0 115 181" fill="none" xmlns="http://www.w3.org/2000/svg">
<rect x="0.671875" width="113.669" height="180.775" rx="8.55941" fill="#D9D9D9"/>
<line x1="8.89062" y1="97.0632" x2="106.126" y2="97.0632" stroke="black" stroke-width="0.342376"/>
<line x1="8.89062" y1="113.497" x2="106.126" y2="113.497" stroke="black" stroke-width="0.342376"/>
<line x1="8.89062" y1="129.932" x2="106.126" y2="129.932" stroke="black" stroke-width="0.342376"/>
<line x1="8.89062" y1="146.366" x2="106.126" y2="146.366" stroke="black" stroke-width="0.342376"/>
<line x1="8.89062" y1="162.8" x2="106.126" y2="162.8" stroke="black" stroke-width="0.342376"/>
<path d="M10.7837 110.082V106.05H11.8355C13.0735 106.05 13.7747 106.735 13.7747 108.05C13.7747 109.364 13.0735 110.082 11.8684 110.082H10.7837ZM11.4246 109.562H11.7862C12.6517 109.562 13.1228 109.052 13.1228 108.05C13.1228 107.047 12.6517 106.565 11.7862 106.565H11.4246V109.562ZM13.7287 110.082L15.0598 106.05H15.7993L17.1305 110.082H16.4567L15.8103 107.896C15.6734 107.458 15.5528 107.003 15.4268 106.554H15.4049C15.2844 107.009 15.1639 107.458 15.0269 107.896L14.3751 110.082H13.7287ZM14.4791 108.937V108.439H16.3636V108.937H14.4791ZM17.8195 110.082V106.587H16.6363V106.05H19.6437V106.587H18.4605V110.082H17.8195ZM20.0728 110.082V106.05H22.4612V106.587H20.7137V107.705H22.1873V108.247H20.7137V109.545H22.5215V110.082H20.0728Z" fill="black"/>
<path d="M10.7837 126.516V122.484H12.0108C12.9092 122.484 13.5501 122.791 13.5501 123.705C13.5501 124.587 12.9092 124.987 12.0327 124.987H11.4246V126.516H10.7837ZM11.4246 124.478H11.9724C12.6134 124.478 12.9201 124.231 12.9201 123.705C12.9201 123.169 12.5915 122.999 11.945 122.999H11.4246V124.478ZM14.062 126.516V122.484H14.7029V125.979H16.412V126.516H14.062ZM16.2954 126.516L17.6266 122.484H18.3661L19.6973 126.516H19.0235L18.3771 124.33C18.2401 123.892 18.1196 123.437 17.9936 122.988H17.9717C17.8512 123.442 17.7306 123.892 17.5937 124.33L16.9418 126.516H16.2954ZM17.0459 125.371V124.872H18.9303V125.371H17.0459ZM21.4417 126.592C20.4338 126.592 19.6504 125.836 19.6504 124.511C19.6504 123.196 20.4557 122.413 21.4746 122.413C21.9786 122.413 22.3675 122.654 22.614 122.917L22.2744 123.327C22.0662 123.114 21.8142 122.966 21.4855 122.966C20.7898 122.966 20.3078 123.547 20.3078 124.489C20.3078 125.447 20.757 126.034 21.4691 126.034C21.8361 126.034 22.121 125.869 22.3565 125.606L22.7017 126.006C22.3785 126.384 21.9676 126.592 21.4417 126.592ZM23.1371 126.516V122.484H25.5255V123.021H23.778V124.138H25.2516V124.68H23.778V125.979H25.5857V126.516H23.1371Z" fill="black"/>
<path d="M10.2578 142.951L11.589 138.919H12.3285L13.6597 142.951H12.9859L12.3395 140.765C12.2025 140.327 12.082 139.873 11.956 139.423H11.9341C11.8136 139.878 11.6931 140.327 11.5561 140.765L10.9042 142.951H10.2578ZM11.0083 141.806V141.308H12.8927V141.806H11.0083ZM13.9175 142.951V138.919H14.9693C16.2073 138.919 16.9085 139.604 16.9085 140.919C16.9085 142.234 16.2073 142.951 15.0022 142.951H13.9175ZM14.5584 142.431H14.92C15.7855 142.431 16.2566 141.921 16.2566 140.919C16.2566 139.916 15.7855 139.434 14.92 139.434H14.5584V142.431ZM17.474 142.951V138.919H18.208L18.9421 140.963C19.0407 141.226 19.1228 141.499 19.216 141.773H19.2379C19.3365 141.499 19.4132 141.226 19.5008 140.963L20.2294 138.919H20.9635V142.951H20.3773V140.963C20.3773 140.596 20.4266 140.081 20.4595 139.714H20.4376L20.1089 140.645L19.4077 142.568H19.0133L18.3121 140.645L17.9889 139.714H17.967C17.9998 140.081 18.0491 140.596 18.0491 140.963V142.951H17.474ZM21.7472 142.951V138.919H22.3882V142.951H21.7472ZM24.3197 143.028C23.7609 143.028 23.2515 142.809 22.8844 142.436L23.2569 141.993C23.5418 142.283 23.9417 142.469 24.3306 142.469C24.8127 142.469 25.0866 142.245 25.0866 141.899C25.0866 141.532 24.8127 141.417 24.4402 141.258L23.8814 141.012C23.4925 140.853 23.0652 140.546 23.0652 139.96C23.0652 139.325 23.6185 138.848 24.3854 138.848C24.862 138.848 25.3057 139.045 25.607 139.358L25.2783 139.757C25.0263 139.538 24.7415 139.401 24.3854 139.401C23.9746 139.401 23.7116 139.599 23.7116 139.916C23.7116 140.261 24.0348 140.393 24.3635 140.53L24.9168 140.76C25.3934 140.963 25.7385 141.258 25.7385 141.85C25.7385 142.496 25.2016 143.028 24.3197 143.028ZM27.2663 143.028C26.7075 143.028 26.198 142.809 25.831 142.436L26.2035 141.993C26.4884 142.283 26.8883 142.469 27.2772 142.469C27.7593 142.469 28.0332 142.245 28.0332 141.899C28.0332 141.532 27.7593 141.417 27.3868 141.258L26.828 141.012C26.4391 140.853 26.0118 140.546 26.0118 139.96C26.0118 139.325 26.5651 138.848 27.332 138.848C27.8086 138.848 28.2523 139.045 28.5536 139.358L28.2249 139.757C27.9729 139.538 27.6881 139.401 27.332 139.401C26.9211 139.401 26.6582 139.599 26.6582 139.916C26.6582 140.261 26.9814 140.393 27.3101 140.53L27.8634 140.76C28.34 140.963 28.6851 141.258 28.6851 141.85C28.6851 142.496 28.1482 143.028 27.2663 143.028ZM29.1693 142.951V138.919H29.8102V142.951H29.1693ZM32.1252 143.028C31.0844 143.028 30.3668 142.223 30.3668 140.919C30.3668 139.621 31.0844 138.848 32.1252 138.848C33.1606 138.848 33.8782 139.621 33.8782 140.919C33.8782 142.223 33.1606 143.028 32.1252 143.028ZM32.1252 142.469C32.7935 142.469 33.2263 141.861 33.2263 140.919C33.2263 139.977 32.7935 139.401 32.1252 139.401C31.4514 139.401 31.0241 139.977 31.0241 140.919C31.0241 141.861 31.4514 142.469 32.1252 142.469ZM34.4419 142.951V138.919H35.0938L36.4359 141.291L36.8577 142.14H36.8851C36.8468 141.73 36.7975 141.237 36.7975 140.804V138.919H37.4055V142.951H36.7482L35.417 140.579L34.9952 139.73H34.9678C34.9952 140.152 35.05 140.612 35.05 141.056V142.951H34.4419Z" fill="black"/>
<path d="M12.3559 159.461C11.3479 159.461 10.5646 158.705 10.5646 157.38C10.5646 156.065 11.3699 155.282 12.3888 155.282C12.8927 155.282 13.2817 155.523 13.5282 155.786L13.1886 156.197C12.9804 155.983 12.7284 155.835 12.3997 155.835C11.704 155.835 11.2219 156.416 11.2219 157.358C11.2219 158.317 11.6711 158.903 12.3833 158.903C12.7503 158.903 13.0352 158.738 13.2707 158.475L13.6158 158.875C13.2926 159.253 12.8818 159.461 12.3559 159.461ZM15.3766 159.461C14.3358 159.461 13.6182 158.656 13.6182 157.352C13.6182 156.054 14.3358 155.282 15.3766 155.282C16.4119 155.282 17.1296 156.054 17.1296 157.352C17.1296 158.656 16.4119 159.461 15.3766 159.461ZM15.3766 158.903C16.0449 158.903 16.4777 158.295 16.4777 157.352C16.4777 156.41 16.0449 155.835 15.3766 155.835C14.7028 155.835 14.2755 156.41 14.2755 157.352C14.2755 158.295 14.7028 158.903 15.3766 158.903ZM17.6933 159.385V155.353H18.4273L19.1614 157.396C19.26 157.659 19.3422 157.933 19.4353 158.207H19.4572C19.5558 157.933 19.6325 157.659 19.7202 157.396L20.4487 155.353H21.1828V159.385H20.5966V157.396C20.5966 157.029 20.6459 156.514 20.6788 156.147H20.6569L20.3282 157.079L19.627 159.001H19.2326L18.5314 157.079L18.2082 156.147H18.1863C18.2192 156.514 18.2685 157.029 18.2685 157.396V159.385H17.6933ZM21.9666 159.385V155.353H23.1937C24.092 155.353 24.733 155.66 24.733 156.575C24.733 157.457 24.092 157.856 23.2156 157.856H22.6075V159.385H21.9666ZM22.6075 157.347H23.1553C23.7962 157.347 24.103 157.1 24.103 156.575C24.103 156.038 23.7743 155.868 23.1279 155.868H22.6075V157.347ZM24.3926 159.385L25.7238 155.353H26.4633L27.7945 159.385H27.1207L26.4743 157.199C26.3373 156.761 26.2168 156.306 26.0908 155.857H26.0689C25.9484 156.312 25.8279 156.761 25.6909 157.199L25.039 159.385H24.3926ZM25.1431 158.24V157.741H27.0275V158.24H25.1431ZM28.0523 159.385V155.353H28.7042L30.0463 157.725L30.4681 158.574H30.4955C30.4572 158.163 30.4079 157.67 30.4079 157.237V155.353H31.0159V159.385H30.3586L29.0274 157.013L28.6056 156.164H28.5782C28.6056 156.585 28.6604 157.046 28.6604 157.489V159.385H28.0523ZM31.8013 159.385V155.353H32.4423V159.385H31.8013ZM34.7572 159.461C33.7164 159.461 32.9988 158.656 32.9988 157.352C32.9988 156.054 33.7164 155.282 34.7572 155.282C35.7926 155.282 36.5102 156.054 36.5102 157.352C36.5102 158.656 35.7926 159.461 34.7572 159.461ZM34.7572 158.903C35.4256 158.903 35.8583 158.295 35.8583 157.352C35.8583 156.41 35.4256 155.835 34.7572 155.835C34.0834 155.835 33.6562 156.41 33.6562 157.352C33.6562 158.295 34.0834 158.903 34.7572 158.903ZM37.0739 159.385V155.353H37.7258L39.0679 157.725L39.4897 158.574H39.5171C39.4788 158.163 39.4295 157.67 39.4295 157.237V155.353H40.0375V159.385H39.3802L38.049 157.013L37.6272 156.164H37.5998C37.6272 156.585 37.682 157.046 37.682 157.489V159.385H37.0739Z" fill="black"/>
<path d="M10.7837 93.6484V89.6166H12.0108C12.9092 89.6166 13.5501 89.9234 13.5501 90.8382C13.5501 91.7202 12.9092 92.1201 12.0327 92.1201H11.4246V93.6484H10.7837ZM11.4246 91.6106H11.9724C12.6134 91.6106 12.9201 91.3641 12.9201 90.8382C12.9201 90.3014 12.5915 90.1315 11.945 90.1315H11.4246V91.6106ZM15.6013 93.7251C14.5605 93.7251 13.8428 92.9199 13.8428 91.6161C13.8428 90.3178 14.5605 89.5454 15.6013 89.5454C16.6366 89.5454 17.3542 90.3178 17.3542 91.6161C17.3542 92.9199 16.6366 93.7251 15.6013 93.7251ZM15.6013 93.1664C16.2696 93.1664 16.7024 92.5583 16.7024 91.6161C16.7024 90.6739 16.2696 90.0987 15.6013 90.0987C14.9275 90.0987 14.5002 90.6739 14.5002 91.6161C14.5002 92.5583 14.9275 93.1664 15.6013 93.1664ZM17.918 93.6484V89.6166H19.145C20.0434 89.6166 20.6844 89.9234 20.6844 90.8382C20.6844 91.7202 20.0434 92.1201 19.167 92.1201H18.5589V93.6484H17.918ZM18.5589 91.6106H19.1067C19.7476 91.6106 20.0544 91.3641 20.0544 90.8382C20.0544 90.3014 19.7257 90.1315 19.0793 90.1315H18.5589V91.6106ZM22.6808 93.7251C21.7824 93.7251 21.1798 93.2321 21.1798 91.9229V89.6166H21.8152V91.9612C21.8152 92.8706 22.1768 93.1664 22.6808 93.1664C23.1847 93.1664 23.5627 92.8706 23.5627 91.9612V89.6166H24.1763V91.9229C24.1763 93.2321 23.5737 93.7251 22.6808 93.7251ZM24.9399 93.6484V89.6166H26.167C27.0654 89.6166 27.7063 89.9234 27.7063 90.8382C27.7063 91.7202 27.0654 92.1201 26.1889 92.1201H25.5808V93.6484H24.9399ZM25.5808 91.6106H26.1286C26.7696 91.6106 27.0763 91.3641 27.0763 90.8382C27.0763 90.3014 26.7476 90.1315 26.1012 90.1315H25.5808V91.6106ZM29.1747 93.6484V89.6166H29.8266L31.1687 91.9886L31.5905 92.8377H31.6179C31.5795 92.4268 31.5302 91.9338 31.5302 91.5011V89.6166H32.1383V93.6484H31.4809L30.1498 91.2765L29.7279 90.4274H29.7006C29.7279 90.8492 29.7827 91.3093 29.7827 91.753V93.6484H29.1747ZM32.3978 93.6484L33.729 89.6166H34.4685L35.7997 93.6484H35.1259L34.4794 91.4627C34.3425 91.0245 34.222 90.5698 34.096 90.1206H34.0741C33.9536 90.5753 33.833 91.0245 33.6961 91.4627L33.0442 93.6484H32.3978ZM33.1483 92.5035V92.005H35.0327V92.5035H33.1483ZM36.0575 93.6484V89.6166H36.7916L37.5256 91.6599C37.6242 91.9229 37.7064 92.1968 37.7995 92.4707H37.8214C37.92 92.1968 37.9967 91.9229 38.0844 91.6599L38.8129 89.6166H39.547V93.6484H38.9609V91.6599C38.9609 91.2929 39.0102 90.778 39.043 90.4109H39.0211L38.6924 91.3422L37.9912 93.265H37.5968L36.8956 91.3422L36.5724 90.4109H36.5505C36.5834 90.778 36.6327 91.2929 36.6327 91.6599V93.6484H36.0575ZM40.3308 93.6484V89.6166H42.7192V90.1535H40.9717V91.271H42.4453V91.8133H40.9717V93.1116H42.7795V93.6484H40.3308Z" fill="black"/>
<path d="M69.7149 168.185C69.7647 168.025 69.9921 168.025 70.0419 168.185L70.4969 169.652C70.5636 169.867 70.7624 170.014 70.9874 170.014H72.4925C72.6564 170.014 72.7266 170.222 72.5962 170.321L71.3516 171.268C71.1799 171.399 71.1082 171.623 71.1721 171.829L71.641 173.341C71.6903 173.5 71.5063 173.629 71.3738 173.528L70.1895 172.626C70.0057 172.486 69.7512 172.486 69.5674 172.626L68.3831 173.528C68.2505 173.629 68.0665 173.5 68.1159 173.341L68.5848 171.829C68.6487 171.623 68.577 171.399 68.4053 171.268L67.1607 170.321C67.0303 170.222 67.1005 170.014 67.2644 170.014H68.7694C68.9945 170.014 69.1933 169.867 69.2599 169.652L69.7149 168.185Z" fill="#4AC7CF" stroke="black" stroke-width="0.342376"/>
<path d="M77.2697 168.163C77.3201 168.004 77.5456 168.004 77.5961 168.163L78.0682 169.655C78.1358 169.868 78.3339 170.014 78.5578 170.014H80.1045C80.2692 170.014 80.3389 170.223 80.2068 170.322L78.9402 171.267C78.7649 171.398 78.6917 171.625 78.7576 171.833L79.2378 173.35C79.2879 173.509 79.1055 173.639 78.9722 173.539L77.7399 172.62C77.5578 172.484 77.308 172.484 77.1258 172.62L75.8935 173.539C75.7603 173.639 75.5778 173.509 75.628 173.35L76.1081 171.833C76.1741 171.625 76.1008 171.398 75.9255 171.267L74.6589 170.322C74.5269 170.223 74.5965 170.014 74.7613 170.014H76.3079C76.5318 170.014 76.73 169.868 76.7975 169.655L77.2697 168.163Z" fill="black" stroke="black" stroke-width="0.342376"/>
<path d="M84.9025 168.163C84.9529 168.004 85.1784 168.004 85.2289 168.163L85.701 169.655C85.7686 169.868 85.9667 170.014 86.1907 170.014H87.7373C87.902 170.014 87.9717 170.223 87.8396 170.322L86.573 171.267C86.3977 171.398 86.3245 171.625 86.3904 171.833L86.8706 173.35C86.9207 173.509 86.7383 173.639 86.605 173.539L85.3727 172.62C85.1906 172.484 84.9408 172.484 84.7586 172.62L83.5264 173.539C83.3931 173.639 83.2106 173.509 83.2608 173.35L83.7409 171.833C83.8069 171.625 83.7336 171.398 83.5583 171.267L82.2917 170.322C82.1597 170.223 82.2293 170.014 82.3941 170.014H83.9407C84.1646 170.014 84.3628 169.868 84.4303 169.655L84.9025 168.163Z" fill="black" stroke="black" stroke-width="0.342376"/>
<path d="M92.5275 168.163C92.5779 168.004 92.8034 168.004 92.8539 168.163L93.326 169.655C93.3936 169.868 93.5917 170.014 93.8157 170.014H95.3623C95.527 170.014 95.5967 170.223 95.4646 170.322L94.198 171.267C94.0227 171.398 93.9495 171.625 94.0154 171.833L94.4956 173.35C94.5457 173.509 94.3633 173.639 94.23 173.539L92.9977 172.62C92.8156 172.484 92.5658 172.484 92.3836 172.62L91.1514 173.539C91.0181 173.639 90.8356 173.509 90.8858 173.35L91.3659 171.833C91.4319 171.625 91.3586 171.398 91.1833 171.267L89.9167 170.322C89.7847 170.223 89.8543 170.014 90.0191 170.014H91.5657C91.7896 170.014 91.9878 169.868 92.0553 169.655L92.5275 168.163Z" stroke="black" stroke-width="0.342376"/>
<path d="M100.082 168.185C100.132 168.025 100.359 168.025 100.409 168.185L100.864 169.652C100.931 169.867 101.13 170.014 101.355 170.014H102.86C103.024 170.014 103.094 170.222 102.963 170.321L101.719 171.268C101.547 171.399 101.475 171.623 101.539 171.829L102.008 173.341C102.057 173.5 101.874 173.629 101.741 173.528L100.557 172.626C100.373 172.486 100.118 172.486 99.9346 172.626L98.7503 173.528C98.6177 173.629 98.4337 173.5 98.4831 173.341L98.9519 171.829C99.0159 171.623 98.9442 171.399 98.7725 171.268L97.5279 170.321C97.3975 170.222 97.4677 170.014 97.6316 170.014H99.1366C99.3616 170.014 99.5605 169.867 99.6271 169.652L100.082 168.185Z" stroke="black" stroke-width="0.342376"/>
<path d="M69.7149 168.185C69.7647 168.025 69.9921 168.025 70.0419 168.185L70.4969 169.652C70.5636 169.867 70.7624 170.014 70.9874 170.014H72.4925C72.6564 170.014 72.7266 170.222 72.5962 170.321L71.3516 171.268C71.1799 171.399 71.1082 171.623 71.1721 171.829L71.641 173.341C71.6903 173.5 71.5063 173.629 71.3738 173.528L70.1895 172.626C70.0057 172.486 69.7512 172.486 69.5674 172.626L68.3831 173.528C68.2505 173.629 68.0665 173.5 68.1159 173.341L68.5848 171.829C68.6487 171.623 68.577 171.399 68.4053 171.268L67.1607 170.321C67.0303 170.222 67.1005 170.014 67.2644 170.014H68.7694C68.9945 170.014 69.1933 169.867 69.2599 169.652L69.7149 168.185Z" fill="black" stroke="black" stroke-width="0.342376"/>
<path d="M77.2697 168.163C77.3201 168.004 77.5456 168.004 77.5961 168.163L78.0682 169.655C78.1358 169.868 78.3339 170.014 78.5578 170.014H80.1045C80.2692 170.014 80.3389 170.223 80.2068 170.322L78.9402 171.267C78.7649 171.398 78.6917 171.625 78.7576 171.833L79.2378 173.35C79.2879 173.509 79.1055 173.639 78.9722 173.539L77.7399 172.62C77.5578 172.484 77.308 172.484 77.1258 172.62L75.8935 173.539C75.7603 173.639 75.5778 173.509 75.628 173.35L76.1081 171.833C76.1741 171.625 76.1008 171.398 75.9255 171.267L74.6589 170.322C74.5269 170.223 74.5965 170.014 74.7613 170.014H76.3079C76.5318 170.014 76.73 169.868 76.7975 169.655L77.2697 168.163Z" fill="black" stroke="black" stroke-width="0.342376"/>
<path d="M84.9025 168.163C84.9529 168.004 85.1784 168.004 85.2289 168.163L85.701 169.655C85.7686 169.868 85.9667 170.014 86.1907 170.014H87.7373C87.902 170.014 87.9717 170.223 87.8396 170.322L86.573 171.267C86.3977 171.398 86.3245 171.625 86.3904 171.833L86.8706 173.35C86.9207 173.509 86.7383 173.639 86.605 173.539L85.3727 172.62C85.1906 172.484 84.9408 172.484 84.7586 172.62L83.5264 173.539C83.3931 173.639 83.2106 173.509 83.2608 173.35L83.7409 171.833C83.8069 171.625 83.7336 171.398 83.5583 171.267L82.2917 170.322C82.1597 170.223 82.2293 170.014 82.3941 170.014H83.9407C84.1646 170.014 84.3628 169.868 84.4303 169.655L84.9025 168.163Z" fill="black" stroke="black" stroke-width="0.342376"/>
<path d="M92.5275 168.163C92.5779 168.004 92.8034 168.004 92.8539 168.163L93.326 169.655C93.3936 169.868 93.5917 170.014 93.8157 170.014H95.3623C95.527 170.014 95.5967 170.223 95.4646 170.322L94.198 171.267C94.0227 171.398 93.9495 171.625 94.0154 171.833L94.4956 173.35C94.5457 173.509 94.3633 173.639 94.23 173.539L92.9977 172.62C92.8156 172.484 92.5658 172.484 92.3836 172.62L91.1514 173.539C91.0181 173.639 90.8356 173.509 90.8858 173.35L91.3659 171.833C91.4319 171.625 91.3586 171.398 91.1833 171.267L89.9167 170.322C89.7847 170.223 89.8543 170.014 90.0191 170.014H91.5657C91.7896 170.014 91.9878 169.868 92.0553 169.655L92.5275 168.163Z" stroke="black" stroke-width="0.342376"/>
<path d="M100.082 168.185C100.132 168.025 100.359 168.025 100.409 168.185L100.864 169.652C100.931 169.867 101.13 170.014 101.355 170.014H102.86C103.024 170.014 103.094 170.222 102.963 170.321L101.719 171.268C101.547 171.399 101.475 171.623 101.539 171.829L102.008 173.341C102.057 173.5 101.874 173.629 101.741 173.528L100.557 172.626C100.373 172.486 100.118 172.486 99.9346 172.626L98.7503 173.528C98.6177 173.629 98.4337 173.5 98.4831 173.341L98.9519 171.829C99.0159 171.623 98.9442 171.399 98.7725 171.268L97.5279 170.321C97.3975 170.222 97.4677 170.014 97.6316 170.014H99.1366C99.3616 170.014 99.5605 169.867 99.6271 169.652L100.082 168.185Z" stroke="black" stroke-width="0.342376"/>
<path d="M0.671875 8.55942C0.671875 3.83219 4.50405 0 9.23129 0H105.781C110.509 0 114.341 3.83218 114.341 8.55941V79.6025L0.671875 34.4088V8.55942Z" fill="#9D9D9D"/>
</svg>
