<svg width="115" height="181" viewBox="0 0 115 181" fill="none" xmlns="http://www.w3.org/2000/svg">
<rect x="0.34375" y="0.0273438" width="113.669" height="180.775" rx="8.55941" fill="#9D9D9D"/>
<rect x="6.84375" y="7.2168" width="100.659" height="166.395" rx="8.55941" fill="#D9D9D9"/>
<path d="M35.9448 44.2711C35.9946 44.1104 36.222 44.1104 36.2718 44.2711L37.0678 46.8376C37.1345 47.0525 37.3333 47.199 37.5583 47.199L40.1669 47.199C40.3308 47.199 40.401 47.4072 40.2706 47.5064L38.1332 49.1333C37.9615 49.264 37.8898 49.488 37.9538 49.6941L38.7636 52.3053C38.813 52.4645 38.629 52.5932 38.4964 52.4923L36.4193 50.9113C36.2356 50.7714 35.981 50.7714 35.7973 50.9113L33.7202 52.4923C33.5876 52.5932 33.4036 52.4645 33.453 52.3053L34.2628 49.6941C34.3268 49.488 34.2551 49.264 34.0834 49.1333L31.946 47.5064C31.8156 47.4072 31.8858 47.199 32.0497 47.199L34.6583 47.199C34.8833 47.199 35.0821 47.0525 35.1488 46.8376L35.9448 44.2711Z" fill="#4AC7CF" stroke="black" stroke-width="0.342376"/>
<path d="M46.5071 44.2491C46.5575 44.0897 46.7831 44.0897 46.8335 44.2491L47.6536 46.8404C47.7212 47.0539 47.9193 47.199 48.1432 47.199L50.816 47.199C50.9807 47.199 51.0504 47.4089 50.9183 47.5074L48.7407 49.1318C48.5654 49.2625 48.4921 49.4899 48.5581 49.6984L49.3862 52.315C49.4364 52.4735 49.2539 52.6033 49.1207 52.5039L46.9774 50.9052C46.7952 50.7693 46.5454 50.7693 46.3632 50.9052L44.2199 52.5039C44.0867 52.6033 43.9042 52.4735 43.9544 52.315L44.7825 49.6984C44.8485 49.4899 44.7752 49.2625 44.5999 49.1318L42.4223 47.5074C42.2902 47.4089 42.3599 47.199 42.5246 47.199L45.1973 47.199C45.4213 47.199 45.6194 47.0539 45.687 46.8404L46.5071 44.2491Z" fill="black" stroke="black" stroke-width="0.342376"/>
<path d="M57.179 44.2491C57.2294 44.0897 57.4549 44.0897 57.5054 44.2491L58.3255 46.8404C58.3931 47.0539 58.5912 47.199 58.8151 47.199L61.4878 47.199C61.6526 47.199 61.7222 47.4089 61.5902 47.5074L59.4126 49.1318C59.2373 49.2625 59.164 49.4899 59.23 49.6984L60.0581 52.315C60.1083 52.4735 59.9258 52.6033 59.7925 52.5039L57.6492 50.9052C57.4671 50.7693 57.2173 50.7693 57.0351 50.9052L54.8918 52.5039C54.7585 52.6033 54.5761 52.4735 54.6263 52.315L55.4544 49.6984C55.5203 49.4899 55.4471 49.2625 55.2718 49.1318L53.0941 47.5074C52.9621 47.4089 53.0318 47.199 53.1965 47.199L55.8692 47.199C56.0932 47.199 56.2913 47.0539 56.3588 46.8404L57.179 44.2491Z" fill="black" stroke="black" stroke-width="0.342376"/>
<path d="M67.8508 44.2491C67.9013 44.0897 68.1268 44.0897 68.1773 44.2491L68.9974 46.8404C69.0649 47.0539 69.2631 47.199 69.487 47.199L72.1597 47.199C72.3245 47.199 72.3941 47.4089 72.2621 47.5074L70.0844 49.1318C69.9092 49.2625 69.8359 49.4899 69.9019 49.6984L70.73 52.315C70.7801 52.4735 70.5977 52.6033 70.4644 52.5039L68.3211 50.9052C68.1389 50.7693 67.8891 50.7693 67.707 50.9052L65.5637 52.5039C65.4304 52.6033 65.248 52.4735 65.2981 52.315L66.1262 49.6984C66.1922 49.4899 66.1189 49.2625 65.9437 49.1318L63.766 47.5074C63.634 47.4089 63.7036 47.199 63.8684 47.199L66.5411 47.199C66.765 47.199 66.9632 47.0539 67.0307 46.8404L67.8508 44.2491Z" stroke="black" stroke-width="0.342376"/>
<path d="M78.3979 44.2711C78.4477 44.1104 78.6751 44.1104 78.7249 44.2711L79.5209 46.8376C79.5876 47.0525 79.7864 47.199 80.0115 47.199L82.6201 47.199C82.784 47.199 82.8542 47.4072 82.7237 47.5064L80.5863 49.1333C80.4147 49.264 80.343 49.488 80.4069 49.6941L81.2168 52.3053C81.2661 52.4645 81.0821 52.5932 80.9496 52.4923L78.8725 50.9113C78.6887 50.7714 78.4342 50.7714 78.2504 50.9113L76.1733 52.4923C76.0407 52.5932 75.8567 52.4645 75.9061 52.3053L76.716 49.6941C76.7799 49.488 76.7082 49.264 76.5365 49.1333L74.3991 47.5064C74.2687 47.4072 74.3389 47.199 74.5028 47.199L77.1114 47.199C77.3364 47.199 77.5352 47.0525 77.6019 46.8376L78.3979 44.2711Z" stroke="black" stroke-width="0.342376"/>
<path d="M35.9448 44.2711C35.9946 44.1104 36.222 44.1104 36.2718 44.2711L37.0678 46.8376C37.1345 47.0525 37.3333 47.199 37.5583 47.199L40.1669 47.199C40.3308 47.199 40.401 47.4072 40.2706 47.5064L38.1332 49.1333C37.9615 49.264 37.8898 49.488 37.9538 49.6941L38.7636 52.3053C38.813 52.4645 38.629 52.5932 38.4964 52.4923L36.4193 50.9113C36.2356 50.7714 35.981 50.7714 35.7973 50.9113L33.7202 52.4923C33.5876 52.5932 33.4036 52.4645 33.453 52.3053L34.2628 49.6941C34.3268 49.488 34.2551 49.264 34.0834 49.1333L31.946 47.5064C31.8156 47.4072 31.8858 47.199 32.0497 47.199L34.6583 47.199C34.8833 47.199 35.0821 47.0525 35.1488 46.8376L35.9448 44.2711Z" fill="black" stroke="black" stroke-width="0.342376"/>
<path d="M46.5071 44.2491C46.5575 44.0897 46.7831 44.0897 46.8335 44.2491L47.6536 46.8404C47.7212 47.0539 47.9193 47.199 48.1432 47.199L50.816 47.199C50.9807 47.199 51.0504 47.4089 50.9183 47.5074L48.7407 49.1318C48.5654 49.2625 48.4921 49.4899 48.5581 49.6984L49.3862 52.315C49.4364 52.4735 49.2539 52.6033 49.1207 52.5039L46.9774 50.9052C46.7952 50.7693 46.5454 50.7693 46.3632 50.9052L44.2199 52.5039C44.0867 52.6033 43.9042 52.4735 43.9544 52.315L44.7825 49.6984C44.8485 49.4899 44.7752 49.2625 44.5999 49.1318L42.4223 47.5074C42.2902 47.4089 42.3599 47.199 42.5246 47.199L45.1973 47.199C45.4213 47.199 45.6194 47.0539 45.687 46.8404L46.5071 44.2491Z" fill="black" stroke="black" stroke-width="0.342376"/>
<path d="M57.179 44.2491C57.2294 44.0897 57.4549 44.0897 57.5054 44.2491L58.3255 46.8404C58.3931 47.0539 58.5912 47.199 58.8151 47.199L61.4878 47.199C61.6526 47.199 61.7222 47.4089 61.5902 47.5074L59.4126 49.1318C59.2373 49.2625 59.164 49.4899 59.23 49.6984L60.0581 52.315C60.1083 52.4735 59.9258 52.6033 59.7925 52.5039L57.6492 50.9052C57.4671 50.7693 57.2173 50.7693 57.0351 50.9052L54.8918 52.5039C54.7585 52.6033 54.5761 52.4735 54.6263 52.315L55.4544 49.6984C55.5203 49.4899 55.4471 49.2625 55.2718 49.1318L53.0941 47.5074C52.9621 47.4089 53.0318 47.199 53.1965 47.199L55.8692 47.199C56.0932 47.199 56.2913 47.0539 56.3588 46.8404L57.179 44.2491Z" fill="black" stroke="black" stroke-width="0.342376"/>
<path d="M67.8508 44.2491C67.9013 44.0897 68.1268 44.0897 68.1773 44.2491L68.9974 46.8404C69.0649 47.0539 69.2631 47.199 69.487 47.199L72.1597 47.199C72.3245 47.199 72.3941 47.4089 72.2621 47.5074L70.0844 49.1318C69.9092 49.2625 69.8359 49.4899 69.9019 49.6984L70.73 52.315C70.7801 52.4735 70.5977 52.6033 70.4644 52.5039L68.3211 50.9052C68.1389 50.7693 67.8891 50.7693 67.707 50.9052L65.5637 52.5039C65.4304 52.6033 65.248 52.4735 65.2981 52.315L66.1262 49.6984C66.1922 49.4899 66.1189 49.2625 65.9437 49.1318L63.766 47.5074C63.634 47.4089 63.7036 47.199 63.8684 47.199L66.5411 47.199C66.765 47.199 66.9632 47.0539 67.0307 46.8404L67.8508 44.2491Z" stroke="black" stroke-width="0.342376"/>
<path d="M78.3979 44.2711C78.4477 44.1104 78.6751 44.1104 78.7249 44.2711L79.5209 46.8376C79.5876 47.0525 79.7864 47.199 80.0115 47.199L82.6201 47.199C82.784 47.199 82.8542 47.4072 82.7237 47.5064L80.5863 49.1333C80.4147 49.264 80.343 49.488 80.4069 49.6941L81.2168 52.3053C81.2661 52.4645 81.0821 52.5932 80.9496 52.4923L78.8725 50.9113C78.6887 50.7714 78.4342 50.7714 78.2504 50.9113L76.1733 52.4923C76.0407 52.5932 75.8567 52.4645 75.9061 52.3053L76.716 49.6941C76.7799 49.488 76.7082 49.264 76.5365 49.1333L74.3991 47.5064C74.2687 47.4072 74.3389 47.199 74.5028 47.199L77.1114 47.199C77.3364 47.199 77.5352 47.0525 77.6019 46.8376L78.3979 44.2711Z" stroke="black" stroke-width="0.342376"/>
<line x1="13.3516" y1="82.3679" x2="101" y2="82.3679" stroke="black" stroke-width="0.342376"/>
<line x1="13.3516" y1="98.8034" x2="101" y2="98.8034" stroke="black" stroke-width="0.342376"/>
<line x1="13.3516" y1="115.237" x2="101" y2="115.237" stroke="black" stroke-width="0.342376"/>
<line x1="13.3516" y1="131.671" x2="101" y2="131.671" stroke="black" stroke-width="0.342376"/>
<line x1="13.3516" y1="148.106" x2="101" y2="148.106" stroke="black" stroke-width="0.342376"/>
<path d="M15.2525 95.3867V91.3549H16.3042C17.5423 91.3549 18.2435 92.0396 18.2435 93.3544C18.2435 94.6691 17.5423 95.3867 16.3371 95.3867H15.2525ZM15.8934 94.8663H16.2549C17.1205 94.8663 17.5916 94.3569 17.5916 93.3544C17.5916 92.3519 17.1205 91.8698 16.2549 91.8698H15.8934V94.8663ZM18.1974 95.3867L19.5286 91.3549H20.2681L21.5993 95.3867H20.9255L20.2791 93.201C20.1421 92.7627 20.0216 92.3081 19.8956 91.8589H19.8737C19.7532 92.3135 19.6326 92.7627 19.4957 93.201L18.8438 95.3867H18.1974ZM18.9479 94.2418V93.7433H20.8323V94.2418H18.9479ZM22.2883 95.3867V91.8917H21.105V91.3549H24.1125V91.8917H22.9292V95.3867H22.2883ZM24.5416 95.3867V91.3549H26.93V91.8917H25.1825V93.0093H26.6561V93.5516H25.1825V94.8499H26.9902V95.3867H24.5416Z" fill="black"/>
<path d="M15.2525 111.822V107.79H16.4795C17.3779 107.79 18.0189 108.097 18.0189 109.012C18.0189 109.894 17.3779 110.294 16.5014 110.294H15.8934V111.822H15.2525ZM15.8934 109.784H16.4412C17.0821 109.784 17.3889 109.538 17.3889 109.012C17.3889 108.475 17.0602 108.305 16.4138 108.305H15.8934V109.784ZM18.5307 111.822V107.79H19.1716V111.285H20.8808V111.822H18.5307ZM20.7642 111.822L22.0953 107.79H22.8348L24.166 111.822H23.4922L22.8458 109.637C22.7089 109.198 22.5883 108.744 22.4623 108.294H22.4404C22.3199 108.749 22.1994 109.198 22.0624 109.637L21.4106 111.822H20.7642ZM21.5146 110.677V110.179H23.3991V110.677H21.5146ZM25.9105 111.899C24.9025 111.899 24.1191 111.143 24.1191 109.817C24.1191 108.503 24.9244 107.719 25.9433 107.719C26.4473 107.719 26.8362 107.96 27.0828 108.223L26.7431 108.634C26.535 108.42 26.283 108.273 25.9543 108.273C25.2586 108.273 24.7765 108.853 24.7765 109.795C24.7765 110.754 25.2257 111.34 25.9378 111.34C26.3049 111.34 26.5897 111.176 26.8253 110.913L27.1704 111.313C26.8472 111.691 26.4364 111.899 25.9105 111.899ZM27.6058 111.822V107.79H29.9942V108.327H28.2468V109.445H29.7203V109.987H28.2468V111.285H30.0545V111.822H27.6058Z" fill="black"/>
<path d="M14.7266 128.256L16.0577 124.224H16.7973L18.1284 128.256H17.4546L16.8082 126.07C16.6713 125.632 16.5507 125.177 16.4247 124.728H16.4028C16.2823 125.183 16.1618 125.632 16.0249 126.07L15.373 128.256H14.7266ZM15.4771 127.111V126.612H17.3615V127.111H15.4771ZM18.3863 128.256V124.224H19.438C20.6761 124.224 21.3773 124.909 21.3773 126.224C21.3773 127.538 20.6761 128.256 19.4709 128.256H18.3863ZM19.0272 127.735H19.3887C20.2543 127.735 20.7254 127.226 20.7254 126.224C20.7254 125.221 20.2543 124.739 19.3887 124.739H19.0272V127.735ZM21.9427 128.256V124.224H22.6768L23.4108 126.267C23.5094 126.53 23.5916 126.804 23.6847 127.078H23.7066C23.8052 126.804 23.8819 126.53 23.9696 126.267L24.6981 124.224H25.4322V128.256H24.8461V126.267C24.8461 125.9 24.8954 125.385 24.9282 125.018H24.9063L24.5776 125.95L23.8764 127.872H23.482L22.7808 125.95L22.4576 125.018H22.4357C22.4686 125.385 22.5179 125.9 22.5179 126.267V128.256H21.9427ZM26.216 128.256V124.224H26.8569V128.256H26.216ZM28.7884 128.333C28.2297 128.333 27.7202 128.113 27.3532 127.741L27.7257 127.297C28.0106 127.588 28.4105 127.774 28.7994 127.774C29.2815 127.774 29.5554 127.549 29.5554 127.204C29.5554 126.837 29.2815 126.722 28.909 126.563L28.3502 126.317C27.9613 126.158 27.534 125.851 27.534 125.265C27.534 124.629 28.0872 124.153 28.8542 124.153C29.3308 124.153 29.7745 124.35 30.0758 124.662L29.7471 125.062C29.4951 124.843 29.2102 124.706 28.8542 124.706C28.4433 124.706 28.1804 124.903 28.1804 125.221C28.1804 125.566 28.5036 125.698 28.8323 125.835L29.3855 126.065C29.8621 126.267 30.2072 126.563 30.2072 127.155C30.2072 127.801 29.6704 128.333 28.7884 128.333ZM31.735 128.333C31.1763 128.333 30.6668 128.113 30.2998 127.741L30.6723 127.297C30.9571 127.588 31.357 127.774 31.746 127.774C32.228 127.774 32.5019 127.549 32.5019 127.204C32.5019 126.837 32.228 126.722 31.8555 126.563L31.2968 126.317C30.9078 126.158 30.4805 125.851 30.4805 125.265C30.4805 124.629 31.0338 124.153 31.8007 124.153C32.2773 124.153 32.7211 124.35 33.0223 124.662L32.6937 125.062C32.4417 124.843 32.1568 124.706 31.8007 124.706C31.3899 124.706 31.127 124.903 31.127 125.221C31.127 125.566 31.4502 125.698 31.7788 125.835L32.3321 126.065C32.8087 126.267 33.1538 126.563 33.1538 127.155C33.1538 127.801 32.617 128.333 31.735 128.333ZM33.6381 128.256V124.224H34.279V128.256H33.6381ZM36.594 128.333C35.5531 128.333 34.8355 127.527 34.8355 126.224C34.8355 124.925 35.5531 124.153 36.594 124.153C37.6293 124.153 38.3469 124.925 38.3469 126.224C38.3469 127.527 37.6293 128.333 36.594 128.333ZM36.594 127.774C37.2623 127.774 37.6951 127.166 37.6951 126.224C37.6951 125.281 37.2623 124.706 36.594 124.706C35.9202 124.706 35.4929 125.281 35.4929 126.224C35.4929 127.166 35.9202 127.774 36.594 127.774ZM38.9107 128.256V124.224H39.5626L40.9047 126.596L41.3265 127.445H41.3539C41.3155 127.034 41.2662 126.541 41.2662 126.108V124.224H41.8743V128.256H41.2169L39.8858 125.884L39.4639 125.035H39.4366C39.4639 125.457 39.5187 125.917 39.5187 126.36V128.256H38.9107Z" fill="black"/>
<path d="M16.8246 144.766C15.8167 144.766 15.0333 144.01 15.0333 142.684C15.0333 141.37 15.8386 140.586 16.8575 140.586C17.3615 140.586 17.7504 140.827 17.9969 141.09L17.6573 141.501C17.4491 141.288 17.1972 141.14 16.8685 141.14C16.1728 141.14 15.6907 141.72 15.6907 142.663C15.6907 143.621 16.1399 144.207 16.852 144.207C17.2191 144.207 17.5039 144.043 17.7395 143.78L18.0846 144.18C17.7614 144.558 17.3505 144.766 16.8246 144.766ZM19.8453 144.766C18.8045 144.766 18.0869 143.961 18.0869 142.657C18.0869 141.359 18.8045 140.586 19.8453 140.586C20.8807 140.586 21.5983 141.359 21.5983 142.657C21.5983 143.961 20.8807 144.766 19.8453 144.766ZM19.8453 144.207C20.5137 144.207 20.9464 143.599 20.9464 142.657C20.9464 141.715 20.5137 141.14 19.8453 141.14C19.1716 141.14 18.7443 141.715 18.7443 142.657C18.7443 143.599 19.1716 144.207 19.8453 144.207ZM22.162 144.689V140.658H22.8961L23.6301 142.701C23.7288 142.964 23.8109 143.238 23.904 143.512H23.926C24.0246 143.238 24.1013 142.964 24.1889 142.701L24.9175 140.658H25.6515V144.689H25.0654V142.701C25.0654 142.334 25.1147 141.819 25.1476 141.452H25.1256L24.797 142.383L24.0958 144.306H23.7014L23.0002 142.383L22.677 141.452H22.6551C22.6879 141.819 22.7372 142.334 22.7372 142.701V144.689H22.162ZM26.4353 144.689V140.658H27.6624C28.5608 140.658 29.2017 140.964 29.2017 141.879C29.2017 142.761 28.5608 143.161 27.6843 143.161H27.0763V144.689H26.4353ZM27.0763 142.652H27.6241C28.265 142.652 28.5718 142.405 28.5718 141.879C28.5718 141.342 28.2431 141.173 27.5967 141.173H27.0763V142.652ZM28.8614 144.689L30.1925 140.658H30.9321L32.2632 144.689H31.5894L30.943 142.504C30.8061 142.065 30.6855 141.611 30.5595 141.162H30.5376C30.4171 141.616 30.2966 142.065 30.1597 142.504L29.5078 144.689H28.8614ZM29.6118 143.545V143.046H31.4963V143.545H29.6118ZM32.5211 144.689V140.658H33.1729L34.5151 143.03L34.9369 143.879H34.9643C34.9259 143.468 34.8766 142.975 34.8766 142.542V140.658H35.4847V144.689H34.8273L33.4962 142.317L33.0743 141.468H33.047C33.0743 141.89 33.1291 142.35 33.1291 142.794V144.689H32.5211ZM36.2701 144.689V140.658H36.911V144.689H36.2701ZM39.226 144.766C38.1852 144.766 37.4675 143.961 37.4675 142.657C37.4675 141.359 38.1852 140.586 39.226 140.586C40.2613 140.586 40.979 141.359 40.979 142.657C40.979 143.961 40.2613 144.766 39.226 144.766ZM39.226 144.207C39.8943 144.207 40.3271 143.599 40.3271 142.657C40.3271 141.715 39.8943 141.14 39.226 141.14C38.5522 141.14 38.1249 141.715 38.1249 142.657C38.1249 143.599 38.5522 144.207 39.226 144.207ZM41.5427 144.689V140.658H42.1946L43.5367 143.03L43.9585 143.879H43.9859C43.9475 143.468 43.8982 142.975 43.8982 142.542V140.658H44.5063V144.689H43.8489L42.5178 142.317L42.096 141.468H42.0686C42.096 141.89 42.1507 142.35 42.1507 142.794V144.689H41.5427Z" fill="black"/>
<path d="M15.2525 78.9531V74.9213H16.4795C17.3779 74.9213 18.0189 75.2281 18.0189 76.1429C18.0189 77.0249 17.3779 77.4248 16.5014 77.4248H15.8934V78.9531H15.2525ZM15.8934 76.9153H16.4412C17.0821 76.9153 17.3889 76.6688 17.3889 76.1429C17.3889 75.6061 17.0602 75.4362 16.4138 75.4362H15.8934V76.9153ZM20.07 79.0298C19.0292 79.0298 18.3116 78.2245 18.3116 76.9208C18.3116 75.6225 19.0292 74.8501 20.07 74.8501C21.1054 74.8501 21.823 75.6225 21.823 76.9208C21.823 78.2245 21.1054 79.0298 20.07 79.0298ZM20.07 78.4711C20.7384 78.4711 21.1711 77.863 21.1711 76.9208C21.1711 75.9786 20.7384 75.4034 20.07 75.4034C19.3962 75.4034 18.9689 75.9786 18.9689 76.9208C18.9689 77.863 19.3962 78.4711 20.07 78.4711ZM22.3867 78.9531V74.9213H23.6138C24.5122 74.9213 25.1531 75.2281 25.1531 76.1429C25.1531 77.0249 24.5122 77.4248 23.6357 77.4248H23.0277V78.9531H22.3867ZM23.0277 76.9153H23.5755C24.2164 76.9153 24.5232 76.6688 24.5232 76.1429C24.5232 75.6061 24.1945 75.4362 23.5481 75.4362H23.0277V76.9153ZM27.1495 79.0298C26.2511 79.0298 25.6485 78.5368 25.6485 77.2275V74.9213H26.284V77.2659C26.284 78.1752 26.6455 78.4711 27.1495 78.4711C27.6535 78.4711 28.0315 78.1752 28.0315 77.2659V74.9213H28.645V77.2275C28.645 78.5368 28.0424 79.0298 27.1495 79.0298ZM29.4086 78.9531V74.9213H30.6357C31.5341 74.9213 32.1751 75.2281 32.1751 76.1429C32.1751 77.0249 31.5341 77.4248 30.6576 77.4248H30.0496V78.9531H29.4086ZM30.0496 76.9153H30.5974C31.2383 76.9153 31.5451 76.6688 31.5451 76.1429C31.5451 75.6061 31.2164 75.4362 30.57 75.4362H30.0496V76.9153ZM33.6434 78.9531V74.9213H34.2953L35.6374 77.2933L36.0592 78.1424H36.0866C36.0483 77.7315 35.999 77.2385 35.999 76.8057V74.9213H36.607V78.9531H35.9497L34.6185 76.5811L34.1967 75.732H34.1693C34.1967 76.1539 34.2515 76.614 34.2515 77.0577V78.9531H33.6434ZM36.8665 78.9531L38.1977 74.9213H38.9372L40.2684 78.9531H39.5946L38.9482 76.7674C38.8112 76.3292 38.6907 75.8745 38.5647 75.4253H38.5428C38.4223 75.88 38.3018 76.3292 38.1648 76.7674L37.513 78.9531H36.8665ZM37.617 77.8082V77.3097H39.5015V77.8082H37.617ZM40.5263 78.9531V74.9213H41.2603L41.9944 76.9646C42.093 77.2275 42.1751 77.5014 42.2683 77.7754H42.2902C42.3888 77.5014 42.4655 77.2275 42.5531 76.9646L43.2817 74.9213H44.0158V78.9531H43.4296V76.9646C43.4296 76.5976 43.4789 76.0826 43.5118 75.7156H43.4899L43.1612 76.6469L42.46 78.5697H42.0656L41.3644 76.6469L41.0412 75.7156H41.0193C41.0521 76.0826 41.1014 76.5976 41.1014 76.9646V78.9531H40.5263ZM44.7995 78.9531V74.9213H47.188V75.4581H45.4405V76.5757H46.9141V77.118H45.4405V78.4163H47.2482V78.9531H44.7995Z" fill="black"/>
</svg>
